<?xml version="1.0" encoding="UTF-8"?>
<!DOCTYPE svg PUBLIC "-//W3C//DTD SVG 1.1//EN"
  "http://www.w3.org/Graphics/SVG/1.1/DTD/svg11.dtd">
<svg xmlns="http://www.w3.org/2000/svg" xmlns:xlink="http://www.w3.org/1999/xlink"   viewBox="0.00 0.00 900.00 600.00">
<!-- Created by OpenEye Scientific Software -->
<!-- Creation Date Thu Mar 18 12:47:26 2021 -->
<rect width="900.00" height="600.00" fill="white" />
<rect x="180" y="0" width="720" height="600" fill="white" />
<text x="540.00" y="52.50" fill="black" font-family="Arial" font-size="45" font-style="normal" font-weight="normal" text-anchor="middle">  MOL </text>
<line x1="590.54" y1="460.53" x2="565.35" y2="446.08" stroke="black" stroke-width="3" stroke-linejoin="round" stroke-linecap="round" />
<line x1="589.57" y1="452.89" x2="572.43" y2="443.06" stroke="black" stroke-width="3" stroke-linejoin="round" stroke-linecap="round" />
<line x1="590.54" y1="460.53" x2="615.73" y2="446.08" stroke="black" stroke-width="3" stroke-linejoin="round" stroke-linecap="round" />
<line x1="565.35" y1="446.08" x2="565.35" y2="416.89" stroke="black" stroke-width="3" stroke-linejoin="round" stroke-linecap="round" />
<line x1="565.35" y1="416.89" x2="549.25" y2="407.66" stroke="black" stroke-width="3" stroke-linejoin="round" stroke-linecap="round" />
<line x1="565.35" y1="416.89" x2="590.54" y2="402.14" stroke="black" stroke-width="3" stroke-linejoin="round" stroke-linecap="round" />
<line x1="572.48" y1="419.83" x2="589.61" y2="409.81" stroke="black" stroke-width="3" stroke-linejoin="round" stroke-linecap="round" />
<line x1="590.54" y1="402.14" x2="590.54" y2="373.10" stroke="black" stroke-width="3" stroke-linejoin="round" stroke-linecap="round" />
<line x1="590.54" y1="402.14" x2="615.73" y2="416.89" stroke="black" stroke-width="3" stroke-linejoin="round" stroke-linecap="round" />
<line x1="615.73" y1="416.89" x2="631.83" y2="407.66" stroke="black" stroke-width="3" stroke-linejoin="round" stroke-linecap="round" />
<line x1="615.73" y1="416.89" x2="615.73" y2="446.08" stroke="black" stroke-width="3" stroke-linejoin="round" stroke-linecap="round" />
<line x1="609.59" y1="421.56" x2="609.59" y2="441.41" stroke="black" stroke-width="3" stroke-linejoin="round" stroke-linecap="round" />
<line x1="592.08" y1="375.76" x2="609.02" y2="365.98" stroke="black" stroke-width="3" stroke-linejoin="round" stroke-linecap="round" />
<line x1="589.00" y1="370.44" x2="605.95" y2="360.66" stroke="black" stroke-width="3" stroke-linejoin="round" stroke-linecap="round" />
<line x1="590.54" y1="373.10" x2="572.71" y2="362.81" stroke="black" stroke-width="3" stroke-linejoin="round" stroke-linecap="round" />
<line x1="565.39" y1="350.12" x2="565.39" y2="329.54" stroke="black" stroke-width="3" stroke-linejoin="round" stroke-linecap="round" />
<line x1="565.39" y1="329.54" x2="590.58" y2="315.09" stroke="black" stroke-width="3" stroke-linejoin="round" stroke-linecap="round" />
<line x1="566.36" y1="321.89" x2="583.49" y2="312.07" stroke="black" stroke-width="3" stroke-linejoin="round" stroke-linecap="round" />
<line x1="565.39" y1="329.54" x2="540.19" y2="315.09" stroke="black" stroke-width="3" stroke-linejoin="round" stroke-linecap="round" />
<line x1="590.58" y1="315.09" x2="590.58" y2="285.89" stroke="black" stroke-width="3" stroke-linejoin="round" stroke-linecap="round" />
<line x1="590.58" y1="285.89" x2="572.69" y2="275.42" stroke="black" stroke-width="3" stroke-linejoin="round" stroke-linecap="round" />
<line x1="583.45" y1="288.84" x2="566.31" y2="278.81" stroke="black" stroke-width="3" stroke-linejoin="round" stroke-linecap="round" />
<line x1="558.09" y1="275.42" x2="540.19" y2="285.89" stroke="black" stroke-width="3" stroke-linejoin="round" stroke-linecap="round" />
<line x1="540.19" y1="285.89" x2="522.34" y2="275.66" stroke="black" stroke-width="3" stroke-linejoin="round" stroke-linecap="round" />
<line x1="540.19" y1="285.89" x2="540.19" y2="315.09" stroke="black" stroke-width="3" stroke-linejoin="round" stroke-linecap="round" />
<line x1="546.34" y1="290.57" x2="546.34" y2="310.42" stroke="black" stroke-width="3" stroke-linejoin="round" stroke-linecap="round" />
<line x1="514.97" y1="262.99" x2="514.91" y2="242.40" stroke="black" stroke-width="3" stroke-linejoin="round" stroke-linecap="round" />
<line x1="514.91" y1="242.40" x2="489.72" y2="227.96" stroke="black" stroke-width="3" stroke-linejoin="round" stroke-linecap="round" />
<line x1="516.46" y1="245.06" x2="533.38" y2="235.23" stroke="black" stroke-width="3" stroke-linejoin="round" stroke-linecap="round" />
<line x1="513.37" y1="239.75" x2="530.29" y2="229.91" stroke="black" stroke-width="3" stroke-linejoin="round" stroke-linecap="round" />
<line x1="439.07" y1="199.21" x2="439.33" y2="228.26" stroke="black" stroke-width="3" stroke-linejoin="round" stroke-linecap="round" />
<line x1="445.26" y1="203.81" x2="445.43" y2="223.56" stroke="black" stroke-width="3" stroke-linejoin="round" stroke-linecap="round" />
<line x1="439.07" y1="199.21" x2="464.27" y2="184.47" stroke="black" stroke-width="3" stroke-linejoin="round" stroke-linecap="round" />
<line x1="439.33" y1="228.26" x2="464.52" y2="242.70" stroke="black" stroke-width="3" stroke-linejoin="round" stroke-linecap="round" />
<line x1="464.52" y1="242.70" x2="489.72" y2="227.96" stroke="black" stroke-width="3" stroke-linejoin="round" stroke-linecap="round" />
<line x1="465.45" y1="235.04" x2="482.58" y2="225.01" stroke="black" stroke-width="3" stroke-linejoin="round" stroke-linecap="round" />
<line x1="489.72" y1="227.96" x2="489.72" y2="198.76" stroke="black" stroke-width="3" stroke-linejoin="round" stroke-linecap="round" />
<line x1="489.72" y1="198.76" x2="464.27" y2="184.47" stroke="black" stroke-width="3" stroke-linejoin="round" stroke-linecap="round" />
<line x1="482.64" y1="201.84" x2="465.33" y2="192.11" stroke="black" stroke-width="3" stroke-linejoin="round" stroke-linecap="round" />
<text x="640.93" y="406.40" fill="black" font-family="Arial" font-size="12" font-style="normal" font-weight="normal" text-anchor="middle">  Cl </text>
<text x="615.69" y="362.54" fill="black" font-family="Arial" font-size="12" font-style="normal" font-weight="normal" text-anchor="middle">  O </text>
<text x="565.39" y="362.54" fill="black" font-family="Arial" font-size="12" font-style="normal" font-weight="normal" text-anchor="middle">  N </text>
<text x="556.99" y="362.54" fill="black" font-family="Arial" font-size="12" font-style="normal" font-weight="normal" text-anchor="middle">  H </text>
<text x="565.39" y="275.11" fill="black" font-family="Arial" font-size="12" font-style="normal" font-weight="normal" text-anchor="middle">  N </text>
<text x="515.00" y="275.41" fill="black" font-family="Arial" font-size="12" font-style="normal" font-weight="normal" text-anchor="middle">  N </text>
<text x="506.60" y="275.41" fill="black" font-family="Arial" font-size="12" font-style="normal" font-weight="normal" text-anchor="middle">  H </text>
<text x="540.02" y="231.77" fill="black" font-family="Arial" font-size="12" font-style="normal" font-weight="normal" text-anchor="middle">  O </text>
<text x="540.15" y="406.40" fill="black" font-family="Arial" font-size="12" font-style="normal" font-weight="normal" text-anchor="middle">  Cl </text>
<path d = "M 625.53 474.93 A 37.83 37.83 0 0 1 555.55 474.93" fill = "none"  stroke="#bfbfbf" stroke-width="3" stroke-linejoin="round" stroke-linecap="round" />
<path d = "M 625.53 474.93 A 19.64 19.64 0 0 1 631.71 466.84" fill = "none"  stroke="#bfbfbf" stroke-width="3" stroke-linejoin="round" stroke-linecap="round" />
<path d = "M 641.54 450.57 A 26.19 26.19 0 0 1 631.71 466.84" fill = "none"  stroke="#bfbfbf" stroke-width="3" stroke-linejoin="round" stroke-linecap="round" />
<path d = "M 641.54 450.57 A 19.64 19.64 0 0 1 653.79 435.62" fill = "none"  stroke="#bfbfbf" stroke-width="3" stroke-linejoin="round" stroke-linecap="round" />
<path d = "M 653.79 369.27 A 35.58 35.58 0 0 1 653.79 435.62" fill = "none"  stroke="#bfbfbf" stroke-width="3" stroke-linejoin="round" stroke-linecap="round" />
<path d = "M 653.79 369.27 A 19.64 19.64 0 0 1 641.52 354.22" fill = "none"  stroke="#bfbfbf" stroke-width="3" stroke-linejoin="round" stroke-linecap="round" />
<path d = "M 632.88 338.82 A 26.19 26.19 0 0 1 641.52 354.22" fill = "none"  stroke="#bfbfbf" stroke-width="3" stroke-linejoin="round" stroke-linecap="round" />
<path d = "M 632.88 338.82 A 19.64 19.64 0 0 1 626.37 320.86" fill = "none"  stroke="#bfbfbf" stroke-width="3" stroke-linejoin="round" stroke-linecap="round" />
<path d = "M 622.60 298.08 A 36.25 36.25 0 0 1 626.37 320.86" fill = "none"  stroke="#bfbfbf" stroke-width="3" stroke-linejoin="round" stroke-linecap="round" />
<path d = "M 622.60 298.08 A 19.64 19.64 0 0 1 620.33 287.68" fill = "none"  stroke="#bfbfbf" stroke-width="3" stroke-linejoin="round" stroke-linecap="round" />
<path d = "M 593.62 256.24 A 29.81 29.81 0 0 1 620.33 287.68" fill = "none"  stroke="#bfbfbf" stroke-width="3" stroke-linejoin="round" stroke-linecap="round" />
<path d = "M 593.62 256.24 A 19.64 19.64 0 0 1 582.67 251.47" fill = "none"  stroke="#bfbfbf" stroke-width="3" stroke-linejoin="round" stroke-linecap="round" />
<path d = "M 577.05 247.70 A 26.19 26.19 0 0 1 582.67 251.47" fill = "none"  stroke="#bfbfbf" stroke-width="3" stroke-linejoin="round" stroke-linecap="round" />
<path d = "M 577.05 247.70 A 19.64 19.64 0 0 1 566.18 229.12" fill = "none"  stroke="#bfbfbf" stroke-width="3" stroke-linejoin="round" stroke-linecap="round" />
<path d = "M 535.78 201.96 A 26.19 26.19 0 0 1 566.18 229.12" fill = "none"  stroke="#bfbfbf" stroke-width="3" stroke-linejoin="round" stroke-linecap="round" />
<path d = "M 535.78 201.96 A 19.64 19.64 0 0 1 514.22 189.52" fill = "none"  stroke="#bfbfbf" stroke-width="3" stroke-linejoin="round" stroke-linecap="round" />
<path d = "M 494.61 173.03 A 26.19 26.19 0 0 1 514.22 189.52" fill = "none"  stroke="#bfbfbf" stroke-width="3" stroke-linejoin="round" stroke-linecap="round" />
<path d = "M 494.61 173.03 A 19.64 19.64 0 0 1 483.70 166.91" fill = "none"  stroke="#bfbfbf" stroke-width="3" stroke-linejoin="round" stroke-linecap="round" />
<path d = "M 449.94 162.55 A 26.19 26.19 0 0 1 483.70 166.91" fill = "none"  stroke="#bfbfbf" stroke-width="3" stroke-linejoin="round" stroke-linecap="round" />
<path d = "M 449.94 162.55 A 19.64 19.64 0 0 1 439.15 165.75" fill = "none"  stroke="#bfbfbf" stroke-width="3" stroke-linejoin="round" stroke-linecap="round" />
<path d = "M 410.37 216.43 A 19.64 19.64 0 0 1 413.15 227.27" fill = "none"  stroke="#bfbfbf" stroke-width="3" stroke-linejoin="round" stroke-linecap="round" />
<path d = "M 428.20 251.97 A 26.19 26.19 0 0 1 413.15 227.27" fill = "none"  stroke="#bfbfbf" stroke-width="3" stroke-linejoin="round" stroke-linecap="round" />
<path d = "M 428.20 251.97 A 19.64 19.64 0 0 1 436.66 259.58" fill = "none"  stroke="#bfbfbf" stroke-width="3" stroke-linejoin="round" stroke-linecap="round" />
<path d = "M 471.07 274.61 A 32.57 32.57 0 0 1 436.66 259.58" fill = "none"  stroke="#bfbfbf" stroke-width="3" stroke-linejoin="round" stroke-linecap="round" />
<path d = "M 471.07 274.61 A 19.64 19.64 0 0 1 492.15 284.25" fill = "none"  stroke="#bfbfbf" stroke-width="3" stroke-linejoin="round" stroke-linecap="round" />
<path d = "M 503.25 294.85 A 26.19 26.19 0 0 1 492.15 284.25" fill = "none"  stroke="#bfbfbf" stroke-width="3" stroke-linejoin="round" stroke-linecap="round" />
<path d = "M 503.25 294.85 A 19.64 19.64 0 0 1 514.05 313.56" fill = "none"  stroke="#bfbfbf" stroke-width="3" stroke-linejoin="round" stroke-linecap="round" />
<path d = "M 519.20 330.74 A 26.19 26.19 0 0 1 514.05 313.56" fill = "none"  stroke="#bfbfbf" stroke-width="3" stroke-linejoin="round" stroke-linecap="round" />
<path d = "M 519.20 330.74 A 19.64 19.64 0 0 1 522.67 338.46" fill = "none"  stroke="#bfbfbf" stroke-width="3" stroke-linejoin="round" stroke-linecap="round" />
<path d = "M 523.28 340.97 A 43.64 43.64 0 0 1 522.67 338.46" fill = "none"  stroke="#bfbfbf" stroke-width="3" stroke-linejoin="round" stroke-linecap="round" />
<path d = "M 523.28 340.97 A 19.64 19.64 0 0 1 523.57 350.04" fill = "none"  stroke="#bfbfbf" stroke-width="3" stroke-linejoin="round" stroke-linecap="round" />
<path d = "M 523.90 368.63 A 42.68 42.68 0 0 1 523.57 350.04" fill = "none"  stroke="#bfbfbf" stroke-width="3" stroke-linejoin="round" stroke-linecap="round" />
<path d = "M 523.90 368.63 A 19.64 19.64 0 0 1 519.96 385.76" fill = "none"  stroke="#bfbfbf" stroke-width="3" stroke-linejoin="round" stroke-linecap="round" />
<path d = "M 528.40 425.85 A 26.19 26.19 0 0 1 519.96 385.76" fill = "none"  stroke="#bfbfbf" stroke-width="3" stroke-linejoin="round" stroke-linecap="round" />
<path d = "M 528.40 425.85 A 19.64 19.64 0 0 1 539.20 444.55" fill = "none"  stroke="#bfbfbf" stroke-width="3" stroke-linejoin="round" stroke-linecap="round" />
<path d = "M 549.37 466.84 A 26.19 26.19 0 0 1 539.20 444.55" fill = "none"  stroke="#bfbfbf" stroke-width="3" stroke-linejoin="round" stroke-linecap="round" />
<path d = "M 549.37 466.84 A 19.64 19.64 0 0 1 555.55 474.93" fill = "none"  stroke="#bfbfbf" stroke-width="3" stroke-linejoin="round" stroke-linecap="round" />
<path d = "M 495.76 289.22 A 26.19 26.19 0 0 1 494.55 287.81" fill = "none"  stroke="#960000" stroke-opacity="0.20" stroke-width="3" stroke-linejoin="round" />
<path d = "M 494.55 287.81 A 26.19 26.19 0 0 1 493.43 286.31" fill = "none"  stroke="#960000" stroke-opacity="0.20" stroke-width="3" stroke-linejoin="round" />
<path d = "M 640.37 454.96 A 26.19 26.19 0 0 1 639.68 456.69" fill = "none"  stroke="#960000" stroke-opacity="0.20" stroke-width="3" stroke-linejoin="round" />
<path d = "M 639.68 456.69 A 26.19 26.19 0 0 1 638.86 458.37" fill = "none"  stroke="#960000" stroke-opacity="0.20" stroke-width="3" stroke-linejoin="round" />
<path d = "M 498.96 292.16 A 26.19 26.19 0 0 1 494.55 287.81" fill = "none"  stroke="#960000" stroke-opacity="0.20" stroke-width="3" stroke-linejoin="round" />
<path d = "M 494.55 287.81 A 26.19 26.19 0 0 1 492.15 284.25" fill = "none"  stroke="#960000" stroke-opacity="0.20" stroke-width="3" stroke-linejoin="round" />
<path d = "M 491.13 282.62 A 19.64 19.64 0 0 1 492.15 284.25" fill = "none"  stroke="#960000" stroke-opacity="0.20" stroke-width="3" stroke-linejoin="round" />
<path d = "M 641.50 450.77 A 26.19 26.19 0 0 1 639.68 456.69" fill = "none"  stroke="#960000" stroke-opacity="0.20" stroke-width="3" stroke-linejoin="round" />
<path d = "M 639.68 456.69 A 26.19 26.19 0 0 1 636.52 462.02" fill = "none"  stroke="#960000" stroke-opacity="0.20" stroke-width="3" stroke-linejoin="round" />
<path d = "M 502.61 294.52 A 26.19 26.19 0 0 1 494.55 287.81" fill = "none"  stroke="#960000" stroke-opacity="0.20" stroke-width="3" stroke-linejoin="round" />
<path d = "M 494.55 287.81 A 26.19 26.19 0 0 1 492.15 284.25" fill = "none"  stroke="#960000" stroke-opacity="0.20" stroke-width="3" stroke-linejoin="round" />
<path d = "M 488.27 279.36 A 19.64 19.64 0 0 1 492.15 284.25" fill = "none"  stroke="#960000" stroke-opacity="0.20" stroke-width="3" stroke-linejoin="round" />
<path d = "M 641.54 450.57 A 26.19 26.19 0 0 1 639.68 456.69" fill = "none"  stroke="#960000" stroke-opacity="0.20" stroke-width="3" stroke-linejoin="round" />
<path d = "M 641.54 450.57 A 19.64 19.64 0 0 1 642.67 446.59" fill = "none"  stroke="#960000" stroke-opacity="0.20" stroke-width="3" stroke-linejoin="round" />
<path d = "M 639.68 456.69 A 26.19 26.19 0 0 1 633.59 465.24" fill = "none"  stroke="#960000" stroke-opacity="0.20" stroke-width="3" stroke-linejoin="round" />
<path d = "M 503.25 294.85 A 26.19 26.19 0 0 1 494.55 287.81" fill = "none"  stroke="#960000" stroke-opacity="0.20" stroke-width="3" stroke-linejoin="round" />
<path d = "M 503.25 294.85 A 19.64 19.64 0 0 1 506.32 296.77" fill = "none"  stroke="#960000" stroke-opacity="0.20" stroke-width="3" stroke-linejoin="round" />
<path d = "M 494.55 287.81 A 26.19 26.19 0 0 1 492.15 284.25" fill = "none"  stroke="#960000" stroke-opacity="0.20" stroke-width="3" stroke-linejoin="round" />
<path d = "M 484.76 276.80 A 19.64 19.64 0 0 1 492.15 284.25" fill = "none"  stroke="#960000" stroke-opacity="0.20" stroke-width="3" stroke-linejoin="round" />
<path d = "M 641.54 450.57 A 26.19 26.19 0 0 1 639.68 456.69" fill = "none"  stroke="#960000" stroke-opacity="0.20" stroke-width="3" stroke-linejoin="round" />
<path d = "M 641.54 450.57 A 19.64 19.64 0 0 1 644.73 442.76" fill = "none"  stroke="#960000" stroke-opacity="0.20" stroke-width="3" stroke-linejoin="round" />
<path d = "M 639.68 456.69 A 26.19 26.19 0 0 1 631.71 466.84" fill = "none"  stroke="#960000" stroke-opacity="0.20" stroke-width="3" stroke-linejoin="round" />
<path d = "M 630.28 468.05 A 19.64 19.64 0 0 1 631.71 466.84" fill = "none"  stroke="#960000" stroke-opacity="0.20" stroke-width="3" stroke-linejoin="round" />
<circle cx="500.03" cy="151.57" r="11.62" fill="#d2d2d2" stroke="#bfbfbf" stroke-linejoin="round" stroke-linecap="round" />
<text x="500.03" y="150.37" fill="black" font-family="Arial" font-size="6" font-style="normal" font-weight="bold" text-anchor="middle">  ARG </text>
<text x="500.03" y="156.37" fill="black" font-family="Arial" font-size="6" font-style="normal" font-weight="bold" text-anchor="middle">  12A </text>
<circle cx="486.07" cy="338.84" r="11.62" fill="#d2d2d2" stroke="#bfbfbf" stroke-linejoin="round" stroke-linecap="round" />
<text x="486.07" y="337.64" fill="black" font-family="Arial" font-size="6" font-style="normal" font-weight="bold" text-anchor="middle">  LEU </text>
<text x="486.07" y="343.64" fill="black" font-family="Arial" font-size="6" font-style="normal" font-weight="bold" text-anchor="middle">  14A </text>
<circle cx="669.30" cy="333.50" r="11.62" fill="#d2d2d2" stroke="#bfbfbf" stroke-linejoin="round" stroke-linecap="round" />
<text x="669.30" y="332.30" fill="black" font-family="Arial" font-size="6" font-style="normal" font-weight="bold" text-anchor="middle">  VAL </text>
<text x="669.30" y="338.30" fill="black" font-family="Arial" font-size="6" font-style="normal" font-weight="bold" text-anchor="middle">  22A </text>
<circle cx="591.73" cy="199.17" r="11.62" fill="#d2d2d2" stroke="#bfbfbf" stroke-linejoin="round" stroke-linecap="round" />
<text x="591.73" y="197.97" fill="black" font-family="Arial" font-size="6" font-style="normal" font-weight="bold" text-anchor="middle">  LEU </text>
<text x="591.73" y="203.97" fill="black" font-family="Arial" font-size="6" font-style="normal" font-weight="bold" text-anchor="middle">  24A </text>
<circle cx="664.95" cy="280.99" r="11.62" fill="#d2d2d2" stroke="#bfbfbf" stroke-linejoin="round" stroke-linecap="round" />
<text x="664.95" y="279.79" fill="black" font-family="Arial" font-size="6" font-style="normal" font-weight="bold" text-anchor="middle">  ALA </text>
<text x="664.95" y="285.79" fill="black" font-family="Arial" font-size="6" font-style="normal" font-weight="bold" text-anchor="middle">  39A </text>
<circle cx="718.28" cy="381.59" r="11.62" fill="#d2d2d2" stroke="#bfbfbf" stroke-linejoin="round" stroke-linecap="round" />
<text x="718.28" y="380.39" fill="black" font-family="Arial" font-size="6" font-style="normal" font-weight="bold" text-anchor="middle">  ILE </text>
<text x="718.28" y="386.39" fill="black" font-family="Arial" font-size="6" font-style="normal" font-weight="bold" text-anchor="middle">  71A </text>
<circle cx="709.27" cy="444.25" r="11.62" fill="#d2d2d2" stroke="#bfbfbf" stroke-linejoin="round" stroke-linecap="round" />
<text x="709.27" y="443.05" fill="black" font-family="Arial" font-size="6" font-style="normal" font-weight="bold" text-anchor="middle">  MET </text>
<text x="709.27" y="449.05" fill="black" font-family="Arial" font-size="6" font-style="normal" font-weight="bold" text-anchor="middle">  89A </text>
<circle cx="570.15" cy="540.33" r="11.62" fill="#d2d2d2" stroke="#bfbfbf" stroke-linejoin="round" stroke-linecap="round" />
<text x="570.15" y="539.13" fill="black" font-family="Arial" font-size="6" font-style="normal" font-weight="bold" text-anchor="middle">  GLU </text>
<text x="570.15" y="545.13" fill="black" font-family="Arial" font-size="6" font-style="normal" font-weight="bold" text-anchor="middle">  90A </text>
<circle cx="560.02" cy="159.97" r="11.62" fill="#d2d2d2" stroke="#bfbfbf" stroke-linejoin="round" stroke-linecap="round" />
<text x="560.02" y="158.77" fill="black" font-family="Arial" font-size="6" font-style="normal" font-weight="bold" text-anchor="middle">  TYR </text>
<text x="560.02" y="164.77" fill="black" font-family="Arial" font-size="6" font-style="normal" font-weight="bold" text-anchor="middle">  91A </text>
<circle cx="598.61" cy="232.91" r="11.62" fill="#d2d2d2" stroke="#bfbfbf" stroke-linejoin="round" stroke-linecap="round" />
<text x="598.61" y="231.71" fill="black" font-family="Arial" font-size="6" font-style="normal" font-weight="bold" text-anchor="middle">  VAL </text>
<text x="598.61" y="237.71" fill="black" font-family="Arial" font-size="6" font-style="normal" font-weight="bold" text-anchor="middle">  92A </text>
<circle cx="530.57" cy="156.05" r="11.62" fill="#d2d2d2" stroke="#bfbfbf" stroke-linejoin="round" stroke-linecap="round" />
<text x="530.57" y="154.85" fill="black" font-family="Arial" font-size="6" font-style="normal" font-weight="bold" text-anchor="middle">  PRO </text>
<text x="530.57" y="160.85" fill="black" font-family="Arial" font-size="6" font-style="normal" font-weight="bold" text-anchor="middle">  93A </text>
<circle cx="406.98" cy="277.79" r="11.62" fill="#d2d2d2" stroke="#bfbfbf" stroke-linejoin="round" stroke-linecap="round" />
<text x="406.98" y="276.59" fill="black" font-family="Arial" font-size="6" font-style="normal" font-weight="bold" text-anchor="middle">  LEU </text>
<text x="406.98" y="282.59" fill="black" font-family="Arial" font-size="6" font-style="normal" font-weight="bold" text-anchor="middle">  94A </text>
<circle cx="477.02" cy="301.82" r="11.62" fill="#d2d2d2" stroke="#960000" stroke-linejoin="round" stroke-linecap="round" />
<text x="477.02" y="300.62" fill="black" font-family="Arial" font-size="6" font-style="normal" font-weight="bold" text-anchor="middle">  GLY </text>
<text x="477.02" y="306.62" fill="black" font-family="Arial" font-size="6" font-style="normal" font-weight="bold" text-anchor="middle">  95A </text>
<circle cx="458.27" cy="411.13" r="11.62" fill="#d2d2d2" stroke="#bfbfbf" stroke-linejoin="round" stroke-linecap="round" />
<text x="458.27" y="409.93" fill="black" font-family="Arial" font-size="6" font-style="normal" font-weight="bold" text-anchor="middle">  SER </text>
<text x="458.27" y="415.93" fill="black" font-family="Arial" font-size="6" font-style="normal" font-weight="bold" text-anchor="middle">  96A </text>
<circle cx="534.75" cy="521.13" r="11.62" fill="#d2d2d2" stroke="#bfbfbf" stroke-linejoin="round" stroke-linecap="round" />
<text x="534.75" y="519.93" fill="black" font-family="Arial" font-size="6" font-style="normal" font-weight="bold" text-anchor="middle">  ARG </text>
<text x="534.75" y="525.93" fill="black" font-family="Arial" font-size="6" font-style="normal" font-weight="bold" text-anchor="middle">  138A </text>
<circle cx="602.43" cy="542.03" r="11.62" fill="#d2d2d2" stroke="#bfbfbf" stroke-linejoin="round" stroke-linecap="round" />
<text x="602.43" y="540.83" fill="black" font-family="Arial" font-size="6" font-style="normal" font-weight="bold" text-anchor="middle">  ASN </text>
<text x="602.43" y="546.83" fill="black" font-family="Arial" font-size="6" font-style="normal" font-weight="bold" text-anchor="middle">  139A </text>
<circle cx="502.15" cy="448.94" r="11.62" fill="#d2d2d2" stroke="#bfbfbf" stroke-linejoin="round" stroke-linecap="round" />
<text x="502.15" y="447.74" fill="black" font-family="Arial" font-size="6" font-style="normal" font-weight="bold" text-anchor="middle">  LEU </text>
<text x="502.15" y="453.74" fill="black" font-family="Arial" font-size="6" font-style="normal" font-weight="bold" text-anchor="middle">  141A </text>
<circle cx="687.37" cy="468.08" r="11.62" fill="#d2d2d2" stroke="#bfbfbf" stroke-linejoin="round" stroke-linecap="round" />
<text x="687.37" y="466.88" fill="black" font-family="Arial" font-size="6" font-style="normal" font-weight="bold" text-anchor="middle">  GLY </text>
<text x="687.37" y="472.88" fill="black" font-family="Arial" font-size="6" font-style="normal" font-weight="bold" text-anchor="middle">  151A </text>
<circle cx="651.98" cy="495.60" r="11.62" fill="#d2d2d2" stroke="#bfbfbf" stroke-linejoin="round" stroke-linecap="round" />
<text x="651.98" y="494.40" fill="black" font-family="Arial" font-size="6" font-style="normal" font-weight="bold" text-anchor="middle">  ASP </text>
<text x="651.98" y="500.40" fill="black" font-family="Arial" font-size="6" font-style="normal" font-weight="bold" text-anchor="middle">  152A </text>
<path d="M 562.52 499.59 L 570.57 508.89 C 571.43 510.37 571.82 511.82 571.82 513.53 C 571.82 518.67 567.66 522.83 562.52 522.83 C 557.39 522.83 553.23 518.67 553.23 513.53 C 553.23 511.82 553.62 510.37 554.47 508.89 Z" fill="#d2d2d2" stroke="#bfbfbf" stroke-linejoin="round" stroke-linecap="round" />
<text x="562.52" y="511.40" fill="black" font-family="Arial" font-size="6" font-style="normal" font-weight="bold" text-anchor="middle">  HOH </text>
<text x="562.52" y="517.40" fill="black" font-family="Arial" font-size="6" font-style="normal" font-weight="bold" text-anchor="middle">  405A </text>
<path d="M 523.40 455.34 L 531.45 464.63 C 532.31 466.11 532.69 467.57 532.69 469.28 C 532.69 474.41 528.53 478.57 523.40 478.57 C 518.27 478.57 514.11 474.41 514.11 469.28 C 514.11 467.57 514.50 466.11 515.35 464.63 Z" fill="#d2d2d2" stroke="#bfbfbf" stroke-linejoin="round" stroke-linecap="round" />
<text x="523.40" y="467.15" fill="black" font-family="Arial" font-size="6" font-style="normal" font-weight="bold" text-anchor="middle">  HOH </text>
<text x="523.40" y="473.15" fill="black" font-family="Arial" font-size="6" font-style="normal" font-weight="bold" text-anchor="middle">  476A </text>
<path d="M 396.85 236.47 L 404.89 245.76 C 405.75 247.25 406.14 248.70 406.14 250.41 C 406.14 255.54 401.98 259.71 396.85 259.71 C 391.71 259.71 387.55 255.54 387.55 250.41 C 387.55 248.70 387.94 247.25 388.80 245.76 Z" fill="#d2d2d2" stroke="#bfbfbf" stroke-linejoin="round" stroke-linecap="round" />
<text x="396.85" y="248.28" fill="black" font-family="Arial" font-size="6" font-style="normal" font-weight="bold" text-anchor="middle">  HOH </text>
<text x="396.85" y="254.28" fill="black" font-family="Arial" font-size="6" font-style="normal" font-weight="bold" text-anchor="middle">  938A </text>
<path d="M 389.10 208.61 L 397.15 217.91 C 398.00 219.39 398.39 220.84 398.39 222.55 C 398.39 227.68 394.23 231.85 389.10 231.85 C 383.97 231.85 379.81 227.68 379.81 222.55 C 379.81 220.84 380.20 219.39 381.05 217.91 Z" fill="#d2d2d2" stroke="#bfbfbf" stroke-linejoin="round" stroke-linecap="round" />
<text x="389.10" y="220.62" fill="black" font-family="Arial" font-size="5" font-style="normal" font-weight="bold" text-anchor="middle">  HOH </text>
<text x="389.10" y="225.62" fill="black" font-family="Arial" font-size="5" font-style="normal" font-weight="bold" text-anchor="middle">  1016A </text>
<path d="M 501.61 351.90 L 509.66 361.20 C 510.51 362.68 510.90 364.13 510.90 365.84 C 510.90 370.98 506.74 375.14 501.61 375.14 C 496.48 375.14 492.31 370.98 492.31 365.84 C 492.31 364.13 492.70 362.68 493.56 361.20 Z" fill="#d2d2d2" stroke="#bfbfbf" stroke-linejoin="round" stroke-linecap="round" />
<text x="501.61" y="363.91" fill="black" font-family="Arial" font-size="5" font-style="normal" font-weight="bold" text-anchor="middle">  HOH </text>
<text x="501.61" y="368.91" fill="black" font-family="Arial" font-size="5" font-style="normal" font-weight="bold" text-anchor="middle">  2024A </text>
<path d="M 384.63 180.25 L 392.68 189.54 C 393.53 191.02 393.92 192.47 393.92 194.19 C 393.92 199.32 389.76 203.48 384.63 203.48 C 379.50 203.48 375.34 199.32 375.34 194.19 C 375.34 192.47 375.73 191.02 376.58 189.54 Z" fill="#d2d2d2" stroke="#bfbfbf" stroke-linejoin="round" stroke-linecap="round" />
<text x="384.63" y="192.26" fill="black" font-family="Arial" font-size="5" font-style="normal" font-weight="bold" text-anchor="middle">  HOH </text>
<text x="384.63" y="197.26" fill="black" font-family="Arial" font-size="5" font-style="normal" font-weight="bold" text-anchor="middle">  2719A </text>
<path d="M 470.28 432.99 L 478.33 442.28 C 479.18 443.77 479.57 445.22 479.57 446.93 C 479.57 452.06 475.41 456.23 470.28 456.23 C 465.14 456.23 460.98 452.06 460.98 446.93 C 460.98 445.22 461.37 443.77 462.23 442.28 Z" fill="#d2d2d2" stroke="#bfbfbf" stroke-linejoin="round" stroke-linecap="round" />
<text x="470.28" y="445.00" fill="black" font-family="Arial" font-size="5" font-style="normal" font-weight="bold" text-anchor="middle">  HOH </text>
<text x="470.28" y="450.00" fill="black" font-family="Arial" font-size="5" font-style="normal" font-weight="bold" text-anchor="middle">  3316A </text>
<path d="M 697.39 396.34 L 705.43 405.64 C 706.29 407.12 706.68 408.57 706.68 410.28 C 706.68 415.42 702.52 419.58 697.39 419.58 C 692.25 419.58 688.09 415.42 688.09 410.28 C 688.09 408.57 688.48 407.12 689.34 405.64 Z" fill="#d2d2d2" stroke="#bfbfbf" stroke-linejoin="round" stroke-linecap="round" />
<text x="697.39" y="408.35" fill="black" font-family="Arial" font-size="5" font-style="normal" font-weight="bold" text-anchor="middle">  HOH </text>
<text x="697.39" y="413.35" fill="black" font-family="Arial" font-size="5" font-style="normal" font-weight="bold" text-anchor="middle">  3606A </text>
<path d="M 495.41 405.36 L 503.46 414.65 C 504.32 416.13 504.71 417.59 504.71 419.30 C 504.71 424.43 500.55 428.59 495.41 428.59 C 490.28 428.59 486.12 424.43 486.12 419.30 C 486.12 417.59 486.51 416.13 487.36 414.65 Z" fill="#d2d2d2" stroke="#bfbfbf" stroke-linejoin="round" stroke-linecap="round" />
<text x="495.41" y="417.37" fill="black" font-family="Arial" font-size="5" font-style="normal" font-weight="bold" text-anchor="middle">  HOH </text>
<text x="495.41" y="422.37" fill="black" font-family="Arial" font-size="5" font-style="normal" font-weight="bold" text-anchor="middle">  5204A </text>
<path d="M 481.94 379.18 L 489.99 388.47 C 490.85 389.95 491.24 391.41 491.24 393.12 C 491.24 398.25 487.07 402.41 481.94 402.41 C 476.81 402.41 472.65 398.25 472.65 393.12 C 472.65 391.41 473.04 389.95 473.89 388.47 Z" fill="#d2d2d2" stroke="#bfbfbf" stroke-linejoin="round" stroke-linecap="round" />
<text x="481.94" y="391.19" fill="black" font-family="Arial" font-size="5" font-style="normal" font-weight="bold" text-anchor="middle">  HOH </text>
<text x="481.94" y="396.19" fill="black" font-family="Arial" font-size="5" font-style="normal" font-weight="bold" text-anchor="middle">  5470A </text>
<path d="M 541.27 480.21 L 549.32 489.51 C 550.17 490.99 550.56 492.44 550.56 494.15 C 550.56 499.29 546.40 503.45 541.27 503.45 C 536.14 503.45 531.97 499.29 531.97 494.15 C 531.97 492.44 532.36 490.99 533.22 489.51 Z" fill="#d2d2d2" stroke="#bfbfbf" stroke-linejoin="round" stroke-linecap="round" />
<text x="541.27" y="492.22" fill="black" font-family="Arial" font-size="5" font-style="normal" font-weight="bold" text-anchor="middle">  HOH </text>
<text x="541.27" y="497.22" fill="black" font-family="Arial" font-size="5" font-style="normal" font-weight="bold" text-anchor="middle">  5485A </text>
<path d="M 659.15 452.31 L 667.20 461.60 C 668.06 463.08 668.45 464.54 668.45 466.25 C 668.45 471.38 664.28 475.54 659.15 475.54 C 654.02 475.54 649.86 471.38 649.86 466.25 C 649.86 464.54 650.25 463.08 651.10 461.60 Z" fill="#d2d2d2" stroke="#960000" stroke-linejoin="round" stroke-linecap="round" />
<text x="659.15" y="464.32" fill="black" font-family="Arial" font-size="5" font-style="normal" font-weight="bold" text-anchor="middle">  HOH </text>
<text x="659.15" y="469.32" fill="black" font-family="Arial" font-size="5" font-style="normal" font-weight="bold" text-anchor="middle">  5543A </text>
<path d="M 395.13 153.52 L 403.18 162.81 C 404.03 164.29 404.42 165.75 404.42 167.46 C 404.42 172.59 400.26 176.75 395.13 176.75 C 390.00 176.75 385.84 172.59 385.84 167.46 C 385.84 165.75 386.23 164.29 387.08 162.81 Z" fill="#d2d2d2" stroke="#bfbfbf" stroke-linejoin="round" stroke-linecap="round" />
<text x="395.13" y="165.53" fill="black" font-family="Arial" font-size="5" font-style="normal" font-weight="bold" text-anchor="middle">  HOH </text>
<text x="395.13" y="170.53" fill="black" font-family="Arial" font-size="5" font-style="normal" font-weight="bold" text-anchor="middle">  7940A </text>
<path d="M 433.57 273.78 L 441.62 283.08 C 442.48 284.56 442.87 286.01 442.87 287.73 C 442.87 292.86 438.71 297.02 433.57 297.02 C 428.44 297.02 424.28 292.86 424.28 287.73 C 424.28 286.01 424.67 284.56 425.53 283.08 Z" fill="#d2d2d2" stroke="#bfbfbf" stroke-linejoin="round" stroke-linecap="round" />
<text x="433.57" y="285.80" fill="black" font-family="Arial" font-size="5" font-style="normal" font-weight="bold" text-anchor="middle">  HOH </text>
<text x="433.57" y="290.80" fill="black" font-family="Arial" font-size="5" font-style="normal" font-weight="bold" text-anchor="middle">  9788A </text>
<path d = "M 625.36 447.08 A 9.68 9.68 0 0 1 622.94 452.55" fill = "none"  stroke="#960000" stroke-opacity="0.39" stroke-width="2" stroke-linejoin="round" stroke-linecap="round" />
<path d = "M 625.39 445.39 A 9.68 9.68 0 0 1 621.71 453.70" fill = "none"  stroke="#960000" stroke-opacity="0.39" stroke-width="2" stroke-linejoin="round" stroke-linecap="round" />
<path d = "M 625.12 443.72 A 9.68 9.68 0 0 1 620.30 454.62" fill = "none"  stroke="#960000" stroke-opacity="0.39" stroke-width="2" stroke-linejoin="round" stroke-linecap="round" />
<path d = "M 504.00 280.73 A 11.51 11.51 0 0 1 500.24 276.04" fill = "none"  stroke="#960000" stroke-opacity="0.39" stroke-width="2" stroke-linejoin="round" stroke-linecap="round" />
<path d = "M 505.43 281.63 A 11.51 11.51 0 0 1 499.69 274.45" fill = "none"  stroke="#960000" stroke-opacity="0.39" stroke-width="2" stroke-linejoin="round" stroke-linecap="round" />
<path d = "M 506.98 282.30 A 11.51 11.51 0 0 1 499.37 272.79" fill = "none"  stroke="#960000" stroke-opacity="0.39" stroke-width="2" stroke-linejoin="round" stroke-linecap="round" />
<path d = "M 504.00 280.73 A 11.51 11.51 0 0 1 500.24 276.04" fill = "none"  stroke="#960000" stroke-opacity="0.39" stroke-width="2" stroke-linejoin="round" stroke-linecap="round" />
<path d = "M 505.43 281.63 A 11.51 11.51 0 0 1 499.69 274.45" fill = "none"  stroke="#960000" stroke-opacity="0.39" stroke-width="2" stroke-linejoin="round" stroke-linecap="round" />
<path d = "M 506.98 282.30 A 11.51 11.51 0 0 1 499.37 272.79" fill = "none"  stroke="#960000" stroke-opacity="0.39" stroke-width="2" stroke-linejoin="round" stroke-linecap="round" />
<line x1="570.45" y1="265.32" x2="590.99" y2="241.68" stroke="#9b6464" stroke-linejoin="round" stroke-linecap="round" />
<circle cx="580.72" cy="253.50" r="4.84" fill="#ffc8c8" stroke="#9b6464" stroke-linejoin="round" stroke-linecap="round" />
<polygon points="580.24,248.66 581.20,248.66 578.62,254.71 " fill="#9b6464" stroke="#9b6464" stroke-linejoin="round" stroke-linecap="round" />
<line x1="578.62" y1="254.71" x2="582.82" y2="252.29" stroke="#9b6464" stroke-linejoin="round" stroke-linecap="round" />
<line x1="582.82" y1="252.29" x2="580.72" y2="258.34" stroke="#9b6464" stroke-linejoin="round" stroke-linecap="round" />
<line x1="582.82" y1="252.29" x2="580.72" y2="258.34" stroke="#9b6464" stroke-linejoin="round" stroke-linecap="round" />
<polygon points="580.72,258.34 580.17,255.49 581.04,257.43 " fill="#9b6464" stroke="#9b6464" stroke-linejoin="round" stroke-linecap="round" />
<polygon points="580.72,258.34 582.92,256.44 581.04,257.43 " fill="#9b6464" stroke="#9b6464" stroke-linejoin="round" stroke-linecap="round" />
<line x1="622.02" y1="354.15" x2="629.95" y2="348.60" stroke="#9b6464" stroke-linejoin="round" stroke-linecap="round" />
<path d="M 634.71 351.17 C 632.52 352.71 629.50 352.18 627.97 349.99 C 626.43 347.80 626.96 344.78 629.15 343.24 L 631.14 341.86 L 632.53 343.84 L 630.54 345.23 L 631.38 346.42 L 633.36 345.03 L 634.47 346.61 L 632.49 348.00 L 633.32 349.19 L 635.30 347.80 L 636.69 349.79 Z" fill="#ffc8c8" stroke="#9b6464" stroke-linejoin="round" stroke-linecap="round" />
<line x1="551.37" y1="361.05" x2="541.83" y2="362.73" stroke="#64649b" stroke-linejoin="round" stroke-linecap="round" />
<line x1="536.65" y1="361.19" x2="533.47" y2="361.75" stroke="#64649b" stroke-width="2" stroke-linejoin="round" />
<line x1="537.49" y1="365.96" x2="534.31" y2="366.52" stroke="#64649b" stroke-width="2" stroke-linejoin="round" />
<path d="M 538.61 358.39 C 541.24 357.92 543.75 359.68 544.22 362.31 C 544.68 364.95 542.92 367.46 540.29 367.92 L 537.91 368.34 L 536.23 358.81 Z" fill="#c8c8ff" stroke="#64649b" stroke-linejoin="round" stroke-linecap="round" />
<line x1="510.55" y1="277.80" x2="505.00" y2="285.73" stroke="#64649b" stroke-linejoin="round" stroke-linecap="round" />
<line x1="500.24" y1="288.30" x2="498.39" y2="290.95" stroke="#64649b" stroke-width="2" stroke-linejoin="round" />
<line x1="504.21" y1="291.08" x2="502.36" y2="293.72" stroke="#64649b" stroke-width="2" stroke-linejoin="round" />
<path d="M 499.65 284.93 C 501.18 282.74 504.20 282.21 506.39 283.74 C 508.58 285.28 509.11 288.30 507.58 290.48 L 506.19 292.47 L 498.26 286.91 Z" fill="#c8c8ff" stroke="#64649b" stroke-linejoin="round" stroke-linecap="round" />
<line x1="546.35" y1="223.38" x2="554.28" y2="217.83" stroke="#9b6464" stroke-linejoin="round" stroke-linecap="round" />
<path d="M 559.04 220.40 C 556.85 221.94 553.83 221.40 552.30 219.21 C 550.76 217.02 551.30 214.01 553.48 212.47 L 555.47 211.08 L 556.86 213.07 L 554.87 214.46 L 555.71 215.65 L 557.69 214.26 L 558.80 215.84 L 556.82 217.23 L 557.65 218.42 L 559.63 217.03 L 561.02 219.02 Z" fill="#ffc8c8" stroke="#9b6464" stroke-linejoin="round" stroke-linecap="round" />
<line x1="641.92" y1="489.79" x2="633.54" y2="484.95" stroke="#64649b" stroke-linejoin="round" stroke-linecap="round" />
<line x1="630.56" y1="480.44" x2="627.76" y2="478.82" stroke="#64649b" stroke-width="2" stroke-linejoin="round" />
<line x1="628.14" y1="484.63" x2="625.34" y2="483.02" stroke="#64649b" stroke-width="2" stroke-linejoin="round" />
<path d="M 633.86 479.55 C 636.18 480.89 636.97 483.85 635.64 486.16 C 634.30 488.48 631.34 489.27 629.02 487.93 L 626.93 486.72 L 631.77 478.34 Z" fill="#c8c8ff" stroke="#64649b" stroke-linejoin="round" stroke-linecap="round" />
<line x1="573.15" y1="529.11" x2="575.66" y2="519.76" stroke="#9b6464" stroke-linejoin="round" stroke-linecap="round" />
<path d="M 580.96 518.68 C 580.27 521.26 577.61 522.79 575.03 522.10 C 572.45 521.41 570.92 518.75 571.61 516.17 L 572.23 513.83 L 574.57 514.46 L 573.95 516.80 L 575.35 517.17 L 575.98 514.83 L 577.85 515.34 L 577.22 517.67 L 578.62 518.05 L 579.25 515.71 L 581.59 516.34 Z" fill="#ffc8c8" stroke="#9b6464" stroke-linejoin="round" stroke-linecap="round" />
<line x1="542.97" y1="512.92" x2="549.81" y2="506.07" stroke="#9b6464" stroke-linejoin="round" stroke-linecap="round" />
<path d="M 554.95 507.78 C 553.06 509.67 549.99 509.67 548.10 507.78 C 546.21 505.89 546.21 502.83 548.10 500.94 L 549.81 499.22 L 551.53 500.94 L 549.81 502.65 L 550.84 503.67 L 552.55 501.96 L 553.92 503.33 L 552.21 505.04 L 553.24 506.07 L 554.95 504.36 L 556.66 506.07 Z" fill="#ffc8c8" stroke="#9b6464" stroke-linejoin="round" stroke-linecap="round" />
<circle cx="27.43" cy="39.50" r="15.36" fill="none" stroke="black" stroke-linejoin="round" stroke-linecap="round" />
<path d="M 27.43 68.30 L 38.07 80.59 C 39.20 82.54 39.71 84.47 39.71 86.73 C 39.71 93.51 34.21 99.01 27.43 99.01 C 20.64 99.01 15.14 93.51 15.14 86.73 C 15.14 84.47 15.66 82.54 16.79 80.59 Z" fill="none" stroke="black" stroke-linejoin="round" stroke-linecap="round" />
<circle cx="27.43" cy="155.50" r="15.36" fill="white" stroke="#960000" stroke-linejoin="round" stroke-linecap="round" />
<line x1="12.07" y1="201.50" x2="42.79" y2="201.50" stroke="#9b6464" stroke-linejoin="round" stroke-linecap="round" />
<circle cx="27.43" cy="201.50" r="7.68" fill="#ffc8c8" stroke="#9b6464" stroke-linejoin="round" stroke-linecap="round" />
<polygon points="26.66,193.82 28.20,193.82 24.10,203.42 " fill="#9b6464" stroke="#9b6464" stroke-linejoin="round" stroke-linecap="round" />
<line x1="24.10" y1="203.42" x2="30.75" y2="199.58" stroke="#9b6464" stroke-linejoin="round" stroke-linecap="round" />
<line x1="30.75" y1="199.58" x2="27.43" y2="209.18" stroke="#9b6464" stroke-linejoin="round" stroke-linecap="round" />
<line x1="30.75" y1="199.58" x2="27.43" y2="209.18" stroke="#9b6464" stroke-linejoin="round" stroke-linecap="round" />
<polygon points="27.43,209.18 26.56,204.65 27.93,207.73 " fill="#9b6464" stroke="#9b6464" stroke-linejoin="round" stroke-linecap="round" />
<polygon points="27.43,209.18 30.91,206.16 27.93,207.73 " fill="#9b6464" stroke="#9b6464" stroke-linejoin="round" stroke-linecap="round" />
<line x1="12.07" y1="247.50" x2="35.11" y2="247.50" stroke="#64649b" stroke-linejoin="round" stroke-linecap="round" />
<line x1="42.79" y1="251.34" x2="47.90" y2="251.34" stroke="#64649b" stroke-width="3" stroke-linejoin="round" />
<line x1="42.79" y1="243.66" x2="47.90" y2="243.66" stroke="#64649b" stroke-width="3" stroke-linejoin="round" />
<path d="M 38.95 255.18 C 34.71 255.18 31.27 251.74 31.27 247.50 C 31.27 243.26 34.71 239.82 38.95 239.82 L 42.79 239.82 L 42.79 255.18 Z" fill="#c8c8ff" stroke="#64649b" stroke-linejoin="round" stroke-linecap="round" />
<line x1="12.07" y1="293.50" x2="35.11" y2="293.50" stroke="#9b6464" stroke-linejoin="round" stroke-linecap="round" />
<path d="M 38.95 301.18 C 34.71 301.18 31.27 297.74 31.27 293.50 C 31.27 289.26 34.71 285.82 38.95 285.82 L 42.79 285.82 L 42.79 289.66 L 38.95 289.66 L 38.95 291.96 L 42.79 291.96 L 42.79 295.04 L 38.95 295.04 L 38.95 297.34 L 42.79 297.34 L 42.79 301.18 Z" fill="#ffc8c8" stroke="#9b6464" stroke-linejoin="round" stroke-linecap="round" />
<text x="55.07" y="43.50" fill="black" font-family="Arial" font-size="12" font-style="normal" font-weight="bold" text-anchor="start">  amino acid </text>
<text x="55.07" y="89.50" fill="black" font-family="Arial" font-size="12" font-style="normal" font-weight="bold" text-anchor="start">  water </text>
<text x="55.07" y="159.50" fill="black" font-family="Arial" font-size="12" font-style="normal" font-weight="bold" text-anchor="start">  clash </text>
<text x="55.07" y="205.50" fill="black" font-family="Arial" font-size="12" font-style="normal" font-weight="bold" text-anchor="start">  acceptor clash </text>
<text x="55.07" y="251.50" fill="black" font-family="Arial" font-size="12" font-style="normal" font-weight="bold" text-anchor="start">  unpaired donor </text>
<text x="55.07" y="297.50" fill="black" font-family="Arial" font-size="12" font-style="normal" font-weight="bold" text-anchor="start">  unpaired acceptor </text>
<path d="M 13.50 10.80 L 166.50 10.80 C 170.48 10.80 173.70 14.02 173.70 18.00 L 173.70 102.50 C 173.70 106.48 170.48 109.70 166.50 109.70 L 13.50 109.70 C 9.52 109.70 6.30 106.48 6.30 102.50 L 6.30 18.00 C 6.30 14.02 9.52 10.80 13.50 10.80 Z" fill="none" stroke="#bfbfbf" stroke-width="3" stroke-linejoin="round" stroke-linecap="round" />
<rect x="34.54" y="4.5" width="110.91" height="9" fill="white" stroke="white" stroke-linejoin="round" stroke-linecap="round" />
<text x="90.00" y="13.67" fill="black" font-family="Arial" font-size="14" font-style="normal" font-weight="bold" text-anchor="middle">  Residue Styles </text>
<path d="M 13.50 126.80 L 166.50 126.80 C 170.48 126.80 173.70 130.02 173.70 134.00 L 173.70 310.50 C 173.70 314.48 170.48 317.70 166.50 317.70 L 13.50 317.70 C 9.52 317.70 6.30 314.48 6.30 310.50 L 6.30 134.00 C 6.30 130.02 9.52 126.80 13.50 126.80 Z" fill="none" stroke="#bfbfbf" stroke-width="3" stroke-linejoin="round" stroke-linecap="round" />
<rect x="25.6" y="120.5" width="128.8" height="9" fill="white" stroke="white" stroke-linejoin="round" stroke-linecap="round" />
<text x="90.00" y="129.67" fill="black" font-family="Arial" font-size="14" font-style="normal" font-weight="bold" text-anchor="middle">  Interaction Styles </text>
<path d="M 10.50 0.50 L 889.50 0.50 C 895.02 0.50 899.50 4.98 899.50 10.50 L 899.50 589.50 C 899.50 595.02 895.02 599.50 889.50 599.50 L 10.50 599.50 C 4.98 599.50 0.50 595.02 0.50 589.50 L 0.50 10.50 C 0.50 4.98 4.98 0.50 10.50 0.50 Z" fill="none" stroke="#bfbfbf" stroke-linejoin="round" stroke-linecap="round" />
</svg>
