<?xml version="1.0" encoding="UTF-8"?>
<!DOCTYPE svg PUBLIC "-//W3C//DTD SVG 1.1//EN"
  "http://www.w3.org/Graphics/SVG/1.1/DTD/svg11.dtd">
<svg xmlns="http://www.w3.org/2000/svg" xmlns:xlink="http://www.w3.org/1999/xlink"   viewBox="0.00 0.00 900.00 600.00">
<!-- Created by OpenEye Scientific Software -->
<!-- Creation Date Thu Mar 18 12:48:17 2021 -->
<rect width="900.00" height="600.00" fill="white" />
<rect x="180" y="0" width="720" height="600" fill="white" />
<text x="540.00" y="52.50" fill="black" font-family="Arial" font-size="45" font-style="normal" font-weight="normal" text-anchor="middle">  MOL </text>
<line x1="595.17" y1="458.36" x2="568.61" y2="443.13" stroke="black" stroke-width="3" stroke-linejoin="round" stroke-linecap="round" />
<line x1="594.11" y1="450.37" x2="576.04" y2="440.01" stroke="black" stroke-width="3" stroke-linejoin="round" stroke-linecap="round" />
<line x1="595.17" y1="458.36" x2="621.74" y2="443.13" stroke="black" stroke-width="3" stroke-linejoin="round" stroke-linecap="round" />
<line x1="568.61" y1="443.13" x2="568.61" y2="412.34" stroke="black" stroke-width="3" stroke-linejoin="round" stroke-linecap="round" />
<line x1="568.61" y1="412.34" x2="551.68" y2="402.64" stroke="black" stroke-width="3" stroke-linejoin="round" stroke-linecap="round" />
<line x1="568.61" y1="412.34" x2="595.17" y2="396.80" stroke="black" stroke-width="3" stroke-linejoin="round" stroke-linecap="round" />
<line x1="576.09" y1="415.38" x2="594.16" y2="404.81" stroke="black" stroke-width="3" stroke-linejoin="round" stroke-linecap="round" />
<line x1="595.17" y1="396.80" x2="595.17" y2="366.17" stroke="black" stroke-width="3" stroke-linejoin="round" stroke-linecap="round" />
<line x1="595.17" y1="396.80" x2="621.74" y2="412.34" stroke="black" stroke-width="3" stroke-linejoin="round" stroke-linecap="round" />
<line x1="621.74" y1="412.34" x2="638.67" y2="402.64" stroke="black" stroke-width="3" stroke-linejoin="round" stroke-linecap="round" />
<line x1="621.74" y1="412.34" x2="621.74" y2="443.13" stroke="black" stroke-width="3" stroke-linejoin="round" stroke-linecap="round" />
<line x1="615.34" y1="417.27" x2="615.34" y2="438.20" stroke="black" stroke-width="3" stroke-linejoin="round" stroke-linecap="round" />
<line x1="596.77" y1="368.94" x2="614.62" y2="358.64" stroke="black" stroke-width="3" stroke-linejoin="round" stroke-linecap="round" />
<line x1="593.57" y1="363.40" x2="611.42" y2="353.09" stroke="black" stroke-width="3" stroke-linejoin="round" stroke-linecap="round" />
<line x1="595.17" y1="366.17" x2="576.37" y2="355.32" stroke="black" stroke-width="3" stroke-linejoin="round" stroke-linecap="round" />
<line x1="568.65" y1="341.94" x2="568.65" y2="320.23" stroke="black" stroke-width="3" stroke-linejoin="round" stroke-linecap="round" />
<line x1="568.65" y1="320.23" x2="595.22" y2="305.00" stroke="black" stroke-width="3" stroke-linejoin="round" stroke-linecap="round" />
<line x1="569.72" y1="312.24" x2="587.78" y2="301.88" stroke="black" stroke-width="3" stroke-linejoin="round" stroke-linecap="round" />
<line x1="568.65" y1="320.23" x2="542.08" y2="305.00" stroke="black" stroke-width="3" stroke-linejoin="round" stroke-linecap="round" />
<line x1="595.22" y1="305.00" x2="595.22" y2="274.21" stroke="black" stroke-width="3" stroke-linejoin="round" stroke-linecap="round" />
<line x1="595.22" y1="274.21" x2="576.35" y2="263.17" stroke="black" stroke-width="3" stroke-linejoin="round" stroke-linecap="round" />
<line x1="587.74" y1="277.25" x2="569.67" y2="266.68" stroke="black" stroke-width="3" stroke-linejoin="round" stroke-linecap="round" />
<line x1="560.96" y1="263.17" x2="542.08" y2="274.21" stroke="black" stroke-width="3" stroke-linejoin="round" stroke-linecap="round" />
<line x1="542.08" y1="274.21" x2="523.25" y2="263.41" stroke="black" stroke-width="3" stroke-linejoin="round" stroke-linecap="round" />
<line x1="542.08" y1="274.21" x2="542.08" y2="305.00" stroke="black" stroke-width="3" stroke-linejoin="round" stroke-linecap="round" />
<line x1="548.48" y1="279.14" x2="548.48" y2="300.07" stroke="black" stroke-width="3" stroke-linejoin="round" stroke-linecap="round" />
<line x1="515.49" y1="250.06" x2="515.43" y2="228.35" stroke="black" stroke-width="3" stroke-linejoin="round" stroke-linecap="round" />
<line x1="492.39" y1="215.75" x2="492.92" y2="214.84" stroke="black" stroke-width="2" stroke-linejoin="round" stroke-linecap="round" />
<line x1="495.93" y1="218.38" x2="496.97" y2="216.56" stroke="black" stroke-width="2" stroke-linejoin="round" stroke-linecap="round" />
<line x1="499.46" y1="221.02" x2="501.03" y2="218.28" stroke="black" stroke-width="2" stroke-linejoin="round" stroke-linecap="round" />
<line x1="503.00" y1="223.65" x2="505.09" y2="220.00" stroke="black" stroke-width="2" stroke-linejoin="round" stroke-linecap="round" />
<line x1="506.53" y1="226.28" x2="509.14" y2="221.73" stroke="black" stroke-width="2" stroke-linejoin="round" stroke-linecap="round" />
<line x1="510.06" y1="228.91" x2="513.20" y2="223.45" stroke="black" stroke-width="2" stroke-linejoin="round" stroke-linecap="round" />
<line x1="513.60" y1="231.54" x2="517.26" y2="225.17" stroke="black" stroke-width="2" stroke-linejoin="round" stroke-linecap="round" />
<line x1="517.04" y1="231.12" x2="534.85" y2="220.76" stroke="black" stroke-width="3" stroke-linejoin="round" stroke-linecap="round" />
<line x1="513.82" y1="225.59" x2="531.64" y2="215.23" stroke="black" stroke-width="3" stroke-linejoin="round" stroke-linecap="round" />
<line x1="488.86" y1="213.12" x2="458.18" y2="213.23" stroke="black" stroke-width="3" stroke-linejoin="round" stroke-linecap="round" />
<line x1="488.86" y1="213.12" x2="473.48" y2="186.64" stroke="black" stroke-width="3" stroke-linejoin="round" stroke-linecap="round" />
<line x1="473.48" y1="186.64" x2="458.18" y2="213.23" stroke="black" stroke-width="3" stroke-linejoin="round" stroke-linecap="round" />
<line x1="453.82" y1="214.91" x2="454.56" y2="216.18" stroke="black" stroke-width="2" stroke-linejoin="round" stroke-linecap="round" />
<line x1="449.47" y1="216.59" x2="450.94" y2="219.13" stroke="black" stroke-width="2" stroke-linejoin="round" stroke-linecap="round" />
<line x1="445.11" y1="218.27" x2="447.32" y2="222.08" stroke="black" stroke-width="2" stroke-linejoin="round" stroke-linecap="round" />
<line x1="440.75" y1="219.94" x2="443.71" y2="225.03" stroke="black" stroke-width="2" stroke-linejoin="round" stroke-linecap="round" />
<line x1="436.40" y1="221.62" x2="440.09" y2="227.98" stroke="black" stroke-width="2" stroke-linejoin="round" stroke-linecap="round" />
<text x="648.31" y="401.40" fill="black" font-family="Arial" font-size="13" font-style="normal" font-weight="normal" text-anchor="middle">  Cl </text>
<text x="621.70" y="355.15" fill="black" font-family="Arial" font-size="13" font-style="normal" font-weight="normal" text-anchor="middle">  O </text>
<text x="568.65" y="355.15" fill="black" font-family="Arial" font-size="13" font-style="normal" font-weight="normal" text-anchor="middle">  N </text>
<text x="559.55" y="355.15" fill="black" font-family="Arial" font-size="13" font-style="normal" font-weight="normal" text-anchor="middle">  H </text>
<text x="568.65" y="262.96" fill="black" font-family="Arial" font-size="13" font-style="normal" font-weight="normal" text-anchor="middle">  N </text>
<text x="515.52" y="263.27" fill="black" font-family="Arial" font-size="13" font-style="normal" font-weight="normal" text-anchor="middle">  N </text>
<text x="506.42" y="263.27" fill="black" font-family="Arial" font-size="13" font-style="normal" font-weight="normal" text-anchor="middle">  H </text>
<text x="541.90" y="217.25" fill="black" font-family="Arial" font-size="13" font-style="normal" font-weight="normal" text-anchor="middle">  O </text>
<text x="431.69" y="232.89" fill="black" font-family="Arial" font-size="13" font-style="normal" font-weight="normal" text-anchor="middle">  F </text>
<text x="542.04" y="401.40" fill="black" font-family="Arial" font-size="13" font-style="normal" font-weight="normal" text-anchor="middle">  Cl </text>
<path d = "M 625.88 501.56 A 53.00 53.00 0 0 1 542.23 455.99" fill = "none"  stroke="#bfbfbf" stroke-width="3" stroke-linejoin="round" stroke-linecap="round" />
<path d = "M 625.88 501.56 A 20.70 20.70 0 0 1 633.54 498.19" fill = "none"  stroke="#bfbfbf" stroke-width="3" stroke-linejoin="round" stroke-linecap="round" />
<path d = "M 676.70 430.84 A 56.32 56.32 0 0 1 633.54 498.19" fill = "none"  stroke="#bfbfbf" stroke-width="3" stroke-linejoin="round" stroke-linecap="round" />
<path d = "M 676.70 430.84 A 20.70 20.70 0 0 1 679.16 415.65" fill = "none"  stroke="#bfbfbf" stroke-width="3" stroke-linejoin="round" stroke-linecap="round" />
<path d = "M 661.82 363.75 A 35.99 35.99 0 0 1 679.16 415.65" fill = "none"  stroke="#bfbfbf" stroke-width="3" stroke-linejoin="round" stroke-linecap="round" />
<path d = "M 661.82 363.75 A 20.70 20.70 0 0 1 649.06 347.26" fill = "none"  stroke="#bfbfbf" stroke-width="3" stroke-linejoin="round" stroke-linecap="round" />
<path d = "M 636.80 327.75 A 27.61 27.61 0 0 1 649.06 347.26" fill = "none"  stroke="#bfbfbf" stroke-width="3" stroke-linejoin="round" stroke-linecap="round" />
<path d = "M 636.80 327.75 A 20.70 20.70 0 0 1 631.04 298.73" fill = "none"  stroke="#bfbfbf" stroke-width="3" stroke-linejoin="round" stroke-linecap="round" />
<path d = "M 606.21 232.22 A 43.41 43.41 0 0 1 631.04 298.73" fill = "none"  stroke="#bfbfbf" stroke-width="3" stroke-linejoin="round" stroke-linecap="round" />
<path d = "M 606.21 232.22 A 20.70 20.70 0 0 1 590.75 212.42" fill = "none"  stroke="#bfbfbf" stroke-width="3" stroke-linejoin="round" stroke-linecap="round" />
<path d = "M 529.86 165.63 A 48.85 48.85 0 0 1 590.75 212.42" fill = "none"  stroke="#bfbfbf" stroke-width="3" stroke-linejoin="round" stroke-linecap="round" />
<path d = "M 529.86 165.63 A 20.70 20.70 0 0 1 508.59 158.51" fill = "none"  stroke="#bfbfbf" stroke-width="3" stroke-linejoin="round" stroke-linecap="round" />
<path d = "M 432.70 167.63 A 44.99 44.99 0 0 1 508.59 158.51" fill = "none"  stroke="#bfbfbf" stroke-width="3" stroke-linejoin="round" stroke-linecap="round" />
<path d = "M 432.70 167.63 A 20.70 20.70 0 0 1 419.05 178.95" fill = "none"  stroke="#bfbfbf" stroke-width="3" stroke-linejoin="round" stroke-linecap="round" />
<path d = "M 458.07 272.53 A 51.24 51.24 0 1 1 419.05 178.95" fill = "none"  stroke="#bfbfbf" stroke-width="3" stroke-linejoin="round" stroke-linecap="round" />
<path d = "M 458.07 272.53 A 20.70 20.70 0 0 1 485.93 278.77" fill = "none"  stroke="#bfbfbf" stroke-width="3" stroke-linejoin="round" stroke-linecap="round" />
<path d = "M 496.74 289.22 A 35.59 35.59 0 0 1 485.93 278.77" fill = "none"  stroke="#bfbfbf" stroke-width="3" stroke-linejoin="round" stroke-linecap="round" />
<path d = "M 496.74 289.22 A 20.70 20.70 0 0 1 506.51 306.14" fill = "none"  stroke="#bfbfbf" stroke-width="3" stroke-linejoin="round" stroke-linecap="round" />
<path d = "M 523.85 335.56 A 35.59 35.59 0 0 1 506.51 306.14" fill = "none"  stroke="#bfbfbf" stroke-width="3" stroke-linejoin="round" stroke-linecap="round" />
<path d = "M 523.85 335.56 A 20.70 20.70 0 0 1 533.92 352.42" fill = "none"  stroke="#bfbfbf" stroke-width="3" stroke-linejoin="round" stroke-linecap="round" />
<path d = "M 534.18 355.35 A 34.76 34.76 0 0 1 533.92 352.42" fill = "none"  stroke="#bfbfbf" stroke-width="3" stroke-linejoin="round" stroke-linecap="round" />
<path d = "M 534.18 355.35 A 20.70 20.70 0 0 1 525.82 374.78" fill = "none"  stroke="#bfbfbf" stroke-width="3" stroke-linejoin="round" stroke-linecap="round" />
<path d = "M 522.56 416.67 A 27.61 27.61 0 0 1 525.82 374.78" fill = "none"  stroke="#bfbfbf" stroke-width="3" stroke-linejoin="round" stroke-linecap="round" />
<path d = "M 522.56 416.67 A 20.70 20.70 0 0 1 527.71 425.15" fill = "none"  stroke="#bfbfbf" stroke-width="3" stroke-linejoin="round" stroke-linecap="round" />
<path d = "M 536.87 441.15 A 42.86 42.86 0 0 1 527.71 425.15" fill = "none"  stroke="#bfbfbf" stroke-width="3" stroke-linejoin="round" stroke-linecap="round" />
<path d = "M 536.87 441.15 A 20.70 20.70 0 0 1 542.23 455.99" fill = "none"  stroke="#bfbfbf" stroke-width="3" stroke-linejoin="round" stroke-linecap="round" />
<circle cx="670.87" cy="300.06" r="12.25" fill="#d2d2d2" stroke="#bfbfbf" stroke-linejoin="round" stroke-linecap="round" />
<text x="670.87" y="298.66" fill="black" font-family="Arial" font-size="7" font-style="normal" font-weight="bold" text-anchor="middle">  LEU </text>
<text x="670.87" y="305.66" fill="black" font-family="Arial" font-size="7" font-style="normal" font-weight="bold" text-anchor="middle">  14A </text>
<circle cx="496.92" cy="442.12" r="12.25" fill="#d2d2d2" stroke="#bfbfbf" stroke-linejoin="round" stroke-linecap="round" />
<text x="496.92" y="440.72" fill="black" font-family="Arial" font-size="7" font-style="normal" font-weight="bold" text-anchor="middle">  VAL </text>
<text x="496.92" y="447.72" fill="black" font-family="Arial" font-size="7" font-style="normal" font-weight="bold" text-anchor="middle">  22A </text>
<circle cx="586.07" cy="557.91" r="12.25" fill="#d2d2d2" stroke="#bfbfbf" stroke-linejoin="round" stroke-linecap="round" />
<text x="586.07" y="556.51" fill="black" font-family="Arial" font-size="7" font-style="normal" font-weight="bold" text-anchor="middle">  SER </text>
<text x="586.07" y="563.51" fill="black" font-family="Arial" font-size="7" font-style="normal" font-weight="bold" text-anchor="middle">  23A </text>
<circle cx="698.83" cy="330.60" r="12.25" fill="#d2d2d2" stroke="#bfbfbf" stroke-linejoin="round" stroke-linecap="round" />
<text x="698.83" y="329.20" fill="black" font-family="Arial" font-size="7" font-style="normal" font-weight="bold" text-anchor="middle">  ALA </text>
<text x="698.83" y="336.20" fill="black" font-family="Arial" font-size="7" font-style="normal" font-weight="bold" text-anchor="middle">  39A </text>
<circle cx="718.97" cy="394.69" r="12.25" fill="#d2d2d2" stroke="#bfbfbf" stroke-linejoin="round" stroke-linecap="round" />
<text x="718.97" y="393.29" fill="black" font-family="Arial" font-size="7" font-style="normal" font-weight="bold" text-anchor="middle">  ILE </text>
<text x="718.97" y="400.29" fill="black" font-family="Arial" font-size="7" font-style="normal" font-weight="bold" text-anchor="middle">  71A </text>
<circle cx="709.84" cy="466.02" r="12.25" fill="#d2d2d2" stroke="#bfbfbf" stroke-linejoin="round" stroke-linecap="round" />
<text x="709.84" y="464.62" fill="black" font-family="Arial" font-size="7" font-style="normal" font-weight="bold" text-anchor="middle">  MET </text>
<text x="709.84" y="471.62" fill="black" font-family="Arial" font-size="7" font-style="normal" font-weight="bold" text-anchor="middle">  89A </text>
<circle cx="724.56" cy="364.46" r="12.25" fill="#d2d2d2" stroke="#bfbfbf" stroke-linejoin="round" stroke-linecap="round" />
<text x="724.56" y="363.06" fill="black" font-family="Arial" font-size="7" font-style="normal" font-weight="bold" text-anchor="middle">  GLU </text>
<text x="724.56" y="370.06" fill="black" font-family="Arial" font-size="7" font-style="normal" font-weight="bold" text-anchor="middle">  90A </text>
<circle cx="672.59" cy="263.49" r="12.25" fill="#d2d2d2" stroke="#bfbfbf" stroke-linejoin="round" stroke-linecap="round" />
<text x="672.59" y="262.09" fill="black" font-family="Arial" font-size="7" font-style="normal" font-weight="bold" text-anchor="middle">  VAL </text>
<text x="672.59" y="269.09" fill="black" font-family="Arial" font-size="7" font-style="normal" font-weight="bold" text-anchor="middle">  92A </text>
<circle cx="475.39" cy="331.61" r="12.25" fill="#d2d2d2" stroke="#bfbfbf" stroke-linejoin="round" stroke-linecap="round" />
<text x="475.39" y="330.21" fill="black" font-family="Arial" font-size="7" font-style="normal" font-weight="bold" text-anchor="middle">  GLY </text>
<text x="475.39" y="337.21" fill="black" font-family="Arial" font-size="7" font-style="normal" font-weight="bold" text-anchor="middle">  95A </text>
<circle cx="620.10" cy="555.16" r="12.25" fill="#d2d2d2" stroke="#bfbfbf" stroke-linejoin="round" stroke-linecap="round" />
<text x="620.10" y="553.76" fill="black" font-family="Arial" font-size="7" font-style="normal" font-weight="bold" text-anchor="middle">  SER </text>
<text x="620.10" y="560.76" fill="black" font-family="Arial" font-size="7" font-style="normal" font-weight="bold" text-anchor="middle">  96A </text>
<circle cx="410.37" cy="137.97" r="12.25" fill="#d2d2d2" stroke="#bfbfbf" stroke-linejoin="round" stroke-linecap="round" />
<text x="410.37" y="136.57" fill="black" font-family="Arial" font-size="7" font-style="normal" font-weight="bold" text-anchor="middle">  ASP </text>
<text x="410.37" y="143.57" fill="black" font-family="Arial" font-size="7" font-style="normal" font-weight="bold" text-anchor="middle">  99A </text>
<circle cx="712.80" cy="430.75" r="12.25" fill="#d2d2d2" stroke="#bfbfbf" stroke-linejoin="round" stroke-linecap="round" />
<text x="712.80" y="429.55" fill="black" font-family="Arial" font-size="6" font-style="normal" font-weight="bold" text-anchor="middle">  LEU </text>
<text x="712.80" y="435.55" fill="black" font-family="Arial" font-size="6" font-style="normal" font-weight="bold" text-anchor="middle">  141A </text>
<circle cx="518.33" cy="500.65" r="12.25" fill="#d2d2d2" stroke="#bfbfbf" stroke-linejoin="round" stroke-linecap="round" />
<text x="518.33" y="499.45" fill="black" font-family="Arial" font-size="6" font-style="normal" font-weight="bold" text-anchor="middle">  ASP </text>
<text x="518.33" y="505.45" fill="black" font-family="Arial" font-size="6" font-style="normal" font-weight="bold" text-anchor="middle">  152A </text>
<path d="M 623.18 200.00 L 631.67 209.80 C 632.57 211.36 632.98 212.90 632.98 214.70 C 632.98 220.11 628.60 224.50 623.18 224.50 C 617.77 224.50 613.38 220.11 613.38 214.70 C 613.38 212.90 613.79 211.36 614.70 209.80 Z" fill="#d2d2d2" stroke="#bfbfbf" stroke-linejoin="round" stroke-linecap="round" />
<text x="623.18" y="212.72" fill="black" font-family="Arial" font-size="5" font-style="normal" font-weight="bold" text-anchor="middle">  HOH </text>
<text x="623.18" y="217.72" fill="black" font-family="Arial" font-size="5" font-style="normal" font-weight="bold" text-anchor="middle">  1054A </text>
<path d="M 494.28 368.38 L 502.77 378.18 C 503.67 379.74 504.08 381.28 504.08 383.08 C 504.08 388.49 499.69 392.88 494.28 392.88 C 488.87 392.88 484.48 388.49 484.48 383.08 C 484.48 381.28 484.89 379.74 485.79 378.18 Z" fill="#d2d2d2" stroke="#bfbfbf" stroke-linejoin="round" stroke-linecap="round" />
<text x="494.28" y="381.10" fill="black" font-family="Arial" font-size="5" font-style="normal" font-weight="bold" text-anchor="middle">  HOH </text>
<text x="494.28" y="386.10" fill="black" font-family="Arial" font-size="5" font-style="normal" font-weight="bold" text-anchor="middle">  1395A </text>
<path d="M 393.52 151.85 L 402.00 161.65 C 402.91 163.21 403.32 164.74 403.32 166.55 C 403.32 171.96 398.93 176.35 393.52 176.35 C 388.11 176.35 383.72 171.96 383.72 166.55 C 383.72 164.74 384.13 163.21 385.03 161.65 Z" fill="#d2d2d2" stroke="#bfbfbf" stroke-linejoin="round" stroke-linecap="round" />
<text x="393.52" y="164.57" fill="black" font-family="Arial" font-size="5" font-style="normal" font-weight="bold" text-anchor="middle">  HOH </text>
<text x="393.52" y="169.57" fill="black" font-family="Arial" font-size="5" font-style="normal" font-weight="bold" text-anchor="middle">  2150A </text>
<path d="M 554.24 129.01 L 562.73 138.81 C 563.63 140.38 564.04 141.91 564.04 143.71 C 564.04 149.13 559.65 153.51 554.24 153.51 C 548.83 153.51 544.44 149.13 544.44 143.71 C 544.44 141.91 544.85 140.38 545.75 138.81 Z" fill="#d2d2d2" stroke="#bfbfbf" stroke-linejoin="round" stroke-linecap="round" />
<text x="554.24" y="141.73" fill="black" font-family="Arial" font-size="5" font-style="normal" font-weight="bold" text-anchor="middle">  HOH </text>
<text x="554.24" y="146.73" fill="black" font-family="Arial" font-size="5" font-style="normal" font-weight="bold" text-anchor="middle">  2420A </text>
<path d="M 494.33 398.55 L 502.81 408.35 C 503.72 409.91 504.13 411.44 504.13 413.25 C 504.13 418.66 499.74 423.05 494.33 423.05 C 488.91 423.05 484.53 418.66 484.53 413.25 C 484.53 411.44 484.94 409.91 485.84 408.35 Z" fill="#d2d2d2" stroke="#bfbfbf" stroke-linejoin="round" stroke-linecap="round" />
<text x="494.33" y="411.27" fill="black" font-family="Arial" font-size="5" font-style="normal" font-weight="bold" text-anchor="middle">  HOH </text>
<text x="494.33" y="416.27" fill="black" font-family="Arial" font-size="5" font-style="normal" font-weight="bold" text-anchor="middle">  4890A </text>
<path d="M 520.78 457.30 L 529.27 467.10 C 530.17 468.66 530.58 470.19 530.58 472.00 C 530.58 477.41 526.20 481.80 520.78 481.80 C 515.37 481.80 510.98 477.41 510.98 472.00 C 510.98 470.19 511.40 468.66 512.30 467.10 Z" fill="#d2d2d2" stroke="#bfbfbf" stroke-linejoin="round" stroke-linecap="round" />
<text x="520.78" y="470.02" fill="black" font-family="Arial" font-size="5" font-style="normal" font-weight="bold" text-anchor="middle">  HOH </text>
<text x="520.78" y="475.02" fill="black" font-family="Arial" font-size="5" font-style="normal" font-weight="bold" text-anchor="middle">  7147A </text>
<path d="M 524.04 125.11 L 532.53 134.91 C 533.43 136.47 533.84 138.01 533.84 139.81 C 533.84 145.22 529.45 149.61 524.04 149.61 C 518.63 149.61 514.24 145.22 514.24 139.81 C 514.24 138.01 514.65 136.47 515.55 134.91 Z" fill="#d2d2d2" stroke="#bfbfbf" stroke-linejoin="round" stroke-linecap="round" />
<text x="524.04" y="137.83" fill="black" font-family="Arial" font-size="5" font-style="normal" font-weight="bold" text-anchor="middle">  HOH </text>
<text x="524.04" y="142.83" fill="black" font-family="Arial" font-size="5" font-style="normal" font-weight="bold" text-anchor="middle">  8832A </text>
<path d="M 582.37 140.54 L 590.86 150.34 C 591.76 151.90 592.17 153.43 592.17 155.24 C 592.17 160.65 587.78 165.04 582.37 165.04 C 576.96 165.04 572.57 160.65 572.57 155.24 C 572.57 153.43 572.98 151.90 573.89 150.34 Z" fill="#d2d2d2" stroke="#bfbfbf" stroke-linejoin="round" stroke-linecap="round" />
<text x="582.37" y="153.26" fill="black" font-family="Arial" font-size="5" font-style="normal" font-weight="bold" text-anchor="middle">  HOH </text>
<text x="582.37" y="158.26" fill="black" font-family="Arial" font-size="5" font-style="normal" font-weight="bold" text-anchor="middle">  9098A </text>
<line x1="628.47" y1="345.17" x2="636.29" y2="338.61" stroke="#9b6464" stroke-linejoin="round" stroke-linecap="round" />
<path d="M 641.53 340.88 C 639.37 342.69 636.15 342.41 634.34 340.25 C 632.52 338.09 632.81 334.87 634.97 333.06 L 636.92 331.42 L 638.56 333.37 L 636.61 335.02 L 637.59 336.19 L 639.55 334.55 L 640.86 336.11 L 638.90 337.75 L 639.89 338.93 L 641.84 337.28 L 643.48 339.24 Z" fill="#ffc8c8" stroke="#9b6464" stroke-linejoin="round" stroke-linecap="round" />
<line x1="587.14" y1="545.70" x2="588.03" y2="535.53" stroke="#9b6464" stroke-linejoin="round" stroke-linecap="round" />
<path d="M 593.34 533.44 C 593.09 536.24 590.61 538.32 587.81 538.08 C 585.00 537.83 582.92 535.35 583.17 532.55 L 583.39 530.00 L 585.93 530.23 L 585.71 532.77 L 587.23 532.90 L 587.46 530.36 L 589.49 530.54 L 589.27 533.08 L 590.79 533.21 L 591.02 530.67 L 593.56 530.89 Z" fill="#ffc8c8" stroke="#9b6464" stroke-linejoin="round" stroke-linecap="round" />
<line x1="528.94" y1="494.53" x2="537.78" y2="489.42" stroke="#64649b" stroke-linejoin="round" stroke-linecap="round" />
<line x1="543.48" y1="489.08" x2="546.43" y2="487.38" stroke="#64649b" stroke-width="2" stroke-linejoin="round" />
<line x1="540.93" y1="484.66" x2="543.87" y2="482.96" stroke="#64649b" stroke-width="2" stroke-linejoin="round" />
<path d="M 542.54 492.57 C 540.10 493.98 536.98 493.14 535.57 490.70 C 534.16 488.26 535.00 485.13 537.44 483.73 L 539.65 482.45 L 544.76 491.29 Z" fill="#c8c8ff" stroke="#64649b" stroke-linejoin="round" stroke-linecap="round" />
<line x1="713.46" y1="369.63" x2="704.21" y2="373.95" stroke="#9b6464" stroke-linejoin="round" stroke-linecap="round" />
<path d="M 699.74 370.40 C 702.29 369.21 705.33 370.31 706.52 372.87 C 707.71 375.42 706.60 378.46 704.05 379.65 L 701.74 380.73 L 700.66 378.42 L 702.97 377.34 L 702.32 375.95 L 700.01 377.03 L 699.15 375.18 L 701.46 374.10 L 700.81 372.71 L 698.50 373.79 L 697.42 371.48 Z" fill="#ffc8c8" stroke="#9b6464" stroke-linejoin="round" stroke-linecap="round" />
<line x1="660.53" y1="265.62" x2="650.48" y2="267.39" stroke="#64649b" stroke-linejoin="round" stroke-linecap="round" />
<line x1="645.01" y1="265.77" x2="641.66" y2="266.36" stroke="#64649b" stroke-width="2" stroke-linejoin="round" />
<line x1="645.89" y1="270.79" x2="642.54" y2="271.38" stroke="#64649b" stroke-width="2" stroke-linejoin="round" />
<path d="M 647.08 262.81 C 649.85 262.32 652.50 264.17 652.99 266.95 C 653.48 269.73 651.63 272.37 648.85 272.86 L 646.34 273.31 L 644.56 263.25 Z" fill="#c8c8ff" stroke="#64649b" stroke-linejoin="round" stroke-linecap="round" />
<line x1="616.93" y1="543.33" x2="614.29" y2="533.47" stroke="#64649b" stroke-linejoin="round" stroke-linecap="round" />
<line x1="615.43" y1="527.88" x2="614.55" y2="524.59" stroke="#64649b" stroke-width="2" stroke-linejoin="round" />
<line x1="610.50" y1="529.20" x2="609.62" y2="525.91" stroke="#64649b" stroke-width="2" stroke-linejoin="round" />
<path d="M 618.56 529.68 C 619.29 532.41 617.67 535.21 614.95 535.93 C 612.23 536.66 609.43 535.05 608.70 532.33 L 608.04 529.86 L 617.90 527.22 Z" fill="#c8c8ff" stroke="#64649b" stroke-linejoin="round" stroke-linecap="round" />
<circle cx="27.43" cy="39.50" r="15.36" fill="none" stroke="black" stroke-linejoin="round" stroke-linecap="round" />
<path d="M 27.43 68.30 L 38.07 80.59 C 39.20 82.54 39.71 84.47 39.71 86.73 C 39.71 93.51 34.21 99.01 27.43 99.01 C 20.64 99.01 15.14 93.51 15.14 86.73 C 15.14 84.47 15.66 82.54 16.79 80.59 Z" fill="none" stroke="black" stroke-linejoin="round" stroke-linecap="round" />
<line x1="12.07" y1="155.50" x2="35.11" y2="155.50" stroke="#64649b" stroke-linejoin="round" stroke-linecap="round" />
<line x1="42.79" y1="159.34" x2="47.90" y2="159.34" stroke="#64649b" stroke-width="3" stroke-linejoin="round" />
<line x1="42.79" y1="151.66" x2="47.90" y2="151.66" stroke="#64649b" stroke-width="3" stroke-linejoin="round" />
<path d="M 38.95 163.18 C 34.71 163.18 31.27 159.74 31.27 155.50 C 31.27 151.26 34.71 147.82 38.95 147.82 L 42.79 147.82 L 42.79 163.18 Z" fill="#c8c8ff" stroke="#64649b" stroke-linejoin="round" stroke-linecap="round" />
<line x1="12.07" y1="201.50" x2="35.11" y2="201.50" stroke="#9b6464" stroke-linejoin="round" stroke-linecap="round" />
<path d="M 38.95 209.18 C 34.71 209.18 31.27 205.74 31.27 201.50 C 31.27 197.26 34.71 193.82 38.95 193.82 L 42.79 193.82 L 42.79 197.66 L 38.95 197.66 L 38.95 199.96 L 42.79 199.96 L 42.79 203.04 L 38.95 203.04 L 38.95 205.34 L 42.79 205.34 L 42.79 209.18 Z" fill="#ffc8c8" stroke="#9b6464" stroke-linejoin="round" stroke-linecap="round" />
<text x="55.07" y="43.50" fill="black" font-family="Arial" font-size="12" font-style="normal" font-weight="bold" text-anchor="start">  amino acid </text>
<text x="55.07" y="89.50" fill="black" font-family="Arial" font-size="12" font-style="normal" font-weight="bold" text-anchor="start">  water </text>
<text x="55.07" y="159.50" fill="black" font-family="Arial" font-size="12" font-style="normal" font-weight="bold" text-anchor="start">  unpaired donor </text>
<text x="55.07" y="205.50" fill="black" font-family="Arial" font-size="12" font-style="normal" font-weight="bold" text-anchor="start">  unpaired acceptor </text>
<path d="M 13.50 10.80 L 166.50 10.80 C 170.48 10.80 173.70 14.02 173.70 18.00 L 173.70 102.50 C 173.70 106.48 170.48 109.70 166.50 109.70 L 13.50 109.70 C 9.52 109.70 6.30 106.48 6.30 102.50 L 6.30 18.00 C 6.30 14.02 9.52 10.80 13.50 10.80 Z" fill="none" stroke="#bfbfbf" stroke-width="3" stroke-linejoin="round" stroke-linecap="round" />
<rect x="34.54" y="4.5" width="110.91" height="9" fill="white" stroke="white" stroke-linejoin="round" stroke-linecap="round" />
<text x="90.00" y="13.67" fill="black" font-family="Arial" font-size="14" font-style="normal" font-weight="bold" text-anchor="middle">  Residue Styles </text>
<path d="M 13.50 126.80 L 166.50 126.80 C 170.48 126.80 173.70 130.02 173.70 134.00 L 173.70 218.50 C 173.70 222.48 170.48 225.70 166.50 225.70 L 13.50 225.70 C 9.52 225.70 6.30 222.48 6.30 218.50 L 6.30 134.00 C 6.30 130.02 9.52 126.80 13.50 126.80 Z" fill="none" stroke="#bfbfbf" stroke-width="3" stroke-linejoin="round" stroke-linecap="round" />
<rect x="25.6" y="120.5" width="128.8" height="9" fill="white" stroke="white" stroke-linejoin="round" stroke-linecap="round" />
<text x="90.00" y="129.67" fill="black" font-family="Arial" font-size="14" font-style="normal" font-weight="bold" text-anchor="middle">  Interaction Styles </text>
<path d="M 10.50 0.50 L 889.50 0.50 C 895.02 0.50 899.50 4.98 899.50 10.50 L 899.50 589.50 C 899.50 595.02 895.02 599.50 889.50 599.50 L 10.50 599.50 C 4.98 599.50 0.50 595.02 0.50 589.50 L 0.50 10.50 C 0.50 4.98 4.98 0.50 10.50 0.50 Z" fill="none" stroke="#bfbfbf" stroke-linejoin="round" stroke-linecap="round" />
</svg>
