<?xml version="1.0" encoding="UTF-8"?>
<!DOCTYPE svg PUBLIC "-//W3C//DTD SVG 1.1//EN"
  "http://www.w3.org/Graphics/SVG/1.1/DTD/svg11.dtd">
<svg xmlns="http://www.w3.org/2000/svg" xmlns:xlink="http://www.w3.org/1999/xlink"   viewBox="0.00 0.00 900.00 600.00">
<!-- Created by OpenEye Scientific Software -->
<!-- Creation Date Thu Mar 18 12:47:50 2021 -->
<rect width="900.00" height="600.00" fill="white" />
<rect x="180" y="0" width="720" height="600" fill="white" />
<text x="540.00" y="52.50" fill="black" font-family="Arial" font-size="45" font-style="normal" font-weight="normal" text-anchor="middle">  MOL </text>
<line x1="623.10" y1="447.64" x2="589.80" y2="428.55" stroke="black" stroke-width="4" stroke-linejoin="round" stroke-linecap="round" />
<line x1="621.82" y1="437.52" x2="599.18" y2="424.54" stroke="black" stroke-width="4" stroke-linejoin="round" stroke-linecap="round" />
<line x1="623.10" y1="447.64" x2="656.40" y2="428.55" stroke="black" stroke-width="4" stroke-linejoin="round" stroke-linecap="round" />
<line x1="589.80" y1="428.55" x2="589.80" y2="389.96" stroke="black" stroke-width="4" stroke-linejoin="round" stroke-linecap="round" />
<line x1="589.80" y1="389.96" x2="568.64" y2="377.83" stroke="black" stroke-width="4" stroke-linejoin="round" stroke-linecap="round" />
<line x1="589.80" y1="389.96" x2="623.10" y2="370.48" stroke="black" stroke-width="4" stroke-linejoin="round" stroke-linecap="round" />
<line x1="599.24" y1="393.87" x2="621.88" y2="380.62" stroke="black" stroke-width="4" stroke-linejoin="round" stroke-linecap="round" />
<line x1="623.10" y1="370.48" x2="623.10" y2="332.10" stroke="black" stroke-width="4" stroke-linejoin="round" stroke-linecap="round" />
<line x1="623.10" y1="370.48" x2="656.40" y2="389.96" stroke="black" stroke-width="4" stroke-linejoin="round" stroke-linecap="round" />
<line x1="656.40" y1="389.96" x2="677.56" y2="377.83" stroke="black" stroke-width="4" stroke-linejoin="round" stroke-linecap="round" />
<line x1="656.40" y1="389.96" x2="656.40" y2="428.55" stroke="black" stroke-width="4" stroke-linejoin="round" stroke-linecap="round" />
<line x1="648.25" y1="396.14" x2="648.25" y2="422.37" stroke="black" stroke-width="4" stroke-linejoin="round" stroke-linecap="round" />
<line x1="625.13" y1="335.62" x2="647.43" y2="322.75" stroke="black" stroke-width="4" stroke-linejoin="round" stroke-linecap="round" />
<line x1="621.06" y1="328.57" x2="643.36" y2="315.70" stroke="black" stroke-width="4" stroke-linejoin="round" stroke-linecap="round" />
<line x1="623.10" y1="332.10" x2="599.63" y2="318.54" stroke="black" stroke-width="4" stroke-linejoin="round" stroke-linecap="round" />
<line x1="589.86" y1="301.62" x2="589.86" y2="274.52" stroke="black" stroke-width="4" stroke-linejoin="round" stroke-linecap="round" />
<line x1="589.86" y1="274.52" x2="623.16" y2="255.43" stroke="black" stroke-width="4" stroke-linejoin="round" stroke-linecap="round" />
<line x1="591.14" y1="264.40" x2="613.78" y2="251.42" stroke="black" stroke-width="4" stroke-linejoin="round" stroke-linecap="round" />
<line x1="589.86" y1="274.52" x2="556.56" y2="255.43" stroke="black" stroke-width="4" stroke-linejoin="round" stroke-linecap="round" />
<line x1="623.16" y1="255.43" x2="623.16" y2="216.85" stroke="black" stroke-width="4" stroke-linejoin="round" stroke-linecap="round" />
<line x1="623.16" y1="216.85" x2="599.59" y2="203.06" stroke="black" stroke-width="4" stroke-linejoin="round" stroke-linecap="round" />
<line x1="613.72" y1="220.75" x2="591.07" y2="207.50" stroke="black" stroke-width="4" stroke-linejoin="round" stroke-linecap="round" />
<line x1="580.12" y1="203.06" x2="556.56" y2="216.85" stroke="black" stroke-width="4" stroke-linejoin="round" stroke-linecap="round" />
<line x1="556.56" y1="216.85" x2="533.05" y2="203.36" stroke="black" stroke-width="4" stroke-linejoin="round" stroke-linecap="round" />
<line x1="556.56" y1="216.85" x2="556.56" y2="255.43" stroke="black" stroke-width="4" stroke-linejoin="round" stroke-linecap="round" />
<line x1="564.70" y1="223.02" x2="564.70" y2="249.25" stroke="black" stroke-width="4" stroke-linejoin="round" stroke-linecap="round" />
<line x1="513.51" y1="203.42" x2="490.08" y2="217.04" stroke="black" stroke-width="4" stroke-linejoin="round" stroke-linecap="round" />
<line x1="490.08" y1="217.04" x2="466.57" y2="203.56" stroke="black" stroke-width="4" stroke-linejoin="round" stroke-linecap="round" />
<line x1="486.01" y1="217.05" x2="486.09" y2="242.80" stroke="black" stroke-width="4" stroke-linejoin="round" stroke-linecap="round" />
<line x1="494.15" y1="217.03" x2="494.23" y2="242.78" stroke="black" stroke-width="4" stroke-linejoin="round" stroke-linecap="round" />
<line x1="423.60" y1="217.24" x2="390.31" y2="198.14" stroke="black" stroke-width="4" stroke-linejoin="round" stroke-linecap="round" />
<line x1="423.60" y1="217.24" x2="447.04" y2="203.62" stroke="black" stroke-width="4" stroke-linejoin="round" stroke-linecap="round" />
<text x="689.69" y="376.15" fill="black" font-family="Arial" font-size="16" font-style="normal" font-weight="normal" text-anchor="middle">  Cl </text>
<text x="656.34" y="318.18" fill="black" font-family="Arial" font-size="16" font-style="normal" font-weight="normal" text-anchor="middle">  O </text>
<text x="589.86" y="318.18" fill="black" font-family="Arial" font-size="16" font-style="normal" font-weight="normal" text-anchor="middle">  N </text>
<text x="578.66" y="318.18" fill="black" font-family="Arial" font-size="16" font-style="normal" font-weight="normal" text-anchor="middle">  H </text>
<text x="589.86" y="202.64" fill="black" font-family="Arial" font-size="16" font-style="normal" font-weight="normal" text-anchor="middle">  N </text>
<text x="523.27" y="203.03" fill="black" font-family="Arial" font-size="16" font-style="normal" font-weight="normal" text-anchor="middle">  N </text>
<text x="523.27" y="190.23" fill="black" font-family="Arial" font-size="16" font-style="normal" font-weight="normal" text-anchor="middle">  H </text>
<text x="490.20" y="260.70" fill="black" font-family="Arial" font-size="16" font-style="normal" font-weight="normal" text-anchor="middle">  O </text>
<text x="556.51" y="376.15" fill="black" font-family="Arial" font-size="16" font-style="normal" font-weight="normal" text-anchor="middle">  Cl </text>
<text x="456.79" y="203.23" fill="black" font-family="Arial" font-size="16" font-style="normal" font-weight="normal" text-anchor="middle">  N </text>
<text x="456.79" y="190.43" fill="black" font-family="Arial" font-size="16" font-style="normal" font-weight="normal" text-anchor="middle">  H </text>
<path d = "M 648.94 470.65 A 34.60 34.60 0 0 1 607.95 478.74" fill = "none"  stroke="#bfbfbf" stroke-width="4" stroke-linejoin="round" stroke-linecap="round" />
<path d = "M 648.94 470.65 A 25.95 25.95 0 0 1 663.21 462.47" fill = "none"  stroke="#bfbfbf" stroke-width="4" stroke-linejoin="round" stroke-linecap="round" />
<path d = "M 689.96 436.95 A 34.60 34.60 0 0 1 663.21 462.47" fill = "none"  stroke="#bfbfbf" stroke-width="4" stroke-linejoin="round" stroke-linecap="round" />
<path d = "M 689.96 436.95 A 25.95 25.95 0 0 1 706.53 418.76" fill = "none"  stroke="#bfbfbf" stroke-width="4" stroke-linejoin="round" stroke-linecap="round" />
<path d = "M 722.20 331.88 A 50.77 50.77 0 0 1 706.53 418.76" fill = "none"  stroke="#bfbfbf" stroke-width="4" stroke-linejoin="round" stroke-linecap="round" />
<path d = "M 722.20 331.88 A 25.95 25.95 0 0 1 712.87 312.25" fill = "none"  stroke="#bfbfbf" stroke-width="4" stroke-linejoin="round" stroke-linecap="round" />
<path d = "M 691.51 268.64 A 56.54 56.54 0 0 1 712.87 312.25" fill = "none"  stroke="#bfbfbf" stroke-width="4" stroke-linejoin="round" stroke-linecap="round" />
<path d = "M 691.51 268.64 A 25.95 25.95 0 0 1 681.80 250.50" fill = "none"  stroke="#bfbfbf" stroke-width="4" stroke-linejoin="round" stroke-linecap="round" />
<path d = "M 676.37 230.29 A 58.85 58.85 0 0 1 681.80 250.50" fill = "none"  stroke="#bfbfbf" stroke-width="4" stroke-linejoin="round" stroke-linecap="round" />
<path d = "M 676.37 230.29 A 25.95 25.95 0 0 1 673.90 218.41" fill = "none"  stroke="#bfbfbf" stroke-width="4" stroke-linejoin="round" stroke-linecap="round" />
<path d = "M 615.70 166.63 A 50.77 50.77 0 0 1 673.90 218.41" fill = "none"  stroke="#bfbfbf" stroke-width="4" stroke-linejoin="round" stroke-linecap="round" />
<path d = "M 615.70 166.63 A 25.95 25.95 0 0 1 602.45 165.13" fill = "none"  stroke="#bfbfbf" stroke-width="4" stroke-linejoin="round" stroke-linecap="round" />
<path d = "M 579.38 164.39 A 34.60 34.60 0 0 1 602.45 165.13" fill = "none"  stroke="#bfbfbf" stroke-width="4" stroke-linejoin="round" stroke-linecap="round" />
<path d = "M 579.38 164.39 A 25.95 25.95 0 0 1 554.94 159.62" fill = "none"  stroke="#bfbfbf" stroke-width="4" stroke-linejoin="round" stroke-linecap="round" />
<path d = "M 491.28 159.88 A 49.57 49.57 0 0 1 554.94 159.62" fill = "none"  stroke="#bfbfbf" stroke-width="4" stroke-linejoin="round" stroke-linecap="round" />
<path d = "M 491.28 159.88 A 25.95 25.95 0 0 1 466.93 164.87" fill = "none"  stroke="#bfbfbf" stroke-width="4" stroke-linejoin="round" stroke-linecap="round" />
<path d = "M 441.88 166.73 A 34.60 34.60 0 0 1 466.93 164.87" fill = "none"  stroke="#bfbfbf" stroke-width="4" stroke-linejoin="round" stroke-linecap="round" />
<path d = "M 441.88 166.73 A 25.95 25.95 0 0 1 428.22 169.14" fill = "none"  stroke="#bfbfbf" stroke-width="4" stroke-linejoin="round" stroke-linecap="round" />
<path d = "M 418.70 169.17 A 48.32 48.32 0 0 1 428.22 169.14" fill = "none"  stroke="#bfbfbf" stroke-width="4" stroke-linejoin="round" stroke-linecap="round" />
<path d = "M 418.70 169.17 A 25.95 25.95 0 0 1 405.03 166.84" fill = "none"  stroke="#bfbfbf" stroke-width="4" stroke-linejoin="round" stroke-linecap="round" />
<path d = "M 370.72 226.66 A 34.60 34.60 0 0 1 405.03 166.84" fill = "none"  stroke="#bfbfbf" stroke-width="4" stroke-linejoin="round" stroke-linecap="round" />
<path d = "M 370.72 226.66 A 25.95 25.95 0 0 1 379.64 237.29" fill = "none"  stroke="#bfbfbf" stroke-width="4" stroke-linejoin="round" stroke-linecap="round" />
<path d = "M 434.42 264.33 A 48.32 48.32 0 0 1 379.64 237.29" fill = "none"  stroke="#bfbfbf" stroke-width="4" stroke-linejoin="round" stroke-linecap="round" />
<path d = "M 434.42 264.33 A 25.95 25.95 0 0 1 461.65 274.96" fill = "none"  stroke="#bfbfbf" stroke-width="4" stroke-linejoin="round" stroke-linecap="round" />
<path d = "M 499.09 288.86 A 34.60 34.60 0 0 1 461.65 274.96" fill = "none"  stroke="#bfbfbf" stroke-width="4" stroke-linejoin="round" stroke-linecap="round" />
<path d = "M 499.09 288.86 A 25.95 25.95 0 0 1 522.78 294.34" fill = "none"  stroke="#bfbfbf" stroke-width="4" stroke-linejoin="round" stroke-linecap="round" />
<path d = "M 527.09 297.69 A 51.53 51.53 0 0 1 522.78 294.34" fill = "none"  stroke="#bfbfbf" stroke-width="4" stroke-linejoin="round" stroke-linecap="round" />
<path d = "M 527.09 297.69 A 25.95 25.95 0 0 1 538.11 316.95" fill = "none"  stroke="#bfbfbf" stroke-width="4" stroke-linejoin="round" stroke-linecap="round" />
<path d = "M 538.97 323.12 A 51.91 51.91 0 0 1 538.11 316.95" fill = "none"  stroke="#bfbfbf" stroke-width="4" stroke-linejoin="round" stroke-linecap="round" />
<path d = "M 538.97 323.12 A 25.95 25.95 0 0 1 531.95 346.50" fill = "none"  stroke="#bfbfbf" stroke-width="4" stroke-linejoin="round" stroke-linecap="round" />
<path d = "M 533.89 397.05 A 34.60 34.60 0 0 1 531.95 346.50" fill = "none"  stroke="#bfbfbf" stroke-width="4" stroke-linejoin="round" stroke-linecap="round" />
<path d = "M 533.89 397.05 A 25.95 25.95 0 0 1 542.54 420.85" fill = "none"  stroke="#bfbfbf" stroke-width="4" stroke-linejoin="round" stroke-linecap="round" />
<path d = "M 594.20 476.23 A 47.89 47.89 0 0 1 542.54 420.85" fill = "none"  stroke="#bfbfbf" stroke-width="4" stroke-linejoin="round" stroke-linecap="round" />
<path d = "M 594.20 476.23 A 25.95 25.95 0 0 1 607.95 478.74" fill = "none"  stroke="#bfbfbf" stroke-width="4" stroke-linejoin="round" stroke-linecap="round" />
<circle cx="342.79" cy="261.70" r="15.35" fill="#d2d2d2" stroke="#bfbfbf" stroke-width="2" stroke-linejoin="round" stroke-linecap="round" />
<text x="342.79" y="259.90" fill="black" font-family="Arial" font-size="9" font-style="normal" font-weight="bold" text-anchor="middle">  ARG </text>
<text x="342.79" y="268.90" fill="black" font-family="Arial" font-size="9" font-style="normal" font-weight="bold" text-anchor="middle">  12A </text>
<circle cx="442.24" cy="317.30" r="15.35" fill="#d2d2d2" stroke="#bfbfbf" stroke-width="2" stroke-linejoin="round" stroke-linecap="round" />
<text x="442.24" y="315.50" fill="black" font-family="Arial" font-size="9" font-style="normal" font-weight="bold" text-anchor="middle">  LEU </text>
<text x="442.24" y="324.50" fill="black" font-family="Arial" font-size="9" font-style="normal" font-weight="bold" text-anchor="middle">  14A </text>
<circle cx="471.95" cy="410.66" r="15.35" fill="#d2d2d2" stroke="#bfbfbf" stroke-width="2" stroke-linejoin="round" stroke-linecap="round" />
<text x="471.95" y="408.86" fill="black" font-family="Arial" font-size="9" font-style="normal" font-weight="bold" text-anchor="middle">  GLY </text>
<text x="471.95" y="417.86" fill="black" font-family="Arial" font-size="9" font-style="normal" font-weight="bold" text-anchor="middle">  15A </text>
<circle cx="584.96" cy="519.81" r="15.35" fill="#d2d2d2" stroke="#bfbfbf" stroke-width="2" stroke-linejoin="round" stroke-linecap="round" />
<text x="584.96" y="518.01" fill="black" font-family="Arial" font-size="9" font-style="normal" font-weight="bold" text-anchor="middle">  GLU </text>
<text x="584.96" y="527.01" fill="black" font-family="Arial" font-size="9" font-style="normal" font-weight="bold" text-anchor="middle">  16A </text>
<circle cx="641.49" cy="554.88" r="15.35" fill="#d2d2d2" stroke="#bfbfbf" stroke-width="2" stroke-linejoin="round" stroke-linecap="round" />
<text x="641.49" y="553.08" fill="black" font-family="Arial" font-size="9" font-style="normal" font-weight="bold" text-anchor="middle">  GLY </text>
<text x="641.49" y="562.08" fill="black" font-family="Arial" font-size="9" font-style="normal" font-weight="bold" text-anchor="middle">  17A </text>
<circle cx="478.20" cy="367.53" r="15.35" fill="#d2d2d2" stroke="#bfbfbf" stroke-width="2" stroke-linejoin="round" stroke-linecap="round" />
<text x="478.20" y="365.73" fill="black" font-family="Arial" font-size="9" font-style="normal" font-weight="bold" text-anchor="middle">  VAL </text>
<text x="478.20" y="374.73" fill="black" font-family="Arial" font-size="9" font-style="normal" font-weight="bold" text-anchor="middle">  22A </text>
<circle cx="647.29" cy="109.92" r="15.35" fill="#d2d2d2" stroke="#bfbfbf" stroke-width="2" stroke-linejoin="round" stroke-linecap="round" />
<text x="647.29" y="108.12" fill="black" font-family="Arial" font-size="9" font-style="normal" font-weight="bold" text-anchor="middle">  ALA </text>
<text x="647.29" y="117.12" fill="black" font-family="Arial" font-size="9" font-style="normal" font-weight="bold" text-anchor="middle">  39A </text>
<circle cx="732.63" cy="208.75" r="15.35" fill="#d2d2d2" stroke="#bfbfbf" stroke-width="2" stroke-linejoin="round" stroke-linecap="round" />
<text x="732.63" y="206.95" fill="black" font-family="Arial" font-size="9" font-style="normal" font-weight="bold" text-anchor="middle">  ILE </text>
<text x="732.63" y="215.95" fill="black" font-family="Arial" font-size="9" font-style="normal" font-weight="bold" text-anchor="middle">  71A </text>
<circle cx="686.34" cy="127.27" r="15.35" fill="#d2d2d2" stroke="#bfbfbf" stroke-width="2" stroke-linejoin="round" stroke-linecap="round" />
<text x="686.34" y="125.47" fill="black" font-family="Arial" font-size="9" font-style="normal" font-weight="bold" text-anchor="middle">  GLU </text>
<text x="686.34" y="134.47" fill="black" font-family="Arial" font-size="9" font-style="normal" font-weight="bold" text-anchor="middle">  90A </text>
<circle cx="419.39" cy="123.93" r="15.35" fill="#d2d2d2" stroke="#bfbfbf" stroke-width="2" stroke-linejoin="round" stroke-linecap="round" />
<text x="419.39" y="122.13" fill="black" font-family="Arial" font-size="9" font-style="normal" font-weight="bold" text-anchor="middle">  TYR </text>
<text x="419.39" y="131.13" fill="black" font-family="Arial" font-size="9" font-style="normal" font-weight="bold" text-anchor="middle">  91A </text>
<circle cx="593.21" cy="134.70" r="15.35" fill="#d2d2d2" stroke="#bfbfbf" stroke-width="2" stroke-linejoin="round" stroke-linecap="round" />
<text x="593.21" y="132.90" fill="black" font-family="Arial" font-size="9" font-style="normal" font-weight="bold" text-anchor="middle">  VAL </text>
<text x="593.21" y="141.90" fill="black" font-family="Arial" font-size="9" font-style="normal" font-weight="bold" text-anchor="middle">  92A </text>
<circle cx="321.23" cy="161.71" r="15.35" fill="#d2d2d2" stroke="#bfbfbf" stroke-width="2" stroke-linejoin="round" stroke-linecap="round" />
<text x="321.23" y="159.91" fill="black" font-family="Arial" font-size="9" font-style="normal" font-weight="bold" text-anchor="middle">  PRO </text>
<text x="321.23" y="168.91" fill="black" font-family="Arial" font-size="9" font-style="normal" font-weight="bold" text-anchor="middle">  93A </text>
<circle cx="399.54" cy="305.85" r="15.35" fill="#d2d2d2" stroke="#bfbfbf" stroke-width="2" stroke-linejoin="round" stroke-linecap="round" />
<text x="399.54" y="304.05" fill="black" font-family="Arial" font-size="9" font-style="normal" font-weight="bold" text-anchor="middle">  GLY </text>
<text x="399.54" y="313.05" fill="black" font-family="Arial" font-size="9" font-style="normal" font-weight="bold" text-anchor="middle">  95A </text>
<circle cx="761.80" cy="235.63" r="15.35" fill="#d2d2d2" stroke="#bfbfbf" stroke-width="2" stroke-linejoin="round" stroke-linecap="round" />
<text x="761.80" y="233.83" fill="black" font-family="Arial" font-size="9" font-style="normal" font-weight="bold" text-anchor="middle">  SER </text>
<text x="761.80" y="242.83" fill="black" font-family="Arial" font-size="9" font-style="normal" font-weight="bold" text-anchor="middle">  96A </text>
<circle cx="671.08" cy="509.26" r="15.35" fill="#d2d2d2" stroke="#bfbfbf" stroke-width="2" stroke-linejoin="round" stroke-linecap="round" />
<text x="671.08" y="507.66" fill="black" font-family="Arial" font-size="8" font-style="normal" font-weight="bold" text-anchor="middle">  ARG </text>
<text x="671.08" y="515.66" fill="black" font-family="Arial" font-size="8" font-style="normal" font-weight="bold" text-anchor="middle">  138A </text>
<circle cx="715.66" cy="500.80" r="15.35" fill="#d2d2d2" stroke="#bfbfbf" stroke-width="2" stroke-linejoin="round" stroke-linecap="round" />
<text x="715.66" y="499.20" fill="black" font-family="Arial" font-size="8" font-style="normal" font-weight="bold" text-anchor="middle">  ASN </text>
<text x="715.66" y="507.20" fill="black" font-family="Arial" font-size="8" font-style="normal" font-weight="bold" text-anchor="middle">  139A </text>
<circle cx="732.95" cy="248.57" r="15.35" fill="#d2d2d2" stroke="#bfbfbf" stroke-width="2" stroke-linejoin="round" stroke-linecap="round" />
<text x="732.95" y="246.97" fill="black" font-family="Arial" font-size="8" font-style="normal" font-weight="bold" text-anchor="middle">  LEU </text>
<text x="732.95" y="254.97" fill="black" font-family="Arial" font-size="8" font-style="normal" font-weight="bold" text-anchor="middle">  141A </text>
<circle cx="796.78" cy="394.30" r="15.35" fill="#d2d2d2" stroke="#bfbfbf" stroke-width="2" stroke-linejoin="round" stroke-linecap="round" />
<text x="796.78" y="392.70" fill="black" font-family="Arial" font-size="8" font-style="normal" font-weight="bold" text-anchor="middle">  GLY </text>
<text x="796.78" y="400.70" fill="black" font-family="Arial" font-size="8" font-style="normal" font-weight="bold" text-anchor="middle">  151A </text>
<circle cx="735.25" cy="454.39" r="15.35" fill="#d2d2d2" stroke="#bfbfbf" stroke-width="2" stroke-linejoin="round" stroke-linecap="round" />
<text x="735.25" y="452.79" fill="black" font-family="Arial" font-size="8" font-style="normal" font-weight="bold" text-anchor="middle">  ASP </text>
<text x="735.25" y="460.79" fill="black" font-family="Arial" font-size="8" font-style="normal" font-weight="bold" text-anchor="middle">  152A </text>
<path d="M 628.38 492.97 L 639.02 505.25 C 640.15 507.21 640.66 509.13 640.66 511.39 C 640.66 518.17 635.16 523.67 628.38 523.67 C 621.60 523.67 616.10 518.17 616.10 511.39 C 616.10 509.13 616.61 507.21 617.74 505.25 Z" fill="#d2d2d2" stroke="#bfbfbf" stroke-width="2" stroke-linejoin="round" stroke-linecap="round" />
<text x="628.38" y="508.56" fill="black" font-family="Arial" font-size="8" font-style="normal" font-weight="bold" text-anchor="middle">  HOH </text>
<text x="628.38" y="516.56" fill="black" font-family="Arial" font-size="8" font-style="normal" font-weight="bold" text-anchor="middle">  305A </text>
<path d="M 356.03 128.40 L 366.66 140.68 C 367.79 142.64 368.31 144.56 368.31 146.82 C 368.31 153.61 362.81 159.10 356.03 159.10 C 349.24 159.10 343.74 153.61 343.74 146.82 C 343.74 144.56 344.26 142.64 345.39 140.68 Z" fill="#d2d2d2" stroke="#bfbfbf" stroke-width="2" stroke-linejoin="round" stroke-linecap="round" />
<text x="356.03" y="144.39" fill="black" font-family="Arial" font-size="6" font-style="normal" font-weight="bold" text-anchor="middle">  HOH </text>
<text x="356.03" y="150.39" fill="black" font-family="Arial" font-size="6" font-style="normal" font-weight="bold" text-anchor="middle">  1286A </text>
<path d="M 549.20 475.64 L 559.83 487.92 C 560.96 489.88 561.48 491.80 561.48 494.06 C 561.48 500.84 555.98 506.34 549.20 506.34 C 542.41 506.34 536.91 500.84 536.91 494.06 C 536.91 491.80 537.43 489.88 538.56 487.92 Z" fill="#d2d2d2" stroke="#bfbfbf" stroke-width="2" stroke-linejoin="round" stroke-linecap="round" />
<text x="549.20" y="491.63" fill="black" font-family="Arial" font-size="6" font-style="normal" font-weight="bold" text-anchor="middle">  HOH </text>
<text x="549.20" y="497.63" fill="black" font-family="Arial" font-size="6" font-style="normal" font-weight="bold" text-anchor="middle">  1532A </text>
<path d="M 742.99 291.55 L 753.63 303.83 C 754.76 305.79 755.27 307.71 755.27 309.97 C 755.27 316.76 749.77 322.25 742.99 322.25 C 736.21 322.25 730.71 316.76 730.71 309.97 C 730.71 307.71 731.22 305.79 732.35 303.83 Z" fill="#d2d2d2" stroke="#bfbfbf" stroke-width="2" stroke-linejoin="round" stroke-linecap="round" />
<text x="742.99" y="307.54" fill="black" font-family="Arial" font-size="6" font-style="normal" font-weight="bold" text-anchor="middle">  HOH </text>
<text x="742.99" y="313.54" fill="black" font-family="Arial" font-size="6" font-style="normal" font-weight="bold" text-anchor="middle">  1590A </text>
<path d="M 487.06 313.75 L 497.69 326.04 C 498.83 327.99 499.34 329.92 499.34 332.18 C 499.34 338.96 493.84 344.46 487.06 344.46 C 480.28 344.46 474.78 338.96 474.78 332.18 C 474.78 329.92 475.29 327.99 476.42 326.04 Z" fill="#d2d2d2" stroke="#bfbfbf" stroke-width="2" stroke-linejoin="round" stroke-linecap="round" />
<text x="487.06" y="329.75" fill="black" font-family="Arial" font-size="6" font-style="normal" font-weight="bold" text-anchor="middle">  HOH </text>
<text x="487.06" y="335.75" fill="black" font-family="Arial" font-size="6" font-style="normal" font-weight="bold" text-anchor="middle">  2743A </text>
<path d="M 511.95 403.66 L 522.59 415.94 C 523.72 417.90 524.23 419.82 524.23 422.08 C 524.23 428.86 518.74 434.36 511.95 434.36 C 505.17 434.36 499.67 428.86 499.67 422.08 C 499.67 419.82 500.19 417.90 501.32 415.94 Z" fill="#d2d2d2" stroke="#bfbfbf" stroke-width="2" stroke-linejoin="round" stroke-linecap="round" />
<text x="511.95" y="419.65" fill="black" font-family="Arial" font-size="6" font-style="normal" font-weight="bold" text-anchor="middle">  HOH </text>
<text x="511.95" y="425.65" fill="black" font-family="Arial" font-size="6" font-style="normal" font-weight="bold" text-anchor="middle">  8654A </text>
<line x1="450.13" y1="179.65" x2="445.75" y2="167.63" stroke="#64649b" stroke-linejoin="round" stroke-linecap="round" />
<line x1="446.57" y1="160.52" x2="445.11" y2="156.52" stroke="#64649b" stroke-width="3" stroke-linejoin="round" />
<line x1="440.56" y1="162.71" x2="439.10" y2="158.70" stroke="#64649b" stroke-width="3" stroke-linejoin="round" />
<path d="M 450.67 162.44 C 451.88 165.75 450.17 169.43 446.85 170.63 C 443.53 171.84 439.85 170.13 438.65 166.81 L 437.55 163.81 L 449.57 159.43 Z" fill="#c8c8ff" stroke="#64649b" stroke-linejoin="round" stroke-linecap="round" />
<line x1="487.88" y1="264.07" x2="484.57" y2="276.42" stroke="#9b6464" stroke-linejoin="round" stroke-linecap="round" />
<path d="M 477.56 277.86 C 478.48 274.45 481.99 272.42 485.40 273.34 C 488.81 274.25 490.84 277.76 489.92 281.17 L 489.09 284.26 L 486.00 283.43 L 486.83 280.34 L 484.98 279.85 L 484.15 282.94 L 481.68 282.27 L 482.51 279.18 L 480.65 278.69 L 479.82 281.78 L 476.73 280.95 Z" fill="#ffc8c8" stroke="#9b6464" stroke-linejoin="round" stroke-linecap="round" />
<line x1="677.53" y1="139.84" x2="670.19" y2="150.33" stroke="#9b6464" stroke-linejoin="round" stroke-linecap="round" />
<path d="M 663.12 149.28 C 665.15 146.38 669.14 145.68 672.03 147.71 C 674.92 149.73 675.63 153.72 673.60 156.61 L 671.77 159.23 L 669.15 157.40 L 670.98 154.78 L 669.41 153.68 L 667.57 156.30 L 665.48 154.83 L 667.31 152.21 L 665.74 151.11 L 663.91 153.73 L 661.28 151.90 Z" fill="#ffc8c8" stroke="#9b6464" stroke-linejoin="round" stroke-linecap="round" />
<line x1="749.22" y1="244.43" x2="738.74" y2="251.77" stroke="#64649b" stroke-linejoin="round" stroke-linecap="round" />
<line x1="731.67" y1="252.82" x2="728.17" y2="255.27" stroke="#64649b" stroke-width="3" stroke-linejoin="round" />
<line x1="735.33" y1="258.06" x2="731.84" y2="260.51" stroke="#64649b" stroke-width="3" stroke-linejoin="round" />
<path d="M 732.45 248.36 C 735.35 246.34 739.33 247.04 741.36 249.94 C 743.39 252.83 742.68 256.82 739.79 258.85 L 737.17 260.68 L 729.83 250.20 Z" fill="#c8c8ff" stroke="#64649b" stroke-linejoin="round" stroke-linecap="round" />
<circle cx="27.43" cy="39.50" r="15.36" fill="none" stroke="black" stroke-linejoin="round" stroke-linecap="round" />
<path d="M 27.43 68.30 L 38.07 80.59 C 39.20 82.54 39.71 84.47 39.71 86.73 C 39.71 93.51 34.21 99.01 27.43 99.01 C 20.64 99.01 15.14 93.51 15.14 86.73 C 15.14 84.47 15.66 82.54 16.79 80.59 Z" fill="none" stroke="black" stroke-linejoin="round" stroke-linecap="round" />
<line x1="12.07" y1="155.50" x2="35.11" y2="155.50" stroke="#64649b" stroke-linejoin="round" stroke-linecap="round" />
<line x1="42.79" y1="159.34" x2="47.90" y2="159.34" stroke="#64649b" stroke-width="3" stroke-linejoin="round" />
<line x1="42.79" y1="151.66" x2="47.90" y2="151.66" stroke="#64649b" stroke-width="3" stroke-linejoin="round" />
<path d="M 38.95 163.18 C 34.71 163.18 31.27 159.74 31.27 155.50 C 31.27 151.26 34.71 147.82 38.95 147.82 L 42.79 147.82 L 42.79 163.18 Z" fill="#c8c8ff" stroke="#64649b" stroke-linejoin="round" stroke-linecap="round" />
<line x1="12.07" y1="201.50" x2="35.11" y2="201.50" stroke="#9b6464" stroke-linejoin="round" stroke-linecap="round" />
<path d="M 38.95 209.18 C 34.71 209.18 31.27 205.74 31.27 201.50 C 31.27 197.26 34.71 193.82 38.95 193.82 L 42.79 193.82 L 42.79 197.66 L 38.95 197.66 L 38.95 199.96 L 42.79 199.96 L 42.79 203.04 L 38.95 203.04 L 38.95 205.34 L 42.79 205.34 L 42.79 209.18 Z" fill="#ffc8c8" stroke="#9b6464" stroke-linejoin="round" stroke-linecap="round" />
<text x="55.07" y="43.50" fill="black" font-family="Arial" font-size="12" font-style="normal" font-weight="bold" text-anchor="start">  amino acid </text>
<text x="55.07" y="89.50" fill="black" font-family="Arial" font-size="12" font-style="normal" font-weight="bold" text-anchor="start">  water </text>
<text x="55.07" y="159.50" fill="black" font-family="Arial" font-size="12" font-style="normal" font-weight="bold" text-anchor="start">  unpaired donor </text>
<text x="55.07" y="205.50" fill="black" font-family="Arial" font-size="12" font-style="normal" font-weight="bold" text-anchor="start">  unpaired acceptor </text>
<path d="M 13.50 10.80 L 166.50 10.80 C 170.48 10.80 173.70 14.02 173.70 18.00 L 173.70 102.50 C 173.70 106.48 170.48 109.70 166.50 109.70 L 13.50 109.70 C 9.52 109.70 6.30 106.48 6.30 102.50 L 6.30 18.00 C 6.30 14.02 9.52 10.80 13.50 10.80 Z" fill="none" stroke="#bfbfbf" stroke-width="3" stroke-linejoin="round" stroke-linecap="round" />
<rect x="34.54" y="4.5" width="110.91" height="9" fill="white" stroke="white" stroke-linejoin="round" stroke-linecap="round" />
<text x="90.00" y="13.67" fill="black" font-family="Arial" font-size="14" font-style="normal" font-weight="bold" text-anchor="middle">  Residue Styles </text>
<path d="M 13.50 126.80 L 166.50 126.80 C 170.48 126.80 173.70 130.02 173.70 134.00 L 173.70 218.50 C 173.70 222.48 170.48 225.70 166.50 225.70 L 13.50 225.70 C 9.52 225.70 6.30 222.48 6.30 218.50 L 6.30 134.00 C 6.30 130.02 9.52 126.80 13.50 126.80 Z" fill="none" stroke="#bfbfbf" stroke-width="3" stroke-linejoin="round" stroke-linecap="round" />
<rect x="25.6" y="120.5" width="128.8" height="9" fill="white" stroke="white" stroke-linejoin="round" stroke-linecap="round" />
<text x="90.00" y="129.67" fill="black" font-family="Arial" font-size="14" font-style="normal" font-weight="bold" text-anchor="middle">  Interaction Styles </text>
<path d="M 10.50 0.50 L 889.50 0.50 C 895.02 0.50 899.50 4.98 899.50 10.50 L 899.50 589.50 C 899.50 595.02 895.02 599.50 889.50 599.50 L 10.50 599.50 C 4.98 599.50 0.50 595.02 0.50 589.50 L 0.50 10.50 C 0.50 4.98 4.98 0.50 10.50 0.50 Z" fill="none" stroke="#bfbfbf" stroke-linejoin="round" stroke-linecap="round" />
</svg>
