<?xml version="1.0" encoding="UTF-8"?>
<!DOCTYPE svg PUBLIC "-//W3C//DTD SVG 1.1//EN"
  "http://www.w3.org/Graphics/SVG/1.1/DTD/svg11.dtd">
<svg xmlns="http://www.w3.org/2000/svg" xmlns:xlink="http://www.w3.org/1999/xlink"   viewBox="0.00 0.00 900.00 600.00">
<!-- Created by OpenEye Scientific Software -->
<!-- Creation Date Thu Mar 18 12:42:55 2021 -->
<rect width="900.00" height="600.00" fill="white" />
<rect x="180" y="0" width="720" height="600" fill="white" />
<text x="540.00" y="52.50" fill="black" font-family="Arial" font-size="45" font-style="normal" font-weight="normal" text-anchor="middle">  MOL </text>
<line x1="703.63" y1="300.77" x2="678.67" y2="344.31" stroke="black" stroke-width="6" stroke-linejoin="round" stroke-linecap="round" />
<line x1="690.07" y1="302.25" x2="673.09" y2="331.85" stroke="black" stroke-width="6" stroke-linejoin="round" stroke-linecap="round" />
<line x1="703.63" y1="300.77" x2="678.67" y2="257.23" stroke="black" stroke-width="6" stroke-linejoin="round" stroke-linecap="round" />
<line x1="678.67" y1="344.31" x2="628.22" y2="344.31" stroke="black" stroke-width="6" stroke-linejoin="round" stroke-linecap="round" />
<line x1="628.22" y1="344.31" x2="612.75" y2="371.27" stroke="black" stroke-width="6" stroke-linejoin="round" stroke-linecap="round" />
<line x1="628.22" y1="344.31" x2="602.74" y2="300.77" stroke="black" stroke-width="6" stroke-linejoin="round" stroke-linecap="round" />
<line x1="633.66" y1="331.77" x2="616.33" y2="302.16" stroke="black" stroke-width="6" stroke-linejoin="round" stroke-linecap="round" />
<line x1="602.74" y1="300.77" x2="552.55" y2="300.77" stroke="black" stroke-width="6" stroke-linejoin="round" stroke-linecap="round" />
<line x1="602.74" y1="300.77" x2="628.22" y2="257.23" stroke="black" stroke-width="6" stroke-linejoin="round" stroke-linecap="round" />
<line x1="628.22" y1="257.23" x2="612.75" y2="230.26" stroke="black" stroke-width="6" stroke-linejoin="round" stroke-linecap="round" />
<line x1="628.22" y1="257.23" x2="678.67" y2="257.23" stroke="black" stroke-width="6" stroke-linejoin="round" stroke-linecap="round" />
<line x1="636.29" y1="268.26" x2="670.59" y2="268.26" stroke="black" stroke-width="6" stroke-linejoin="round" stroke-linecap="round" />
<line x1="547.77" y1="298.01" x2="531.34" y2="326.47" stroke="black" stroke-width="6" stroke-linejoin="round" stroke-linecap="round" />
<line x1="557.32" y1="303.53" x2="540.89" y2="331.98" stroke="black" stroke-width="6" stroke-linejoin="round" stroke-linecap="round" />
<line x1="552.55" y1="300.77" x2="535.23" y2="270.77" stroke="black" stroke-width="6" stroke-linejoin="round" stroke-linecap="round" />
<line x1="511.90" y1="257.30" x2="477.26" y2="257.30" stroke="black" stroke-width="6" stroke-linejoin="round" stroke-linecap="round" />
<line x1="477.26" y1="257.30" x2="452.30" y2="213.76" stroke="black" stroke-width="6" stroke-linejoin="round" stroke-linecap="round" />
<line x1="463.70" y1="255.82" x2="446.72" y2="226.22" stroke="black" stroke-width="6" stroke-linejoin="round" stroke-linecap="round" />
<line x1="477.26" y1="257.30" x2="452.30" y2="300.84" stroke="black" stroke-width="6" stroke-linejoin="round" stroke-linecap="round" />
<line x1="452.30" y1="213.76" x2="401.85" y2="213.76" stroke="black" stroke-width="6" stroke-linejoin="round" stroke-linecap="round" />
<line x1="401.85" y1="213.76" x2="384.22" y2="243.88" stroke="black" stroke-width="6" stroke-linejoin="round" stroke-linecap="round" />
<line x1="407.29" y1="226.30" x2="389.96" y2="255.91" stroke="black" stroke-width="6" stroke-linejoin="round" stroke-linecap="round" />
<line x1="384.22" y1="270.73" x2="401.85" y2="300.84" stroke="black" stroke-width="6" stroke-linejoin="round" stroke-linecap="round" />
<line x1="401.85" y1="300.84" x2="384.62" y2="330.89" stroke="black" stroke-width="6" stroke-linejoin="round" stroke-linecap="round" />
<line x1="401.85" y1="300.84" x2="452.30" y2="300.84" stroke="black" stroke-width="6" stroke-linejoin="round" stroke-linecap="round" />
<line x1="409.92" y1="289.81" x2="444.22" y2="289.81" stroke="black" stroke-width="6" stroke-linejoin="round" stroke-linecap="round" />
<line x1="384.70" y1="357.83" x2="402.10" y2="387.77" stroke="black" stroke-width="6" stroke-linejoin="round" stroke-linecap="round" />
<line x1="402.10" y1="387.77" x2="377.14" y2="431.31" stroke="black" stroke-width="6" stroke-linejoin="round" stroke-linecap="round" />
<line x1="402.12" y1="393.29" x2="434.98" y2="393.19" stroke="black" stroke-width="6" stroke-linejoin="round" stroke-linecap="round" />
<line x1="402.09" y1="382.26" x2="434.95" y2="382.16" stroke="black" stroke-width="6" stroke-linejoin="round" stroke-linecap="round" />
<text x="603.25" y="220.62" fill="black" font-family="Arial" font-size="21" font-style="normal" font-weight="normal" text-anchor="middle">  Cl </text>
<text x="527.45" y="351.16" fill="black" font-family="Arial" font-size="21" font-style="normal" font-weight="normal" text-anchor="middle">  O </text>
<text x="527.45" y="264.23" fill="black" font-family="Arial" font-size="21" font-style="normal" font-weight="normal" text-anchor="middle">  N </text>
<text x="527.45" y="247.43" fill="black" font-family="Arial" font-size="21" font-style="normal" font-weight="normal" text-anchor="middle">  H </text>
<text x="376.37" y="264.23" fill="black" font-family="Arial" font-size="21" font-style="normal" font-weight="normal" text-anchor="middle">  N </text>
<text x="376.88" y="351.31" fill="black" font-family="Arial" font-size="21" font-style="normal" font-weight="normal" text-anchor="middle">  N </text>
<text x="362.18" y="351.31" fill="black" font-family="Arial" font-size="21" font-style="normal" font-weight="normal" text-anchor="middle">  H </text>
<text x="452.29" y="394.55" fill="black" font-family="Arial" font-size="21" font-style="normal" font-weight="normal" text-anchor="middle">  O </text>
<text x="603.25" y="394.77" fill="black" font-family="Arial" font-size="21" font-style="normal" font-weight="normal" text-anchor="middle">  Cl </text>
<path d = "M 760.28 260.82 A 69.32 69.32 0 0 1 763.64 335.47" fill = "none"  stroke="#bfbfbf" stroke-width="6" stroke-linejoin="round" stroke-linecap="round" />
<path d = "M 760.28 260.82 A 33.93 33.93 0 0 1 754.44 246.17" fill = "none"  stroke="#bfbfbf" stroke-width="6" stroke-linejoin="round" stroke-linecap="round" />
<path d = "M 684.64 180.89 A 76.58 76.58 0 0 1 754.44 246.17" fill = "none"  stroke="#bfbfbf" stroke-width="6" stroke-linejoin="round" stroke-linecap="round" />
<path d = "M 684.64 180.89 A 33.93 33.93 0 0 1 660.70 168.14" fill = "none"  stroke="#bfbfbf" stroke-width="6" stroke-linejoin="round" stroke-linecap="round" />
<path d = "M 552.24 161.03 A 73.32 73.32 0 0 1 660.70 168.14" fill = "none"  stroke="#bfbfbf" stroke-width="6" stroke-linejoin="round" stroke-linecap="round" />
<path d = "M 552.24 161.03 A 33.93 33.93 0 0 1 504.76 160.77" fill = "none"  stroke="#bfbfbf" stroke-width="6" stroke-linejoin="round" stroke-linecap="round" />
<path d = "M 414.40 149.54 A 74.57 74.57 0 0 1 504.76 160.77" fill = "none"  stroke="#bfbfbf" stroke-width="6" stroke-linejoin="round" stroke-linecap="round" />
<path d = "M 414.40 149.54 A 33.93 33.93 0 0 1 398.86 154.21" fill = "none"  stroke="#bfbfbf" stroke-width="6" stroke-linejoin="round" stroke-linecap="round" />
<path d = "M 342.25 215.70 A 59.63 59.63 0 0 1 398.86 154.21" fill = "none"  stroke="#bfbfbf" stroke-width="6" stroke-linejoin="round" stroke-linecap="round" />
<path d = "M 342.25 215.70 A 33.93 33.93 0 0 1 337.49 234.16" fill = "none"  stroke="#bfbfbf" stroke-width="6" stroke-linejoin="round" stroke-linecap="round" />
<path d = "M 338.72 282.41 A 45.25 45.25 0 0 1 337.49 234.16" fill = "none"  stroke="#bfbfbf" stroke-width="6" stroke-linejoin="round" stroke-linecap="round" />
<path d = "M 338.72 282.41 A 33.93 33.93 0 0 1 338.94 319.72" fill = "none"  stroke="#bfbfbf" stroke-width="6" stroke-linejoin="round" stroke-linecap="round" />
<path d = "M 339.13 369.33 A 45.25 45.25 0 0 1 338.94 319.72" fill = "none"  stroke="#bfbfbf" stroke-width="6" stroke-linejoin="round" stroke-linecap="round" />
<path d = "M 339.13 369.33 A 33.93 33.93 0 0 1 339.24 406.58" fill = "none"  stroke="#bfbfbf" stroke-width="6" stroke-linejoin="round" stroke-linecap="round" />
<path d = "M 417.62 451.52 A 45.25 45.25 0 1 1 339.24 406.58" fill = "none"  stroke="#bfbfbf" stroke-width="6" stroke-linejoin="round" stroke-linecap="round" />
<path d = "M 417.62 451.52 A 33.93 33.93 0 0 1 449.82 432.80" fill = "none"  stroke="#bfbfbf" stroke-width="6" stroke-linejoin="round" stroke-linecap="round" />
<path d = "M 492.69 408.00 A 45.25 45.25 0 0 1 449.82 432.80" fill = "none"  stroke="#bfbfbf" stroke-width="6" stroke-linejoin="round" stroke-linecap="round" />
<path d = "M 492.69 408.00 A 33.93 33.93 0 0 1 524.90 389.41" fill = "none"  stroke="#bfbfbf" stroke-width="6" stroke-linejoin="round" stroke-linecap="round" />
<path d = "M 530.30 389.39 A 45.25 45.25 0 0 1 524.90 389.41" fill = "none"  stroke="#bfbfbf" stroke-width="6" stroke-linejoin="round" stroke-linecap="round" />
<path d = "M 530.30 389.39 A 33.93 33.93 0 0 1 562.78 408.08" fill = "none"  stroke="#bfbfbf" stroke-width="6" stroke-linejoin="round" stroke-linecap="round" />
<path d = "M 627.86 425.81 A 45.25 45.25 0 0 1 562.78 408.08" fill = "none"  stroke="#bfbfbf" stroke-width="6" stroke-linejoin="round" stroke-linecap="round" />
<path d = "M 627.86 425.81 A 33.93 33.93 0 0 1 655.90 421.73" fill = "none"  stroke="#bfbfbf" stroke-width="6" stroke-linejoin="round" stroke-linecap="round" />
<path d = "M 759.16 350.05 A 80.70 80.70 0 0 1 655.90 421.73" fill = "none"  stroke="#bfbfbf" stroke-width="6" stroke-linejoin="round" stroke-linecap="round" />
<path d = "M 759.16 350.05 A 33.93 33.93 0 0 1 763.64 335.47" fill = "none"  stroke="#bfbfbf" stroke-width="6" stroke-linejoin="round" stroke-linecap="round" />
<circle cx="275.32" cy="333.63" r="20.08" fill="#d2d2d2" stroke="#bfbfbf" stroke-width="2" stroke-linejoin="round" stroke-linecap="round" />
<text x="275.32" y="331.43" fill="black" font-family="Arial" font-size="11" font-style="normal" font-weight="bold" text-anchor="middle">  LEU </text>
<text x="275.32" y="342.43" fill="black" font-family="Arial" font-size="11" font-style="normal" font-weight="bold" text-anchor="middle">  14A </text>
<circle cx="479.20" cy="486.16" r="20.08" fill="#d2d2d2" stroke="#bfbfbf" stroke-width="2" stroke-linejoin="round" stroke-linecap="round" />
<text x="479.20" y="483.96" fill="black" font-family="Arial" font-size="11" font-style="normal" font-weight="bold" text-anchor="middle">  VAL </text>
<text x="479.20" y="494.96" fill="black" font-family="Arial" font-size="11" font-style="normal" font-weight="bold" text-anchor="middle">  22A </text>
<circle cx="327.71" cy="99.05" r="20.08" fill="#d2d2d2" stroke="#bfbfbf" stroke-width="2" stroke-linejoin="round" stroke-linecap="round" />
<text x="327.71" y="96.85" fill="black" font-family="Arial" font-size="11" font-style="normal" font-weight="bold" text-anchor="middle">  ALA </text>
<text x="327.71" y="107.85" fill="black" font-family="Arial" font-size="11" font-style="normal" font-weight="bold" text-anchor="middle">  39A </text>
<circle cx="796.12" cy="158.35" r="20.08" fill="#d2d2d2" stroke="#bfbfbf" stroke-width="2" stroke-linejoin="round" stroke-linecap="round" />
<text x="796.12" y="156.15" fill="black" font-family="Arial" font-size="11" font-style="normal" font-weight="bold" text-anchor="middle">  ILE </text>
<text x="796.12" y="167.15" fill="black" font-family="Arial" font-size="11" font-style="normal" font-weight="bold" text-anchor="middle">  71A </text>
<circle cx="752.92" cy="122.85" r="20.08" fill="#d2d2d2" stroke="#bfbfbf" stroke-width="2" stroke-linejoin="round" stroke-linecap="round" />
<text x="752.92" y="120.65" fill="black" font-family="Arial" font-size="11" font-style="normal" font-weight="bold" text-anchor="middle">  MET </text>
<text x="752.92" y="131.65" fill="black" font-family="Arial" font-size="11" font-style="normal" font-weight="bold" text-anchor="middle">  89A </text>
<circle cx="841.09" cy="195.93" r="20.08" fill="#d2d2d2" stroke="#bfbfbf" stroke-width="2" stroke-linejoin="round" stroke-linecap="round" />
<text x="841.09" y="193.73" fill="black" font-family="Arial" font-size="11" font-style="normal" font-weight="bold" text-anchor="middle">  GLU </text>
<text x="841.09" y="204.73" fill="black" font-family="Arial" font-size="11" font-style="normal" font-weight="bold" text-anchor="middle">  90A </text>
<circle cx="276.59" cy="235.51" r="20.08" fill="#d2d2d2" stroke="#bfbfbf" stroke-width="2" stroke-linejoin="round" stroke-linecap="round" />
<text x="276.59" y="233.31" fill="black" font-family="Arial" font-size="11" font-style="normal" font-weight="bold" text-anchor="middle">  TYR </text>
<text x="276.59" y="244.31" fill="black" font-family="Arial" font-size="11" font-style="normal" font-weight="bold" text-anchor="middle">  91A </text>
<circle cx="298.77" cy="284.07" r="20.08" fill="#d2d2d2" stroke="#bfbfbf" stroke-width="2" stroke-linejoin="round" stroke-linecap="round" />
<text x="298.77" y="281.87" fill="black" font-family="Arial" font-size="11" font-style="normal" font-weight="bold" text-anchor="middle">  VAL </text>
<text x="298.77" y="292.87" fill="black" font-family="Arial" font-size="11" font-style="normal" font-weight="bold" text-anchor="middle">  92A </text>
<circle cx="278.70" cy="534.03" r="20.08" fill="#d2d2d2" stroke="#bfbfbf" stroke-width="2" stroke-linejoin="round" stroke-linecap="round" />
<text x="278.70" y="531.83" fill="black" font-family="Arial" font-size="11" font-style="normal" font-weight="bold" text-anchor="middle">  PRO </text>
<text x="278.70" y="542.83" fill="black" font-family="Arial" font-size="11" font-style="normal" font-weight="bold" text-anchor="middle">  93A </text>
<circle cx="280.08" cy="393.43" r="20.08" fill="#d2d2d2" stroke="#bfbfbf" stroke-width="2" stroke-linejoin="round" stroke-linecap="round" />
<text x="280.08" y="391.23" fill="black" font-family="Arial" font-size="11" font-style="normal" font-weight="bold" text-anchor="middle">  GLY </text>
<text x="280.08" y="402.23" fill="black" font-family="Arial" font-size="11" font-style="normal" font-weight="bold" text-anchor="middle">  95A </text>
<circle cx="235.53" cy="417.55" r="20.08" fill="#d2d2d2" stroke="#bfbfbf" stroke-width="2" stroke-linejoin="round" stroke-linecap="round" />
<text x="235.53" y="415.55" fill="black" font-family="Arial" font-size="10" font-style="normal" font-weight="bold" text-anchor="middle">  ARG </text>
<text x="235.53" y="425.55" fill="black" font-family="Arial" font-size="10" font-style="normal" font-weight="bold" text-anchor="middle">  138A </text>
<circle cx="537.34" cy="473.77" r="20.08" fill="#d2d2d2" stroke="#bfbfbf" stroke-width="2" stroke-linejoin="round" stroke-linecap="round" />
<text x="537.34" y="471.77" fill="black" font-family="Arial" font-size="10" font-style="normal" font-weight="bold" text-anchor="middle">  LEU </text>
<text x="537.34" y="481.77" fill="black" font-family="Arial" font-size="10" font-style="normal" font-weight="bold" text-anchor="middle">  141A </text>
<circle cx="703.83" cy="124.66" r="20.08" fill="#d2d2d2" stroke="#bfbfbf" stroke-width="2" stroke-linejoin="round" stroke-linecap="round" />
<text x="703.83" y="122.66" fill="black" font-family="Arial" font-size="10" font-style="normal" font-weight="bold" text-anchor="middle">  GLY </text>
<text x="703.83" y="132.66" fill="black" font-family="Arial" font-size="10" font-style="normal" font-weight="bold" text-anchor="middle">  151A </text>
<circle cx="806.23" cy="218.02" r="20.08" fill="#d2d2d2" stroke="#bfbfbf" stroke-width="2" stroke-linejoin="round" stroke-linecap="round" />
<text x="806.23" y="216.02" fill="black" font-family="Arial" font-size="10" font-style="normal" font-weight="bold" text-anchor="middle">  ASP </text>
<text x="806.23" y="226.02" fill="black" font-family="Arial" font-size="10" font-style="normal" font-weight="bold" text-anchor="middle">  152A </text>
<path d="M 260.28 444.56 L 274.19 460.62 C 275.66 463.18 276.34 465.70 276.34 468.65 C 276.34 477.52 269.15 484.71 260.28 484.71 C 251.41 484.71 244.22 477.52 244.22 468.65 C 244.22 465.70 244.89 463.18 246.37 460.62 Z" fill="#d2d2d2" stroke="#bfbfbf" stroke-width="2" stroke-linejoin="round" stroke-linecap="round" />
<text x="260.28" y="465.45" fill="black" font-family="Arial" font-size="8" font-style="normal" font-weight="bold" text-anchor="middle">  HOH </text>
<text x="260.28" y="473.45" fill="black" font-family="Arial" font-size="8" font-style="normal" font-weight="bold" text-anchor="middle">  1826A </text>
<path d="M 785.59 370.55 L 799.50 386.61 C 800.98 389.17 801.65 391.68 801.65 394.64 C 801.65 403.51 794.46 410.70 785.59 410.70 C 776.73 410.70 769.53 403.51 769.53 394.64 C 769.53 391.68 770.21 389.17 771.69 386.61 Z" fill="#d2d2d2" stroke="#bfbfbf" stroke-width="2" stroke-linejoin="round" stroke-linecap="round" />
<text x="785.59" y="391.43" fill="black" font-family="Arial" font-size="8" font-style="normal" font-weight="bold" text-anchor="middle">  HOH </text>
<text x="785.59" y="399.43" fill="black" font-family="Arial" font-size="8" font-style="normal" font-weight="bold" text-anchor="middle">  2034A </text>
<path d="M 386.29 490.36 L 400.20 506.42 C 401.68 508.98 402.35 511.50 402.35 514.45 C 402.35 523.32 395.16 530.51 386.29 530.51 C 377.42 530.51 370.23 523.32 370.23 514.45 C 370.23 511.50 370.90 508.98 372.38 506.42 Z" fill="#d2d2d2" stroke="#bfbfbf" stroke-width="2" stroke-linejoin="round" stroke-linecap="round" />
<text x="386.29" y="511.25" fill="black" font-family="Arial" font-size="8" font-style="normal" font-weight="bold" text-anchor="middle">  HOH </text>
<text x="386.29" y="519.25" fill="black" font-family="Arial" font-size="8" font-style="normal" font-weight="bold" text-anchor="middle">  2452A </text>
<path d="M 430.50 518.76 L 444.41 534.82 C 445.89 537.38 446.56 539.89 446.56 542.85 C 446.56 551.72 439.37 558.91 430.50 558.91 C 421.63 558.91 414.44 551.72 414.44 542.85 C 414.44 539.89 415.11 537.38 416.59 534.82 Z" fill="#d2d2d2" stroke="#bfbfbf" stroke-width="2" stroke-linejoin="round" stroke-linecap="round" />
<text x="430.50" y="539.64" fill="black" font-family="Arial" font-size="8" font-style="normal" font-weight="bold" text-anchor="middle">  HOH </text>
<text x="430.50" y="547.64" fill="black" font-family="Arial" font-size="8" font-style="normal" font-weight="bold" text-anchor="middle">  2793A </text>
<path d="M 336.27 502.42 L 350.18 518.48 C 351.66 521.04 352.33 523.55 352.33 526.51 C 352.33 535.38 345.14 542.57 336.27 542.57 C 327.41 542.57 320.21 535.38 320.21 526.51 C 320.21 523.55 320.89 521.04 322.37 518.48 Z" fill="#d2d2d2" stroke="#bfbfbf" stroke-width="2" stroke-linejoin="round" stroke-linecap="round" />
<text x="336.27" y="523.30" fill="black" font-family="Arial" font-size="8" font-style="normal" font-weight="bold" text-anchor="middle">  HOH </text>
<text x="336.27" y="531.30" fill="black" font-family="Arial" font-size="8" font-style="normal" font-weight="bold" text-anchor="middle">  3278A </text>
<path d="M 644.75 89.20 L 658.65 105.26 C 660.13 107.82 660.81 110.33 660.81 113.29 C 660.81 122.16 653.61 129.35 644.75 129.35 C 635.88 129.35 628.68 122.16 628.68 113.29 C 628.68 110.33 629.36 107.82 630.84 105.26 Z" fill="#d2d2d2" stroke="#bfbfbf" stroke-width="2" stroke-linejoin="round" stroke-linecap="round" />
<text x="644.75" y="110.08" fill="black" font-family="Arial" font-size="8" font-style="normal" font-weight="bold" text-anchor="middle">  HOH </text>
<text x="644.75" y="118.08" fill="black" font-family="Arial" font-size="8" font-style="normal" font-weight="bold" text-anchor="middle">  5476A </text>
<path d="M 431.48 470.30 L 445.38 486.36 C 446.86 488.92 447.54 491.44 447.54 494.39 C 447.54 503.26 440.34 510.45 431.48 510.45 C 422.61 510.45 415.42 503.26 415.42 494.39 C 415.42 491.44 416.09 488.92 417.57 486.36 Z" fill="#d2d2d2" stroke="#bfbfbf" stroke-width="2" stroke-linejoin="round" stroke-linecap="round" />
<text x="431.48" y="491.19" fill="black" font-family="Arial" font-size="8" font-style="normal" font-weight="bold" text-anchor="middle">  HOH </text>
<text x="431.48" y="499.19" fill="black" font-family="Arial" font-size="8" font-style="normal" font-weight="bold" text-anchor="middle">  7121A </text>
<path d="M 632.82 441.90 L 646.73 457.96 C 648.21 460.52 648.88 463.03 648.88 465.99 C 648.88 474.86 641.69 482.05 632.82 482.05 C 623.95 482.05 616.76 474.86 616.76 465.99 C 616.76 463.03 617.44 460.52 618.92 457.96 Z" fill="#d2d2d2" stroke="#bfbfbf" stroke-width="2" stroke-linejoin="round" stroke-linecap="round" />
<text x="632.82" y="462.78" fill="black" font-family="Arial" font-size="8" font-style="normal" font-weight="bold" text-anchor="middle">  HOH </text>
<text x="632.82" y="470.78" fill="black" font-family="Arial" font-size="8" font-style="normal" font-weight="bold" text-anchor="middle">  7606A </text>
<path d="M 308.54 453.85 L 322.45 469.91 C 323.93 472.47 324.60 474.98 324.60 477.94 C 324.60 486.81 317.41 494.00 308.54 494.00 C 299.67 494.00 292.48 486.81 292.48 477.94 C 292.48 474.98 293.16 472.47 294.63 469.91 Z" fill="#d2d2d2" stroke="#bfbfbf" stroke-width="2" stroke-linejoin="round" stroke-linecap="round" />
<text x="308.54" y="474.73" fill="black" font-family="Arial" font-size="8" font-style="normal" font-weight="bold" text-anchor="middle">  HOH </text>
<text x="308.54" y="482.73" fill="black" font-family="Arial" font-size="8" font-style="normal" font-weight="bold" text-anchor="middle">  9992A </text>
<line x1="527.45" y1="355.63" x2="527.45" y2="372.36" stroke="#9b6464" stroke-width="2" stroke-linejoin="round" stroke-linecap="round" />
<path d="M 519.09 376.54 C 519.09 371.92 522.83 368.17 527.45 368.17 C 532.07 368.17 535.82 371.92 535.82 376.54 L 535.82 380.72 L 531.64 380.72 L 531.64 376.54 L 529.13 376.54 L 529.13 380.72 L 525.78 380.72 L 525.78 376.54 L 523.27 376.54 L 523.27 380.72 L 519.09 380.72 Z" fill="#ffc8c8" stroke="#9b6464" stroke-linejoin="round" stroke-linecap="round" />
<line x1="536.46" y1="241.71" x2="544.82" y2="227.22" stroke="#64649b" stroke-width="2" stroke-linejoin="round" stroke-linecap="round" />
<line x1="552.63" y1="222.07" x2="555.41" y2="217.24" stroke="#64649b" stroke-width="4" stroke-linejoin="round" />
<line x1="545.38" y1="217.89" x2="548.17" y2="213.06" stroke="#64649b" stroke-width="4" stroke-linejoin="round" />
<path d="M 554.16 227.78 C 551.85 231.78 546.73 233.15 542.73 230.84 C 538.73 228.53 537.36 223.42 539.67 219.42 L 541.76 215.79 L 556.25 224.16 Z" fill="#c8c8ff" stroke="#64649b" stroke-linejoin="round" stroke-linecap="round" />
<line x1="358.59" y1="354.94" x2="344.10" y2="363.30" stroke="#64649b" stroke-width="2" stroke-linejoin="round" stroke-linecap="round" />
<line x1="334.77" y1="363.86" x2="329.94" y2="366.65" stroke="#64649b" stroke-width="4" stroke-linejoin="round" />
<line x1="338.95" y1="371.11" x2="334.12" y2="373.90" stroke="#64649b" stroke-width="4" stroke-linejoin="round" />
<path d="M 336.30 358.15 C 340.30 355.84 345.42 357.21 347.73 361.21 C 350.04 365.21 348.66 370.33 344.66 372.64 L 341.04 374.73 L 332.68 360.24 Z" fill="#c8c8ff" stroke="#64649b" stroke-linejoin="round" stroke-linecap="round" />
<line x1="255.53" y1="419.30" x2="272.19" y2="420.76" stroke="#9b6464" stroke-width="2" stroke-linejoin="round" stroke-linecap="round" />
<path d="M 275.63 429.46 C 271.03 429.06 267.62 425.00 268.02 420.40 C 268.43 415.79 272.49 412.39 277.09 412.79 L 281.25 413.16 L 280.89 417.32 L 276.72 416.96 L 276.50 419.46 L 280.67 419.82 L 280.38 423.16 L 276.21 422.79 L 275.99 425.29 L 280.16 425.66 L 279.80 429.82 Z" fill="#ffc8c8" stroke="#9b6464" stroke-linejoin="round" stroke-linecap="round" />
<line x1="822.23" y1="202.79" x2="806.51" y2="208.52" stroke="#9b6464" stroke-width="2" stroke-linejoin="round" stroke-linecap="round" />
<path d="M 799.71 202.09 C 804.06 200.51 808.86 202.75 810.44 207.09 C 812.02 211.43 809.78 216.23 805.44 217.81 L 801.51 219.24 L 800.08 215.31 L 804.01 213.88 L 803.15 211.52 L 799.22 212.95 L 798.07 209.81 L 802.00 208.37 L 801.14 206.02 L 797.21 207.45 L 795.78 203.52 Z" fill="#ffc8c8" stroke="#9b6464" stroke-linejoin="round" stroke-linecap="round" />
<circle cx="27.43" cy="39.50" r="15.36" fill="none" stroke="black" stroke-linejoin="round" stroke-linecap="round" />
<path d="M 27.43 68.30 L 38.07 80.59 C 39.20 82.54 39.71 84.47 39.71 86.73 C 39.71 93.51 34.21 99.01 27.43 99.01 C 20.64 99.01 15.14 93.51 15.14 86.73 C 15.14 84.47 15.66 82.54 16.79 80.59 Z" fill="none" stroke="black" stroke-linejoin="round" stroke-linecap="round" />
<line x1="12.07" y1="155.50" x2="35.11" y2="155.50" stroke="#64649b" stroke-linejoin="round" stroke-linecap="round" />
<line x1="42.79" y1="159.34" x2="47.90" y2="159.34" stroke="#64649b" stroke-width="3" stroke-linejoin="round" />
<line x1="42.79" y1="151.66" x2="47.90" y2="151.66" stroke="#64649b" stroke-width="3" stroke-linejoin="round" />
<path d="M 38.95 163.18 C 34.71 163.18 31.27 159.74 31.27 155.50 C 31.27 151.26 34.71 147.82 38.95 147.82 L 42.79 147.82 L 42.79 163.18 Z" fill="#c8c8ff" stroke="#64649b" stroke-linejoin="round" stroke-linecap="round" />
<line x1="12.07" y1="201.50" x2="35.11" y2="201.50" stroke="#9b6464" stroke-linejoin="round" stroke-linecap="round" />
<path d="M 38.95 209.18 C 34.71 209.18 31.27 205.74 31.27 201.50 C 31.27 197.26 34.71 193.82 38.95 193.82 L 42.79 193.82 L 42.79 197.66 L 38.95 197.66 L 38.95 199.96 L 42.79 199.96 L 42.79 203.04 L 38.95 203.04 L 38.95 205.34 L 42.79 205.34 L 42.79 209.18 Z" fill="#ffc8c8" stroke="#9b6464" stroke-linejoin="round" stroke-linecap="round" />
<text x="55.07" y="43.50" fill="black" font-family="Arial" font-size="12" font-style="normal" font-weight="bold" text-anchor="start">  amino acid </text>
<text x="55.07" y="89.50" fill="black" font-family="Arial" font-size="12" font-style="normal" font-weight="bold" text-anchor="start">  water </text>
<text x="55.07" y="159.50" fill="black" font-family="Arial" font-size="12" font-style="normal" font-weight="bold" text-anchor="start">  unpaired donor </text>
<text x="55.07" y="205.50" fill="black" font-family="Arial" font-size="12" font-style="normal" font-weight="bold" text-anchor="start">  unpaired acceptor </text>
<path d="M 13.50 10.80 L 166.50 10.80 C 170.48 10.80 173.70 14.02 173.70 18.00 L 173.70 102.50 C 173.70 106.48 170.48 109.70 166.50 109.70 L 13.50 109.70 C 9.52 109.70 6.30 106.48 6.30 102.50 L 6.30 18.00 C 6.30 14.02 9.52 10.80 13.50 10.80 Z" fill="none" stroke="#bfbfbf" stroke-width="3" stroke-linejoin="round" stroke-linecap="round" />
<rect x="34.54" y="4.5" width="110.91" height="9" fill="white" stroke="white" stroke-linejoin="round" stroke-linecap="round" />
<text x="90.00" y="13.67" fill="black" font-family="Arial" font-size="14" font-style="normal" font-weight="bold" text-anchor="middle">  Residue Styles </text>
<path d="M 13.50 126.80 L 166.50 126.80 C 170.48 126.80 173.70 130.02 173.70 134.00 L 173.70 218.50 C 173.70 222.48 170.48 225.70 166.50 225.70 L 13.50 225.70 C 9.52 225.70 6.30 222.48 6.30 218.50 L 6.30 134.00 C 6.30 130.02 9.52 126.80 13.50 126.80 Z" fill="none" stroke="#bfbfbf" stroke-width="3" stroke-linejoin="round" stroke-linecap="round" />
<rect x="25.6" y="120.5" width="128.8" height="9" fill="white" stroke="white" stroke-linejoin="round" stroke-linecap="round" />
<text x="90.00" y="129.67" fill="black" font-family="Arial" font-size="14" font-style="normal" font-weight="bold" text-anchor="middle">  Interaction Styles </text>
<path d="M 10.50 0.50 L 889.50 0.50 C 895.02 0.50 899.50 4.98 899.50 10.50 L 899.50 589.50 C 899.50 595.02 895.02 599.50 889.50 599.50 L 10.50 599.50 C 4.98 599.50 0.50 595.02 0.50 589.50 L 0.50 10.50 C 0.50 4.98 4.98 0.50 10.50 0.50 Z" fill="none" stroke="#bfbfbf" stroke-linejoin="round" stroke-linecap="round" />
</svg>
