<?xml version="1.0" encoding="UTF-8"?>
<!DOCTYPE svg PUBLIC "-//W3C//DTD SVG 1.1//EN"
  "http://www.w3.org/Graphics/SVG/1.1/DTD/svg11.dtd">
<svg xmlns="http://www.w3.org/2000/svg" xmlns:xlink="http://www.w3.org/1999/xlink"   viewBox="0.00 0.00 900.00 600.00">
<!-- Created by OpenEye Scientific Software -->
<!-- Creation Date Thu Mar 18 12:48:53 2021 -->
<rect width="900.00" height="600.00" fill="white" />
<rect x="180" y="0" width="720" height="600" fill="white" />
<text x="540.00" y="52.50" fill="black" font-family="Arial" font-size="45" font-style="normal" font-weight="normal" text-anchor="middle">  MOL </text>
<line x1="592.86" y1="460.10" x2="567.38" y2="445.49" stroke="black" stroke-width="3" stroke-linejoin="round" stroke-linecap="round" />
<line x1="591.87" y1="452.39" x2="574.55" y2="442.45" stroke="black" stroke-width="3" stroke-linejoin="round" stroke-linecap="round" />
<line x1="592.86" y1="460.10" x2="618.34" y2="445.49" stroke="black" stroke-width="3" stroke-linejoin="round" stroke-linecap="round" />
<line x1="567.38" y1="445.49" x2="567.38" y2="415.97" stroke="black" stroke-width="3" stroke-linejoin="round" stroke-linecap="round" />
<line x1="567.38" y1="415.97" x2="551.01" y2="406.58" stroke="black" stroke-width="3" stroke-linejoin="round" stroke-linecap="round" />
<line x1="567.38" y1="415.97" x2="592.86" y2="401.06" stroke="black" stroke-width="3" stroke-linejoin="round" stroke-linecap="round" />
<line x1="574.59" y1="418.94" x2="591.92" y2="408.80" stroke="black" stroke-width="3" stroke-linejoin="round" stroke-linecap="round" />
<line x1="592.86" y1="401.06" x2="592.86" y2="371.69" stroke="black" stroke-width="3" stroke-linejoin="round" stroke-linecap="round" />
<line x1="592.86" y1="401.06" x2="618.34" y2="415.97" stroke="black" stroke-width="3" stroke-linejoin="round" stroke-linecap="round" />
<line x1="618.34" y1="415.97" x2="634.72" y2="406.58" stroke="black" stroke-width="3" stroke-linejoin="round" stroke-linecap="round" />
<line x1="618.34" y1="415.97" x2="618.34" y2="445.49" stroke="black" stroke-width="3" stroke-linejoin="round" stroke-linecap="round" />
<line x1="612.14" y1="420.70" x2="612.14" y2="440.77" stroke="black" stroke-width="3" stroke-linejoin="round" stroke-linecap="round" />
<line x1="594.41" y1="374.38" x2="611.64" y2="364.43" stroke="black" stroke-width="3" stroke-linejoin="round" stroke-linecap="round" />
<line x1="591.31" y1="369.01" x2="608.54" y2="359.06" stroke="black" stroke-width="3" stroke-linejoin="round" stroke-linecap="round" />
<line x1="592.86" y1="371.69" x2="574.75" y2="361.24" stroke="black" stroke-width="3" stroke-linejoin="round" stroke-linecap="round" />
<line x1="567.43" y1="348.55" x2="567.43" y2="327.64" stroke="black" stroke-width="3" stroke-linejoin="round" stroke-linecap="round" />
<line x1="567.43" y1="327.64" x2="592.90" y2="313.03" stroke="black" stroke-width="3" stroke-linejoin="round" stroke-linecap="round" />
<line x1="568.42" y1="319.93" x2="585.74" y2="309.99" stroke="black" stroke-width="3" stroke-linejoin="round" stroke-linecap="round" />
<line x1="567.43" y1="327.64" x2="541.95" y2="313.03" stroke="black" stroke-width="3" stroke-linejoin="round" stroke-linecap="round" />
<line x1="592.90" y1="313.03" x2="592.90" y2="283.51" stroke="black" stroke-width="3" stroke-linejoin="round" stroke-linecap="round" />
<line x1="592.90" y1="283.51" x2="574.73" y2="272.87" stroke="black" stroke-width="3" stroke-linejoin="round" stroke-linecap="round" />
<line x1="585.70" y1="286.48" x2="568.37" y2="276.34" stroke="black" stroke-width="3" stroke-linejoin="round" stroke-linecap="round" />
<line x1="560.13" y1="272.87" x2="541.95" y2="283.51" stroke="black" stroke-width="3" stroke-linejoin="round" stroke-linecap="round" />
<line x1="541.95" y1="283.51" x2="523.81" y2="273.11" stroke="black" stroke-width="3" stroke-linejoin="round" stroke-linecap="round" />
<line x1="541.95" y1="283.51" x2="541.95" y2="313.03" stroke="black" stroke-width="3" stroke-linejoin="round" stroke-linecap="round" />
<line x1="548.15" y1="288.24" x2="548.15" y2="308.31" stroke="black" stroke-width="3" stroke-linejoin="round" stroke-linecap="round" />
<line x1="509.16" y1="273.15" x2="491.08" y2="283.66" stroke="black" stroke-width="3" stroke-linejoin="round" stroke-linecap="round" />
<polygon points="465.61,269.05 491.08,283.66 497.18,280.12 " fill="black" stroke="black" stroke-width="2" stroke-linejoin="round" stroke-linecap="round" />
<line x1="487.99" y1="283.67" x2="488.04" y2="303.56" stroke="black" stroke-width="3" stroke-linejoin="round" stroke-linecap="round" />
<line x1="494.18" y1="283.65" x2="494.24" y2="303.55" stroke="black" stroke-width="3" stroke-linejoin="round" stroke-linecap="round" />
<line x1="465.61" y1="269.05" x2="450.79" y2="243.63" stroke="black" stroke-width="3" stroke-linejoin="round" stroke-linecap="round" />
<line x1="465.61" y1="269.05" x2="436.19" y2="269.11" stroke="black" stroke-width="3" stroke-linejoin="round" stroke-linecap="round" />
<line x1="436.19" y1="269.11" x2="450.79" y2="243.63" stroke="black" stroke-width="3" stroke-linejoin="round" stroke-linecap="round" />
<polygon points="450.79,243.63 454.22,214.25 447.17,214.28 " fill="black" stroke="black" stroke-width="2" stroke-linejoin="round" stroke-linecap="round" />
<line x1="450.69" y1="214.26" x2="450.62" y2="192.61" stroke="black" stroke-width="2" stroke-linejoin="round" stroke-linecap="round" />
<line x1="445.67" y1="214.28" x2="445.59" y2="192.62" stroke="black" stroke-width="2" stroke-linejoin="round" stroke-linecap="round" />
<line x1="455.72" y1="214.25" x2="455.64" y2="192.59" stroke="black" stroke-width="2" stroke-linejoin="round" stroke-linecap="round" />
<text x="643.81" y="405.32" fill="black" font-family="Arial" font-size="12" font-style="normal" font-weight="normal" text-anchor="middle">  Cl </text>
<text x="618.29" y="360.97" fill="black" font-family="Arial" font-size="12" font-style="normal" font-weight="normal" text-anchor="middle">  O </text>
<text x="567.43" y="360.97" fill="black" font-family="Arial" font-size="12" font-style="normal" font-weight="normal" text-anchor="middle">  N </text>
<text x="559.03" y="360.97" fill="black" font-family="Arial" font-size="12" font-style="normal" font-weight="normal" text-anchor="middle">  H </text>
<text x="567.43" y="272.56" fill="black" font-family="Arial" font-size="12" font-style="normal" font-weight="normal" text-anchor="middle">  N </text>
<text x="516.47" y="272.86" fill="black" font-family="Arial" font-size="12" font-style="normal" font-weight="normal" text-anchor="middle">  N </text>
<text x="516.47" y="263.26" fill="black" font-family="Arial" font-size="12" font-style="normal" font-weight="normal" text-anchor="middle">  H </text>
<text x="491.17" y="316.99" fill="black" font-family="Arial" font-size="12" font-style="normal" font-weight="normal" text-anchor="middle">  O </text>
<text x="541.91" y="405.32" fill="black" font-family="Arial" font-size="12" font-style="normal" font-weight="normal" text-anchor="middle">  Cl </text>
<text x="450.59" y="188.86" fill="black" font-family="Arial" font-size="12" font-style="normal" font-weight="normal" text-anchor="middle">  N </text>
<path d = "M 639.58 483.65 A 52.32 52.32 0 0 1 546.42 484.21" fill = "none"  stroke="#bfbfbf" stroke-width="3" stroke-linejoin="round" stroke-linecap="round" />
<path d = "M 639.58 483.65 A 19.85 19.85 0 0 1 644.65 477.29" fill = "none"  stroke="#bfbfbf" stroke-width="3" stroke-linejoin="round" stroke-linecap="round" />
<path d = "M 656.22 461.90 A 41.28 41.28 0 0 1 644.65 477.29" fill = "none"  stroke="#bfbfbf" stroke-width="3" stroke-linejoin="round" stroke-linecap="round" />
<path d = "M 656.22 461.90 A 19.85 19.85 0 0 1 666.32 451.66" fill = "none"  stroke="#bfbfbf" stroke-width="3" stroke-linejoin="round" stroke-linecap="round" />
<path d = "M 671.72 353.85 A 55.11 55.11 0 0 1 666.32 451.66" fill = "none"  stroke="#bfbfbf" stroke-width="3" stroke-linejoin="round" stroke-linecap="round" />
<path d = "M 671.72 353.85 A 19.85 19.85 0 0 1 662.87 342.77" fill = "none"  stroke="#bfbfbf" stroke-width="3" stroke-linejoin="round" stroke-linecap="round" />
<path d = "M 642.45 316.94 A 46.79 46.79 0 0 1 662.87 342.77" fill = "none"  stroke="#bfbfbf" stroke-width="3" stroke-linejoin="round" stroke-linecap="round" />
<path d = "M 642.45 316.94 A 19.85 19.85 0 0 1 633.31 304.18" fill = "none"  stroke="#bfbfbf" stroke-width="3" stroke-linejoin="round" stroke-linecap="round" />
<path d = "M 630.71 296.27 A 41.36 41.36 0 0 1 633.31 304.18" fill = "none"  stroke="#bfbfbf" stroke-width="3" stroke-linejoin="round" stroke-linecap="round" />
<path d = "M 630.71 296.27 A 19.85 19.85 0 0 1 629.08 286.56" fill = "none"  stroke="#bfbfbf" stroke-width="3" stroke-linejoin="round" stroke-linecap="round" />
<path d = "M 590.25 247.31 A 36.30 36.30 0 0 1 629.08 286.56" fill = "none"  stroke="#bfbfbf" stroke-width="3" stroke-linejoin="round" stroke-linecap="round" />
<path d = "M 590.25 247.31 A 19.85 19.85 0 0 1 579.64 245.12" fill = "none"  stroke="#bfbfbf" stroke-width="3" stroke-linejoin="round" stroke-linecap="round" />
<path d = "M 560.32 243.10 A 26.47 26.47 0 0 1 579.64 245.12" fill = "none"  stroke="#bfbfbf" stroke-width="3" stroke-linejoin="round" stroke-linecap="round" />
<path d = "M 560.32 243.10 A 19.85 19.85 0 0 1 550.75 243.37" fill = "none"  stroke="#bfbfbf" stroke-width="3" stroke-linejoin="round" stroke-linecap="round" />
<path d = "M 532.75 243.46 A 41.09 41.09 0 0 1 550.75 243.37" fill = "none"  stroke="#bfbfbf" stroke-width="3" stroke-linejoin="round" stroke-linecap="round" />
<path d = "M 532.75 243.46 A 19.85 19.85 0 0 1 523.23 243.31" fill = "none"  stroke="#bfbfbf" stroke-width="3" stroke-linejoin="round" stroke-linecap="round" />
<path d = "M 509.00 243.51 A 26.47 26.47 0 0 1 523.23 243.31" fill = "none"  stroke="#bfbfbf" stroke-width="3" stroke-linejoin="round" stroke-linecap="round" />
<path d = "M 509.00 243.51 A 19.85 19.85 0 0 1 483.90 220.69" fill = "none"  stroke="#bfbfbf" stroke-width="3" stroke-linejoin="round" stroke-linecap="round" />
<path d = "M 479.79 197.02 A 19.85 19.85 0 0 1 477.03 186.04" fill = "none"  stroke="#bfbfbf" stroke-width="3" stroke-linejoin="round" stroke-linecap="round" />
<path d = "M 424.15 186.22 A 26.47 26.47 0 1 1 477.03 186.04" fill = "none"  stroke="#bfbfbf" stroke-width="3" stroke-linejoin="round" stroke-linecap="round" />
<path d = "M 424.15 186.22 A 19.85 19.85 0 0 1 421.47 197.22" fill = "none"  stroke="#bfbfbf" stroke-width="3" stroke-linejoin="round" stroke-linecap="round" />
<path d = "M 431.70 302.63 A 19.85 19.85 0 0 1 448.70 319.38" fill = "none"  stroke="#bfbfbf" stroke-width="3" stroke-linejoin="round" stroke-linecap="round" />
<path d = "M 487.88 355.85 A 42.95 42.95 0 0 1 448.70 319.38" fill = "none"  stroke="#bfbfbf" stroke-width="3" stroke-linejoin="round" stroke-linecap="round" />
<path d = "M 487.88 355.85 A 19.85 19.85 0 0 1 504.38 383.99" fill = "none"  stroke="#bfbfbf" stroke-width="3" stroke-linejoin="round" stroke-linecap="round" />
<path d = "M 517.76 434.94 A 41.36 41.36 0 0 1 504.38 383.99" fill = "none"  stroke="#bfbfbf" stroke-width="3" stroke-linejoin="round" stroke-linecap="round" />
<path d = "M 517.76 434.94 A 19.85 19.85 0 0 1 525.93 449.26" fill = "none"  stroke="#bfbfbf" stroke-width="3" stroke-linejoin="round" stroke-linecap="round" />
<path d = "M 541.26 477.90 A 41.62 41.62 0 0 1 525.93 449.26" fill = "none"  stroke="#bfbfbf" stroke-width="3" stroke-linejoin="round" stroke-linecap="round" />
<path d = "M 541.26 477.90 A 19.85 19.85 0 0 1 546.42 484.21" fill = "none"  stroke="#bfbfbf" stroke-width="3" stroke-linejoin="round" stroke-linecap="round" />
<circle cx="438.66" cy="114.40" r="11.75" fill="#d2d2d2" stroke="#bfbfbf" stroke-linejoin="round" stroke-linecap="round" />
<text x="438.66" y="113.20" fill="black" font-family="Arial" font-size="6" font-style="normal" font-weight="bold" text-anchor="middle">  ARG </text>
<text x="438.66" y="119.20" fill="black" font-family="Arial" font-size="6" font-style="normal" font-weight="bold" text-anchor="middle">  12A </text>
<circle cx="597.44" cy="214.07" r="11.75" fill="#d2d2d2" stroke="#bfbfbf" stroke-linejoin="round" stroke-linecap="round" />
<text x="597.44" y="212.87" fill="black" font-family="Arial" font-size="6" font-style="normal" font-weight="bold" text-anchor="middle">  LEU </text>
<text x="597.44" y="218.87" fill="black" font-family="Arial" font-size="6" font-style="normal" font-weight="bold" text-anchor="middle">  14A </text>
<circle cx="674.72" cy="300.20" r="11.75" fill="#d2d2d2" stroke="#bfbfbf" stroke-linejoin="round" stroke-linecap="round" />
<text x="674.72" y="299.00" fill="black" font-family="Arial" font-size="6" font-style="normal" font-weight="bold" text-anchor="middle">  VAL </text>
<text x="674.72" y="305.00" fill="black" font-family="Arial" font-size="6" font-style="normal" font-weight="bold" text-anchor="middle">  22A </text>
<circle cx="647.89" cy="223.58" r="11.75" fill="#d2d2d2" stroke="#bfbfbf" stroke-linejoin="round" stroke-linecap="round" />
<text x="647.89" y="222.38" fill="black" font-family="Arial" font-size="6" font-style="normal" font-weight="bold" text-anchor="middle">  LEU </text>
<text x="647.89" y="228.38" fill="black" font-family="Arial" font-size="6" font-style="normal" font-weight="bold" text-anchor="middle">  24A </text>
<circle cx="672.25" cy="265.64" r="11.75" fill="#d2d2d2" stroke="#bfbfbf" stroke-linejoin="round" stroke-linecap="round" />
<text x="672.25" y="264.44" fill="black" font-family="Arial" font-size="6" font-style="normal" font-weight="bold" text-anchor="middle">  ALA </text>
<text x="672.25" y="270.44" fill="black" font-family="Arial" font-size="6" font-style="normal" font-weight="bold" text-anchor="middle">  39A </text>
<circle cx="712.59" cy="474.14" r="11.75" fill="#d2d2d2" stroke="#bfbfbf" stroke-linejoin="round" stroke-linecap="round" />
<text x="712.59" y="472.94" fill="black" font-family="Arial" font-size="6" font-style="normal" font-weight="bold" text-anchor="middle">  ILE </text>
<text x="712.59" y="478.94" fill="black" font-family="Arial" font-size="6" font-style="normal" font-weight="bold" text-anchor="middle">  71A </text>
<circle cx="735.93" cy="440.63" r="11.75" fill="#d2d2d2" stroke="#bfbfbf" stroke-linejoin="round" stroke-linecap="round" />
<text x="735.93" y="439.43" fill="black" font-family="Arial" font-size="6" font-style="normal" font-weight="bold" text-anchor="middle">  MET </text>
<text x="735.93" y="445.43" fill="black" font-family="Arial" font-size="6" font-style="normal" font-weight="bold" text-anchor="middle">  89A </text>
<circle cx="562.75" cy="209.03" r="11.75" fill="#d2d2d2" stroke="#bfbfbf" stroke-linejoin="round" stroke-linecap="round" />
<text x="562.75" y="207.83" fill="black" font-family="Arial" font-size="6" font-style="normal" font-weight="bold" text-anchor="middle">  TYR </text>
<text x="562.75" y="213.83" fill="black" font-family="Arial" font-size="6" font-style="normal" font-weight="bold" text-anchor="middle">  91A </text>
<circle cx="533.09" cy="220.75" r="11.75" fill="#d2d2d2" stroke="#bfbfbf" stroke-linejoin="round" stroke-linecap="round" />
<text x="533.09" y="219.55" fill="black" font-family="Arial" font-size="6" font-style="normal" font-weight="bold" text-anchor="middle">  VAL </text>
<text x="533.09" y="225.55" fill="black" font-family="Arial" font-size="6" font-style="normal" font-weight="bold" text-anchor="middle">  92A </text>
<circle cx="530.55" cy="181.20" r="11.75" fill="#d2d2d2" stroke="#bfbfbf" stroke-linejoin="round" stroke-linecap="round" />
<text x="530.55" y="180.00" fill="black" font-family="Arial" font-size="6" font-style="normal" font-weight="bold" text-anchor="middle">  PRO </text>
<text x="530.55" y="186.00" fill="black" font-family="Arial" font-size="6" font-style="normal" font-weight="bold" text-anchor="middle">  93A </text>
<circle cx="386.73" cy="345.02" r="11.75" fill="#d2d2d2" stroke="#bfbfbf" stroke-linejoin="round" stroke-linecap="round" />
<text x="386.73" y="343.82" fill="black" font-family="Arial" font-size="6" font-style="normal" font-weight="bold" text-anchor="middle">  LEU </text>
<text x="386.73" y="349.82" fill="black" font-family="Arial" font-size="6" font-style="normal" font-weight="bold" text-anchor="middle">  94A </text>
<circle cx="420.03" cy="342.19" r="11.75" fill="#d2d2d2" stroke="#bfbfbf" stroke-linejoin="round" stroke-linecap="round" />
<text x="420.03" y="340.99" fill="black" font-family="Arial" font-size="6" font-style="normal" font-weight="bold" text-anchor="middle">  GLY </text>
<text x="420.03" y="346.99" fill="black" font-family="Arial" font-size="6" font-style="normal" font-weight="bold" text-anchor="middle">  95A </text>
<circle cx="623.69" cy="552.44" r="11.75" fill="#d2d2d2" stroke="#bfbfbf" stroke-linejoin="round" stroke-linecap="round" />
<text x="623.69" y="551.24" fill="black" font-family="Arial" font-size="6" font-style="normal" font-weight="bold" text-anchor="middle">  ARG </text>
<text x="623.69" y="557.24" fill="black" font-family="Arial" font-size="6" font-style="normal" font-weight="bold" text-anchor="middle">  138A </text>
<circle cx="694.69" cy="327.87" r="11.75" fill="#d2d2d2" stroke="#bfbfbf" stroke-linejoin="round" stroke-linecap="round" />
<text x="694.69" y="326.67" fill="black" font-family="Arial" font-size="6" font-style="normal" font-weight="bold" text-anchor="middle">  LEU </text>
<text x="694.69" y="332.67" fill="black" font-family="Arial" font-size="6" font-style="normal" font-weight="bold" text-anchor="middle">  141A </text>
<circle cx="679.66" cy="506.30" r="11.75" fill="#d2d2d2" stroke="#bfbfbf" stroke-linejoin="round" stroke-linecap="round" />
<text x="679.66" y="505.10" fill="black" font-family="Arial" font-size="6" font-style="normal" font-weight="bold" text-anchor="middle">  ASP </text>
<text x="679.66" y="511.10" fill="black" font-family="Arial" font-size="6" font-style="normal" font-weight="bold" text-anchor="middle">  152A </text>
<path d="M 380.85 254.33 L 388.99 263.73 C 389.85 265.23 390.25 266.70 390.25 268.43 C 390.25 273.62 386.04 277.82 380.85 277.82 C 375.66 277.82 371.45 273.62 371.45 268.43 C 371.45 266.70 371.84 265.23 372.71 263.73 Z" fill="#d2d2d2" stroke="#bfbfbf" stroke-linejoin="round" stroke-linecap="round" />
<text x="380.85" y="266.49" fill="black" font-family="Arial" font-size="5" font-style="normal" font-weight="bold" text-anchor="middle">  HOH </text>
<text x="380.85" y="271.49" fill="black" font-family="Arial" font-size="5" font-style="normal" font-weight="bold" text-anchor="middle">  1419A </text>
<path d="M 500.91 436.89 L 509.05 446.29 C 509.92 447.79 510.31 449.26 510.31 450.99 C 510.31 456.18 506.10 460.38 500.91 460.38 C 495.72 460.38 491.51 456.18 491.51 450.99 C 491.51 449.26 491.91 447.79 492.77 446.29 Z" fill="#d2d2d2" stroke="#bfbfbf" stroke-linejoin="round" stroke-linecap="round" />
<text x="500.91" y="449.05" fill="black" font-family="Arial" font-size="5" font-style="normal" font-weight="bold" text-anchor="middle">  HOH </text>
<text x="500.91" y="454.05" fill="black" font-family="Arial" font-size="5" font-style="normal" font-weight="bold" text-anchor="middle">  4163A </text>
<path d="M 390.73 287.56 L 398.87 296.95 C 399.74 298.45 400.13 299.92 400.13 301.65 C 400.13 306.84 395.92 311.05 390.73 311.05 C 385.54 311.05 381.33 306.84 381.33 301.65 C 381.33 299.92 381.73 298.45 382.59 296.95 Z" fill="#d2d2d2" stroke="#bfbfbf" stroke-linejoin="round" stroke-linecap="round" />
<text x="390.73" y="299.71" fill="black" font-family="Arial" font-size="5" font-style="normal" font-weight="bold" text-anchor="middle">  HOH </text>
<text x="390.73" y="304.71" fill="black" font-family="Arial" font-size="5" font-style="normal" font-weight="bold" text-anchor="middle">  4966A </text>
<path d="M 527.85 482.55 L 535.99 491.94 C 536.85 493.44 537.25 494.91 537.25 496.64 C 537.25 501.83 533.04 506.04 527.85 506.04 C 522.66 506.04 518.45 501.83 518.45 496.64 C 518.45 494.91 518.84 493.44 519.71 491.94 Z" fill="#d2d2d2" stroke="#bfbfbf" stroke-linejoin="round" stroke-linecap="round" />
<text x="527.85" y="494.70" fill="black" font-family="Arial" font-size="5" font-style="normal" font-weight="bold" text-anchor="middle">  HOH </text>
<text x="527.85" y="499.70" fill="black" font-family="Arial" font-size="5" font-style="normal" font-weight="bold" text-anchor="middle">  9320A </text>
<path d="M 395.28 210.14 L 403.41 219.54 C 404.28 221.03 404.67 222.50 404.67 224.23 C 404.67 229.42 400.47 233.63 395.28 233.63 C 390.09 233.63 385.88 229.42 385.88 224.23 C 385.88 222.50 386.27 221.03 387.14 219.54 Z" fill="#d2d2d2" stroke="#bfbfbf" stroke-linejoin="round" stroke-linecap="round" />
<text x="395.28" y="222.29" fill="black" font-family="Arial" font-size="5" font-style="normal" font-weight="bold" text-anchor="middle">  HOH </text>
<text x="395.28" y="227.29" fill="black" font-family="Arial" font-size="5" font-style="normal" font-weight="bold" text-anchor="middle">  9671A </text>
<line x1="624.68" y1="353.33" x2="633.15" y2="348.43" stroke="#9b6464" stroke-linejoin="round" stroke-linecap="round" />
<path d="M 637.72 351.45 C 635.38 352.80 632.39 352.00 631.03 349.66 C 629.68 347.31 630.49 344.32 632.83 342.97 L 634.95 341.75 L 636.17 343.87 L 634.05 345.09 L 634.78 346.36 L 636.90 345.14 L 637.88 346.83 L 635.76 348.06 L 636.50 349.33 L 638.62 348.10 L 639.84 350.22 Z" fill="#ffc8c8" stroke="#9b6464" stroke-linejoin="round" stroke-linecap="round" />
<line x1="556.96" y1="363.06" x2="548.48" y2="367.95" stroke="#64649b" stroke-linejoin="round" stroke-linecap="round" />
<line x1="543.02" y1="368.28" x2="540.19" y2="369.91" stroke="#64649b" stroke-width="2" stroke-linejoin="round" />
<line x1="545.46" y1="372.52" x2="542.64" y2="374.15" stroke="#64649b" stroke-width="2" stroke-linejoin="round" />
<path d="M 543.91 364.94 C 546.25 363.58 549.25 364.39 550.60 366.73 C 551.95 369.07 551.15 372.06 548.81 373.41 L 546.69 374.64 L 541.79 366.16 Z" fill="#c8c8ff" stroke="#64649b" stroke-linejoin="round" stroke-linecap="round" />
<line x1="569.79" y1="262.13" x2="573.13" y2="252.93" stroke="#9b6464" stroke-linejoin="round" stroke-linecap="round" />
<path d="M 578.57 252.30 C 577.65 254.84 574.84 256.15 572.30 255.23 C 569.76 254.30 568.45 251.49 569.37 248.95 L 570.21 246.65 L 572.51 247.49 L 571.67 249.79 L 573.05 250.29 L 573.89 247.99 L 575.73 248.66 L 574.89 250.96 L 576.27 251.46 L 577.11 249.16 L 579.41 250.00 Z" fill="#ffc8c8" stroke="#9b6464" stroke-linejoin="round" stroke-linecap="round" />
<line x1="436.12" y1="125.87" x2="434.00" y2="135.42" stroke="#64649b" stroke-linejoin="round" stroke-linecap="round" />
<line x1="430.55" y1="139.67" x2="429.84" y2="142.86" stroke="#64649b" stroke-width="2" stroke-linejoin="round" />
<line x1="435.33" y1="140.73" x2="434.62" y2="143.92" stroke="#64649b" stroke-width="2" stroke-linejoin="round" />
<path d="M 428.69 136.75 C 429.27 134.11 431.89 132.45 434.53 133.03 C 437.17 133.62 438.83 136.23 438.25 138.87 L 437.72 141.26 L 428.16 139.14 Z" fill="#c8c8ff" stroke="#64649b" stroke-linejoin="round" stroke-linecap="round" />
<line x1="444.97" y1="124.30" x2="450.23" y2="132.56" stroke="#5050c3" stroke-linejoin="round" stroke-linecap="round" />
<circle cx="450.23" cy="132.56" r="4.89" fill="#8c8cff" stroke="#5050c3" stroke-linejoin="round" stroke-linecap="round" />
<line x1="448.60" y1="132.56" x2="451.86" y2="132.56" stroke="#5050c3" stroke-linejoin="round" stroke-linecap="square" />
<line x1="450.23" y1="130.93" x2="450.23" y2="134.19" stroke="#5050c3" stroke-linejoin="round" stroke-linecap="square" />
<line x1="671.35" y1="497.99" x2="664.43" y2="491.07" stroke="#64649b" stroke-linejoin="round" stroke-linecap="round" />
<line x1="662.70" y1="485.88" x2="660.39" y2="483.57" stroke="#64649b" stroke-width="2" stroke-linejoin="round" />
<line x1="659.24" y1="489.34" x2="656.93" y2="487.03" stroke="#64649b" stroke-width="2" stroke-linejoin="round" />
<path d="M 666.16 485.88 C 668.07 487.79 668.07 490.89 666.16 492.80 C 664.25 494.71 661.15 494.71 659.24 492.80 L 657.51 491.07 L 664.43 484.15 Z" fill="#c8c8ff" stroke="#64649b" stroke-linejoin="round" stroke-linecap="round" />
<line x1="535.13" y1="232.32" x2="536.83" y2="241.96" stroke="#64649b" stroke-linejoin="round" stroke-linecap="round" />
<line x1="535.27" y1="247.21" x2="535.84" y2="250.42" stroke="#64649b" stroke-width="2" stroke-linejoin="round" />
<line x1="540.09" y1="246.36" x2="540.66" y2="249.57" stroke="#64649b" stroke-width="2" stroke-linejoin="round" />
<path d="M 532.43 245.22 C 531.97 242.56 533.74 240.02 536.41 239.55 C 539.07 239.08 541.61 240.86 542.08 243.52 L 542.50 245.93 L 532.86 247.63 Z" fill="#c8c8ff" stroke="#64649b" stroke-linejoin="round" stroke-linecap="round" />
<circle cx="27.43" cy="39.50" r="15.36" fill="none" stroke="black" stroke-linejoin="round" stroke-linecap="round" />
<path d="M 27.43 68.30 L 38.07 80.59 C 39.20 82.54 39.71 84.47 39.71 86.73 C 39.71 93.51 34.21 99.01 27.43 99.01 C 20.64 99.01 15.14 93.51 15.14 86.73 C 15.14 84.47 15.66 82.54 16.79 80.59 Z" fill="none" stroke="black" stroke-linejoin="round" stroke-linecap="round" />
<line x1="12.07" y1="155.50" x2="35.11" y2="155.50" stroke="#64649b" stroke-linejoin="round" stroke-linecap="round" />
<line x1="42.79" y1="159.34" x2="47.90" y2="159.34" stroke="#64649b" stroke-width="3" stroke-linejoin="round" />
<line x1="42.79" y1="151.66" x2="47.90" y2="151.66" stroke="#64649b" stroke-width="3" stroke-linejoin="round" />
<path d="M 38.95 163.18 C 34.71 163.18 31.27 159.74 31.27 155.50 C 31.27 151.26 34.71 147.82 38.95 147.82 L 42.79 147.82 L 42.79 163.18 Z" fill="#c8c8ff" stroke="#64649b" stroke-linejoin="round" stroke-linecap="round" />
<line x1="12.07" y1="201.50" x2="35.11" y2="201.50" stroke="#9b6464" stroke-linejoin="round" stroke-linecap="round" />
<path d="M 38.95 209.18 C 34.71 209.18 31.27 205.74 31.27 201.50 C 31.27 197.26 34.71 193.82 38.95 193.82 L 42.79 193.82 L 42.79 197.66 L 38.95 197.66 L 38.95 199.96 L 42.79 199.96 L 42.79 203.04 L 38.95 203.04 L 38.95 205.34 L 42.79 205.34 L 42.79 209.18 Z" fill="#ffc8c8" stroke="#9b6464" stroke-linejoin="round" stroke-linecap="round" />
<line x1="12.07" y1="247.50" x2="35.11" y2="247.50" stroke="#5050c3" stroke-linejoin="round" stroke-linecap="round" />
<circle cx="35.11" cy="247.50" r="7.68" fill="#8c8cff" stroke="#5050c3" stroke-linejoin="round" stroke-linecap="round" />
<line x1="32.55" y1="247.50" x2="37.67" y2="247.50" stroke="#5050c3" stroke-linejoin="round" stroke-linecap="square" />
<line x1="35.11" y1="244.94" x2="35.11" y2="250.06" stroke="#5050c3" stroke-linejoin="round" stroke-linecap="square" />
<text x="55.07" y="42.50" fill="black" font-family="Arial" font-size="9" font-style="normal" font-weight="bold" text-anchor="start">  amino acid </text>
<text x="55.07" y="88.50" fill="black" font-family="Arial" font-size="9" font-style="normal" font-weight="bold" text-anchor="start">  water </text>
<text x="55.07" y="158.50" fill="black" font-family="Arial" font-size="9" font-style="normal" font-weight="bold" text-anchor="start">  unpaired donor </text>
<text x="55.07" y="204.50" fill="black" font-family="Arial" font-size="9" font-style="normal" font-weight="bold" text-anchor="start">  unpaired acceptor </text>
<text x="55.07" y="250.50" fill="black" font-family="Arial" font-size="9" font-style="normal" font-weight="bold" text-anchor="start">  unpaired salt bridge (+) </text>
<path d="M 13.50 10.80 L 166.50 10.80 C 170.48 10.80 173.70 14.02 173.70 18.00 L 173.70 102.50 C 173.70 106.48 170.48 109.70 166.50 109.70 L 13.50 109.70 C 9.52 109.70 6.30 106.48 6.30 102.50 L 6.30 18.00 C 6.30 14.02 9.52 10.80 13.50 10.80 Z" fill="none" stroke="#bfbfbf" stroke-width="3" stroke-linejoin="round" stroke-linecap="round" />
<rect x="34.54" y="4.5" width="110.91" height="9" fill="white" stroke="white" stroke-linejoin="round" stroke-linecap="round" />
<text x="90.00" y="13.67" fill="black" font-family="Arial" font-size="14" font-style="normal" font-weight="bold" text-anchor="middle">  Residue Styles </text>
<path d="M 13.50 126.80 L 166.50 126.80 C 170.48 126.80 173.70 130.02 173.70 134.00 L 173.70 264.50 C 173.70 268.48 170.48 271.70 166.50 271.70 L 13.50 271.70 C 9.52 271.70 6.30 268.48 6.30 264.50 L 6.30 134.00 C 6.30 130.02 9.52 126.80 13.50 126.80 Z" fill="none" stroke="#bfbfbf" stroke-width="3" stroke-linejoin="round" stroke-linecap="round" />
<rect x="25.6" y="120.5" width="128.8" height="9" fill="white" stroke="white" stroke-linejoin="round" stroke-linecap="round" />
<text x="90.00" y="129.67" fill="black" font-family="Arial" font-size="14" font-style="normal" font-weight="bold" text-anchor="middle">  Interaction Styles </text>
<path d="M 10.50 0.50 L 889.50 0.50 C 895.02 0.50 899.50 4.98 899.50 10.50 L 899.50 589.50 C 899.50 595.02 895.02 599.50 889.50 599.50 L 10.50 599.50 C 4.98 599.50 0.50 595.02 0.50 589.50 L 0.50 10.50 C 0.50 4.98 4.98 0.50 10.50 0.50 Z" fill="none" stroke="#bfbfbf" stroke-linejoin="round" stroke-linecap="round" />
</svg>
