<?xml version="1.0" encoding="UTF-8"?>
<!DOCTYPE svg PUBLIC "-//W3C//DTD SVG 1.1//EN"
  "http://www.w3.org/Graphics/SVG/1.1/DTD/svg11.dtd">
<svg xmlns="http://www.w3.org/2000/svg" xmlns:xlink="http://www.w3.org/1999/xlink"   viewBox="0.00 0.00 900.00 600.00">
<!-- Created by OpenEye Scientific Software -->
<!-- Creation Date Thu Mar 18 12:48:42 2021 -->
<rect width="900.00" height="600.00" fill="white" />
<rect x="180" y="0" width="720" height="600" fill="white" />
<text x="540.00" y="52.50" fill="black" font-family="Arial" font-size="45" font-style="normal" font-weight="normal" text-anchor="middle">  MOL </text>
<line x1="618.50" y1="452.09" x2="587.99" y2="434.60" stroke="black" stroke-width="4" stroke-linejoin="round" stroke-linecap="round" />
<line x1="617.41" y1="442.68" x2="596.67" y2="430.78" stroke="black" stroke-width="4" stroke-linejoin="round" stroke-linecap="round" />
<line x1="618.50" y1="452.09" x2="649.00" y2="434.60" stroke="black" stroke-width="4" stroke-linejoin="round" stroke-linecap="round" />
<line x1="587.99" y1="434.60" x2="587.99" y2="399.25" stroke="black" stroke-width="4" stroke-linejoin="round" stroke-linecap="round" />
<line x1="587.99" y1="399.25" x2="569.08" y2="388.41" stroke="black" stroke-width="4" stroke-linejoin="round" stroke-linecap="round" />
<line x1="587.99" y1="399.25" x2="618.50" y2="381.40" stroke="black" stroke-width="4" stroke-linejoin="round" stroke-linecap="round" />
<line x1="596.72" y1="402.98" x2="617.47" y2="390.84" stroke="black" stroke-width="4" stroke-linejoin="round" stroke-linecap="round" />
<line x1="618.50" y1="381.40" x2="618.50" y2="346.24" stroke="black" stroke-width="4" stroke-linejoin="round" stroke-linecap="round" />
<line x1="618.50" y1="381.40" x2="649.00" y2="399.25" stroke="black" stroke-width="4" stroke-linejoin="round" stroke-linecap="round" />
<line x1="649.00" y1="399.25" x2="667.91" y2="388.41" stroke="black" stroke-width="4" stroke-linejoin="round" stroke-linecap="round" />
<line x1="649.00" y1="399.25" x2="649.00" y2="434.60" stroke="black" stroke-width="4" stroke-linejoin="round" stroke-linecap="round" />
<line x1="641.37" y1="404.91" x2="641.37" y2="428.94" stroke="black" stroke-width="4" stroke-linejoin="round" stroke-linecap="round" />
<line x1="620.40" y1="349.54" x2="640.38" y2="338.01" stroke="black" stroke-width="4" stroke-linejoin="round" stroke-linecap="round" />
<line x1="616.59" y1="342.94" x2="636.57" y2="331.40" stroke="black" stroke-width="4" stroke-linejoin="round" stroke-linecap="round" />
<line x1="618.50" y1="346.24" x2="597.42" y2="334.07" stroke="black" stroke-width="4" stroke-linejoin="round" stroke-linecap="round" />
<line x1="588.04" y1="317.83" x2="588.04" y2="293.50" stroke="black" stroke-width="4" stroke-linejoin="round" stroke-linecap="round" />
<line x1="588.04" y1="293.50" x2="618.55" y2="276.00" stroke="black" stroke-width="4" stroke-linejoin="round" stroke-linecap="round" />
<line x1="589.13" y1="284.08" x2="609.87" y2="272.19" stroke="black" stroke-width="4" stroke-linejoin="round" stroke-linecap="round" />
<line x1="588.04" y1="293.50" x2="557.54" y2="276.00" stroke="black" stroke-width="4" stroke-linejoin="round" stroke-linecap="round" />
<line x1="618.55" y1="276.00" x2="618.55" y2="240.66" stroke="black" stroke-width="4" stroke-linejoin="round" stroke-linecap="round" />
<line x1="618.55" y1="240.66" x2="597.39" y2="228.27" stroke="black" stroke-width="4" stroke-linejoin="round" stroke-linecap="round" />
<line x1="609.82" y1="244.38" x2="589.07" y2="232.24" stroke="black" stroke-width="4" stroke-linejoin="round" stroke-linecap="round" />
<line x1="578.70" y1="228.27" x2="557.54" y2="240.66" stroke="black" stroke-width="4" stroke-linejoin="round" stroke-linecap="round" />
<line x1="557.54" y1="240.66" x2="536.43" y2="228.55" stroke="black" stroke-width="4" stroke-linejoin="round" stroke-linecap="round" />
<line x1="557.54" y1="240.66" x2="557.54" y2="276.00" stroke="black" stroke-width="4" stroke-linejoin="round" stroke-linecap="round" />
<line x1="565.17" y1="246.31" x2="565.17" y2="270.35" stroke="black" stroke-width="4" stroke-linejoin="round" stroke-linecap="round" />
<line x1="517.68" y1="228.61" x2="496.64" y2="240.84" stroke="black" stroke-width="4" stroke-linejoin="round" stroke-linecap="round" />
<line x1="470.87" y1="226.87" x2="471.57" y2="225.65" stroke="black" stroke-width="3" stroke-linejoin="round" stroke-linecap="round" />
<line x1="475.60" y1="230.40" x2="477.00" y2="227.96" stroke="black" stroke-width="3" stroke-linejoin="round" stroke-linecap="round" />
<line x1="480.34" y1="233.92" x2="482.44" y2="230.26" stroke="black" stroke-width="3" stroke-linejoin="round" stroke-linecap="round" />
<line x1="485.07" y1="237.45" x2="487.87" y2="232.57" stroke="black" stroke-width="3" stroke-linejoin="round" stroke-linecap="round" />
<line x1="489.81" y1="240.97" x2="493.30" y2="234.87" stroke="black" stroke-width="3" stroke-linejoin="round" stroke-linecap="round" />
<line x1="494.54" y1="244.50" x2="498.74" y2="237.18" stroke="black" stroke-width="3" stroke-linejoin="round" stroke-linecap="round" />
<line x1="492.83" y1="240.85" x2="492.89" y2="263.92" stroke="black" stroke-width="4" stroke-linejoin="round" stroke-linecap="round" />
<line x1="500.45" y1="240.83" x2="500.52" y2="263.90" stroke="black" stroke-width="4" stroke-linejoin="round" stroke-linecap="round" />
<line x1="466.14" y1="223.35" x2="430.91" y2="223.41" stroke="black" stroke-width="4" stroke-linejoin="round" stroke-linecap="round" />
<line x1="466.14" y1="223.35" x2="448.40" y2="192.91" stroke="black" stroke-width="4" stroke-linejoin="round" stroke-linecap="round" />
<line x1="448.40" y1="192.91" x2="430.91" y2="223.41" stroke="black" stroke-width="4" stroke-linejoin="round" stroke-linecap="round" />
<line x1="425.49" y1="225.75" x2="426.19" y2="226.96" stroke="black" stroke-width="3" stroke-linejoin="round" stroke-linecap="round" />
<line x1="420.06" y1="228.08" x2="421.48" y2="230.51" stroke="black" stroke-width="3" stroke-linejoin="round" stroke-linecap="round" />
<line x1="414.64" y1="230.41" x2="416.76" y2="234.06" stroke="black" stroke-width="3" stroke-linejoin="round" stroke-linecap="round" />
<line x1="409.22" y1="232.75" x2="412.05" y2="237.61" stroke="black" stroke-width="3" stroke-linejoin="round" stroke-linecap="round" />
<line x1="403.80" y1="235.08" x2="407.33" y2="241.16" stroke="black" stroke-width="3" stroke-linejoin="round" stroke-linecap="round" />
<line x1="398.38" y1="237.42" x2="402.62" y2="244.72" stroke="black" stroke-width="3" stroke-linejoin="round" stroke-linecap="round" />
<text x="679.50" y="386.71" fill="black" font-family="Arial" font-size="15" font-style="normal" font-weight="normal" text-anchor="middle">  Cl </text>
<text x="648.95" y="333.61" fill="black" font-family="Arial" font-size="15" font-style="normal" font-weight="normal" text-anchor="middle">  O </text>
<text x="588.04" y="333.61" fill="black" font-family="Arial" font-size="15" font-style="normal" font-weight="normal" text-anchor="middle">  N </text>
<text x="577.54" y="333.61" fill="black" font-family="Arial" font-size="15" font-style="normal" font-weight="normal" text-anchor="middle">  H </text>
<text x="588.04" y="227.76" fill="black" font-family="Arial" font-size="15" font-style="normal" font-weight="normal" text-anchor="middle">  N </text>
<text x="527.04" y="228.12" fill="black" font-family="Arial" font-size="15" font-style="normal" font-weight="normal" text-anchor="middle">  N </text>
<text x="527.04" y="216.12" fill="black" font-family="Arial" font-size="15" font-style="normal" font-weight="normal" text-anchor="middle">  H </text>
<text x="496.74" y="280.95" fill="black" font-family="Arial" font-size="15" font-style="normal" font-weight="normal" text-anchor="middle">  O </text>
<text x="557.49" y="386.71" fill="black" font-family="Arial" font-size="15" font-style="normal" font-weight="normal" text-anchor="middle">  Cl </text>
<path d = "M 646.93 485.50 A 43.87 43.87 0 0 1 596.39 489.99" fill = "none"  stroke="#bfbfbf" stroke-width="4" stroke-linejoin="round" stroke-linecap="round" />
<path d = "M 646.93 485.50 A 23.77 23.77 0 0 1 657.83 480.26" fill = "none"  stroke="#bfbfbf" stroke-width="4" stroke-linejoin="round" stroke-linecap="round" />
<path d = "M 695.51 434.83 A 46.51 46.51 0 0 1 657.83 480.26" fill = "none"  stroke="#bfbfbf" stroke-width="4" stroke-linejoin="round" stroke-linecap="round" />
<path d = "M 695.51 434.83 A 23.77 23.77 0 0 1 705.04 415.91" fill = "none"  stroke="#bfbfbf" stroke-width="4" stroke-linejoin="round" stroke-linecap="round" />
<path d = "M 697.16 342.95 A 42.64 42.64 0 0 1 705.04 415.91" fill = "none"  stroke="#bfbfbf" stroke-width="4" stroke-linejoin="round" stroke-linecap="round" />
<path d = "M 697.16 342.95 A 23.77 23.77 0 0 1 683.43 324.30" fill = "none"  stroke="#bfbfbf" stroke-width="4" stroke-linejoin="round" stroke-linecap="round" />
<path d = "M 668.62 300.01 A 34.76 34.76 0 0 1 683.43 324.30" fill = "none"  stroke="#bfbfbf" stroke-width="4" stroke-linejoin="round" stroke-linecap="round" />
<path d = "M 668.62 300.01 A 23.77 23.77 0 0 1 658.37 278.77" fill = "none"  stroke="#bfbfbf" stroke-width="4" stroke-linejoin="round" stroke-linecap="round" />
<path d = "M 653.23 256.24 A 39.91 39.91 0 0 1 658.37 278.77" fill = "none"  stroke="#bfbfbf" stroke-width="4" stroke-linejoin="round" stroke-linecap="round" />
<path d = "M 653.23 256.24 A 23.77 23.77 0 0 1 650.17 242.84" fill = "none"  stroke="#bfbfbf" stroke-width="4" stroke-linejoin="round" stroke-linecap="round" />
<path d = "M 625.01 209.63 A 31.70 31.70 0 0 1 650.17 242.84" fill = "none"  stroke="#bfbfbf" stroke-width="4" stroke-linejoin="round" stroke-linecap="round" />
<path d = "M 625.01 209.63 A 23.77 23.77 0 0 1 611.93 201.98" fill = "none"  stroke="#bfbfbf" stroke-width="4" stroke-linejoin="round" stroke-linecap="round" />
<path d = "M 570.46 196.44 A 31.70 31.70 0 0 1 611.93 201.98" fill = "none"  stroke="#bfbfbf" stroke-width="4" stroke-linejoin="round" stroke-linecap="round" />
<path d = "M 570.46 196.44 A 23.77 23.77 0 0 1 544.31 196.59" fill = "none"  stroke="#bfbfbf" stroke-width="4" stroke-linejoin="round" stroke-linecap="round" />
<path d = "M 521.23 192.01 A 31.70 31.70 0 0 1 544.31 196.59" fill = "none"  stroke="#bfbfbf" stroke-width="4" stroke-linejoin="round" stroke-linecap="round" />
<path d = "M 521.23 192.01 A 23.77 23.77 0 0 1 494.47 176.58" fill = "none"  stroke="#bfbfbf" stroke-width="4" stroke-linejoin="round" stroke-linecap="round" />
<path d = "M 404.57 171.27 A 48.88 48.88 0 0 1 494.47 176.58" fill = "none"  stroke="#bfbfbf" stroke-width="4" stroke-linejoin="round" stroke-linecap="round" />
<path d = "M 404.57 171.27 A 23.77 23.77 0 0 1 388.24 183.99" fill = "none"  stroke="#bfbfbf" stroke-width="4" stroke-linejoin="round" stroke-linecap="round" />
<path d = "M 435.91 287.48 A 58.38 58.38 0 1 1 388.24 183.99" fill = "none"  stroke="#bfbfbf" stroke-width="4" stroke-linejoin="round" stroke-linecap="round" />
<path d = "M 435.91 287.48 A 23.77 23.77 0 0 1 470.22 293.36" fill = "none"  stroke="#bfbfbf" stroke-width="4" stroke-linejoin="round" stroke-linecap="round" />
<path d = "M 498.50 307.65 A 31.70 31.70 0 0 1 470.22 293.36" fill = "none"  stroke="#bfbfbf" stroke-width="4" stroke-linejoin="round" stroke-linecap="round" />
<path d = "M 498.50 307.65 A 23.77 23.77 0 0 1 517.72 347.02" fill = "none"  stroke="#bfbfbf" stroke-width="4" stroke-linejoin="round" stroke-linecap="round" />
<path d = "M 526.49 424.51 A 52.81 52.81 0 0 1 517.72 347.02" fill = "none"  stroke="#bfbfbf" stroke-width="4" stroke-linejoin="round" stroke-linecap="round" />
<path d = "M 526.49 424.51 A 23.77 23.77 0 0 1 536.14 440.89" fill = "none"  stroke="#bfbfbf" stroke-width="4" stroke-linejoin="round" stroke-linecap="round" />
<path d = "M 585.53 486.78 A 52.24 52.24 0 0 1 536.14 440.89" fill = "none"  stroke="#bfbfbf" stroke-width="4" stroke-linejoin="round" stroke-linecap="round" />
<path d = "M 585.53 486.78 A 23.77 23.77 0 0 1 596.39 489.99" fill = "none"  stroke="#bfbfbf" stroke-width="4" stroke-linejoin="round" stroke-linecap="round" />
<circle cx="356.24" cy="137.44" r="14.06" fill="#d2d2d2" stroke="#bfbfbf" stroke-width="2" stroke-linejoin="round" stroke-linecap="round" />
<text x="356.24" y="135.84" fill="black" font-family="Arial" font-size="8" font-style="normal" font-weight="bold" text-anchor="middle">  ARG </text>
<text x="356.24" y="143.84" fill="black" font-family="Arial" font-size="8" font-style="normal" font-weight="bold" text-anchor="middle">  12A </text>
<circle cx="450.15" cy="355.25" r="14.06" fill="#d2d2d2" stroke="#bfbfbf" stroke-width="2" stroke-linejoin="round" stroke-linecap="round" />
<text x="450.15" y="353.65" fill="black" font-family="Arial" font-size="8" font-style="normal" font-weight="bold" text-anchor="middle">  LEU </text>
<text x="450.15" y="361.65" fill="black" font-family="Arial" font-size="8" font-style="normal" font-weight="bold" text-anchor="middle">  14A </text>
<circle cx="702.47" cy="275.07" r="14.06" fill="#d2d2d2" stroke="#bfbfbf" stroke-width="2" stroke-linejoin="round" stroke-linecap="round" />
<text x="702.47" y="273.47" fill="black" font-family="Arial" font-size="8" font-style="normal" font-weight="bold" text-anchor="middle">  VAL </text>
<text x="702.47" y="281.47" fill="black" font-family="Arial" font-size="8" font-style="normal" font-weight="bold" text-anchor="middle">  22A </text>
<circle cx="407.95" cy="355.54" r="14.06" fill="#d2d2d2" stroke="#bfbfbf" stroke-width="2" stroke-linejoin="round" stroke-linecap="round" />
<text x="407.95" y="353.94" fill="black" font-family="Arial" font-size="8" font-style="normal" font-weight="bold" text-anchor="middle">  LEU </text>
<text x="407.95" y="361.94" fill="black" font-family="Arial" font-size="8" font-style="normal" font-weight="bold" text-anchor="middle">  24A </text>
<circle cx="690.64" cy="239.37" r="14.06" fill="#d2d2d2" stroke="#bfbfbf" stroke-width="2" stroke-linejoin="round" stroke-linecap="round" />
<text x="690.64" y="237.77" fill="black" font-family="Arial" font-size="8" font-style="normal" font-weight="bold" text-anchor="middle">  ALA </text>
<text x="690.64" y="245.77" fill="black" font-family="Arial" font-size="8" font-style="normal" font-weight="bold" text-anchor="middle">  39A </text>
<circle cx="757.50" cy="324.84" r="14.06" fill="#d2d2d2" stroke="#bfbfbf" stroke-width="2" stroke-linejoin="round" stroke-linecap="round" />
<text x="757.50" y="323.24" fill="black" font-family="Arial" font-size="8" font-style="normal" font-weight="bold" text-anchor="middle">  ILE </text>
<text x="757.50" y="331.24" fill="black" font-family="Arial" font-size="8" font-style="normal" font-weight="bold" text-anchor="middle">  71A </text>
<circle cx="768.82" cy="418.44" r="14.06" fill="#d2d2d2" stroke="#bfbfbf" stroke-width="2" stroke-linejoin="round" stroke-linecap="round" />
<text x="768.82" y="416.84" fill="black" font-family="Arial" font-size="8" font-style="normal" font-weight="bold" text-anchor="middle">  MET </text>
<text x="768.82" y="424.84" fill="black" font-family="Arial" font-size="8" font-style="normal" font-weight="bold" text-anchor="middle">  89A </text>
<circle cx="680.67" cy="181.75" r="14.06" fill="#d2d2d2" stroke="#bfbfbf" stroke-width="2" stroke-linejoin="round" stroke-linecap="round" />
<text x="680.67" y="180.15" fill="black" font-family="Arial" font-size="8" font-style="normal" font-weight="bold" text-anchor="middle">  GLU </text>
<text x="680.67" y="188.15" fill="black" font-family="Arial" font-size="8" font-style="normal" font-weight="bold" text-anchor="middle">  90A </text>
<circle cx="553.82" cy="154.92" r="14.06" fill="#d2d2d2" stroke="#bfbfbf" stroke-width="2" stroke-linejoin="round" stroke-linecap="round" />
<text x="553.82" y="153.32" fill="black" font-family="Arial" font-size="8" font-style="normal" font-weight="bold" text-anchor="middle">  TYR </text>
<text x="553.82" y="161.32" fill="black" font-family="Arial" font-size="8" font-style="normal" font-weight="bold" text-anchor="middle">  91A </text>
<circle cx="628.63" cy="181.61" r="14.06" fill="#d2d2d2" stroke="#bfbfbf" stroke-width="2" stroke-linejoin="round" stroke-linecap="round" />
<text x="628.63" y="180.01" fill="black" font-family="Arial" font-size="8" font-style="normal" font-weight="bold" text-anchor="middle">  VAL </text>
<text x="628.63" y="188.01" fill="black" font-family="Arial" font-size="8" font-style="normal" font-weight="bold" text-anchor="middle">  92A </text>
<circle cx="497.79" cy="102.76" r="14.06" fill="#d2d2d2" stroke="#bfbfbf" stroke-width="2" stroke-linejoin="round" stroke-linecap="round" />
<text x="497.79" y="101.16" fill="black" font-family="Arial" font-size="8" font-style="normal" font-weight="bold" text-anchor="middle">  PRO </text>
<text x="497.79" y="109.16" fill="black" font-family="Arial" font-size="8" font-style="normal" font-weight="bold" text-anchor="middle">  93A </text>
<circle cx="412.08" cy="96.74" r="14.06" fill="#d2d2d2" stroke="#bfbfbf" stroke-width="2" stroke-linejoin="round" stroke-linecap="round" />
<text x="412.08" y="95.14" fill="black" font-family="Arial" font-size="8" font-style="normal" font-weight="bold" text-anchor="middle">  LEU </text>
<text x="412.08" y="103.14" fill="black" font-family="Arial" font-size="8" font-style="normal" font-weight="bold" text-anchor="middle">  94A </text>
<circle cx="516.98" cy="136.58" r="14.06" fill="#d2d2d2" stroke="#bfbfbf" stroke-width="2" stroke-linejoin="round" stroke-linecap="round" />
<text x="516.98" y="134.98" fill="black" font-family="Arial" font-size="8" font-style="normal" font-weight="bold" text-anchor="middle">  GLY </text>
<text x="516.98" y="142.98" fill="black" font-family="Arial" font-size="8" font-style="normal" font-weight="bold" text-anchor="middle">  95A </text>
<circle cx="721.43" cy="306.30" r="14.06" fill="#d2d2d2" stroke="#bfbfbf" stroke-width="2" stroke-linejoin="round" stroke-linecap="round" />
<text x="721.43" y="304.90" fill="black" font-family="Arial" font-size="7" font-style="normal" font-weight="bold" text-anchor="middle">  LEU </text>
<text x="721.43" y="311.90" fill="black" font-family="Arial" font-size="7" font-style="normal" font-weight="bold" text-anchor="middle">  141A </text>
<circle cx="775.36" cy="370.17" r="14.06" fill="#d2d2d2" stroke="#bfbfbf" stroke-width="2" stroke-linejoin="round" stroke-linecap="round" />
<text x="775.36" y="368.77" fill="black" font-family="Arial" font-size="7" font-style="normal" font-weight="bold" text-anchor="middle">  GLY </text>
<text x="775.36" y="375.77" fill="black" font-family="Arial" font-size="7" font-style="normal" font-weight="bold" text-anchor="middle">  151A </text>
<circle cx="696.73" cy="522.95" r="14.06" fill="#d2d2d2" stroke="#bfbfbf" stroke-width="2" stroke-linejoin="round" stroke-linecap="round" />
<text x="696.73" y="521.55" fill="black" font-family="Arial" font-size="7" font-style="normal" font-weight="bold" text-anchor="middle">  ASP </text>
<text x="696.73" y="528.55" fill="black" font-family="Arial" font-size="7" font-style="normal" font-weight="bold" text-anchor="middle">  152A </text>
<path d="M 728.81 413.60 L 738.55 424.85 C 739.59 426.64 740.06 428.40 740.06 430.48 C 740.06 436.69 735.02 441.73 728.81 441.73 C 722.59 441.73 717.55 436.69 717.55 430.48 C 717.55 428.40 718.03 426.64 719.06 424.85 Z" fill="#d2d2d2" stroke="#bfbfbf" stroke-width="2" stroke-linejoin="round" stroke-linecap="round" />
<text x="728.81" y="427.95" fill="black" font-family="Arial" font-size="7" font-style="normal" font-weight="bold" text-anchor="middle">  HOH </text>
<text x="728.81" y="434.95" fill="black" font-family="Arial" font-size="7" font-style="normal" font-weight="bold" text-anchor="middle">  506A </text>
<path d="M 483.63 392.88 L 493.38 404.13 C 494.41 405.93 494.89 407.69 494.89 409.76 C 494.89 415.97 489.85 421.01 483.63 421.01 C 477.42 421.01 472.38 415.97 472.38 409.76 C 472.38 407.69 472.85 405.93 473.89 404.13 Z" fill="#d2d2d2" stroke="#bfbfbf" stroke-width="2" stroke-linejoin="round" stroke-linecap="round" />
<text x="483.63" y="407.23" fill="black" font-family="Arial" font-size="7" font-style="normal" font-weight="bold" text-anchor="middle">  HOH </text>
<text x="483.63" y="414.23" fill="black" font-family="Arial" font-size="7" font-style="normal" font-weight="bold" text-anchor="middle">  695A </text>
<path d="M 316.48 220.39 L 326.22 231.64 C 327.26 233.43 327.73 235.19 327.73 237.27 C 327.73 243.48 322.69 248.52 316.48 248.52 C 310.26 248.52 305.22 243.48 305.22 237.27 C 305.22 235.19 305.70 233.43 306.73 231.64 Z" fill="#d2d2d2" stroke="#bfbfbf" stroke-width="2" stroke-linejoin="round" stroke-linecap="round" />
<text x="316.48" y="234.74" fill="black" font-family="Arial" font-size="7" font-style="normal" font-weight="bold" text-anchor="middle">  HOH </text>
<text x="316.48" y="241.74" fill="black" font-family="Arial" font-size="7" font-style="normal" font-weight="bold" text-anchor="middle">  883A </text>
<path d="M 506.54 427.00 L 516.28 438.26 C 517.32 440.05 517.79 441.81 517.79 443.88 C 517.79 450.10 512.75 455.13 506.54 455.13 C 500.32 455.13 495.29 450.10 495.29 443.88 C 495.29 441.81 495.76 440.05 496.79 438.26 Z" fill="#d2d2d2" stroke="#bfbfbf" stroke-width="2" stroke-linejoin="round" stroke-linecap="round" />
<text x="506.54" y="441.56" fill="black" font-family="Arial" font-size="6" font-style="normal" font-weight="bold" text-anchor="middle">  HOH </text>
<text x="506.54" y="447.56" fill="black" font-family="Arial" font-size="6" font-style="normal" font-weight="bold" text-anchor="middle">  2610A </text>
<path d="M 663.98 490.31 L 673.73 501.56 C 674.76 503.35 675.24 505.11 675.24 507.18 C 675.24 513.40 670.20 518.44 663.98 518.44 C 657.77 518.44 652.73 513.40 652.73 507.18 C 652.73 505.11 653.20 503.35 654.24 501.56 Z" fill="#d2d2d2" stroke="#bfbfbf" stroke-width="2" stroke-linejoin="round" stroke-linecap="round" />
<text x="663.98" y="504.86" fill="black" font-family="Arial" font-size="6" font-style="normal" font-weight="bold" text-anchor="middle">  HOH </text>
<text x="663.98" y="510.86" fill="black" font-family="Arial" font-size="6" font-style="normal" font-weight="bold" text-anchor="middle">  2719A </text>
<path d="M 577.88 496.21 L 587.63 507.47 C 588.66 509.26 589.14 511.02 589.14 513.09 C 589.14 519.31 584.10 524.34 577.88 524.34 C 571.67 524.34 566.63 519.31 566.63 513.09 C 566.63 511.02 567.10 509.26 568.14 507.47 Z" fill="#d2d2d2" stroke="#bfbfbf" stroke-width="2" stroke-linejoin="round" stroke-linecap="round" />
<text x="577.88" y="510.77" fill="black" font-family="Arial" font-size="6" font-style="normal" font-weight="bold" text-anchor="middle">  HOH </text>
<text x="577.88" y="516.77" fill="black" font-family="Arial" font-size="6" font-style="normal" font-weight="bold" text-anchor="middle">  5212A </text>
<path d="M 438.70 304.08 L 448.45 315.33 C 449.48 317.13 449.96 318.89 449.96 320.96 C 449.96 327.17 444.92 332.21 438.70 332.21 C 432.49 332.21 427.45 327.17 427.45 320.96 C 427.45 318.89 427.92 317.13 428.96 315.33 Z" fill="#d2d2d2" stroke="#bfbfbf" stroke-width="2" stroke-linejoin="round" stroke-linecap="round" />
<text x="438.70" y="318.63" fill="black" font-family="Arial" font-size="6" font-style="normal" font-weight="bold" text-anchor="middle">  HOH </text>
<text x="438.70" y="324.63" fill="black" font-family="Arial" font-size="6" font-style="normal" font-weight="bold" text-anchor="middle">  5856A </text>
<path d="M 391.47 128.83 L 401.22 140.09 C 402.25 141.88 402.73 143.64 402.73 145.71 C 402.73 151.92 397.69 156.96 391.47 156.96 C 385.26 156.96 380.22 151.92 380.22 145.71 C 380.22 143.64 380.69 141.88 381.73 140.09 Z" fill="#d2d2d2" stroke="#bfbfbf" stroke-width="2" stroke-linejoin="round" stroke-linecap="round" />
<text x="391.47" y="143.39" fill="black" font-family="Arial" font-size="6" font-style="normal" font-weight="bold" text-anchor="middle">  HOH </text>
<text x="391.47" y="149.39" fill="black" font-family="Arial" font-size="6" font-style="normal" font-weight="bold" text-anchor="middle">  6987A </text>
<line x1="656.69" y1="320.91" x2="664.98" y2="312.62" stroke="#9b6464" stroke-linejoin="round" stroke-linecap="round" />
<path d="M 671.20 314.70 C 668.91 316.99 665.20 316.99 662.91 314.70 C 660.62 312.41 660.62 308.70 662.91 306.41 L 664.98 304.34 L 667.05 306.41 L 664.98 308.48 L 666.22 309.72 L 668.30 307.65 L 669.95 309.31 L 667.88 311.38 L 669.12 312.62 L 671.20 310.55 L 673.27 312.62 Z" fill="#ffc8c8" stroke="#9b6464" stroke-linejoin="round" stroke-linecap="round" />
<line x1="532.55" y1="202.59" x2="535.58" y2="191.27" stroke="#64649b" stroke-linejoin="round" stroke-linecap="round" />
<line x1="539.93" y1="186.37" x2="540.94" y2="182.59" stroke="#64649b" stroke-width="2" stroke-linejoin="round" />
<line x1="534.27" y1="184.85" x2="535.28" y2="181.08" stroke="#64649b" stroke-width="2" stroke-linejoin="round" />
<path d="M 542.00 189.95 C 541.17 193.08 537.95 194.94 534.83 194.10 C 531.70 193.26 529.84 190.05 530.68 186.92 L 531.44 184.09 L 542.76 187.12 Z" fill="#c8c8ff" stroke="#64649b" stroke-linejoin="round" stroke-linecap="round" />
<line x1="496.03" y1="284.11" x2="495.01" y2="295.79" stroke="#9b6464" stroke-linejoin="round" stroke-linecap="round" />
<path d="M 488.92 298.20 C 489.20 294.97 492.04 292.59 495.27 292.87 C 498.49 293.15 500.88 295.99 500.59 299.22 L 500.34 302.14 L 497.42 301.88 L 497.67 298.96 L 495.92 298.81 L 495.67 301.73 L 493.33 301.52 L 493.59 298.60 L 491.84 298.45 L 491.58 301.37 L 488.66 301.11 Z" fill="#ffc8c8" stroke="#9b6464" stroke-linejoin="round" stroke-linecap="round" />
<line x1="670.73" y1="191.70" x2="662.44" y2="199.99" stroke="#9b6464" stroke-linejoin="round" stroke-linecap="round" />
<path d="M 656.22 197.91 C 658.51 195.63 662.22 195.63 664.51 197.91 C 666.80 200.20 666.80 203.91 664.51 206.20 L 662.44 208.27 L 660.37 206.20 L 662.44 204.13 L 661.19 202.89 L 659.12 204.96 L 657.47 203.30 L 659.54 201.23 L 658.29 199.99 L 656.22 202.06 L 654.15 199.99 Z" fill="#ffc8c8" stroke="#9b6464" stroke-linejoin="round" stroke-linecap="round" />
<line x1="618.68" y1="191.55" x2="610.40" y2="199.84" stroke="#9b6464" stroke-linejoin="round" stroke-linecap="round" />
<path d="M 604.18 197.77 C 606.47 195.48 610.18 195.48 612.47 197.77 C 614.76 200.06 614.76 203.77 612.47 206.06 L 610.40 208.13 L 608.33 206.06 L 610.40 203.99 L 609.15 202.74 L 607.08 204.82 L 605.42 203.16 L 607.50 201.09 L 606.25 199.84 L 604.18 201.91 L 602.11 199.84 Z" fill="#ffc8c8" stroke="#9b6464" stroke-linejoin="round" stroke-linecap="round" />
<circle cx="27.43" cy="39.50" r="15.36" fill="none" stroke="black" stroke-linejoin="round" stroke-linecap="round" />
<path d="M 27.43 68.30 L 38.07 80.59 C 39.20 82.54 39.71 84.47 39.71 86.73 C 39.71 93.51 34.21 99.01 27.43 99.01 C 20.64 99.01 15.14 93.51 15.14 86.73 C 15.14 84.47 15.66 82.54 16.79 80.59 Z" fill="none" stroke="black" stroke-linejoin="round" stroke-linecap="round" />
<line x1="12.07" y1="155.50" x2="35.11" y2="155.50" stroke="#64649b" stroke-linejoin="round" stroke-linecap="round" />
<line x1="42.79" y1="159.34" x2="47.90" y2="159.34" stroke="#64649b" stroke-width="3" stroke-linejoin="round" />
<line x1="42.79" y1="151.66" x2="47.90" y2="151.66" stroke="#64649b" stroke-width="3" stroke-linejoin="round" />
<path d="M 38.95 163.18 C 34.71 163.18 31.27 159.74 31.27 155.50 C 31.27 151.26 34.71 147.82 38.95 147.82 L 42.79 147.82 L 42.79 163.18 Z" fill="#c8c8ff" stroke="#64649b" stroke-linejoin="round" stroke-linecap="round" />
<line x1="12.07" y1="201.50" x2="35.11" y2="201.50" stroke="#9b6464" stroke-linejoin="round" stroke-linecap="round" />
<path d="M 38.95 209.18 C 34.71 209.18 31.27 205.74 31.27 201.50 C 31.27 197.26 34.71 193.82 38.95 193.82 L 42.79 193.82 L 42.79 197.66 L 38.95 197.66 L 38.95 199.96 L 42.79 199.96 L 42.79 203.04 L 38.95 203.04 L 38.95 205.34 L 42.79 205.34 L 42.79 209.18 Z" fill="#ffc8c8" stroke="#9b6464" stroke-linejoin="round" stroke-linecap="round" />
<text x="55.07" y="43.50" fill="black" font-family="Arial" font-size="12" font-style="normal" font-weight="bold" text-anchor="start">  amino acid </text>
<text x="55.07" y="89.50" fill="black" font-family="Arial" font-size="12" font-style="normal" font-weight="bold" text-anchor="start">  water </text>
<text x="55.07" y="159.50" fill="black" font-family="Arial" font-size="12" font-style="normal" font-weight="bold" text-anchor="start">  unpaired donor </text>
<text x="55.07" y="205.50" fill="black" font-family="Arial" font-size="12" font-style="normal" font-weight="bold" text-anchor="start">  unpaired acceptor </text>
<path d="M 13.50 10.80 L 166.50 10.80 C 170.48 10.80 173.70 14.02 173.70 18.00 L 173.70 102.50 C 173.70 106.48 170.48 109.70 166.50 109.70 L 13.50 109.70 C 9.52 109.70 6.30 106.48 6.30 102.50 L 6.30 18.00 C 6.30 14.02 9.52 10.80 13.50 10.80 Z" fill="none" stroke="#bfbfbf" stroke-width="3" stroke-linejoin="round" stroke-linecap="round" />
<rect x="34.54" y="4.5" width="110.91" height="9" fill="white" stroke="white" stroke-linejoin="round" stroke-linecap="round" />
<text x="90.00" y="13.67" fill="black" font-family="Arial" font-size="14" font-style="normal" font-weight="bold" text-anchor="middle">  Residue Styles </text>
<path d="M 13.50 126.80 L 166.50 126.80 C 170.48 126.80 173.70 130.02 173.70 134.00 L 173.70 218.50 C 173.70 222.48 170.48 225.70 166.50 225.70 L 13.50 225.70 C 9.52 225.70 6.30 222.48 6.30 218.50 L 6.30 134.00 C 6.30 130.02 9.52 126.80 13.50 126.80 Z" fill="none" stroke="#bfbfbf" stroke-width="3" stroke-linejoin="round" stroke-linecap="round" />
<rect x="25.6" y="120.5" width="128.8" height="9" fill="white" stroke="white" stroke-linejoin="round" stroke-linecap="round" />
<text x="90.00" y="129.67" fill="black" font-family="Arial" font-size="14" font-style="normal" font-weight="bold" text-anchor="middle">  Interaction Styles </text>
<path d="M 10.50 0.50 L 889.50 0.50 C 895.02 0.50 899.50 4.98 899.50 10.50 L 899.50 589.50 C 899.50 595.02 895.02 599.50 889.50 599.50 L 10.50 599.50 C 4.98 599.50 0.50 595.02 0.50 589.50 L 0.50 10.50 C 0.50 4.98 4.98 0.50 10.50 0.50 Z" fill="none" stroke="#bfbfbf" stroke-linejoin="round" stroke-linecap="round" />
</svg>
