<?xml version="1.0" encoding="UTF-8"?>
<!DOCTYPE svg PUBLIC "-//W3C//DTD SVG 1.1//EN"
  "http://www.w3.org/Graphics/SVG/1.1/DTD/svg11.dtd">
<svg xmlns="http://www.w3.org/2000/svg" xmlns:xlink="http://www.w3.org/1999/xlink"   viewBox="0.00 0.00 900.00 600.00">
<!-- Created by OpenEye Scientific Software -->
<!-- Creation Date Thu Mar 18 12:45:41 2021 -->
<rect width="900.00" height="600.00" fill="white" />
<rect x="180" y="0" width="720" height="600" fill="white" />
<text x="540.00" y="52.50" fill="black" font-family="Arial" font-size="45" font-style="normal" font-weight="normal" text-anchor="middle">  MOL </text>
<line x1="406.88" y1="428.31" x2="406.76" y2="389.90" stroke="black" stroke-width="4" stroke-linejoin="round" stroke-linecap="round" />
<line x1="415.00" y1="422.14" x2="414.93" y2="396.03" stroke="black" stroke-width="4" stroke-linejoin="round" stroke-linecap="round" />
<line x1="406.88" y1="428.31" x2="440.08" y2="447.61" stroke="black" stroke-width="4" stroke-linejoin="round" stroke-linecap="round" />
<line x1="406.76" y1="389.90" x2="440.20" y2="370.60" stroke="black" stroke-width="4" stroke-linejoin="round" stroke-linecap="round" />
<line x1="440.20" y1="370.60" x2="440.12" y2="346.18" stroke="black" stroke-width="4" stroke-linejoin="round" stroke-linecap="round" />
<line x1="440.20" y1="370.60" x2="473.74" y2="389.71" stroke="black" stroke-width="4" stroke-linejoin="round" stroke-linecap="round" />
<line x1="441.53" y1="380.74" x2="464.34" y2="393.73" stroke="black" stroke-width="4" stroke-linejoin="round" stroke-linecap="round" />
<line x1="473.74" y1="389.71" x2="507.00" y2="370.50" stroke="black" stroke-width="4" stroke-linejoin="round" stroke-linecap="round" />
<line x1="473.74" y1="389.71" x2="473.51" y2="428.31" stroke="black" stroke-width="4" stroke-linejoin="round" stroke-linecap="round" />
<line x1="473.51" y1="428.31" x2="494.62" y2="440.58" stroke="black" stroke-width="4" stroke-linejoin="round" stroke-linecap="round" />
<line x1="473.51" y1="428.31" x2="440.08" y2="447.61" stroke="black" stroke-width="4" stroke-linejoin="round" stroke-linecap="round" />
<line x1="464.09" y1="424.34" x2="441.36" y2="437.47" stroke="black" stroke-width="4" stroke-linejoin="round" stroke-linecap="round" />
<line x1="511.07" y1="370.50" x2="511.07" y2="344.73" stroke="black" stroke-width="4" stroke-linejoin="round" stroke-linecap="round" />
<line x1="502.92" y1="370.50" x2="502.92" y2="344.73" stroke="black" stroke-width="4" stroke-linejoin="round" stroke-linecap="round" />
<line x1="507.00" y1="370.50" x2="530.49" y2="384.07" stroke="black" stroke-width="4" stroke-linejoin="round" stroke-linecap="round" />
<line x1="550.02" y1="384.07" x2="573.51" y2="370.50" stroke="black" stroke-width="4" stroke-linejoin="round" stroke-linecap="round" />
<line x1="573.51" y1="370.50" x2="606.72" y2="389.80" stroke="black" stroke-width="4" stroke-linejoin="round" stroke-linecap="round" />
<line x1="582.92" y1="366.55" x2="605.50" y2="379.67" stroke="black" stroke-width="4" stroke-linejoin="round" stroke-linecap="round" />
<line x1="573.51" y1="370.50" x2="573.40" y2="332.10" stroke="black" stroke-width="4" stroke-linejoin="round" stroke-linecap="round" />
<line x1="606.72" y1="389.80" x2="640.15" y2="370.50" stroke="black" stroke-width="4" stroke-linejoin="round" stroke-linecap="round" />
<line x1="640.15" y1="370.50" x2="640.31" y2="343.18" stroke="black" stroke-width="4" stroke-linejoin="round" stroke-linecap="round" />
<line x1="632.04" y1="364.28" x2="632.19" y2="338.03" stroke="black" stroke-width="4" stroke-linejoin="round" stroke-linecap="round" />
<line x1="630.57" y1="326.32" x2="606.83" y2="312.80" stroke="black" stroke-width="4" stroke-linejoin="round" stroke-linecap="round" />
<line x1="606.83" y1="312.80" x2="606.75" y2="285.67" stroke="black" stroke-width="4" stroke-linejoin="round" stroke-linecap="round" />
<line x1="606.83" y1="312.80" x2="573.40" y2="332.10" stroke="black" stroke-width="4" stroke-linejoin="round" stroke-linecap="round" />
<line x1="605.56" y1="322.94" x2="582.82" y2="336.06" stroke="black" stroke-width="4" stroke-linejoin="round" stroke-linecap="round" />
<line x1="616.47" y1="268.73" x2="639.92" y2="255.10" stroke="black" stroke-width="4" stroke-linejoin="round" stroke-linecap="round" />
<line x1="639.92" y1="255.10" x2="639.81" y2="216.69" stroke="black" stroke-width="4" stroke-linejoin="round" stroke-linecap="round" />
<line x1="637.90" y1="258.63" x2="660.25" y2="271.45" stroke="black" stroke-width="4" stroke-linejoin="round" stroke-linecap="round" />
<line x1="641.95" y1="251.56" x2="664.30" y2="264.38" stroke="black" stroke-width="4" stroke-linejoin="round" stroke-linecap="round" />
<line x1="639.81" y1="216.69" x2="673.01" y2="197.39" stroke="black" stroke-width="4" stroke-linejoin="round" stroke-linecap="round" />
<text x="506.71" y="452.89" fill="black" font-family="Arial" font-size="16" font-style="normal" font-weight="normal" text-anchor="middle">  Cl </text>
<text x="507.00" y="337.38" fill="black" font-family="Arial" font-size="16" font-style="normal" font-weight="normal" text-anchor="middle">  O </text>
<text x="540.25" y="394.99" fill="black" font-family="Arial" font-size="16" font-style="normal" font-weight="normal" text-anchor="middle">  N </text>
<text x="540.25" y="407.79" fill="black" font-family="Arial" font-size="16" font-style="normal" font-weight="normal" text-anchor="middle">  H </text>
<text x="640.38" y="337.18" fill="black" font-family="Arial" font-size="16" font-style="normal" font-weight="normal" text-anchor="middle">  N </text>
<text x="606.72" y="279.67" fill="black" font-family="Arial" font-size="16" font-style="normal" font-weight="normal" text-anchor="middle">  N </text>
<text x="595.52" y="279.67" fill="black" font-family="Arial" font-size="16" font-style="normal" font-weight="normal" text-anchor="middle">  H </text>
<text x="673.24" y="279.48" fill="black" font-family="Arial" font-size="16" font-style="normal" font-weight="normal" text-anchor="middle">  O </text>
<text x="440.08" y="337.48" fill="black" font-family="Arial" font-size="16" font-style="normal" font-weight="normal" text-anchor="middle">  Cl </text>
<path d = "M 425.41 483.25 A 57.98 57.98 0 0 1 349.16 422.74" fill = "none"  stroke="#bfbfbf" stroke-width="4" stroke-linejoin="round" stroke-linecap="round" />
<path d = "M 425.41 483.25 A 25.96 25.96 0 0 1 436.44 482.03" fill = "none"  stroke="#bfbfbf" stroke-width="4" stroke-linejoin="round" stroke-linecap="round" />
<path d = "M 456.30 478.19 A 34.62 34.62 0 0 1 436.44 482.03" fill = "none"  stroke="#bfbfbf" stroke-width="4" stroke-linejoin="round" stroke-linecap="round" />
<path d = "M 456.30 478.19 A 25.96 25.96 0 0 1 470.26 475.22" fill = "none"  stroke="#bfbfbf" stroke-width="4" stroke-linejoin="round" stroke-linecap="round" />
<path d = "M 476.63 475.23 A 47.03 47.03 0 0 1 470.26 475.22" fill = "none"  stroke="#bfbfbf" stroke-width="4" stroke-linejoin="round" stroke-linecap="round" />
<path d = "M 476.63 475.23 A 25.96 25.96 0 0 1 490.50 478.20" fill = "none"  stroke="#bfbfbf" stroke-width="4" stroke-linejoin="round" stroke-linecap="round" />
<path d = "M 541.24 450.14 A 34.62 34.62 0 0 1 490.50 478.20" fill = "none"  stroke="#bfbfbf" stroke-width="4" stroke-linejoin="round" stroke-linecap="round" />
<path d = "M 541.24 450.14 A 25.96 25.96 0 0 1 556.85 428.20" fill = "none"  stroke="#bfbfbf" stroke-width="4" stroke-linejoin="round" stroke-linecap="round" />
<path d = "M 565.08 423.48 A 41.92 41.92 0 0 1 556.85 428.20" fill = "none"  stroke="#bfbfbf" stroke-width="4" stroke-linejoin="round" stroke-linecap="round" />
<path d = "M 565.08 423.48 A 25.96 25.96 0 0 1 591.71 421.00" fill = "none"  stroke="#bfbfbf" stroke-width="4" stroke-linejoin="round" stroke-linecap="round" />
<path d = "M 625.49 418.89 A 34.62 34.62 0 0 1 591.71 421.00" fill = "none"  stroke="#bfbfbf" stroke-width="4" stroke-linejoin="round" stroke-linecap="round" />
<path d = "M 625.49 418.89 A 25.96 25.96 0 0 1 639.79 414.74" fill = "none"  stroke="#bfbfbf" stroke-width="4" stroke-linejoin="round" stroke-linecap="round" />
<path d = "M 680.87 353.22 A 25.96 25.96 0 0 1 679.19 338.64" fill = "none"  stroke="#bfbfbf" stroke-width="4" stroke-linejoin="round" stroke-linecap="round" />
<path d = "M 679.40 337.29 A 39.40 39.40 0 0 1 679.19 338.64" fill = "none"  stroke="#bfbfbf" stroke-width="4" stroke-linejoin="round" stroke-linecap="round" />
<path d = "M 679.40 337.29 A 25.96 25.96 0 0 1 693.92 317.43" fill = "none"  stroke="#bfbfbf" stroke-width="4" stroke-linejoin="round" stroke-linecap="round" />
<path d = "M 712.64 246.93 A 47.92 47.92 0 0 1 693.92 317.43" fill = "none"  stroke="#bfbfbf" stroke-width="4" stroke-linejoin="round" stroke-linecap="round" />
<path d = "M 712.64 246.93 A 25.96 25.96 0 0 1 711.44 219.30" fill = "none"  stroke="#bfbfbf" stroke-width="4" stroke-linejoin="round" stroke-linecap="round" />
<path d = "M 634.46 175.69 A 25.96 25.96 0 0 1 623.82 185.98" fill = "none"  stroke="#bfbfbf" stroke-width="4" stroke-linejoin="round" stroke-linecap="round" />
<path d = "M 605.43 212.66 A 34.62 34.62 0 0 1 623.82 185.98" fill = "none"  stroke="#bfbfbf" stroke-width="4" stroke-linejoin="round" stroke-linecap="round" />
<path d = "M 605.43 212.66 A 25.96 25.96 0 0 1 589.65 233.58" fill = "none"  stroke="#bfbfbf" stroke-width="4" stroke-linejoin="round" stroke-linecap="round" />
<path d = "M 563.73 263.96 A 25.96 25.96 0 0 1 549.54 281.33" fill = "none"  stroke="#bfbfbf" stroke-width="4" stroke-linejoin="round" stroke-linecap="round" />
<path d = "M 547.28 282.46 A 56.10 56.10 0 0 1 549.54 281.33" fill = "none"  stroke="#bfbfbf" stroke-width="4" stroke-linejoin="round" stroke-linecap="round" />
<path d = "M 547.28 282.46 A 25.96 25.96 0 0 1 525.79 283.68" fill = "none"  stroke="#bfbfbf" stroke-width="4" stroke-linejoin="round" stroke-linecap="round" />
<path d = "M 493.66 281.90 A 51.94 51.94 0 0 1 525.79 283.68" fill = "none"  stroke="#bfbfbf" stroke-width="4" stroke-linejoin="round" stroke-linecap="round" />
<path d = "M 493.66 281.90 A 25.96 25.96 0 0 1 473.28 278.85" fill = "none"  stroke="#bfbfbf" stroke-width="4" stroke-linejoin="round" stroke-linecap="round" />
<path d = "M 377.86 323.49 A 62.83 62.83 0 0 1 473.28 278.85" fill = "none"  stroke="#bfbfbf" stroke-width="4" stroke-linejoin="round" stroke-linecap="round" />
<path d = "M 377.86 323.49 A 25.96 25.96 0 0 1 368.11 340.37" fill = "none"  stroke="#bfbfbf" stroke-width="4" stroke-linejoin="round" stroke-linecap="round" />
<path d = "M 347.72 411.38 A 62.83 62.83 0 0 1 368.11 340.37" fill = "none"  stroke="#bfbfbf" stroke-width="4" stroke-linejoin="round" stroke-linecap="round" />
<path d = "M 347.72 411.38 A 25.96 25.96 0 0 1 349.16 422.74" fill = "none"  stroke="#bfbfbf" stroke-width="4" stroke-linejoin="round" stroke-linecap="round" />
<circle cx="596.73" cy="471.71" r="15.36" fill="#d2d2d2" stroke="#bfbfbf" stroke-width="2" stroke-linejoin="round" stroke-linecap="round" />
<text x="596.73" y="469.91" fill="black" font-family="Arial" font-size="9" font-style="normal" font-weight="bold" text-anchor="middle">  LEU </text>
<text x="596.73" y="478.91" fill="black" font-family="Arial" font-size="9" font-style="normal" font-weight="bold" text-anchor="middle">  14A </text>
<circle cx="498.53" cy="216.37" r="15.36" fill="#d2d2d2" stroke="#bfbfbf" stroke-width="2" stroke-linejoin="round" stroke-linecap="round" />
<text x="498.53" y="214.57" fill="black" font-family="Arial" font-size="9" font-style="normal" font-weight="bold" text-anchor="middle">  VAL </text>
<text x="498.53" y="223.57" fill="black" font-family="Arial" font-size="9" font-style="normal" font-weight="bold" text-anchor="middle">  22A </text>
<circle cx="431.45" cy="542.57" r="15.36" fill="#d2d2d2" stroke="#bfbfbf" stroke-width="2" stroke-linejoin="round" stroke-linecap="round" />
<text x="431.45" y="540.77" fill="black" font-family="Arial" font-size="9" font-style="normal" font-weight="bold" text-anchor="middle">  ALA </text>
<text x="431.45" y="549.77" fill="black" font-family="Arial" font-size="9" font-style="normal" font-weight="bold" text-anchor="middle">  39A </text>
<circle cx="298.66" cy="333.98" r="15.36" fill="#d2d2d2" stroke="#bfbfbf" stroke-width="2" stroke-linejoin="round" stroke-linecap="round" />
<text x="298.66" y="332.18" fill="black" font-family="Arial" font-size="9" font-style="normal" font-weight="bold" text-anchor="middle">  GLU </text>
<text x="298.66" y="341.18" fill="black" font-family="Arial" font-size="9" font-style="normal" font-weight="bold" text-anchor="middle">  90A </text>
<circle cx="501.83" cy="540.98" r="15.36" fill="#d2d2d2" stroke="#bfbfbf" stroke-width="2" stroke-linejoin="round" stroke-linecap="round" />
<text x="501.83" y="539.18" fill="black" font-family="Arial" font-size="9" font-style="normal" font-weight="bold" text-anchor="middle">  TYR </text>
<text x="501.83" y="548.18" fill="black" font-family="Arial" font-size="9" font-style="normal" font-weight="bold" text-anchor="middle">  91A </text>
<circle cx="468.21" cy="521.86" r="15.36" fill="#d2d2d2" stroke="#bfbfbf" stroke-width="2" stroke-linejoin="round" stroke-linecap="round" />
<text x="468.21" y="520.06" fill="black" font-family="Arial" font-size="9" font-style="normal" font-weight="bold" text-anchor="middle">  VAL </text>
<text x="468.21" y="529.06" fill="black" font-family="Arial" font-size="9" font-style="normal" font-weight="bold" text-anchor="middle">  92A </text>
<circle cx="578.08" cy="508.02" r="15.36" fill="#d2d2d2" stroke="#bfbfbf" stroke-width="2" stroke-linejoin="round" stroke-linecap="round" />
<text x="578.08" y="506.22" fill="black" font-family="Arial" font-size="9" font-style="normal" font-weight="bold" text-anchor="middle">  GLY </text>
<text x="578.08" y="515.22" fill="black" font-family="Arial" font-size="9" font-style="normal" font-weight="bold" text-anchor="middle">  95A </text>
<circle cx="542.85" cy="238.17" r="15.36" fill="#d2d2d2" stroke="#bfbfbf" stroke-width="2" stroke-linejoin="round" stroke-linecap="round" />
<text x="542.85" y="236.37" fill="black" font-family="Arial" font-size="9" font-style="normal" font-weight="bold" text-anchor="middle">  SER </text>
<text x="542.85" y="245.37" fill="black" font-family="Arial" font-size="9" font-style="normal" font-weight="bold" text-anchor="middle">  96A </text>
<circle cx="776.40" cy="246.54" r="15.36" fill="#d2d2d2" stroke="#bfbfbf" stroke-width="2" stroke-linejoin="round" stroke-linecap="round" />
<text x="776.40" y="244.74" fill="black" font-family="Arial" font-size="9" font-style="normal" font-weight="bold" text-anchor="middle">  ASP </text>
<text x="776.40" y="253.74" fill="black" font-family="Arial" font-size="9" font-style="normal" font-weight="bold" text-anchor="middle">  99A </text>
<circle cx="331.31" cy="314.17" r="15.36" fill="#d2d2d2" stroke="#bfbfbf" stroke-width="2" stroke-linejoin="round" stroke-linecap="round" />
<text x="331.31" y="312.57" fill="black" font-family="Arial" font-size="8" font-style="normal" font-weight="bold" text-anchor="middle">  LEU </text>
<text x="331.31" y="320.57" fill="black" font-family="Arial" font-size="8" font-style="normal" font-weight="bold" text-anchor="middle">  141A </text>
<path d="M 681.83 108.33 L 692.47 120.62 C 693.60 122.58 694.12 124.50 694.12 126.76 C 694.12 133.55 688.62 139.05 681.83 139.05 C 675.04 139.05 669.54 133.55 669.54 126.76 C 669.54 124.50 670.06 122.58 671.19 120.62 Z" fill="#d2d2d2" stroke="#bfbfbf" stroke-width="2" stroke-linejoin="round" stroke-linecap="round" />
<text x="681.83" y="123.93" fill="black" font-family="Arial" font-size="8" font-style="normal" font-weight="bold" text-anchor="middle">  HOH </text>
<text x="681.83" y="131.93" fill="black" font-family="Arial" font-size="8" font-style="normal" font-weight="bold" text-anchor="middle">  822A </text>
<path d="M 719.74 390.26 L 730.39 402.55 C 731.52 404.51 732.03 406.43 732.03 408.69 C 732.03 415.48 726.53 420.98 719.74 420.98 C 712.96 420.98 707.46 415.48 707.46 408.69 C 707.46 406.43 707.97 404.51 709.10 402.55 Z" fill="#d2d2d2" stroke="#bfbfbf" stroke-width="2" stroke-linejoin="round" stroke-linecap="round" />
<text x="719.74" y="406.26" fill="black" font-family="Arial" font-size="6" font-style="normal" font-weight="bold" text-anchor="middle">  HOH </text>
<text x="719.74" y="412.26" fill="black" font-family="Arial" font-size="6" font-style="normal" font-weight="bold" text-anchor="middle">  1044A </text>
<path d="M 712.37 348.30 L 723.02 360.59 C 724.15 362.55 724.66 364.47 724.66 366.74 C 724.66 373.52 719.16 379.03 712.37 379.03 C 705.59 379.03 700.09 373.52 700.09 366.74 C 700.09 364.47 700.60 362.55 701.73 360.59 Z" fill="#d2d2d2" stroke="#bfbfbf" stroke-width="2" stroke-linejoin="round" stroke-linecap="round" />
<text x="712.37" y="364.31" fill="black" font-family="Arial" font-size="6" font-style="normal" font-weight="bold" text-anchor="middle">  HOH </text>
<text x="712.37" y="370.31" fill="black" font-family="Arial" font-size="6" font-style="normal" font-weight="bold" text-anchor="middle">  2183A </text>
<path d="M 651.25 424.84 L 661.89 437.13 C 663.02 439.09 663.53 441.01 663.53 443.27 C 663.53 450.06 658.03 455.56 651.25 455.56 C 644.46 455.56 638.96 450.06 638.96 443.27 C 638.96 441.01 639.47 439.09 640.60 437.13 Z" fill="#d2d2d2" stroke="#bfbfbf" stroke-width="2" stroke-linejoin="round" stroke-linecap="round" />
<text x="651.25" y="440.84" fill="black" font-family="Arial" font-size="6" font-style="normal" font-weight="bold" text-anchor="middle">  HOH </text>
<text x="651.25" y="446.84" fill="black" font-family="Arial" font-size="6" font-style="normal" font-weight="bold" text-anchor="middle">  2404A </text>
<path d="M 743.17 198.07 L 753.81 210.36 C 754.94 212.32 755.45 214.24 755.45 216.50 C 755.45 223.29 749.95 228.79 743.17 228.79 C 736.38 228.79 730.88 223.29 730.88 216.50 C 730.88 214.24 731.39 212.32 732.52 210.36 Z" fill="#d2d2d2" stroke="#bfbfbf" stroke-width="2" stroke-linejoin="round" stroke-linecap="round" />
<text x="743.17" y="214.07" fill="black" font-family="Arial" font-size="6" font-style="normal" font-weight="bold" text-anchor="middle">  HOH </text>
<text x="743.17" y="220.07" fill="black" font-family="Arial" font-size="6" font-style="normal" font-weight="bold" text-anchor="middle">  2796A </text>
<path d="M 644.25 113.75 L 654.89 126.04 C 656.02 128.00 656.54 129.92 656.54 132.18 C 656.54 138.97 651.03 144.47 644.25 144.47 C 637.46 144.47 631.96 138.97 631.96 132.18 C 631.96 129.92 632.47 128.00 633.60 126.04 Z" fill="#d2d2d2" stroke="#bfbfbf" stroke-width="2" stroke-linejoin="round" stroke-linecap="round" />
<text x="644.25" y="129.75" fill="black" font-family="Arial" font-size="6" font-style="normal" font-weight="bold" text-anchor="middle">  HOH </text>
<text x="644.25" y="135.75" fill="black" font-family="Arial" font-size="6" font-style="normal" font-weight="bold" text-anchor="middle">  2798A </text>
<path d="M 716.99 122.68 L 727.63 134.96 C 728.76 136.92 729.28 138.85 729.28 141.11 C 729.28 147.90 723.77 153.40 716.99 153.40 C 710.20 153.40 704.70 147.90 704.70 141.11 C 704.70 138.85 705.21 136.92 706.34 134.96 Z" fill="#d2d2d2" stroke="#bfbfbf" stroke-width="2" stroke-linejoin="round" stroke-linecap="round" />
<text x="716.99" y="138.68" fill="black" font-family="Arial" font-size="6" font-style="normal" font-weight="bold" text-anchor="middle">  HOH </text>
<text x="716.99" y="144.68" fill="black" font-family="Arial" font-size="6" font-style="normal" font-weight="bold" text-anchor="middle">  4397A </text>
<path d="M 614.58 137.44 L 625.22 149.73 C 626.35 151.69 626.86 153.61 626.86 155.88 C 626.86 162.66 621.36 168.17 614.58 168.17 C 607.79 168.17 602.29 162.66 602.29 155.88 C 602.29 153.61 602.80 151.69 603.93 149.73 Z" fill="#d2d2d2" stroke="#bfbfbf" stroke-width="2" stroke-linejoin="round" stroke-linecap="round" />
<text x="614.58" y="153.45" fill="black" font-family="Arial" font-size="6" font-style="normal" font-weight="bold" text-anchor="middle">  HOH </text>
<text x="614.58" y="159.45" fill="black" font-family="Arial" font-size="6" font-style="normal" font-weight="bold" text-anchor="middle">  7199A </text>
<path d="M 485.14 234.34 L 495.79 246.63 C 496.92 248.58 497.43 250.51 497.43 252.77 C 497.43 259.56 491.93 265.06 485.14 265.06 C 478.36 265.06 472.85 259.56 472.85 252.77 C 472.85 250.51 473.37 248.58 474.50 246.63 Z" fill="#d2d2d2" stroke="#bfbfbf" stroke-width="2" stroke-linejoin="round" stroke-linecap="round" />
<text x="485.14" y="250.34" fill="black" font-family="Arial" font-size="6" font-style="normal" font-weight="bold" text-anchor="middle">  HOH </text>
<text x="485.14" y="256.34" fill="black" font-family="Arial" font-size="6" font-style="normal" font-weight="bold" text-anchor="middle">  7426A </text>
<path d="M 685.93 409.38 L 696.57 421.67 C 697.70 423.63 698.22 425.55 698.22 427.82 C 698.22 434.60 692.72 440.11 685.93 440.11 C 679.14 440.11 673.64 434.60 673.64 427.82 C 673.64 425.55 674.16 423.63 675.29 421.67 Z" fill="#d2d2d2" stroke="#bfbfbf" stroke-width="2" stroke-linejoin="round" stroke-linecap="round" />
<text x="685.93" y="425.39" fill="black" font-family="Arial" font-size="6" font-style="normal" font-weight="bold" text-anchor="middle">  HOH </text>
<text x="685.93" y="431.39" fill="black" font-family="Arial" font-size="6" font-style="normal" font-weight="bold" text-anchor="middle">  8761A </text>
<line x1="547.02" y1="404.21" x2="552.43" y2="415.81" stroke="#64649b" stroke-linejoin="round" stroke-linecap="round" />
<line x1="552.23" y1="422.96" x2="554.04" y2="426.83" stroke="#64649b" stroke-width="3" stroke-linejoin="round" />
<line x1="558.03" y1="420.26" x2="559.84" y2="424.13" stroke="#64649b" stroke-width="3" stroke-linejoin="round" />
<path d="M 547.98 421.42 C 546.49 418.21 547.87 414.40 551.08 412.91 C 554.28 411.42 558.09 412.80 559.58 416.01 L 560.93 418.91 L 549.33 424.32 Z" fill="#c8c8ff" stroke="#64649b" stroke-linejoin="round" stroke-linecap="round" />
<line x1="681.77" y1="270.22" x2="693.38" y2="264.81" stroke="#9b6464" stroke-linejoin="round" stroke-linecap="round" />
<path d="M 698.98 269.26 C 695.78 270.75 691.97 269.36 690.48 266.16 C 688.98 262.96 690.37 259.15 693.57 257.65 L 696.47 256.30 L 697.82 259.20 L 694.92 260.55 L 695.73 262.29 L 698.64 260.94 L 699.72 263.26 L 696.82 264.62 L 697.63 266.36 L 700.53 265.00 L 701.88 267.90 Z" fill="#ffc8c8" stroke="#9b6464" stroke-linejoin="round" stroke-linecap="round" />
<line x1="312.58" y1="340.47" x2="324.18" y2="345.88" stroke="#9b6464" stroke-linejoin="round" stroke-linecap="round" />
<path d="M 324.38 353.03 C 321.17 351.54 319.79 347.73 321.28 344.53 C 322.77 341.32 326.58 339.94 329.79 341.43 L 332.69 342.78 L 331.33 345.68 L 328.43 344.33 L 327.62 346.07 L 330.52 347.42 L 329.44 349.74 L 326.54 348.39 L 325.73 350.13 L 328.63 351.48 L 327.28 354.38 Z" fill="#ffc8c8" stroke="#9b6464" stroke-linejoin="round" stroke-linecap="round" />
<line x1="468.88" y1="506.51" x2="469.44" y2="493.72" stroke="#64649b" stroke-linejoin="round" stroke-linecap="round" />
<line x1="472.91" y1="487.47" x2="473.10" y2="483.21" stroke="#64649b" stroke-width="3" stroke-linejoin="round" />
<line x1="466.52" y1="487.19" x2="466.70" y2="482.93" stroke="#64649b" stroke-width="3" stroke-linejoin="round" />
<path d="M 475.97 490.81 C 475.82 494.34 472.83 497.07 469.30 496.92 C 465.76 496.77 463.03 493.78 463.18 490.25 L 463.32 487.05 L 476.11 487.61 Z" fill="#c8c8ff" stroke="#64649b" stroke-linejoin="round" stroke-linecap="round" />
<line x1="457.83" y1="510.53" x2="449.18" y2="501.10" stroke="#9b6464" stroke-linejoin="round" stroke-linecap="round" />
<path d="M 451.74 494.41 C 454.13 497.02 453.95 501.07 451.34 503.45 C 448.74 505.84 444.69 505.67 442.30 503.06 L 440.14 500.70 L 442.50 498.54 L 444.66 500.90 L 446.07 499.60 L 443.91 497.24 L 445.80 495.51 L 447.96 497.87 L 449.38 496.57 L 447.22 494.21 L 449.58 492.05 Z" fill="#ffc8c8" stroke="#9b6464" stroke-linejoin="round" stroke-linecap="round" />
<circle cx="27.43" cy="39.50" r="15.36" fill="none" stroke="black" stroke-linejoin="round" stroke-linecap="round" />
<path d="M 27.43 68.30 L 38.07 80.59 C 39.20 82.54 39.71 84.47 39.71 86.73 C 39.71 93.51 34.21 99.01 27.43 99.01 C 20.64 99.01 15.14 93.51 15.14 86.73 C 15.14 84.47 15.66 82.54 16.79 80.59 Z" fill="none" stroke="black" stroke-linejoin="round" stroke-linecap="round" />
<line x1="12.07" y1="155.50" x2="35.11" y2="155.50" stroke="#64649b" stroke-linejoin="round" stroke-linecap="round" />
<line x1="42.79" y1="159.34" x2="47.90" y2="159.34" stroke="#64649b" stroke-width="3" stroke-linejoin="round" />
<line x1="42.79" y1="151.66" x2="47.90" y2="151.66" stroke="#64649b" stroke-width="3" stroke-linejoin="round" />
<path d="M 38.95 163.18 C 34.71 163.18 31.27 159.74 31.27 155.50 C 31.27 151.26 34.71 147.82 38.95 147.82 L 42.79 147.82 L 42.79 163.18 Z" fill="#c8c8ff" stroke="#64649b" stroke-linejoin="round" stroke-linecap="round" />
<line x1="12.07" y1="201.50" x2="35.11" y2="201.50" stroke="#9b6464" stroke-linejoin="round" stroke-linecap="round" />
<path d="M 38.95 209.18 C 34.71 209.18 31.27 205.74 31.27 201.50 C 31.27 197.26 34.71 193.82 38.95 193.82 L 42.79 193.82 L 42.79 197.66 L 38.95 197.66 L 38.95 199.96 L 42.79 199.96 L 42.79 203.04 L 38.95 203.04 L 38.95 205.34 L 42.79 205.34 L 42.79 209.18 Z" fill="#ffc8c8" stroke="#9b6464" stroke-linejoin="round" stroke-linecap="round" />
<text x="55.07" y="43.50" fill="black" font-family="Arial" font-size="12" font-style="normal" font-weight="bold" text-anchor="start">  amino acid </text>
<text x="55.07" y="89.50" fill="black" font-family="Arial" font-size="12" font-style="normal" font-weight="bold" text-anchor="start">  water </text>
<text x="55.07" y="159.50" fill="black" font-family="Arial" font-size="12" font-style="normal" font-weight="bold" text-anchor="start">  unpaired donor </text>
<text x="55.07" y="205.50" fill="black" font-family="Arial" font-size="12" font-style="normal" font-weight="bold" text-anchor="start">  unpaired acceptor </text>
<path d="M 13.50 10.80 L 166.50 10.80 C 170.48 10.80 173.70 14.02 173.70 18.00 L 173.70 102.50 C 173.70 106.48 170.48 109.70 166.50 109.70 L 13.50 109.70 C 9.52 109.70 6.30 106.48 6.30 102.50 L 6.30 18.00 C 6.30 14.02 9.52 10.80 13.50 10.80 Z" fill="none" stroke="#bfbfbf" stroke-width="3" stroke-linejoin="round" stroke-linecap="round" />
<rect x="34.54" y="4.5" width="110.91" height="9" fill="white" stroke="white" stroke-linejoin="round" stroke-linecap="round" />
<text x="90.00" y="13.67" fill="black" font-family="Arial" font-size="14" font-style="normal" font-weight="bold" text-anchor="middle">  Residue Styles </text>
<path d="M 13.50 126.80 L 166.50 126.80 C 170.48 126.80 173.70 130.02 173.70 134.00 L 173.70 218.50 C 173.70 222.48 170.48 225.70 166.50 225.70 L 13.50 225.70 C 9.52 225.70 6.30 222.48 6.30 218.50 L 6.30 134.00 C 6.30 130.02 9.52 126.80 13.50 126.80 Z" fill="none" stroke="#bfbfbf" stroke-width="3" stroke-linejoin="round" stroke-linecap="round" />
<rect x="25.6" y="120.5" width="128.8" height="9" fill="white" stroke="white" stroke-linejoin="round" stroke-linecap="round" />
<text x="90.00" y="129.67" fill="black" font-family="Arial" font-size="14" font-style="normal" font-weight="bold" text-anchor="middle">  Interaction Styles </text>
<path d="M 10.50 0.50 L 889.50 0.50 C 895.02 0.50 899.50 4.98 899.50 10.50 L 899.50 589.50 C 899.50 595.02 895.02 599.50 889.50 599.50 L 10.50 599.50 C 4.98 599.50 0.50 595.02 0.50 589.50 L 0.50 10.50 C 0.50 4.98 4.98 0.50 10.50 0.50 Z" fill="none" stroke="#bfbfbf" stroke-linejoin="round" stroke-linecap="round" />
</svg>
