<?xml version="1.0" encoding="UTF-8"?>
<!DOCTYPE svg PUBLIC "-//W3C//DTD SVG 1.1//EN"
  "http://www.w3.org/Graphics/SVG/1.1/DTD/svg11.dtd">
<svg xmlns="http://www.w3.org/2000/svg" xmlns:xlink="http://www.w3.org/1999/xlink"   viewBox="0.00 0.00 900.00 600.00">
<!-- Created by OpenEye Scientific Software -->
<!-- Creation Date Thu Mar 18 12:45:54 2021 -->
<rect width="900.00" height="600.00" fill="white" />
<rect x="180" y="0" width="720" height="600" fill="white" />
<text x="540.00" y="52.50" fill="black" font-family="Arial" font-size="45" font-style="normal" font-weight="normal" text-anchor="middle">  MOL </text>
<line x1="406.87" y1="428.31" x2="406.76" y2="389.91" stroke="black" stroke-width="4" stroke-linejoin="round" stroke-linecap="round" />
<line x1="415.00" y1="422.14" x2="414.92" y2="396.03" stroke="black" stroke-width="4" stroke-linejoin="round" stroke-linecap="round" />
<line x1="406.87" y1="428.31" x2="440.08" y2="447.61" stroke="black" stroke-width="4" stroke-linejoin="round" stroke-linecap="round" />
<line x1="406.76" y1="389.91" x2="440.19" y2="370.60" stroke="black" stroke-width="4" stroke-linejoin="round" stroke-linecap="round" />
<line x1="440.19" y1="370.60" x2="440.12" y2="346.18" stroke="black" stroke-width="4" stroke-linejoin="round" stroke-linecap="round" />
<line x1="440.19" y1="370.60" x2="473.74" y2="389.71" stroke="black" stroke-width="4" stroke-linejoin="round" stroke-linecap="round" />
<line x1="441.53" y1="380.74" x2="464.34" y2="393.73" stroke="black" stroke-width="4" stroke-linejoin="round" stroke-linecap="round" />
<line x1="473.74" y1="389.71" x2="507.00" y2="370.51" stroke="black" stroke-width="4" stroke-linejoin="round" stroke-linecap="round" />
<line x1="473.74" y1="389.71" x2="473.51" y2="428.31" stroke="black" stroke-width="4" stroke-linejoin="round" stroke-linecap="round" />
<line x1="473.51" y1="428.31" x2="494.62" y2="440.58" stroke="black" stroke-width="4" stroke-linejoin="round" stroke-linecap="round" />
<line x1="473.51" y1="428.31" x2="440.08" y2="447.61" stroke="black" stroke-width="4" stroke-linejoin="round" stroke-linecap="round" />
<line x1="464.09" y1="424.34" x2="441.35" y2="437.47" stroke="black" stroke-width="4" stroke-linejoin="round" stroke-linecap="round" />
<line x1="511.07" y1="370.51" x2="511.07" y2="344.73" stroke="black" stroke-width="4" stroke-linejoin="round" stroke-linecap="round" />
<line x1="502.92" y1="370.51" x2="502.92" y2="344.73" stroke="black" stroke-width="4" stroke-linejoin="round" stroke-linecap="round" />
<line x1="507.00" y1="370.51" x2="530.49" y2="384.07" stroke="black" stroke-width="4" stroke-linejoin="round" stroke-linecap="round" />
<line x1="550.02" y1="384.07" x2="573.51" y2="370.51" stroke="black" stroke-width="4" stroke-linejoin="round" stroke-linecap="round" />
<line x1="573.51" y1="370.51" x2="606.72" y2="389.80" stroke="black" stroke-width="4" stroke-linejoin="round" stroke-linecap="round" />
<line x1="582.92" y1="366.55" x2="605.50" y2="379.67" stroke="black" stroke-width="4" stroke-linejoin="round" stroke-linecap="round" />
<line x1="573.51" y1="370.51" x2="573.40" y2="332.10" stroke="black" stroke-width="4" stroke-linejoin="round" stroke-linecap="round" />
<line x1="606.72" y1="389.80" x2="640.15" y2="370.50" stroke="black" stroke-width="4" stroke-linejoin="round" stroke-linecap="round" />
<line x1="640.15" y1="370.50" x2="640.31" y2="343.18" stroke="black" stroke-width="4" stroke-linejoin="round" stroke-linecap="round" />
<line x1="632.04" y1="364.28" x2="632.20" y2="338.03" stroke="black" stroke-width="4" stroke-linejoin="round" stroke-linecap="round" />
<line x1="630.58" y1="326.32" x2="606.83" y2="312.80" stroke="black" stroke-width="4" stroke-linejoin="round" stroke-linecap="round" />
<line x1="606.83" y1="312.80" x2="606.75" y2="285.67" stroke="black" stroke-width="4" stroke-linejoin="round" stroke-linecap="round" />
<line x1="606.83" y1="312.80" x2="573.40" y2="332.10" stroke="black" stroke-width="4" stroke-linejoin="round" stroke-linecap="round" />
<line x1="605.56" y1="322.94" x2="582.82" y2="336.07" stroke="black" stroke-width="4" stroke-linejoin="round" stroke-linecap="round" />
<line x1="616.47" y1="268.73" x2="639.92" y2="255.09" stroke="black" stroke-width="4" stroke-linejoin="round" stroke-linecap="round" />
<line x1="639.92" y1="255.09" x2="639.81" y2="216.69" stroke="black" stroke-width="4" stroke-linejoin="round" stroke-linecap="round" />
<line x1="637.90" y1="258.63" x2="660.25" y2="271.45" stroke="black" stroke-width="4" stroke-linejoin="round" stroke-linecap="round" />
<line x1="641.95" y1="251.56" x2="664.31" y2="264.38" stroke="black" stroke-width="4" stroke-linejoin="round" stroke-linecap="round" />
<line x1="639.81" y1="216.69" x2="673.01" y2="197.39" stroke="black" stroke-width="4" stroke-linejoin="round" stroke-linecap="round" />
<line x1="639.81" y1="216.69" x2="606.49" y2="197.59" stroke="black" stroke-width="4" stroke-linejoin="round" stroke-linecap="round" />
<text x="506.71" y="452.89" fill="black" font-family="Arial" font-size="16" font-style="normal" font-weight="normal" text-anchor="middle">  Cl </text>
<text x="507.00" y="337.38" fill="black" font-family="Arial" font-size="16" font-style="normal" font-weight="normal" text-anchor="middle">  O </text>
<text x="540.25" y="394.99" fill="black" font-family="Arial" font-size="16" font-style="normal" font-weight="normal" text-anchor="middle">  N </text>
<text x="540.25" y="407.79" fill="black" font-family="Arial" font-size="16" font-style="normal" font-weight="normal" text-anchor="middle">  H </text>
<text x="640.38" y="337.18" fill="black" font-family="Arial" font-size="16" font-style="normal" font-weight="normal" text-anchor="middle">  N </text>
<text x="606.72" y="279.67" fill="black" font-family="Arial" font-size="16" font-style="normal" font-weight="normal" text-anchor="middle">  N </text>
<text x="595.52" y="279.67" fill="black" font-family="Arial" font-size="16" font-style="normal" font-weight="normal" text-anchor="middle">  H </text>
<text x="673.24" y="279.48" fill="black" font-family="Arial" font-size="16" font-style="normal" font-weight="normal" text-anchor="middle">  O </text>
<text x="440.08" y="337.48" fill="black" font-family="Arial" font-size="16" font-style="normal" font-weight="normal" text-anchor="middle">  Cl </text>
<path d = "M 399.86 462.21 A 34.62 34.62 0 0 1 374.01 417.43" fill = "none"  stroke="#bfbfbf" stroke-width="4" stroke-linejoin="round" stroke-linecap="round" />
<path d = "M 399.86 462.21 A 25.96 25.96 0 0 1 414.09 470.48" fill = "none"  stroke="#bfbfbf" stroke-width="4" stroke-linejoin="round" stroke-linecap="round" />
<path d = "M 445.30 481.83 A 34.62 34.62 0 0 1 414.09 470.48" fill = "none"  stroke="#bfbfbf" stroke-width="4" stroke-linejoin="round" stroke-linecap="round" />
<path d = "M 445.30 481.83 A 25.96 25.96 0 0 1 467.20 488.77" fill = "none"  stroke="#bfbfbf" stroke-width="4" stroke-linejoin="round" stroke-linecap="round" />
<path d = "M 562.05 461.49 A 57.05 57.05 0 0 1 467.20 488.77" fill = "none"  stroke="#bfbfbf" stroke-width="4" stroke-linejoin="round" stroke-linecap="round" />
<path d = "M 562.05 461.49 A 25.96 25.96 0 0 1 593.53 442.61" fill = "none"  stroke="#bfbfbf" stroke-width="4" stroke-linejoin="round" stroke-linecap="round" />
<path d = "M 658.95 405.14 A 54.43 54.43 0 0 1 593.53 442.61" fill = "none"  stroke="#bfbfbf" stroke-width="4" stroke-linejoin="round" stroke-linecap="round" />
<path d = "M 658.95 405.14 A 25.96 25.96 0 0 1 665.13 394.47" fill = "none"  stroke="#bfbfbf" stroke-width="4" stroke-linejoin="round" stroke-linecap="round" />
<path d = "M 673.45 361.05 A 34.62 34.62 0 0 1 665.13 394.47" fill = "none"  stroke="#bfbfbf" stroke-width="4" stroke-linejoin="round" stroke-linecap="round" />
<path d = "M 673.45 361.05 A 25.96 25.96 0 0 1 690.61 329.20" fill = "none"  stroke="#bfbfbf" stroke-width="4" stroke-linejoin="round" stroke-linecap="round" />
<path d = "M 718.38 238.30 A 57.67 57.67 0 0 1 690.61 329.20" fill = "none"  stroke="#bfbfbf" stroke-width="4" stroke-linejoin="round" stroke-linecap="round" />
<path d = "M 718.38 238.30 A 25.96 25.96 0 0 1 714.41 212.99" fill = "none"  stroke="#bfbfbf" stroke-width="4" stroke-linejoin="round" stroke-linecap="round" />
<path d = "M 645.99 162.37 A 25.96 25.96 0 0 1 620.00 165.71" fill = "none"  stroke="#bfbfbf" stroke-width="4" stroke-linejoin="round" stroke-linecap="round" />
<path d = "M 579.79 219.61 A 34.62 34.62 0 0 1 620.00 165.71" fill = "none"  stroke="#bfbfbf" stroke-width="4" stroke-linejoin="round" stroke-linecap="round" />
<path d = "M 579.79 219.61 A 25.96 25.96 0 0 1 579.88 252.53" fill = "none"  stroke="#bfbfbf" stroke-width="4" stroke-linejoin="round" stroke-linecap="round" />
<path d = "M 574.15 262.67 A 34.62 34.62 0 0 1 579.88 252.53" fill = "none"  stroke="#bfbfbf" stroke-width="4" stroke-linejoin="round" stroke-linecap="round" />
<path d = "M 574.15 262.67 A 25.96 25.96 0 0 1 557.24 278.72" fill = "none"  stroke="#bfbfbf" stroke-width="4" stroke-linejoin="round" stroke-linecap="round" />
<path d = "M 535.28 291.39 A 55.77 55.77 0 0 1 557.24 278.72" fill = "none"  stroke="#bfbfbf" stroke-width="4" stroke-linejoin="round" stroke-linecap="round" />
<path d = "M 535.28 291.39 A 25.96 25.96 0 0 1 513.02 298.01" fill = "none"  stroke="#bfbfbf" stroke-width="4" stroke-linejoin="round" stroke-linecap="round" />
<path d = "M 487.83 303.27 A 34.62 34.62 0 0 1 513.02 298.01" fill = "none"  stroke="#bfbfbf" stroke-width="4" stroke-linejoin="round" stroke-linecap="round" />
<path d = "M 487.83 303.27 A 25.96 25.96 0 0 1 459.16 303.31" fill = "none"  stroke="#bfbfbf" stroke-width="4" stroke-linejoin="round" stroke-linecap="round" />
<path d = "M 405.49 330.94 A 34.62 34.62 0 0 1 459.16 303.31" fill = "none"  stroke="#bfbfbf" stroke-width="4" stroke-linejoin="round" stroke-linecap="round" />
<path d = "M 405.49 330.94 A 25.96 25.96 0 0 1 401.11 344.44" fill = "none"  stroke="#bfbfbf" stroke-width="4" stroke-linejoin="round" stroke-linecap="round" />
<path d = "M 397.94 349.96 A 47.03 47.03 0 0 1 401.11 344.44" fill = "none"  stroke="#bfbfbf" stroke-width="4" stroke-linejoin="round" stroke-linecap="round" />
<path d = "M 397.94 349.96 A 25.96 25.96 0 0 1 388.39 360.57" fill = "none"  stroke="#bfbfbf" stroke-width="4" stroke-linejoin="round" stroke-linecap="round" />
<path d = "M 373.96 400.97 A 34.62 34.62 0 0 1 388.39 360.57" fill = "none"  stroke="#bfbfbf" stroke-width="4" stroke-linejoin="round" stroke-linecap="round" />
<path d = "M 373.96 400.97 A 25.96 25.96 0 0 1 374.01 417.43" fill = "none"  stroke="#bfbfbf" stroke-width="4" stroke-linejoin="round" stroke-linecap="round" />
<circle cx="617.37" cy="104.26" r="15.36" fill="#d2d2d2" stroke="#bfbfbf" stroke-width="2" stroke-linejoin="round" stroke-linecap="round" />
<text x="617.37" y="102.46" fill="black" font-family="Arial" font-size="9" font-style="normal" font-weight="bold" text-anchor="middle">  ARG </text>
<text x="617.37" y="111.46" fill="black" font-family="Arial" font-size="9" font-style="normal" font-weight="bold" text-anchor="middle">  12A </text>
<circle cx="505.45" cy="245.19" r="15.36" fill="#d2d2d2" stroke="#bfbfbf" stroke-width="2" stroke-linejoin="round" stroke-linecap="round" />
<text x="505.45" y="243.39" fill="black" font-family="Arial" font-size="9" font-style="normal" font-weight="bold" text-anchor="middle">  LEU </text>
<text x="505.45" y="252.39" fill="black" font-family="Arial" font-size="9" font-style="normal" font-weight="bold" text-anchor="middle">  14A </text>
<circle cx="468.61" cy="234.84" r="15.36" fill="#d2d2d2" stroke="#bfbfbf" stroke-width="2" stroke-linejoin="round" stroke-linecap="round" />
<text x="468.61" y="233.04" fill="black" font-family="Arial" font-size="9" font-style="normal" font-weight="bold" text-anchor="middle">  VAL </text>
<text x="468.61" y="242.04" fill="black" font-family="Arial" font-size="9" font-style="normal" font-weight="bold" text-anchor="middle">  22A </text>
<circle cx="710.41" cy="435.51" r="15.36" fill="#d2d2d2" stroke="#bfbfbf" stroke-width="2" stroke-linejoin="round" stroke-linecap="round" />
<text x="710.41" y="433.71" fill="black" font-family="Arial" font-size="9" font-style="normal" font-weight="bold" text-anchor="middle">  ALA </text>
<text x="710.41" y="442.71" fill="black" font-family="Arial" font-size="9" font-style="normal" font-weight="bold" text-anchor="middle">  39A </text>
<circle cx="549.33" cy="555.43" r="15.36" fill="#d2d2d2" stroke="#bfbfbf" stroke-width="2" stroke-linejoin="round" stroke-linecap="round" />
<text x="549.33" y="553.63" fill="black" font-family="Arial" font-size="9" font-style="normal" font-weight="bold" text-anchor="middle">  MET </text>
<text x="549.33" y="562.63" fill="black" font-family="Arial" font-size="9" font-style="normal" font-weight="bold" text-anchor="middle">  89A </text>
<circle cx="397.29" cy="530.75" r="15.36" fill="#d2d2d2" stroke="#bfbfbf" stroke-width="2" stroke-linejoin="round" stroke-linecap="round" />
<text x="397.29" y="528.95" fill="black" font-family="Arial" font-size="9" font-style="normal" font-weight="bold" text-anchor="middle">  GLU </text>
<text x="397.29" y="537.95" fill="black" font-family="Arial" font-size="9" font-style="normal" font-weight="bold" text-anchor="middle">  90A </text>
<circle cx="734.67" cy="354.79" r="15.36" fill="#d2d2d2" stroke="#bfbfbf" stroke-width="2" stroke-linejoin="round" stroke-linecap="round" />
<text x="734.67" y="352.99" fill="black" font-family="Arial" font-size="9" font-style="normal" font-weight="bold" text-anchor="middle">  TYR </text>
<text x="734.67" y="361.99" fill="black" font-family="Arial" font-size="9" font-style="normal" font-weight="bold" text-anchor="middle">  91A </text>
<circle cx="714.24" cy="395.35" r="15.36" fill="#d2d2d2" stroke="#bfbfbf" stroke-width="2" stroke-linejoin="round" stroke-linecap="round" />
<text x="714.24" y="393.55" fill="black" font-family="Arial" font-size="9" font-style="normal" font-weight="bold" text-anchor="middle">  VAL </text>
<text x="714.24" y="402.55" fill="black" font-family="Arial" font-size="9" font-style="normal" font-weight="bold" text-anchor="middle">  92A </text>
<circle cx="508.07" cy="200.20" r="15.36" fill="#d2d2d2" stroke="#bfbfbf" stroke-width="2" stroke-linejoin="round" stroke-linecap="round" />
<text x="508.07" y="198.40" fill="black" font-family="Arial" font-size="9" font-style="normal" font-weight="bold" text-anchor="middle">  GLY </text>
<text x="508.07" y="207.40" fill="black" font-family="Arial" font-size="9" font-style="normal" font-weight="bold" text-anchor="middle">  95A </text>
<circle cx="357.18" cy="327.46" r="15.36" fill="#d2d2d2" stroke="#bfbfbf" stroke-width="2" stroke-linejoin="round" stroke-linecap="round" />
<text x="357.18" y="325.66" fill="black" font-family="Arial" font-size="9" font-style="normal" font-weight="bold" text-anchor="middle">  SER </text>
<text x="357.18" y="334.66" fill="black" font-family="Arial" font-size="9" font-style="normal" font-weight="bold" text-anchor="middle">  96A </text>
<circle cx="337.73" cy="295.09" r="15.36" fill="#d2d2d2" stroke="#bfbfbf" stroke-width="2" stroke-linejoin="round" stroke-linecap="round" />
<text x="337.73" y="293.29" fill="black" font-family="Arial" font-size="9" font-style="normal" font-weight="bold" text-anchor="middle">  ASP </text>
<text x="337.73" y="302.29" fill="black" font-family="Arial" font-size="9" font-style="normal" font-weight="bold" text-anchor="middle">  99A </text>
<circle cx="351.11" cy="503.37" r="15.36" fill="#d2d2d2" stroke="#bfbfbf" stroke-width="2" stroke-linejoin="round" stroke-linecap="round" />
<text x="351.11" y="501.77" fill="black" font-family="Arial" font-size="8" font-style="normal" font-weight="bold" text-anchor="middle">  ARG </text>
<text x="351.11" y="509.77" fill="black" font-family="Arial" font-size="8" font-style="normal" font-weight="bold" text-anchor="middle">  138A </text>
<circle cx="439.68" cy="527.01" r="15.36" fill="#d2d2d2" stroke="#bfbfbf" stroke-width="2" stroke-linejoin="round" stroke-linecap="round" />
<text x="439.68" y="525.41" fill="black" font-family="Arial" font-size="8" font-style="normal" font-weight="bold" text-anchor="middle">  LEU </text>
<text x="439.68" y="533.41" fill="black" font-family="Arial" font-size="8" font-style="normal" font-weight="bold" text-anchor="middle">  141A </text>
<circle cx="323.57" cy="470.78" r="15.36" fill="#d2d2d2" stroke="#bfbfbf" stroke-width="2" stroke-linejoin="round" stroke-linecap="round" />
<text x="323.57" y="469.18" fill="black" font-family="Arial" font-size="8" font-style="normal" font-weight="bold" text-anchor="middle">  ASP </text>
<text x="323.57" y="477.18" fill="black" font-family="Arial" font-size="8" font-style="normal" font-weight="bold" text-anchor="middle">  152A </text>
<path d="M 347.06 353.29 L 357.70 365.58 C 358.83 367.54 359.35 369.46 359.35 371.72 C 359.35 378.51 353.84 384.01 347.06 384.01 C 340.27 384.01 334.77 378.51 334.77 371.72 C 334.77 369.46 335.28 367.54 336.41 365.58 Z" fill="#d2d2d2" stroke="#bfbfbf" stroke-width="2" stroke-linejoin="round" stroke-linecap="round" />
<text x="347.06" y="368.90" fill="black" font-family="Arial" font-size="8" font-style="normal" font-weight="bold" text-anchor="middle">  HOH </text>
<text x="347.06" y="376.90" fill="black" font-family="Arial" font-size="8" font-style="normal" font-weight="bold" text-anchor="middle">  437A </text>
<path d="M 345.72 391.30 L 356.36 403.58 C 357.49 405.54 358.01 407.47 358.01 409.73 C 358.01 416.52 352.51 422.02 345.72 422.02 C 338.93 422.02 333.43 416.52 333.43 409.73 C 333.43 407.47 333.95 405.54 335.08 403.58 Z" fill="#d2d2d2" stroke="#bfbfbf" stroke-width="2" stroke-linejoin="round" stroke-linecap="round" />
<text x="345.72" y="406.90" fill="black" font-family="Arial" font-size="8" font-style="normal" font-weight="bold" text-anchor="middle">  HOH </text>
<text x="345.72" y="414.90" fill="black" font-family="Arial" font-size="8" font-style="normal" font-weight="bold" text-anchor="middle">  774A </text>
<path d="M 392.27 473.28 L 402.91 485.57 C 404.05 487.53 404.56 489.45 404.56 491.72 C 404.56 498.50 399.06 504.01 392.27 504.01 C 385.48 504.01 379.98 498.50 379.98 491.72 C 379.98 489.45 380.50 487.53 381.63 485.57 Z" fill="#d2d2d2" stroke="#bfbfbf" stroke-width="2" stroke-linejoin="round" stroke-linecap="round" />
<text x="392.27" y="489.29" fill="black" font-family="Arial" font-size="6" font-style="normal" font-weight="bold" text-anchor="middle">  HOH </text>
<text x="392.27" y="495.29" fill="black" font-family="Arial" font-size="6" font-style="normal" font-weight="bold" text-anchor="middle">  1056A </text>
<path d="M 563.23 134.89 L 573.87 147.18 C 575.00 149.14 575.52 151.06 575.52 153.32 C 575.52 160.11 570.02 165.61 563.23 165.61 C 556.44 165.61 550.94 160.11 550.94 153.32 C 550.94 151.06 551.46 149.14 552.59 147.18 Z" fill="#d2d2d2" stroke="#bfbfbf" stroke-width="2" stroke-linejoin="round" stroke-linecap="round" />
<text x="563.23" y="150.89" fill="black" font-family="Arial" font-size="6" font-style="normal" font-weight="bold" text-anchor="middle">  HOH </text>
<text x="563.23" y="156.89" fill="black" font-family="Arial" font-size="6" font-style="normal" font-weight="bold" text-anchor="middle">  1616A </text>
<path d="M 373.53 249.31 L 384.17 261.60 C 385.31 263.56 385.82 265.48 385.82 267.75 C 385.82 274.53 380.32 280.04 373.53 280.04 C 366.74 280.04 361.24 274.53 361.24 267.75 C 361.24 265.48 361.76 263.56 362.89 261.60 Z" fill="#d2d2d2" stroke="#bfbfbf" stroke-width="2" stroke-linejoin="round" stroke-linecap="round" />
<text x="373.53" y="265.32" fill="black" font-family="Arial" font-size="6" font-style="normal" font-weight="bold" text-anchor="middle">  HOH </text>
<text x="373.53" y="271.32" fill="black" font-family="Arial" font-size="6" font-style="normal" font-weight="bold" text-anchor="middle">  1641A </text>
<path d="M 385.18 284.54 L 395.82 296.83 C 396.95 298.79 397.47 300.72 397.47 302.98 C 397.47 309.76 391.97 315.27 385.18 315.27 C 378.39 315.27 372.89 309.76 372.89 302.98 C 372.89 300.72 373.41 298.79 374.54 296.83 Z" fill="#d2d2d2" stroke="#bfbfbf" stroke-width="2" stroke-linejoin="round" stroke-linecap="round" />
<text x="385.18" y="300.55" fill="black" font-family="Arial" font-size="6" font-style="normal" font-weight="bold" text-anchor="middle">  HOH </text>
<text x="385.18" y="306.55" fill="black" font-family="Arial" font-size="6" font-style="normal" font-weight="bold" text-anchor="middle">  2243A </text>
<path d="M 450.07 253.02 L 460.72 265.30 C 461.85 267.26 462.36 269.19 462.36 271.45 C 462.36 278.24 456.86 283.74 450.07 283.74 C 443.29 283.74 437.78 278.24 437.78 271.45 C 437.78 269.19 438.30 267.26 439.43 265.30 Z" fill="#d2d2d2" stroke="#bfbfbf" stroke-width="2" stroke-linejoin="round" stroke-linecap="round" />
<text x="450.07" y="269.02" fill="black" font-family="Arial" font-size="6" font-style="normal" font-weight="bold" text-anchor="middle">  HOH </text>
<text x="450.07" y="275.02" fill="black" font-family="Arial" font-size="6" font-style="normal" font-weight="bold" text-anchor="middle">  2258A </text>
<path d="M 412.64 258.53 L 423.29 270.82 C 424.42 272.78 424.93 274.70 424.93 276.96 C 424.93 283.75 419.43 289.25 412.64 289.25 C 405.86 289.25 400.36 283.75 400.36 276.96 C 400.36 274.70 400.87 272.78 402.00 270.82 Z" fill="#d2d2d2" stroke="#bfbfbf" stroke-width="2" stroke-linejoin="round" stroke-linecap="round" />
<text x="412.64" y="274.53" fill="black" font-family="Arial" font-size="6" font-style="normal" font-weight="bold" text-anchor="middle">  HOH </text>
<text x="412.64" y="280.53" fill="black" font-family="Arial" font-size="6" font-style="normal" font-weight="bold" text-anchor="middle">  4486A </text>
<path d="M 597.22 118.29 L 607.87 130.58 C 609.00 132.54 609.51 134.46 609.51 136.72 C 609.51 143.51 604.01 149.01 597.22 149.01 C 590.44 149.01 584.93 143.51 584.93 136.72 C 584.93 134.46 585.45 132.54 586.58 130.58 Z" fill="#d2d2d2" stroke="#bfbfbf" stroke-width="2" stroke-linejoin="round" stroke-linecap="round" />
<text x="597.22" y="134.29" fill="black" font-family="Arial" font-size="6" font-style="normal" font-weight="bold" text-anchor="middle">  HOH </text>
<text x="597.22" y="140.29" fill="black" font-family="Arial" font-size="6" font-style="normal" font-weight="bold" text-anchor="middle">  5596A </text>
<path d="M 477.97 510.62 L 488.61 522.91 C 489.74 524.87 490.26 526.80 490.26 529.06 C 490.26 535.85 484.76 541.35 477.97 541.35 C 471.18 541.35 465.68 535.85 465.68 529.06 C 465.68 526.80 466.19 524.87 467.33 522.91 Z" fill="#d2d2d2" stroke="#bfbfbf" stroke-width="2" stroke-linejoin="round" stroke-linecap="round" />
<text x="477.97" y="526.63" fill="black" font-family="Arial" font-size="6" font-style="normal" font-weight="bold" text-anchor="middle">  HOH </text>
<text x="477.97" y="532.63" fill="black" font-family="Arial" font-size="6" font-style="normal" font-weight="bold" text-anchor="middle">  5860A </text>
<path d="M 642.62 114.48 L 653.26 126.76 C 654.39 128.72 654.91 130.65 654.91 132.91 C 654.91 139.70 649.41 145.20 642.62 145.20 C 635.83 145.20 630.33 139.70 630.33 132.91 C 630.33 130.65 630.85 128.72 631.98 126.76 Z" fill="#d2d2d2" stroke="#bfbfbf" stroke-width="2" stroke-linejoin="round" stroke-linecap="round" />
<text x="642.62" y="130.48" fill="black" font-family="Arial" font-size="6" font-style="normal" font-weight="bold" text-anchor="middle">  HOH </text>
<text x="642.62" y="136.48" fill="black" font-family="Arial" font-size="6" font-style="normal" font-weight="bold" text-anchor="middle">  6104A </text>
<path d="M 680.06 108.13 L 690.70 120.42 C 691.83 122.38 692.35 124.30 692.35 126.56 C 692.35 133.35 686.84 138.85 680.06 138.85 C 673.27 138.85 667.77 133.35 667.77 126.56 C 667.77 124.30 668.28 122.38 669.42 120.42 Z" fill="#d2d2d2" stroke="#bfbfbf" stroke-width="2" stroke-linejoin="round" stroke-linecap="round" />
<text x="680.06" y="124.14" fill="black" font-family="Arial" font-size="6" font-style="normal" font-weight="bold" text-anchor="middle">  HOH </text>
<text x="680.06" y="130.14" fill="black" font-family="Arial" font-size="6" font-style="normal" font-weight="bold" text-anchor="middle">  7239A </text>
<path d="M 735.91 144.33 L 746.55 156.62 C 747.68 158.58 748.20 160.51 748.20 162.77 C 748.20 169.56 742.70 175.06 735.91 175.06 C 729.12 175.06 723.62 169.56 723.62 162.77 C 723.62 160.51 724.14 158.58 725.27 156.62 Z" fill="#d2d2d2" stroke="#bfbfbf" stroke-width="2" stroke-linejoin="round" stroke-linecap="round" />
<text x="735.91" y="160.34" fill="black" font-family="Arial" font-size="6" font-style="normal" font-weight="bold" text-anchor="middle">  HOH </text>
<text x="735.91" y="166.34" fill="black" font-family="Arial" font-size="6" font-style="normal" font-weight="bold" text-anchor="middle">  7527A </text>
<path d="M 744.90 188.77 L 755.54 201.06 C 756.67 203.01 757.19 204.94 757.19 207.20 C 757.19 213.99 751.69 219.49 744.90 219.49 C 738.11 219.49 732.61 213.99 732.61 207.20 C 732.61 204.94 733.13 203.01 734.26 201.06 Z" fill="#d2d2d2" stroke="#bfbfbf" stroke-width="2" stroke-linejoin="round" stroke-linecap="round" />
<text x="744.90" y="204.77" fill="black" font-family="Arial" font-size="6" font-style="normal" font-weight="bold" text-anchor="middle">  HOH </text>
<text x="744.90" y="210.77" fill="black" font-family="Arial" font-size="6" font-style="normal" font-weight="bold" text-anchor="middle">  9323A </text>
<line x1="502.08" y1="323.58" x2="495.68" y2="312.50" stroke="#9b6464" stroke-linejoin="round" stroke-linecap="round" />
<path d="M 499.62 306.53 C 501.39 309.59 500.34 313.50 497.28 315.27 C 494.22 317.04 490.30 315.99 488.53 312.93 L 486.93 310.16 L 489.71 308.56 L 491.31 311.33 L 492.97 310.37 L 491.37 307.60 L 493.59 306.32 L 495.19 309.09 L 496.85 308.13 L 495.25 305.36 L 498.02 303.76 Z" fill="#ffc8c8" stroke="#9b6464" stroke-linejoin="round" stroke-linecap="round" />
<line x1="540.25" y1="411.73" x2="540.25" y2="424.53" stroke="#64649b" stroke-linejoin="round" stroke-linecap="round" />
<line x1="537.05" y1="430.93" x2="537.05" y2="435.20" stroke="#64649b" stroke-width="3" stroke-linejoin="round" />
<line x1="543.46" y1="430.93" x2="543.46" y2="435.20" stroke="#64649b" stroke-width="3" stroke-linejoin="round" />
<path d="M 533.85 427.73 C 533.85 424.20 536.72 421.33 540.25 421.33 C 543.79 421.33 546.66 424.20 546.66 427.73 L 546.66 430.93 L 533.85 430.93 Z" fill="#c8c8ff" stroke="#64649b" stroke-linejoin="round" stroke-linecap="round" />
<line x1="647.80" y1="334.60" x2="659.83" y2="338.98" stroke="#9b6464" stroke-linejoin="round" stroke-linecap="round" />
<path d="M 660.65 346.09 C 657.33 344.88 655.62 341.21 656.82 337.89 C 658.03 334.57 661.71 332.85 665.03 334.06 L 668.04 335.16 L 666.94 338.16 L 663.93 337.07 L 663.28 338.87 L 666.28 339.97 L 665.41 342.37 L 662.40 341.28 L 661.75 343.08 L 664.75 344.18 L 663.66 347.19 Z" fill="#ffc8c8" stroke="#9b6464" stroke-linejoin="round" stroke-linecap="round" />
<line x1="359.92" y1="490.78" x2="367.26" y2="480.30" stroke="#9b6464" stroke-linejoin="round" stroke-linecap="round" />
<path d="M 374.34 481.35 C 372.31 484.24 368.32 484.94 365.43 482.92 C 362.53 480.89 361.83 476.90 363.85 474.00 L 365.69 471.38 L 368.31 473.22 L 366.47 475.84 L 368.05 476.94 L 369.88 474.32 L 371.98 475.79 L 370.15 478.41 L 371.72 479.51 L 373.55 476.89 L 376.18 478.72 Z" fill="#ffc8c8" stroke="#9b6464" stroke-linejoin="round" stroke-linecap="round" />
<line x1="403.78" y1="516.82" x2="409.19" y2="505.22" stroke="#9b6464" stroke-linejoin="round" stroke-linecap="round" />
<path d="M 416.34 505.03 C 414.85 508.23 411.04 509.62 407.83 508.12 C 404.63 506.63 403.24 502.82 404.74 499.62 L 406.09 496.72 L 408.99 498.07 L 407.64 500.97 L 409.38 501.78 L 410.73 498.88 L 413.05 499.96 L 411.70 502.86 L 413.44 503.67 L 414.79 500.77 L 417.69 502.13 Z" fill="#ffc8c8" stroke="#9b6464" stroke-linejoin="round" stroke-linecap="round" />
<line x1="725.86" y1="342.21" x2="718.52" y2="331.72" stroke="#9b6464" stroke-linejoin="round" stroke-linecap="round" />
<path d="M 721.92 325.43 C 723.95 328.32 723.25 332.32 720.35 334.34 C 717.46 336.37 713.46 335.67 711.44 332.77 L 709.60 330.15 L 712.22 328.31 L 714.06 330.94 L 715.63 329.83 L 713.80 327.21 L 715.89 325.74 L 717.73 328.37 L 719.30 327.27 L 717.47 324.64 L 720.09 322.81 Z" fill="#ffc8c8" stroke="#9b6464" stroke-linejoin="round" stroke-linecap="round" />
<line x1="702.91" y1="384.97" x2="693.47" y2="376.32" stroke="#64649b" stroke-linejoin="round" stroke-linecap="round" />
<line x1="690.92" y1="369.64" x2="687.77" y2="366.75" stroke="#64649b" stroke-width="3" stroke-linejoin="round" />
<line x1="686.59" y1="374.36" x2="683.45" y2="371.47" stroke="#64649b" stroke-width="3" stroke-linejoin="round" />
<path d="M 695.44 369.44 C 698.04 371.83 698.22 375.88 695.83 378.48 C 693.44 381.09 689.39 381.27 686.79 378.88 L 684.43 376.72 L 693.08 367.28 Z" fill="#c8c8ff" stroke="#64649b" stroke-linejoin="round" stroke-linecap="round" />
<line x1="698.89" y1="396.02" x2="686.10" y2="396.58" stroke="#9b6464" stroke-linejoin="round" stroke-linecap="round" />
<path d="M 682.62 390.32 C 686.16 390.17 689.14 392.91 689.30 396.44 C 689.45 399.97 686.71 402.96 683.18 403.11 L 679.98 403.25 L 679.85 400.05 L 683.04 399.91 L 682.96 397.99 L 679.76 398.13 L 679.65 395.58 L 682.85 395.44 L 682.76 393.52 L 679.57 393.66 L 679.43 390.46 Z" fill="#ffc8c8" stroke="#9b6464" stroke-linejoin="round" stroke-linecap="round" />
<line x1="523.43" y1="200.20" x2="536.24" y2="200.20" stroke="#64649b" stroke-linejoin="round" stroke-linecap="round" />
<line x1="542.64" y1="203.40" x2="546.90" y2="203.40" stroke="#64649b" stroke-width="3" stroke-linejoin="round" />
<line x1="542.64" y1="197.00" x2="546.90" y2="197.00" stroke="#64649b" stroke-width="3" stroke-linejoin="round" />
<path d="M 539.44 206.60 C 535.90 206.60 533.04 203.74 533.04 200.20 C 533.04 196.67 535.90 193.80 539.44 193.80 L 542.64 193.80 L 542.64 206.60 Z" fill="#c8c8ff" stroke="#64649b" stroke-linejoin="round" stroke-linecap="round" />
<circle cx="27.43" cy="39.50" r="15.36" fill="none" stroke="black" stroke-linejoin="round" stroke-linecap="round" />
<path d="M 27.43 68.30 L 38.07 80.59 C 39.20 82.54 39.71 84.47 39.71 86.73 C 39.71 93.51 34.21 99.01 27.43 99.01 C 20.64 99.01 15.14 93.51 15.14 86.73 C 15.14 84.47 15.66 82.54 16.79 80.59 Z" fill="none" stroke="black" stroke-linejoin="round" stroke-linecap="round" />
<line x1="12.07" y1="155.50" x2="35.11" y2="155.50" stroke="#64649b" stroke-linejoin="round" stroke-linecap="round" />
<line x1="42.79" y1="159.34" x2="47.90" y2="159.34" stroke="#64649b" stroke-width="3" stroke-linejoin="round" />
<line x1="42.79" y1="151.66" x2="47.90" y2="151.66" stroke="#64649b" stroke-width="3" stroke-linejoin="round" />
<path d="M 38.95 163.18 C 34.71 163.18 31.27 159.74 31.27 155.50 C 31.27 151.26 34.71 147.82 38.95 147.82 L 42.79 147.82 L 42.79 163.18 Z" fill="#c8c8ff" stroke="#64649b" stroke-linejoin="round" stroke-linecap="round" />
<line x1="12.07" y1="201.50" x2="35.11" y2="201.50" stroke="#9b6464" stroke-linejoin="round" stroke-linecap="round" />
<path d="M 38.95 209.18 C 34.71 209.18 31.27 205.74 31.27 201.50 C 31.27 197.26 34.71 193.82 38.95 193.82 L 42.79 193.82 L 42.79 197.66 L 38.95 197.66 L 38.95 199.96 L 42.79 199.96 L 42.79 203.04 L 38.95 203.04 L 38.95 205.34 L 42.79 205.34 L 42.79 209.18 Z" fill="#ffc8c8" stroke="#9b6464" stroke-linejoin="round" stroke-linecap="round" />
<text x="55.07" y="43.50" fill="black" font-family="Arial" font-size="12" font-style="normal" font-weight="bold" text-anchor="start">  amino acid </text>
<text x="55.07" y="89.50" fill="black" font-family="Arial" font-size="12" font-style="normal" font-weight="bold" text-anchor="start">  water </text>
<text x="55.07" y="159.50" fill="black" font-family="Arial" font-size="12" font-style="normal" font-weight="bold" text-anchor="start">  unpaired donor </text>
<text x="55.07" y="205.50" fill="black" font-family="Arial" font-size="12" font-style="normal" font-weight="bold" text-anchor="start">  unpaired acceptor </text>
<path d="M 13.50 10.80 L 166.50 10.80 C 170.48 10.80 173.70 14.02 173.70 18.00 L 173.70 102.50 C 173.70 106.48 170.48 109.70 166.50 109.70 L 13.50 109.70 C 9.52 109.70 6.30 106.48 6.30 102.50 L 6.30 18.00 C 6.30 14.02 9.52 10.80 13.50 10.80 Z" fill="none" stroke="#bfbfbf" stroke-width="3" stroke-linejoin="round" stroke-linecap="round" />
<rect x="34.54" y="4.5" width="110.91" height="9" fill="white" stroke="white" stroke-linejoin="round" stroke-linecap="round" />
<text x="90.00" y="13.67" fill="black" font-family="Arial" font-size="14" font-style="normal" font-weight="bold" text-anchor="middle">  Residue Styles </text>
<path d="M 13.50 126.80 L 166.50 126.80 C 170.48 126.80 173.70 130.02 173.70 134.00 L 173.70 218.50 C 173.70 222.48 170.48 225.70 166.50 225.70 L 13.50 225.70 C 9.52 225.70 6.30 222.48 6.30 218.50 L 6.30 134.00 C 6.30 130.02 9.52 126.80 13.50 126.80 Z" fill="none" stroke="#bfbfbf" stroke-width="3" stroke-linejoin="round" stroke-linecap="round" />
<rect x="25.6" y="120.5" width="128.8" height="9" fill="white" stroke="white" stroke-linejoin="round" stroke-linecap="round" />
<text x="90.00" y="129.67" fill="black" font-family="Arial" font-size="14" font-style="normal" font-weight="bold" text-anchor="middle">  Interaction Styles </text>
<path d="M 10.50 0.50 L 889.50 0.50 C 895.02 0.50 899.50 4.98 899.50 10.50 L 899.50 589.50 C 899.50 595.02 895.02 599.50 889.50 599.50 L 10.50 599.50 C 4.98 599.50 0.50 595.02 0.50 589.50 L 0.50 10.50 C 0.50 4.98 4.98 0.50 10.50 0.50 Z" fill="none" stroke="#bfbfbf" stroke-linejoin="round" stroke-linecap="round" />
</svg>
