<?xml version="1.0" encoding="UTF-8"?>
<!DOCTYPE svg PUBLIC "-//W3C//DTD SVG 1.1//EN"
  "http://www.w3.org/Graphics/SVG/1.1/DTD/svg11.dtd">
<svg xmlns="http://www.w3.org/2000/svg" xmlns:xlink="http://www.w3.org/1999/xlink"   viewBox="0.00 0.00 900.00 600.00">
<!-- Created by OpenEye Scientific Software -->
<!-- Creation Date Thu Mar 18 12:47:05 2021 -->
<rect width="900.00" height="600.00" fill="white" />
<rect x="180" y="0" width="720" height="600" fill="white" />
<text x="540.00" y="52.50" fill="black" font-family="Arial" font-size="45" font-style="normal" font-weight="normal" text-anchor="middle">  MOL </text>
<line x1="669.25" y1="444.90" x2="628.96" y2="445.02" stroke="black" stroke-width="4" stroke-linejoin="round" stroke-linecap="round" />
<line x1="662.78" y1="436.48" x2="635.38" y2="436.56" stroke="black" stroke-width="4" stroke-linejoin="round" stroke-linecap="round" />
<line x1="669.25" y1="444.90" x2="689.49" y2="410.08" stroke="black" stroke-width="4" stroke-linejoin="round" stroke-linecap="round" />
<line x1="628.96" y1="445.02" x2="608.72" y2="409.95" stroke="black" stroke-width="4" stroke-linejoin="round" stroke-linecap="round" />
<line x1="608.72" y1="409.95" x2="583.04" y2="410.03" stroke="black" stroke-width="4" stroke-linejoin="round" stroke-linecap="round" />
<line x1="608.72" y1="409.95" x2="628.75" y2="374.77" stroke="black" stroke-width="4" stroke-linejoin="round" stroke-linecap="round" />
<line x1="619.26" y1="408.50" x2="632.89" y2="384.58" stroke="black" stroke-width="4" stroke-linejoin="round" stroke-linecap="round" />
<line x1="628.75" y1="374.77" x2="608.61" y2="339.88" stroke="black" stroke-width="4" stroke-linejoin="round" stroke-linecap="round" />
<line x1="628.75" y1="374.77" x2="669.24" y2="375.01" stroke="black" stroke-width="4" stroke-linejoin="round" stroke-linecap="round" />
<line x1="669.24" y1="375.01" x2="682.15" y2="352.81" stroke="black" stroke-width="4" stroke-linejoin="round" stroke-linecap="round" />
<line x1="669.24" y1="375.01" x2="689.49" y2="410.08" stroke="black" stroke-width="4" stroke-linejoin="round" stroke-linecap="round" />
<line x1="665.17" y1="384.84" x2="678.94" y2="408.69" stroke="black" stroke-width="4" stroke-linejoin="round" stroke-linecap="round" />
<line x1="608.61" y1="335.66" x2="581.50" y2="335.66" stroke="black" stroke-width="4" stroke-linejoin="round" stroke-linecap="round" />
<line x1="608.61" y1="344.11" x2="581.50" y2="344.11" stroke="black" stroke-width="4" stroke-linejoin="round" stroke-linecap="round" />
<line x1="608.61" y1="339.88" x2="622.89" y2="315.16" stroke="black" stroke-width="4" stroke-linejoin="round" stroke-linecap="round" />
<line x1="622.89" y1="294.84" x2="608.61" y2="270.11" stroke="black" stroke-width="4" stroke-linejoin="round" stroke-linecap="round" />
<line x1="608.61" y1="270.11" x2="628.86" y2="235.28" stroke="black" stroke-width="4" stroke-linejoin="round" stroke-linecap="round" />
<line x1="604.55" y1="260.30" x2="618.31" y2="236.61" stroke="black" stroke-width="4" stroke-linejoin="round" stroke-linecap="round" />
<line x1="608.61" y1="270.11" x2="568.33" y2="270.23" stroke="black" stroke-width="4" stroke-linejoin="round" stroke-linecap="round" />
<line x1="628.86" y1="235.28" x2="608.61" y2="200.22" stroke="black" stroke-width="4" stroke-linejoin="round" stroke-linecap="round" />
<line x1="608.61" y1="200.22" x2="579.85" y2="200.05" stroke="black" stroke-width="4" stroke-linejoin="round" stroke-linecap="round" />
<line x1="602.08" y1="208.62" x2="574.55" y2="208.46" stroke="black" stroke-width="4" stroke-linejoin="round" stroke-linecap="round" />
<line x1="562.31" y1="210.18" x2="548.08" y2="235.16" stroke="black" stroke-width="4" stroke-linejoin="round" stroke-linecap="round" />
<line x1="548.08" y1="235.16" x2="519.53" y2="235.25" stroke="black" stroke-width="4" stroke-linejoin="round" stroke-linecap="round" />
<line x1="548.08" y1="235.16" x2="568.33" y2="270.23" stroke="black" stroke-width="4" stroke-linejoin="round" stroke-linecap="round" />
<line x1="558.64" y1="236.55" x2="572.40" y2="260.40" stroke="black" stroke-width="4" stroke-linejoin="round" stroke-linecap="round" />
<line x1="501.96" y1="245.46" x2="487.76" y2="270.23" stroke="black" stroke-width="4" stroke-linejoin="round" stroke-linecap="round" />
<line x1="487.76" y1="270.23" x2="447.48" y2="270.35" stroke="black" stroke-width="4" stroke-linejoin="round" stroke-linecap="round" />
<line x1="484.11" y1="272.35" x2="497.74" y2="295.79" stroke="black" stroke-width="4" stroke-linejoin="round" stroke-linecap="round" />
<line x1="491.41" y1="268.10" x2="505.04" y2="291.54" stroke="black" stroke-width="4" stroke-linejoin="round" stroke-linecap="round" />
<line x1="447.48" y1="270.35" x2="418.91" y2="241.95" stroke="black" stroke-width="4" stroke-linejoin="round" stroke-linecap="round" />
<line x1="447.48" y1="270.35" x2="419.08" y2="298.91" stroke="black" stroke-width="4" stroke-linejoin="round" stroke-linecap="round" />
<line x1="419.08" y1="298.91" x2="390.51" y2="270.51" stroke="black" stroke-width="4" stroke-linejoin="round" stroke-linecap="round" />
<line x1="390.51" y1="270.51" x2="418.91" y2="241.95" stroke="black" stroke-width="4" stroke-linejoin="round" stroke-linecap="round" />
<text x="689.49" y="345.79" fill="black" font-family="Arial" font-size="17" font-style="normal" font-weight="normal" text-anchor="middle">  Cl </text>
<text x="568.33" y="345.49" fill="black" font-family="Arial" font-size="17" font-style="normal" font-weight="normal" text-anchor="middle">  O </text>
<text x="628.75" y="310.61" fill="black" font-family="Arial" font-size="17" font-style="normal" font-weight="normal" text-anchor="middle">  N </text>
<text x="640.65" y="310.61" fill="black" font-family="Arial" font-size="17" font-style="normal" font-weight="normal" text-anchor="middle">  H </text>
<text x="568.12" y="205.59" fill="black" font-family="Arial" font-size="17" font-style="normal" font-weight="normal" text-anchor="middle">  N </text>
<text x="507.80" y="240.89" fill="black" font-family="Arial" font-size="17" font-style="normal" font-weight="normal" text-anchor="middle">  N </text>
<text x="507.80" y="227.29" fill="black" font-family="Arial" font-size="17" font-style="normal" font-weight="normal" text-anchor="middle">  H </text>
<text x="508.01" y="310.66" fill="black" font-family="Arial" font-size="17" font-style="normal" font-weight="normal" text-anchor="middle">  O </text>
<text x="568.43" y="415.68" fill="black" font-family="Arial" font-size="17" font-style="normal" font-weight="normal" text-anchor="middle">  Cl </text>
<path d = "M 718.89 441.11 A 49.79 49.79 0 0 1 641.13 486.00" fill = "none"  stroke="#bfbfbf" stroke-width="5" stroke-linejoin="round" stroke-linecap="round" />
<path d = "M 718.89 441.11 A 27.23 27.23 0 0 1 721.81 426.62" fill = "none"  stroke="#bfbfbf" stroke-width="5" stroke-linejoin="round" stroke-linecap="round" />
<path d = "M 724.61 400.89 A 36.31 36.31 0 0 1 721.81 426.62" fill = "none"  stroke="#bfbfbf" stroke-width="5" stroke-linejoin="round" stroke-linecap="round" />
<path d = "M 724.61 400.89 A 27.23 27.23 0 0 1 730.47 376.06" fill = "none"  stroke="#bfbfbf" stroke-width="5" stroke-linejoin="round" stroke-linecap="round" />
<path d = "M 695.08 286.00 A 54.47 54.47 0 0 1 730.47 376.06" fill = "none"  stroke="#bfbfbf" stroke-width="5" stroke-linejoin="round" stroke-linecap="round" />
<path d = "M 695.08 286.00 A 27.23 27.23 0 0 1 672.11 250.09" fill = "none"  stroke="#bfbfbf" stroke-width="5" stroke-linejoin="round" stroke-linecap="round" />
<path d = "M 653.70 196.90 A 45.72 45.72 0 0 1 672.11 250.09" fill = "none"  stroke="#bfbfbf" stroke-width="5" stroke-linejoin="round" stroke-linecap="round" />
<path d = "M 653.70 196.90 A 27.23 27.23 0 0 1 643.55 184.95" fill = "none"  stroke="#bfbfbf" stroke-width="5" stroke-linejoin="round" stroke-linecap="round" />
<path d = "M 595.32 164.48 A 38.13 38.13 0 0 1 643.55 184.95" fill = "none"  stroke="#bfbfbf" stroke-width="5" stroke-linejoin="round" stroke-linecap="round" />
<path d = "M 595.32 164.48 A 27.23 27.23 0 0 1 578.24 165.11" fill = "none"  stroke="#bfbfbf" stroke-width="5" stroke-linejoin="round" stroke-linecap="round" />
<path d = "M 535.57 183.90 A 36.31 36.31 0 0 1 578.24 165.11" fill = "none"  stroke="#bfbfbf" stroke-width="5" stroke-linejoin="round" stroke-linecap="round" />
<path d = "M 535.57 183.90 A 27.23 27.23 0 0 1 509.72 199.03" fill = "none"  stroke="#bfbfbf" stroke-width="5" stroke-linejoin="round" stroke-linecap="round" />
<path d = "M 493.97 201.71 A 36.31 36.31 0 0 1 509.72 199.03" fill = "none"  stroke="#bfbfbf" stroke-width="5" stroke-linejoin="round" stroke-linecap="round" />
<path d = "M 493.97 201.71 A 27.23 27.23 0 0 1 464.44 195.90" fill = "none"  stroke="#bfbfbf" stroke-width="5" stroke-linejoin="round" stroke-linecap="round" />
<path d = "M 354.49 235.37 A 64.76 64.76 0 0 1 464.44 195.90" fill = "none"  stroke="#bfbfbf" stroke-width="5" stroke-linejoin="round" stroke-linecap="round" />
<path d = "M 354.49 235.37 A 27.23 27.23 0 0 1 350.74 246.62" fill = "none"  stroke="#bfbfbf" stroke-width="5" stroke-linejoin="round" stroke-linecap="round" />
<path d = "M 363.62 308.31 A 27.23 27.23 0 0 1 372.72 319.47" fill = "none"  stroke="#bfbfbf" stroke-width="5" stroke-linejoin="round" stroke-linecap="round" />
<path d = "M 453.00 336.61 A 50.71 50.71 0 0 1 372.72 319.47" fill = "none"  stroke="#bfbfbf" stroke-width="5" stroke-linejoin="round" stroke-linecap="round" />
<path d = "M 453.00 336.61 A 27.23 27.23 0 0 1 486.98 334.65" fill = "none"  stroke="#bfbfbf" stroke-width="5" stroke-linejoin="round" stroke-linecap="round" />
<path d = "M 504.06 341.14 A 36.31 36.31 0 0 1 486.98 334.65" fill = "none"  stroke="#bfbfbf" stroke-width="5" stroke-linejoin="round" stroke-linecap="round" />
<path d = "M 504.06 341.14 A 27.23 27.23 0 0 1 526.20 357.64" fill = "none"  stroke="#bfbfbf" stroke-width="5" stroke-linejoin="round" stroke-linecap="round" />
<path d = "M 528.08 361.58 A 45.72 45.72 0 0 1 526.20 357.64" fill = "none"  stroke="#bfbfbf" stroke-width="5" stroke-linejoin="round" stroke-linecap="round" />
<path d = "M 528.08 361.58 A 27.23 27.23 0 0 1 527.94 387.68" fill = "none"  stroke="#bfbfbf" stroke-width="5" stroke-linejoin="round" stroke-linecap="round" />
<path d = "M 574.45 455.95 A 46.27 46.27 0 0 1 527.94 387.68" fill = "none"  stroke="#bfbfbf" stroke-width="5" stroke-linejoin="round" stroke-linecap="round" />
<path d = "M 574.45 455.95 A 27.23 27.23 0 0 1 599.84 466.70" fill = "none"  stroke="#bfbfbf" stroke-width="5" stroke-linejoin="round" stroke-linecap="round" />
<path d = "M 627.13 481.28 A 36.31 36.31 0 0 1 599.84 466.70" fill = "none"  stroke="#bfbfbf" stroke-width="5" stroke-linejoin="round" stroke-linecap="round" />
<path d = "M 627.13 481.28 A 27.23 27.23 0 0 1 641.13 486.00" fill = "none"  stroke="#bfbfbf" stroke-width="5" stroke-linejoin="round" stroke-linecap="round" />
<circle cx="308.06" cy="229.13" r="16.11" fill="#d2d2d2" stroke="#bfbfbf" stroke-width="2" stroke-linejoin="round" stroke-linecap="round" />
<text x="308.06" y="227.33" fill="black" font-family="Arial" font-size="9" font-style="normal" font-weight="bold" text-anchor="middle">  ARG </text>
<text x="308.06" y="236.33" fill="black" font-family="Arial" font-size="9" font-style="normal" font-weight="bold" text-anchor="middle">  12A </text>
<circle cx="473.62" cy="143.65" r="16.11" fill="#d2d2d2" stroke="#bfbfbf" stroke-width="2" stroke-linejoin="round" stroke-linecap="round" />
<text x="473.62" y="141.85" fill="black" font-family="Arial" font-size="9" font-style="normal" font-weight="bold" text-anchor="middle">  LEU </text>
<text x="473.62" y="150.85" fill="black" font-family="Arial" font-size="9" font-style="normal" font-weight="bold" text-anchor="middle">  14A </text>
<circle cx="482.66" cy="475.76" r="16.11" fill="#d2d2d2" stroke="#bfbfbf" stroke-width="2" stroke-linejoin="round" stroke-linecap="round" />
<text x="482.66" y="473.96" fill="black" font-family="Arial" font-size="9" font-style="normal" font-weight="bold" text-anchor="middle">  GLY </text>
<text x="482.66" y="482.96" fill="black" font-family="Arial" font-size="9" font-style="normal" font-weight="bold" text-anchor="middle">  15A </text>
<circle cx="579.29" cy="529.59" r="16.11" fill="#d2d2d2" stroke="#bfbfbf" stroke-width="2" stroke-linejoin="round" stroke-linecap="round" />
<text x="579.29" y="527.79" fill="black" font-family="Arial" font-size="9" font-style="normal" font-weight="bold" text-anchor="middle">  GLU </text>
<text x="579.29" y="536.79" fill="black" font-family="Arial" font-size="9" font-style="normal" font-weight="bold" text-anchor="middle">  16A </text>
<circle cx="476.64" cy="427.97" r="16.11" fill="#d2d2d2" stroke="#bfbfbf" stroke-width="2" stroke-linejoin="round" stroke-linecap="round" />
<text x="476.64" y="426.17" fill="black" font-family="Arial" font-size="9" font-style="normal" font-weight="bold" text-anchor="middle">  VAL </text>
<text x="476.64" y="435.17" fill="black" font-family="Arial" font-size="9" font-style="normal" font-weight="bold" text-anchor="middle">  22A </text>
<circle cx="609.42" cy="100.33" r="16.11" fill="#d2d2d2" stroke="#bfbfbf" stroke-width="2" stroke-linejoin="round" stroke-linecap="round" />
<text x="609.42" y="98.53" fill="black" font-family="Arial" font-size="9" font-style="normal" font-weight="bold" text-anchor="middle">  ALA </text>
<text x="609.42" y="107.53" fill="black" font-family="Arial" font-size="9" font-style="normal" font-weight="bold" text-anchor="middle">  39A </text>
<circle cx="731.59" cy="203.67" r="16.11" fill="#d2d2d2" stroke="#bfbfbf" stroke-width="2" stroke-linejoin="round" stroke-linecap="round" />
<text x="731.59" y="201.87" fill="black" font-family="Arial" font-size="9" font-style="normal" font-weight="bold" text-anchor="middle">  ILE </text>
<text x="731.59" y="210.87" fill="black" font-family="Arial" font-size="9" font-style="normal" font-weight="bold" text-anchor="middle">  71A </text>
<circle cx="800.98" cy="307.33" r="16.11" fill="#d2d2d2" stroke="#bfbfbf" stroke-width="2" stroke-linejoin="round" stroke-linecap="round" />
<text x="800.98" y="305.53" fill="black" font-family="Arial" font-size="9" font-style="normal" font-weight="bold" text-anchor="middle">  MET </text>
<text x="800.98" y="314.53" fill="black" font-family="Arial" font-size="9" font-style="normal" font-weight="bold" text-anchor="middle">  89A </text>
<circle cx="662.77" cy="116.28" r="16.11" fill="#d2d2d2" stroke="#bfbfbf" stroke-width="2" stroke-linejoin="round" stroke-linecap="round" />
<text x="662.77" y="114.48" fill="black" font-family="Arial" font-size="9" font-style="normal" font-weight="bold" text-anchor="middle">  GLU </text>
<text x="662.77" y="123.48" fill="black" font-family="Arial" font-size="9" font-style="normal" font-weight="bold" text-anchor="middle">  90A </text>
<circle cx="545.68" cy="121.15" r="16.11" fill="#d2d2d2" stroke="#bfbfbf" stroke-width="2" stroke-linejoin="round" stroke-linecap="round" />
<text x="545.68" y="119.35" fill="black" font-family="Arial" font-size="9" font-style="normal" font-weight="bold" text-anchor="middle">  TYR </text>
<text x="545.68" y="128.35" fill="black" font-family="Arial" font-size="9" font-style="normal" font-weight="bold" text-anchor="middle">  91A </text>
<circle cx="512.82" cy="159.55" r="16.11" fill="#d2d2d2" stroke="#bfbfbf" stroke-width="2" stroke-linejoin="round" stroke-linecap="round" />
<text x="512.82" y="157.75" fill="black" font-family="Arial" font-size="9" font-style="normal" font-weight="bold" text-anchor="middle">  VAL </text>
<text x="512.82" y="166.75" fill="black" font-family="Arial" font-size="9" font-style="normal" font-weight="bold" text-anchor="middle">  92A </text>
<circle cx="335.33" cy="373.99" r="16.11" fill="#d2d2d2" stroke="#bfbfbf" stroke-width="2" stroke-linejoin="round" stroke-linecap="round" />
<text x="335.33" y="372.19" fill="black" font-family="Arial" font-size="9" font-style="normal" font-weight="bold" text-anchor="middle">  LEU </text>
<text x="335.33" y="381.19" fill="black" font-family="Arial" font-size="9" font-style="normal" font-weight="bold" text-anchor="middle">  94A </text>
<circle cx="440.29" cy="397.93" r="16.11" fill="#d2d2d2" stroke="#bfbfbf" stroke-width="2" stroke-linejoin="round" stroke-linecap="round" />
<text x="440.29" y="396.13" fill="black" font-family="Arial" font-size="9" font-style="normal" font-weight="bold" text-anchor="middle">  GLY </text>
<text x="440.29" y="405.13" fill="black" font-family="Arial" font-size="9" font-style="normal" font-weight="bold" text-anchor="middle">  95A </text>
<circle cx="622.59" cy="546.24" r="16.11" fill="#d2d2d2" stroke="#bfbfbf" stroke-width="2" stroke-linejoin="round" stroke-linecap="round" />
<text x="622.59" y="544.64" fill="black" font-family="Arial" font-size="8" font-style="normal" font-weight="bold" text-anchor="middle">  ARG </text>
<text x="622.59" y="552.64" fill="black" font-family="Arial" font-size="8" font-style="normal" font-weight="bold" text-anchor="middle">  138A </text>
<circle cx="730.65" cy="243.75" r="16.11" fill="#d2d2d2" stroke="#bfbfbf" stroke-width="2" stroke-linejoin="round" stroke-linecap="round" />
<text x="730.65" y="242.15" fill="black" font-family="Arial" font-size="8" font-style="normal" font-weight="bold" text-anchor="middle">  LEU </text>
<text x="730.65" y="250.15" fill="black" font-family="Arial" font-size="8" font-style="normal" font-weight="bold" text-anchor="middle">  141A </text>
<circle cx="788.97" cy="405.78" r="16.11" fill="#d2d2d2" stroke="#bfbfbf" stroke-width="2" stroke-linejoin="round" stroke-linecap="round" />
<text x="788.97" y="404.18" fill="black" font-family="Arial" font-size="8" font-style="normal" font-weight="bold" text-anchor="middle">  GLY </text>
<text x="788.97" y="412.18" fill="black" font-family="Arial" font-size="8" font-style="normal" font-weight="bold" text-anchor="middle">  151A </text>
<circle cx="778.97" cy="465.05" r="16.11" fill="#d2d2d2" stroke="#bfbfbf" stroke-width="2" stroke-linejoin="round" stroke-linecap="round" />
<text x="778.97" y="463.45" fill="black" font-family="Arial" font-size="8" font-style="normal" font-weight="bold" text-anchor="middle">  ASP </text>
<text x="778.97" y="471.45" fill="black" font-family="Arial" font-size="8" font-style="normal" font-weight="bold" text-anchor="middle">  152A </text>
<path d="M 318.18 275.59 L 329.35 288.48 C 330.53 290.53 331.07 292.55 331.07 294.92 C 331.07 302.04 325.30 307.81 318.18 307.81 C 311.07 307.81 305.29 302.04 305.29 294.92 C 305.29 292.55 305.83 290.53 307.02 288.48 Z" fill="#d2d2d2" stroke="#bfbfbf" stroke-width="2" stroke-linejoin="round" stroke-linecap="round" />
<text x="318.18" y="292.03" fill="black" font-family="Arial" font-size="8" font-style="normal" font-weight="bold" text-anchor="middle">  HOH </text>
<text x="318.18" y="300.03" fill="black" font-family="Arial" font-size="8" font-style="normal" font-weight="bold" text-anchor="middle">  480A </text>
<path d="M 612.05 490.61 L 623.21 503.50 C 624.40 505.56 624.94 507.57 624.94 509.95 C 624.94 517.07 619.17 522.84 612.05 522.84 C 604.93 522.84 599.16 517.07 599.16 509.95 C 599.16 507.57 599.70 505.56 600.88 503.50 Z" fill="#d2d2d2" stroke="#bfbfbf" stroke-width="2" stroke-linejoin="round" stroke-linecap="round" />
<text x="612.05" y="507.06" fill="black" font-family="Arial" font-size="8" font-style="normal" font-weight="bold" text-anchor="middle">  HOH </text>
<text x="612.05" y="515.06" fill="black" font-family="Arial" font-size="8" font-style="normal" font-weight="bold" text-anchor="middle">  699A </text>
<path d="M 339.84 309.02 L 351.00 321.91 C 352.19 323.96 352.73 325.98 352.73 328.35 C 352.73 335.47 346.96 341.24 339.84 341.24 C 332.72 341.24 326.95 335.47 326.95 328.35 C 326.95 325.98 327.49 323.96 328.67 321.91 Z" fill="#d2d2d2" stroke="#bfbfbf" stroke-width="2" stroke-linejoin="round" stroke-linecap="round" />
<text x="339.84" y="325.66" fill="black" font-family="Arial" font-size="7" font-style="normal" font-weight="bold" text-anchor="middle">  HOH </text>
<text x="339.84" y="332.66" fill="black" font-family="Arial" font-size="7" font-style="normal" font-weight="bold" text-anchor="middle">  2136A </text>
<path d="M 576.81 471.60 L 587.97 484.49 C 589.16 486.54 589.70 488.56 589.70 490.93 C 589.70 498.05 583.93 503.82 576.81 503.82 C 569.69 503.82 563.92 498.05 563.92 490.93 C 563.92 488.56 564.46 486.54 565.64 484.49 Z" fill="#d2d2d2" stroke="#bfbfbf" stroke-width="2" stroke-linejoin="round" stroke-linecap="round" />
<text x="576.81" y="488.24" fill="black" font-family="Arial" font-size="7" font-style="normal" font-weight="bold" text-anchor="middle">  HOH </text>
<text x="576.81" y="495.24" fill="black" font-family="Arial" font-size="7" font-style="normal" font-weight="bold" text-anchor="middle">  3350A </text>
<path d="M 751.66 413.72 L 762.82 426.61 C 764.01 428.67 764.55 430.68 764.55 433.06 C 764.55 440.18 758.78 445.95 751.66 445.95 C 744.54 445.95 738.77 440.18 738.77 433.06 C 738.77 430.68 739.31 428.67 740.50 426.61 Z" fill="#d2d2d2" stroke="#bfbfbf" stroke-width="2" stroke-linejoin="round" stroke-linecap="round" />
<text x="751.66" y="430.37" fill="black" font-family="Arial" font-size="7" font-style="normal" font-weight="bold" text-anchor="middle">  HOH </text>
<text x="751.66" y="437.37" fill="black" font-family="Arial" font-size="7" font-style="normal" font-weight="bold" text-anchor="middle">  4118A </text>
<path d="M 537.97 461.45 L 549.14 474.34 C 550.32 476.40 550.86 478.41 550.86 480.79 C 550.86 487.91 545.09 493.68 537.97 493.68 C 530.85 493.68 525.08 487.91 525.08 480.79 C 525.08 478.41 525.62 476.40 526.81 474.34 Z" fill="#d2d2d2" stroke="#bfbfbf" stroke-width="2" stroke-linejoin="round" stroke-linecap="round" />
<text x="537.97" y="478.10" fill="black" font-family="Arial" font-size="7" font-style="normal" font-weight="bold" text-anchor="middle">  HOH </text>
<text x="537.97" y="485.10" fill="black" font-family="Arial" font-size="7" font-style="normal" font-weight="bold" text-anchor="middle">  5018A </text>
<path d="M 282.46 247.73 L 293.62 260.62 C 294.81 262.67 295.35 264.69 295.35 267.06 C 295.35 274.18 289.57 279.95 282.46 279.95 C 275.34 279.95 269.57 274.18 269.57 267.06 C 269.57 264.69 270.11 262.67 271.29 260.62 Z" fill="#d2d2d2" stroke="#bfbfbf" stroke-width="2" stroke-linejoin="round" stroke-linecap="round" />
<text x="282.46" y="264.37" fill="black" font-family="Arial" font-size="7" font-style="normal" font-weight="bold" text-anchor="middle">  HOH </text>
<text x="282.46" y="271.37" fill="black" font-family="Arial" font-size="7" font-style="normal" font-weight="bold" text-anchor="middle">  7794A </text>
<path d="M 529.77 510.00 L 540.93 522.89 C 542.11 524.95 542.66 526.97 542.66 529.34 C 542.66 536.46 536.88 542.23 529.77 542.23 C 522.65 542.23 516.87 536.46 516.87 529.34 C 516.87 526.97 517.42 524.95 518.60 522.89 Z" fill="#d2d2d2" stroke="#bfbfbf" stroke-width="2" stroke-linejoin="round" stroke-linecap="round" />
<text x="529.77" y="526.65" fill="black" font-family="Arial" font-size="7" font-style="normal" font-weight="bold" text-anchor="middle">  HOH </text>
<text x="529.77" y="533.65" fill="black" font-family="Arial" font-size="7" font-style="normal" font-weight="bold" text-anchor="middle">  7807A </text>
<path d="M 773.49 321.20 L 784.66 334.09 C 785.84 336.15 786.38 338.16 786.38 340.54 C 786.38 347.66 780.61 353.43 773.49 353.43 C 766.37 353.43 760.60 347.66 760.60 340.54 C 760.60 338.16 761.14 336.15 762.33 334.09 Z" fill="#d2d2d2" stroke="#bfbfbf" stroke-width="2" stroke-linejoin="round" stroke-linecap="round" />
<text x="773.49" y="337.85" fill="black" font-family="Arial" font-size="7" font-style="normal" font-weight="bold" text-anchor="middle">  HOH </text>
<text x="773.49" y="344.85" fill="black" font-family="Arial" font-size="7" font-style="normal" font-weight="bold" text-anchor="middle">  9918A </text>
<line x1="559.27" y1="344.11" x2="547.10" y2="349.78" stroke="#9b6464" stroke-width="2" stroke-linejoin="round" stroke-linecap="round" />
<path d="M 541.22 345.12 C 544.58 343.55 548.58 345.00 550.15 348.36 C 551.71 351.72 550.26 355.72 546.90 357.29 L 543.86 358.70 L 542.44 355.66 L 545.48 354.24 L 544.63 352.42 L 541.59 353.84 L 540.45 351.40 L 543.49 349.98 L 542.64 348.16 L 539.60 349.58 L 538.18 346.53 Z" fill="#ffc8c8" stroke="#9b6464" stroke-linejoin="round" stroke-linecap="round" />
<line x1="641.09" y1="296.36" x2="652.09" y2="288.66" stroke="#64649b" stroke-width="2" stroke-linejoin="round" stroke-linecap="round" />
<line x1="659.52" y1="287.56" x2="663.18" y2="284.99" stroke="#64649b" stroke-width="3" stroke-linejoin="round" />
<line x1="655.67" y1="282.06" x2="659.33" y2="279.49" stroke="#64649b" stroke-width="3" stroke-linejoin="round" />
<path d="M 658.69 292.23 C 655.66 294.36 651.47 293.62 649.34 290.58 C 647.22 287.54 647.95 283.36 650.99 281.23 L 653.74 279.31 L 661.44 290.31 Z" fill="#c8c8ff" stroke="#64649b" stroke-linejoin="round" stroke-linecap="round" />
<line x1="629.40" y1="531.64" x2="635.07" y2="519.47" stroke="#9b6464" stroke-width="2" stroke-linejoin="round" stroke-linecap="round" />
<path d="M 642.58 519.26 C 641.01 522.62 637.02 524.08 633.66 522.51 C 630.30 520.94 628.84 516.95 630.41 513.59 L 631.83 510.54 L 634.87 511.96 L 633.45 515.00 L 635.28 515.86 L 636.70 512.81 L 639.13 513.95 L 637.71 516.99 L 639.54 517.84 L 640.95 514.80 L 644.00 516.22 Z" fill="#ffc8c8" stroke="#9b6464" stroke-linejoin="round" stroke-linecap="round" />
<line x1="587.35" y1="515.63" x2="594.06" y2="504.00" stroke="#64649b" stroke-width="2" stroke-linejoin="round" stroke-linecap="round" />
<line x1="600.33" y1="499.87" x2="602.57" y2="495.99" stroke="#64649b" stroke-width="3" stroke-linejoin="round" />
<line x1="594.51" y1="496.51" x2="596.75" y2="492.63" stroke="#64649b" stroke-width="3" stroke-linejoin="round" />
<path d="M 601.56 504.45 C 599.70 507.66 595.60 508.76 592.39 506.91 C 589.17 505.06 588.07 500.95 589.93 497.74 L 591.61 494.83 L 603.23 501.55 Z" fill="#c8c8ff" stroke="#64649b" stroke-linejoin="round" stroke-linecap="round" />
<line x1="653.52" y1="129.48" x2="645.82" y2="140.48" stroke="#9b6464" stroke-width="2" stroke-linejoin="round" stroke-linecap="round" />
<path d="M 638.40 139.38 C 640.52 136.34 644.71 135.60 647.75 137.73 C 650.78 139.85 651.52 144.04 649.40 147.08 L 647.47 149.83 L 644.72 147.90 L 646.65 145.15 L 645.00 144.00 L 643.07 146.75 L 640.87 145.21 L 642.80 142.46 L 641.15 141.30 L 639.22 144.05 L 636.47 142.13 Z" fill="#ffc8c8" stroke="#9b6464" stroke-linejoin="round" stroke-linecap="round" />
<circle cx="27.43" cy="39.50" r="15.36" fill="none" stroke="black" stroke-linejoin="round" stroke-linecap="round" />
<path d="M 27.43 68.30 L 38.07 80.59 C 39.20 82.54 39.71 84.47 39.71 86.73 C 39.71 93.51 34.21 99.01 27.43 99.01 C 20.64 99.01 15.14 93.51 15.14 86.73 C 15.14 84.47 15.66 82.54 16.79 80.59 Z" fill="none" stroke="black" stroke-linejoin="round" stroke-linecap="round" />
<line x1="12.07" y1="155.50" x2="35.11" y2="155.50" stroke="#64649b" stroke-linejoin="round" stroke-linecap="round" />
<line x1="42.79" y1="159.34" x2="47.90" y2="159.34" stroke="#64649b" stroke-width="3" stroke-linejoin="round" />
<line x1="42.79" y1="151.66" x2="47.90" y2="151.66" stroke="#64649b" stroke-width="3" stroke-linejoin="round" />
<path d="M 38.95 163.18 C 34.71 163.18 31.27 159.74 31.27 155.50 C 31.27 151.26 34.71 147.82 38.95 147.82 L 42.79 147.82 L 42.79 163.18 Z" fill="#c8c8ff" stroke="#64649b" stroke-linejoin="round" stroke-linecap="round" />
<line x1="12.07" y1="201.50" x2="35.11" y2="201.50" stroke="#9b6464" stroke-linejoin="round" stroke-linecap="round" />
<path d="M 38.95 209.18 C 34.71 209.18 31.27 205.74 31.27 201.50 C 31.27 197.26 34.71 193.82 38.95 193.82 L 42.79 193.82 L 42.79 197.66 L 38.95 197.66 L 38.95 199.96 L 42.79 199.96 L 42.79 203.04 L 38.95 203.04 L 38.95 205.34 L 42.79 205.34 L 42.79 209.18 Z" fill="#ffc8c8" stroke="#9b6464" stroke-linejoin="round" stroke-linecap="round" />
<text x="55.07" y="43.50" fill="black" font-family="Arial" font-size="12" font-style="normal" font-weight="bold" text-anchor="start">  amino acid </text>
<text x="55.07" y="89.50" fill="black" font-family="Arial" font-size="12" font-style="normal" font-weight="bold" text-anchor="start">  water </text>
<text x="55.07" y="159.50" fill="black" font-family="Arial" font-size="12" font-style="normal" font-weight="bold" text-anchor="start">  unpaired donor </text>
<text x="55.07" y="205.50" fill="black" font-family="Arial" font-size="12" font-style="normal" font-weight="bold" text-anchor="start">  unpaired acceptor </text>
<path d="M 13.50 10.80 L 166.50 10.80 C 170.48 10.80 173.70 14.02 173.70 18.00 L 173.70 102.50 C 173.70 106.48 170.48 109.70 166.50 109.70 L 13.50 109.70 C 9.52 109.70 6.30 106.48 6.30 102.50 L 6.30 18.00 C 6.30 14.02 9.52 10.80 13.50 10.80 Z" fill="none" stroke="#bfbfbf" stroke-width="3" stroke-linejoin="round" stroke-linecap="round" />
<rect x="34.54" y="4.5" width="110.91" height="9" fill="white" stroke="white" stroke-linejoin="round" stroke-linecap="round" />
<text x="90.00" y="13.67" fill="black" font-family="Arial" font-size="14" font-style="normal" font-weight="bold" text-anchor="middle">  Residue Styles </text>
<path d="M 13.50 126.80 L 166.50 126.80 C 170.48 126.80 173.70 130.02 173.70 134.00 L 173.70 218.50 C 173.70 222.48 170.48 225.70 166.50 225.70 L 13.50 225.70 C 9.52 225.70 6.30 222.48 6.30 218.50 L 6.30 134.00 C 6.30 130.02 9.52 126.80 13.50 126.80 Z" fill="none" stroke="#bfbfbf" stroke-width="3" stroke-linejoin="round" stroke-linecap="round" />
<rect x="25.6" y="120.5" width="128.8" height="9" fill="white" stroke="white" stroke-linejoin="round" stroke-linecap="round" />
<text x="90.00" y="129.67" fill="black" font-family="Arial" font-size="14" font-style="normal" font-weight="bold" text-anchor="middle">  Interaction Styles </text>
<path d="M 10.50 0.50 L 889.50 0.50 C 895.02 0.50 899.50 4.98 899.50 10.50 L 899.50 589.50 C 899.50 595.02 895.02 599.50 889.50 599.50 L 10.50 599.50 C 4.98 599.50 0.50 595.02 0.50 589.50 L 0.50 10.50 C 0.50 4.98 4.98 0.50 10.50 0.50 Z" fill="none" stroke="#bfbfbf" stroke-linejoin="round" stroke-linecap="round" />
</svg>
