<?xml version="1.0" encoding="UTF-8"?>
<!DOCTYPE svg PUBLIC "-//W3C//DTD SVG 1.1//EN"
  "http://www.w3.org/Graphics/SVG/1.1/DTD/svg11.dtd">
<svg xmlns="http://www.w3.org/2000/svg" xmlns:xlink="http://www.w3.org/1999/xlink"   viewBox="0.00 0.00 900.00 600.00">
<!-- Created by OpenEye Scientific Software -->
<!-- Creation Date Thu Mar 18 12:46:53 2021 -->
<rect width="900.00" height="600.00" fill="white" />
<rect x="180" y="0" width="720" height="600" fill="white" />
<text x="540.00" y="52.50" fill="black" font-family="Arial" font-size="45" font-style="normal" font-weight="normal" text-anchor="middle">  MOL </text>
<line x1="411.94" y1="431.06" x2="411.83" y2="394.12" stroke="black" stroke-width="4" stroke-linejoin="round" stroke-linecap="round" />
<line x1="419.84" y1="425.13" x2="419.76" y2="400.01" stroke="black" stroke-width="4" stroke-linejoin="round" stroke-linecap="round" />
<line x1="411.94" y1="431.06" x2="443.88" y2="449.63" stroke="black" stroke-width="4" stroke-linejoin="round" stroke-linecap="round" />
<line x1="411.83" y1="394.12" x2="443.99" y2="375.55" stroke="black" stroke-width="4" stroke-linejoin="round" stroke-linecap="round" />
<line x1="443.99" y1="375.55" x2="443.92" y2="351.97" stroke="black" stroke-width="4" stroke-linejoin="round" stroke-linecap="round" />
<line x1="443.99" y1="375.55" x2="476.26" y2="393.93" stroke="black" stroke-width="4" stroke-linejoin="round" stroke-linecap="round" />
<line x1="445.24" y1="385.37" x2="467.18" y2="397.86" stroke="black" stroke-width="4" stroke-linejoin="round" stroke-linecap="round" />
<line x1="476.26" y1="393.93" x2="508.25" y2="375.46" stroke="black" stroke-width="4" stroke-linejoin="round" stroke-linecap="round" />
<line x1="476.26" y1="393.93" x2="476.04" y2="431.06" stroke="black" stroke-width="4" stroke-linejoin="round" stroke-linecap="round" />
<line x1="476.04" y1="431.06" x2="496.43" y2="442.91" stroke="black" stroke-width="4" stroke-linejoin="round" stroke-linecap="round" />
<line x1="476.04" y1="431.06" x2="443.88" y2="449.63" stroke="black" stroke-width="4" stroke-linejoin="round" stroke-linecap="round" />
<line x1="466.94" y1="427.18" x2="445.07" y2="439.81" stroke="black" stroke-width="4" stroke-linejoin="round" stroke-linecap="round" />
<line x1="512.21" y1="375.46" x2="512.21" y2="350.61" stroke="black" stroke-width="4" stroke-linejoin="round" stroke-linecap="round" />
<line x1="504.30" y1="375.46" x2="504.30" y2="350.61" stroke="black" stroke-width="4" stroke-linejoin="round" stroke-linecap="round" />
<line x1="508.25" y1="375.46" x2="530.87" y2="388.52" stroke="black" stroke-width="4" stroke-linejoin="round" stroke-linecap="round" />
<line x1="549.62" y1="388.52" x2="572.24" y2="375.46" stroke="black" stroke-width="4" stroke-linejoin="round" stroke-linecap="round" />
<line x1="572.24" y1="375.46" x2="604.18" y2="394.02" stroke="black" stroke-width="4" stroke-linejoin="round" stroke-linecap="round" />
<line x1="581.32" y1="371.59" x2="603.04" y2="384.21" stroke="black" stroke-width="4" stroke-linejoin="round" stroke-linecap="round" />
<line x1="572.24" y1="375.46" x2="572.13" y2="338.52" stroke="black" stroke-width="4" stroke-linejoin="round" stroke-linecap="round" />
<line x1="604.18" y1="394.02" x2="636.34" y2="375.46" stroke="black" stroke-width="4" stroke-linejoin="round" stroke-linecap="round" />
<line x1="636.34" y1="375.46" x2="636.49" y2="349.15" stroke="black" stroke-width="4" stroke-linejoin="round" stroke-linecap="round" />
<line x1="628.46" y1="369.47" x2="628.61" y2="344.22" stroke="black" stroke-width="4" stroke-linejoin="round" stroke-linecap="round" />
<line x1="627.15" y1="332.97" x2="604.29" y2="319.95" stroke="black" stroke-width="4" stroke-linejoin="round" stroke-linecap="round" />
<line x1="604.29" y1="319.95" x2="604.21" y2="293.83" stroke="black" stroke-width="4" stroke-linejoin="round" stroke-linecap="round" />
<line x1="604.29" y1="319.95" x2="572.13" y2="338.52" stroke="black" stroke-width="4" stroke-linejoin="round" stroke-linecap="round" />
<line x1="603.10" y1="329.77" x2="581.23" y2="342.40" stroke="black" stroke-width="4" stroke-linejoin="round" stroke-linecap="round" />
<line x1="613.54" y1="277.57" x2="636.12" y2="264.44" stroke="black" stroke-width="4" stroke-linejoin="round" stroke-linecap="round" />
<line x1="636.12" y1="264.44" x2="636.01" y2="227.50" stroke="black" stroke-width="4" stroke-linejoin="round" stroke-linecap="round" />
<line x1="634.15" y1="267.87" x2="655.71" y2="280.23" stroke="black" stroke-width="4" stroke-linejoin="round" stroke-linecap="round" />
<line x1="638.09" y1="261.01" x2="659.64" y2="273.37" stroke="black" stroke-width="4" stroke-linejoin="round" stroke-linecap="round" />
<line x1="636.01" y1="227.50" x2="654.39" y2="195.37" stroke="black" stroke-width="4" stroke-linejoin="round" stroke-linecap="round" />
<line x1="636.01" y1="227.50" x2="617.44" y2="195.48" stroke="black" stroke-width="4" stroke-linejoin="round" stroke-linecap="round" />
<line x1="617.44" y1="195.48" x2="654.39" y2="195.37" stroke="black" stroke-width="4" stroke-linejoin="round" stroke-linecap="round" />
<text x="507.98" y="454.58" fill="black" font-family="Arial" font-size="15" font-style="normal" font-weight="normal" text-anchor="middle">  Cl </text>
<text x="508.25" y="343.47" fill="black" font-family="Arial" font-size="15" font-style="normal" font-weight="normal" text-anchor="middle">  O </text>
<text x="540.25" y="398.88" fill="black" font-family="Arial" font-size="15" font-style="normal" font-weight="normal" text-anchor="middle">  N </text>
<text x="540.25" y="410.88" fill="black" font-family="Arial" font-size="15" font-style="normal" font-weight="normal" text-anchor="middle">  H </text>
<text x="636.56" y="343.27" fill="black" font-family="Arial" font-size="15" font-style="normal" font-weight="normal" text-anchor="middle">  N </text>
<text x="604.18" y="287.96" fill="black" font-family="Arial" font-size="15" font-style="normal" font-weight="normal" text-anchor="middle">  N </text>
<text x="593.68" y="287.96" fill="black" font-family="Arial" font-size="15" font-style="normal" font-weight="normal" text-anchor="middle">  H </text>
<text x="668.17" y="287.77" fill="black" font-family="Arial" font-size="15" font-style="normal" font-weight="normal" text-anchor="middle">  O </text>
<text x="443.88" y="343.56" fill="black" font-family="Arial" font-size="15" font-style="normal" font-weight="normal" text-anchor="middle">  Cl </text>
<path d = "M 397.06 481.61 A 52.69 52.69 0 0 1 360.06 421.86" fill = "none"  stroke="#bfbfbf" stroke-width="4" stroke-linejoin="round" stroke-linecap="round" />
<path d = "M 397.06 481.61 A 24.98 24.98 0 0 1 407.33 487.58" fill = "none"  stroke="#bfbfbf" stroke-width="4" stroke-linejoin="round" stroke-linecap="round" />
<path d = "M 466.71 497.12 A 52.69 52.69 0 0 1 407.33 487.58" fill = "none"  stroke="#bfbfbf" stroke-width="4" stroke-linejoin="round" stroke-linecap="round" />
<path d = "M 466.71 497.12 A 24.98 24.98 0 0 1 487.49 496.72" fill = "none"  stroke="#bfbfbf" stroke-width="4" stroke-linejoin="round" stroke-linecap="round" />
<path d = "M 559.04 455.11 A 51.36 51.36 0 0 1 487.49 496.72" fill = "none"  stroke="#bfbfbf" stroke-width="4" stroke-linejoin="round" stroke-linecap="round" />
<path d = "M 559.04 455.11 A 24.98 24.98 0 0 1 591.45 433.98" fill = "none"  stroke="#bfbfbf" stroke-width="4" stroke-linejoin="round" stroke-linecap="round" />
<path d = "M 640.37 415.20 A 41.94 41.94 0 0 1 591.45 433.98" fill = "none"  stroke="#bfbfbf" stroke-width="4" stroke-linejoin="round" stroke-linecap="round" />
<path d = "M 640.37 415.20 A 24.98 24.98 0 0 1 650.96 405.37" fill = "none"  stroke="#bfbfbf" stroke-width="4" stroke-linejoin="round" stroke-linecap="round" />
<path d = "M 667.96 365.03 A 33.30 33.30 0 0 1 650.96 405.37" fill = "none"  stroke="#bfbfbf" stroke-width="4" stroke-linejoin="round" stroke-linecap="round" />
<path d = "M 667.96 365.03 A 24.98 24.98 0 0 1 668.06 349.12" fill = "none"  stroke="#bfbfbf" stroke-width="4" stroke-linejoin="round" stroke-linecap="round" />
<path d = "M 669.79 336.25 A 33.30 33.30 0 0 1 668.06 349.12" fill = "none"  stroke="#bfbfbf" stroke-width="4" stroke-linejoin="round" stroke-linecap="round" />
<path d = "M 669.79 336.25 A 24.98 24.98 0 0 1 683.34 312.46" fill = "none"  stroke="#bfbfbf" stroke-width="4" stroke-linejoin="round" stroke-linecap="round" />
<path d = "M 698.74 269.62 A 33.30 33.30 0 0 1 683.34 312.46" fill = "none"  stroke="#bfbfbf" stroke-width="4" stroke-linejoin="round" stroke-linecap="round" />
<path d = "M 698.74 269.62 A 24.98 24.98 0 0 1 698.29 250.93" fill = "none"  stroke="#bfbfbf" stroke-width="4" stroke-linejoin="round" stroke-linecap="round" />
<path d = "M 698.47 204.55 A 66.54 66.54 0 0 1 698.29 250.93" fill = "none"  stroke="#bfbfbf" stroke-width="4" stroke-linejoin="round" stroke-linecap="round" />
<path d = "M 698.47 204.55 A 24.98 24.98 0 0 1 696.94 195.73" fill = "none"  stroke="#bfbfbf" stroke-width="4" stroke-linejoin="round" stroke-linecap="round" />
<path d = "M 674.62 157.94 A 24.98 24.98 0 0 1 667.57 152.27" fill = "none"  stroke="#bfbfbf" stroke-width="4" stroke-linejoin="round" stroke-linecap="round" />
<path d = "M 567.69 239.12 A 66.18 66.18 0 1 1 667.57 152.27" fill = "none"  stroke="#bfbfbf" stroke-width="4" stroke-linejoin="round" stroke-linecap="round" />
<path d = "M 567.69 239.12 A 24.98 24.98 0 0 1 572.68 247.92" fill = "none"  stroke="#bfbfbf" stroke-width="4" stroke-linejoin="round" stroke-linecap="round" />
<path d = "M 573.87 251.29 A 66.54 66.54 0 0 1 572.68 247.92" fill = "none"  stroke="#bfbfbf" stroke-width="4" stroke-linejoin="round" stroke-linecap="round" />
<path d = "M 573.87 251.29 A 24.98 24.98 0 0 1 573.53 269.99" fill = "none"  stroke="#bfbfbf" stroke-width="4" stroke-linejoin="round" stroke-linecap="round" />
<path d = "M 572.00 274.43 A 33.30 33.30 0 0 1 573.53 269.99" fill = "none"  stroke="#bfbfbf" stroke-width="4" stroke-linejoin="round" stroke-linecap="round" />
<path d = "M 572.00 274.43 A 24.98 24.98 0 0 1 555.99 291.61" fill = "none"  stroke="#bfbfbf" stroke-width="4" stroke-linejoin="round" stroke-linecap="round" />
<path d = "M 539.61 301.06 A 49.60 49.60 0 0 1 555.99 291.61" fill = "none"  stroke="#bfbfbf" stroke-width="4" stroke-linejoin="round" stroke-linecap="round" />
<path d = "M 539.61 301.06 A 24.98 24.98 0 0 1 516.82 306.34" fill = "none"  stroke="#bfbfbf" stroke-width="4" stroke-linejoin="round" stroke-linecap="round" />
<path d = "M 502.62 305.70 A 33.30 33.30 0 0 1 516.82 306.34" fill = "none"  stroke="#bfbfbf" stroke-width="4" stroke-linejoin="round" stroke-linecap="round" />
<path d = "M 502.62 305.70 A 24.98 24.98 0 0 1 481.21 299.21" fill = "none"  stroke="#bfbfbf" stroke-width="4" stroke-linejoin="round" stroke-linecap="round" />
<path d = "M 389.99 332.24 A 54.27 54.27 0 0 1 481.21 299.21" fill = "none"  stroke="#bfbfbf" stroke-width="4" stroke-linejoin="round" stroke-linecap="round" />
<path d = "M 389.99 332.24 A 24.98 24.98 0 0 1 379.77 349.57" fill = "none"  stroke="#bfbfbf" stroke-width="4" stroke-linejoin="round" stroke-linecap="round" />
<path d = "M 359.35 410.18 A 54.88 54.88 0 0 1 379.77 349.57" fill = "none"  stroke="#bfbfbf" stroke-width="4" stroke-linejoin="round" stroke-linecap="round" />
<path d = "M 359.35 410.18 A 24.98 24.98 0 0 1 360.06 421.86" fill = "none"  stroke="#bfbfbf" stroke-width="4" stroke-linejoin="round" stroke-linecap="round" />
<circle cx="477.25" cy="237.40" r="14.78" fill="#d2d2d2" stroke="#bfbfbf" stroke-width="2" stroke-linejoin="round" stroke-linecap="round" />
<text x="477.25" y="235.80" fill="black" font-family="Arial" font-size="8" font-style="normal" font-weight="bold" text-anchor="middle">  LEU </text>
<text x="477.25" y="243.80" fill="black" font-family="Arial" font-size="8" font-style="normal" font-weight="bold" text-anchor="middle">  14A </text>
<circle cx="439.09" cy="242.59" r="14.78" fill="#d2d2d2" stroke="#bfbfbf" stroke-width="2" stroke-linejoin="round" stroke-linecap="round" />
<text x="439.09" y="240.99" fill="black" font-family="Arial" font-size="8" font-style="normal" font-weight="bold" text-anchor="middle">  VAL </text>
<text x="439.09" y="248.99" fill="black" font-family="Arial" font-size="8" font-style="normal" font-weight="bold" text-anchor="middle">  22A </text>
<circle cx="686.71" cy="450.32" r="14.78" fill="#d2d2d2" stroke="#bfbfbf" stroke-width="2" stroke-linejoin="round" stroke-linecap="round" />
<text x="686.71" y="448.72" fill="black" font-family="Arial" font-size="8" font-style="normal" font-weight="bold" text-anchor="middle">  ALA </text>
<text x="686.71" y="456.72" fill="black" font-family="Arial" font-size="8" font-style="normal" font-weight="bold" text-anchor="middle">  39A </text>
<circle cx="557.02" cy="545.85" r="14.78" fill="#d2d2d2" stroke="#bfbfbf" stroke-width="2" stroke-linejoin="round" stroke-linecap="round" />
<text x="557.02" y="544.25" fill="black" font-family="Arial" font-size="8" font-style="normal" font-weight="bold" text-anchor="middle">  ILE </text>
<text x="557.02" y="552.25" fill="black" font-family="Arial" font-size="8" font-style="normal" font-weight="bold" text-anchor="middle">  71A </text>
<circle cx="517.48" cy="557.21" r="14.78" fill="#d2d2d2" stroke="#bfbfbf" stroke-width="2" stroke-linejoin="round" stroke-linecap="round" />
<text x="517.48" y="555.61" fill="black" font-family="Arial" font-size="8" font-style="normal" font-weight="bold" text-anchor="middle">  MET </text>
<text x="517.48" y="563.61" fill="black" font-family="Arial" font-size="8" font-style="normal" font-weight="bold" text-anchor="middle">  89A </text>
<circle cx="379.79" cy="555.91" r="14.78" fill="#d2d2d2" stroke="#bfbfbf" stroke-width="2" stroke-linejoin="round" stroke-linecap="round" />
<text x="379.79" y="554.31" fill="black" font-family="Arial" font-size="8" font-style="normal" font-weight="bold" text-anchor="middle">  GLU </text>
<text x="379.79" y="562.31" fill="black" font-family="Arial" font-size="8" font-style="normal" font-weight="bold" text-anchor="middle">  90A </text>
<circle cx="711.23" cy="381.90" r="14.78" fill="#d2d2d2" stroke="#bfbfbf" stroke-width="2" stroke-linejoin="round" stroke-linecap="round" />
<text x="711.23" y="380.30" fill="black" font-family="Arial" font-size="8" font-style="normal" font-weight="bold" text-anchor="middle">  TYR </text>
<text x="711.23" y="388.30" fill="black" font-family="Arial" font-size="8" font-style="normal" font-weight="bold" text-anchor="middle">  91A </text>
<circle cx="716.28" cy="345.73" r="14.78" fill="#d2d2d2" stroke="#bfbfbf" stroke-width="2" stroke-linejoin="round" stroke-linecap="round" />
<text x="716.28" y="344.13" fill="black" font-family="Arial" font-size="8" font-style="normal" font-weight="bold" text-anchor="middle">  VAL </text>
<text x="716.28" y="352.13" fill="black" font-family="Arial" font-size="8" font-style="normal" font-weight="bold" text-anchor="middle">  92A </text>
<circle cx="741.45" cy="264.16" r="14.78" fill="#d2d2d2" stroke="#bfbfbf" stroke-width="2" stroke-linejoin="round" stroke-linecap="round" />
<text x="741.45" y="262.56" fill="black" font-family="Arial" font-size="8" font-style="normal" font-weight="bold" text-anchor="middle">  PRO </text>
<text x="741.45" y="270.56" fill="black" font-family="Arial" font-size="8" font-style="normal" font-weight="bold" text-anchor="middle">  93A </text>
<circle cx="772.88" cy="281.84" r="14.78" fill="#d2d2d2" stroke="#bfbfbf" stroke-width="2" stroke-linejoin="round" stroke-linecap="round" />
<text x="772.88" y="280.24" fill="black" font-family="Arial" font-size="8" font-style="normal" font-weight="bold" text-anchor="middle">  LEU </text>
<text x="772.88" y="288.24" fill="black" font-family="Arial" font-size="8" font-style="normal" font-weight="bold" text-anchor="middle">  94A </text>
<circle cx="739.02" cy="307.91" r="14.78" fill="#d2d2d2" stroke="#bfbfbf" stroke-width="2" stroke-linejoin="round" stroke-linecap="round" />
<text x="739.02" y="306.31" fill="black" font-family="Arial" font-size="8" font-style="normal" font-weight="bold" text-anchor="middle">  GLY </text>
<text x="739.02" y="314.31" fill="black" font-family="Arial" font-size="8" font-style="normal" font-weight="bold" text-anchor="middle">  95A </text>
<circle cx="333.48" cy="507.21" r="14.78" fill="#d2d2d2" stroke="#bfbfbf" stroke-width="2" stroke-linejoin="round" stroke-linecap="round" />
<text x="333.48" y="505.61" fill="black" font-family="Arial" font-size="8" font-style="normal" font-weight="bold" text-anchor="middle">  SER </text>
<text x="333.48" y="513.61" fill="black" font-family="Arial" font-size="8" font-style="normal" font-weight="bold" text-anchor="middle">  96A </text>
<circle cx="590.21" cy="494.93" r="14.78" fill="#d2d2d2" stroke="#bfbfbf" stroke-width="2" stroke-linejoin="round" stroke-linecap="round" />
<text x="590.21" y="493.53" fill="black" font-family="Arial" font-size="7" font-style="normal" font-weight="bold" text-anchor="middle">  LEU </text>
<text x="590.21" y="500.53" fill="black" font-family="Arial" font-size="7" font-style="normal" font-weight="bold" text-anchor="middle">  141A </text>
<circle cx="374.79" cy="518.02" r="14.78" fill="#d2d2d2" stroke="#bfbfbf" stroke-width="2" stroke-linejoin="round" stroke-linecap="round" />
<text x="374.79" y="516.62" fill="black" font-family="Arial" font-size="7" font-style="normal" font-weight="bold" text-anchor="middle">  ASP </text>
<text x="374.79" y="523.62" fill="black" font-family="Arial" font-size="7" font-style="normal" font-weight="bold" text-anchor="middle">  152A </text>
<path d="M 692.15 120.30 L 702.39 132.13 C 703.47 134.01 703.97 135.86 703.97 138.04 C 703.97 144.56 698.68 149.86 692.15 149.86 C 685.62 149.86 680.33 144.56 680.33 138.04 C 680.33 135.86 680.82 134.01 681.91 132.13 Z" fill="#d2d2d2" stroke="#bfbfbf" stroke-width="2" stroke-linejoin="round" stroke-linecap="round" />
<text x="692.15" y="135.65" fill="black" font-family="Arial" font-size="6" font-style="normal" font-weight="bold" text-anchor="middle">  HOH </text>
<text x="692.15" y="141.65" fill="black" font-family="Arial" font-size="6" font-style="normal" font-weight="bold" text-anchor="middle">  1837A </text>
<path d="M 487.93 508.96 L 498.17 520.78 C 499.25 522.66 499.75 524.51 499.75 526.69 C 499.75 533.22 494.46 538.51 487.93 538.51 C 481.40 538.51 476.11 533.22 476.11 526.69 C 476.11 524.51 476.60 522.66 477.69 520.78 Z" fill="#d2d2d2" stroke="#bfbfbf" stroke-width="2" stroke-linejoin="round" stroke-linecap="round" />
<text x="487.93" y="524.31" fill="black" font-family="Arial" font-size="6" font-style="normal" font-weight="bold" text-anchor="middle">  HOH </text>
<text x="487.93" y="530.31" fill="black" font-family="Arial" font-size="6" font-style="normal" font-weight="bold" text-anchor="middle">  1838A </text>
<path d="M 363.04 306.67 L 373.28 318.50 C 374.36 320.38 374.86 322.23 374.86 324.41 C 374.86 330.94 369.57 336.23 363.04 336.23 C 356.51 336.23 351.22 330.94 351.22 324.41 C 351.22 322.23 351.71 320.38 352.80 318.50 Z" fill="#d2d2d2" stroke="#bfbfbf" stroke-width="2" stroke-linejoin="round" stroke-linecap="round" />
<text x="363.04" y="322.02" fill="black" font-family="Arial" font-size="6" font-style="normal" font-weight="bold" text-anchor="middle">  HOH </text>
<text x="363.04" y="328.02" fill="black" font-family="Arial" font-size="6" font-style="normal" font-weight="bold" text-anchor="middle">  2262A </text>
<path d="M 343.68 455.81 L 353.92 467.63 C 355.00 469.51 355.50 471.36 355.50 473.54 C 355.50 480.07 350.21 485.36 343.68 485.36 C 337.15 485.36 331.86 480.07 331.86 473.54 C 331.86 471.36 332.35 469.51 333.44 467.63 Z" fill="#d2d2d2" stroke="#bfbfbf" stroke-width="2" stroke-linejoin="round" stroke-linecap="round" />
<text x="343.68" y="471.16" fill="black" font-family="Arial" font-size="6" font-style="normal" font-weight="bold" text-anchor="middle">  HOH </text>
<text x="343.68" y="477.16" fill="black" font-family="Arial" font-size="6" font-style="normal" font-weight="bold" text-anchor="middle">  3349A </text>
<path d="M 332.57 401.86 L 342.80 413.68 C 343.89 415.56 344.39 417.41 344.39 419.59 C 344.39 426.12 339.09 431.41 332.57 431.41 C 326.04 431.41 320.74 426.12 320.74 419.59 C 320.74 417.41 321.24 415.56 322.33 413.68 Z" fill="#d2d2d2" stroke="#bfbfbf" stroke-width="2" stroke-linejoin="round" stroke-linecap="round" />
<text x="332.57" y="417.21" fill="black" font-family="Arial" font-size="6" font-style="normal" font-weight="bold" text-anchor="middle">  HOH </text>
<text x="332.57" y="423.21" fill="black" font-family="Arial" font-size="6" font-style="normal" font-weight="bold" text-anchor="middle">  3697A </text>
<path d="M 517.74 226.81 L 527.97 238.63 C 529.06 240.51 529.56 242.36 529.56 244.54 C 529.56 251.07 524.27 256.36 517.74 256.36 C 511.21 256.36 505.92 251.07 505.92 244.54 C 505.92 242.36 506.41 240.51 507.50 238.63 Z" fill="#d2d2d2" stroke="#bfbfbf" stroke-width="2" stroke-linejoin="round" stroke-linecap="round" />
<text x="517.74" y="242.16" fill="black" font-family="Arial" font-size="6" font-style="normal" font-weight="bold" text-anchor="middle">  HOH </text>
<text x="517.74" y="248.16" fill="black" font-family="Arial" font-size="6" font-style="normal" font-weight="bold" text-anchor="middle">  7588A </text>
<path d="M 716.57 147.46 L 726.81 159.29 C 727.90 161.17 728.39 163.02 728.39 165.20 C 728.39 171.73 723.10 177.02 716.57 177.02 C 710.04 177.02 704.75 171.73 704.75 165.20 C 704.75 163.02 705.25 161.17 706.33 159.29 Z" fill="#d2d2d2" stroke="#bfbfbf" stroke-width="2" stroke-linejoin="round" stroke-linecap="round" />
<text x="716.57" y="162.81" fill="black" font-family="Arial" font-size="6" font-style="normal" font-weight="bold" text-anchor="middle">  HOH </text>
<text x="716.57" y="168.81" fill="black" font-family="Arial" font-size="6" font-style="normal" font-weight="bold" text-anchor="middle">  7867A </text>
<line x1="674.87" y1="291.58" x2="707.30" y2="333.99" stroke="#9b6464" stroke-linejoin="round" stroke-linecap="round" />
<circle cx="691.09" cy="312.79" r="6.16" fill="#ffc8c8" stroke="#9b6464" stroke-linejoin="round" stroke-linecap="round" />
<polygon points="690.47,306.63 691.70,306.63 688.42,314.33 " fill="#9b6464" stroke="#9b6464" stroke-linejoin="round" stroke-linecap="round" />
<line x1="688.42" y1="314.33" x2="693.75" y2="311.25" stroke="#9b6464" stroke-linejoin="round" stroke-linecap="round" />
<line x1="693.75" y1="311.25" x2="691.09" y2="318.95" stroke="#9b6464" stroke-linejoin="round" stroke-linecap="round" />
<line x1="693.75" y1="311.25" x2="691.09" y2="318.95" stroke="#9b6464" stroke-linejoin="round" stroke-linecap="round" />
<polygon points="691.09,318.95 690.39,315.32 691.49,317.78 " fill="#9b6464" stroke="#9b6464" stroke-linejoin="round" stroke-linecap="round" />
<polygon points="691.09,318.95 693.88,316.53 691.49,317.78 " fill="#9b6464" stroke="#9b6464" stroke-linejoin="round" stroke-linecap="round" />
<line x1="507.54" y1="330.35" x2="506.46" y2="318.08" stroke="#9b6464" stroke-linejoin="round" stroke-linecap="round" />
<path d="M 512.33 314.47 C 512.63 317.86 510.12 320.85 506.73 321.14 C 503.35 321.44 500.36 318.94 500.06 315.55 L 499.79 312.48 L 502.86 312.21 L 503.13 315.28 L 504.97 315.12 L 504.70 312.05 L 507.15 311.84 L 507.42 314.90 L 509.26 314.74 L 508.99 311.68 L 512.06 311.41 Z" fill="#ffc8c8" stroke="#9b6464" stroke-linejoin="round" stroke-linecap="round" />
<line x1="546.78" y1="403.27" x2="553.85" y2="413.36" stroke="#64649b" stroke-linejoin="round" stroke-linecap="round" />
<line x1="554.86" y1="420.17" x2="557.21" y2="423.53" stroke="#64649b" stroke-width="3" stroke-linejoin="round" />
<line x1="559.90" y1="416.63" x2="562.26" y2="420.00" stroke="#64649b" stroke-width="3" stroke-linejoin="round" />
<path d="M 550.57 419.41 C 548.62 416.62 549.30 412.78 552.08 410.83 C 554.87 408.88 558.71 409.56 560.66 412.35 L 562.42 414.87 L 552.34 421.93 Z" fill="#c8c8ff" stroke="#64649b" stroke-linejoin="round" stroke-linecap="round" />
<line x1="643.62" y1="338.94" x2="655.88" y2="340.02" stroke="#9b6464" stroke-linejoin="round" stroke-linecap="round" />
<path d="M 658.41 346.42 C 655.03 346.12 652.52 343.13 652.82 339.75 C 653.11 336.36 656.10 333.85 659.49 334.15 L 662.55 334.42 L 662.28 337.49 L 659.22 337.22 L 659.06 339.06 L 662.12 339.33 L 661.91 341.78 L 658.84 341.51 L 658.68 343.35 L 661.75 343.62 L 661.48 346.69 Z" fill="#ffc8c8" stroke="#9b6464" stroke-linejoin="round" stroke-linecap="round" />
<line x1="381.03" y1="504.62" x2="386.24" y2="493.46" stroke="#64649b" stroke-linejoin="round" stroke-linecap="round" />
<line x1="391.63" y1="489.18" x2="393.36" y2="485.46" stroke="#64649b" stroke-width="3" stroke-linejoin="round" />
<line x1="386.05" y1="486.58" x2="387.78" y2="482.86" stroke="#64649b" stroke-width="3" stroke-linejoin="round" />
<path d="M 393.12 493.28 C 391.68 496.36 388.02 497.69 384.94 496.25 C 381.85 494.82 380.52 491.15 381.96 488.07 L 383.26 485.28 L 394.42 490.49 Z" fill="#c8c8ff" stroke="#64649b" stroke-linejoin="round" stroke-linecap="round" />
<line x1="387.17" y1="543.11" x2="393.33" y2="532.45" stroke="#9b6464" stroke-linejoin="round" stroke-linecap="round" />
<path d="M 400.20 532.86 C 398.50 535.80 394.74 536.81 391.79 535.11 C 388.85 533.41 387.84 529.65 389.54 526.70 L 391.08 524.04 L 393.74 525.57 L 392.20 528.24 L 393.80 529.16 L 395.34 526.50 L 397.48 527.73 L 395.94 530.40 L 397.54 531.32 L 399.08 528.65 L 401.74 530.19 Z" fill="#ffc8c8" stroke="#9b6464" stroke-linejoin="round" stroke-linecap="round" />
<line x1="712.48" y1="331.45" x2="709.31" y2="319.55" stroke="#64649b" stroke-linejoin="round" stroke-linecap="round" />
<line x1="710.70" y1="312.81" x2="709.64" y2="308.84" stroke="#64649b" stroke-width="3" stroke-linejoin="round" />
<line x1="704.75" y1="314.39" x2="703.69" y2="310.43" stroke="#64649b" stroke-width="3" stroke-linejoin="round" />
<path d="M 714.47 314.99 C 715.34 318.28 713.39 321.65 710.10 322.53 C 706.81 323.40 703.44 321.45 702.57 318.16 L 701.77 315.19 L 713.67 312.02 Z" fill="#c8c8ff" stroke="#64649b" stroke-linejoin="round" stroke-linecap="round" />
<line x1="343.93" y1="496.76" x2="352.64" y2="488.05" stroke="#64649b" stroke-linejoin="round" stroke-linecap="round" />
<line x1="359.17" y1="485.87" x2="362.07" y2="482.97" stroke="#64649b" stroke-width="3" stroke-linejoin="round" />
<line x1="354.81" y1="481.52" x2="357.72" y2="478.62" stroke="#64649b" stroke-width="3" stroke-linejoin="round" />
<path d="M 359.17 490.23 C 356.76 492.63 352.86 492.63 350.46 490.23 C 348.05 487.82 348.05 483.92 350.46 481.52 L 352.64 479.34 L 361.34 488.05 Z" fill="#c8c8ff" stroke="#64649b" stroke-linejoin="round" stroke-linecap="round" />
<circle cx="27.43" cy="39.50" r="15.36" fill="none" stroke="black" stroke-linejoin="round" stroke-linecap="round" />
<path d="M 27.43 68.30 L 38.07 80.59 C 39.20 82.54 39.71 84.47 39.71 86.73 C 39.71 93.51 34.21 99.01 27.43 99.01 C 20.64 99.01 15.14 93.51 15.14 86.73 C 15.14 84.47 15.66 82.54 16.79 80.59 Z" fill="none" stroke="black" stroke-linejoin="round" stroke-linecap="round" />
<line x1="12.07" y1="155.50" x2="42.79" y2="155.50" stroke="#9b6464" stroke-linejoin="round" stroke-linecap="round" />
<circle cx="27.43" cy="155.50" r="7.68" fill="#ffc8c8" stroke="#9b6464" stroke-linejoin="round" stroke-linecap="round" />
<polygon points="26.66,147.82 28.20,147.82 24.10,157.42 " fill="#9b6464" stroke="#9b6464" stroke-linejoin="round" stroke-linecap="round" />
<line x1="24.10" y1="157.42" x2="30.75" y2="153.58" stroke="#9b6464" stroke-linejoin="round" stroke-linecap="round" />
<line x1="30.75" y1="153.58" x2="27.43" y2="163.18" stroke="#9b6464" stroke-linejoin="round" stroke-linecap="round" />
<line x1="30.75" y1="153.58" x2="27.43" y2="163.18" stroke="#9b6464" stroke-linejoin="round" stroke-linecap="round" />
<polygon points="27.43,163.18 26.56,158.65 27.93,161.73 " fill="#9b6464" stroke="#9b6464" stroke-linejoin="round" stroke-linecap="round" />
<polygon points="27.43,163.18 30.91,160.16 27.93,161.73 " fill="#9b6464" stroke="#9b6464" stroke-linejoin="round" stroke-linecap="round" />
<line x1="12.07" y1="201.50" x2="35.11" y2="201.50" stroke="#64649b" stroke-linejoin="round" stroke-linecap="round" />
<line x1="42.79" y1="205.34" x2="47.90" y2="205.34" stroke="#64649b" stroke-width="3" stroke-linejoin="round" />
<line x1="42.79" y1="197.66" x2="47.90" y2="197.66" stroke="#64649b" stroke-width="3" stroke-linejoin="round" />
<path d="M 38.95 209.18 C 34.71 209.18 31.27 205.74 31.27 201.50 C 31.27 197.26 34.71 193.82 38.95 193.82 L 42.79 193.82 L 42.79 209.18 Z" fill="#c8c8ff" stroke="#64649b" stroke-linejoin="round" stroke-linecap="round" />
<line x1="12.07" y1="247.50" x2="35.11" y2="247.50" stroke="#9b6464" stroke-linejoin="round" stroke-linecap="round" />
<path d="M 38.95 255.18 C 34.71 255.18 31.27 251.74 31.27 247.50 C 31.27 243.26 34.71 239.82 38.95 239.82 L 42.79 239.82 L 42.79 243.66 L 38.95 243.66 L 38.95 245.96 L 42.79 245.96 L 42.79 249.04 L 38.95 249.04 L 38.95 251.34 L 42.79 251.34 L 42.79 255.18 Z" fill="#ffc8c8" stroke="#9b6464" stroke-linejoin="round" stroke-linecap="round" />
<text x="55.07" y="43.50" fill="black" font-family="Arial" font-size="12" font-style="normal" font-weight="bold" text-anchor="start">  amino acid </text>
<text x="55.07" y="89.50" fill="black" font-family="Arial" font-size="12" font-style="normal" font-weight="bold" text-anchor="start">  water </text>
<text x="55.07" y="159.50" fill="black" font-family="Arial" font-size="12" font-style="normal" font-weight="bold" text-anchor="start">  acceptor clash </text>
<text x="55.07" y="205.50" fill="black" font-family="Arial" font-size="12" font-style="normal" font-weight="bold" text-anchor="start">  unpaired donor </text>
<text x="55.07" y="251.50" fill="black" font-family="Arial" font-size="12" font-style="normal" font-weight="bold" text-anchor="start">  unpaired acceptor </text>
<path d="M 13.50 10.80 L 166.50 10.80 C 170.48 10.80 173.70 14.02 173.70 18.00 L 173.70 102.50 C 173.70 106.48 170.48 109.70 166.50 109.70 L 13.50 109.70 C 9.52 109.70 6.30 106.48 6.30 102.50 L 6.30 18.00 C 6.30 14.02 9.52 10.80 13.50 10.80 Z" fill="none" stroke="#bfbfbf" stroke-width="3" stroke-linejoin="round" stroke-linecap="round" />
<rect x="34.54" y="4.5" width="110.91" height="9" fill="white" stroke="white" stroke-linejoin="round" stroke-linecap="round" />
<text x="90.00" y="13.67" fill="black" font-family="Arial" font-size="14" font-style="normal" font-weight="bold" text-anchor="middle">  Residue Styles </text>
<path d="M 13.50 126.80 L 166.50 126.80 C 170.48 126.80 173.70 130.02 173.70 134.00 L 173.70 264.50 C 173.70 268.48 170.48 271.70 166.50 271.70 L 13.50 271.70 C 9.52 271.70 6.30 268.48 6.30 264.50 L 6.30 134.00 C 6.30 130.02 9.52 126.80 13.50 126.80 Z" fill="none" stroke="#bfbfbf" stroke-width="3" stroke-linejoin="round" stroke-linecap="round" />
<rect x="25.6" y="120.5" width="128.8" height="9" fill="white" stroke="white" stroke-linejoin="round" stroke-linecap="round" />
<text x="90.00" y="129.67" fill="black" font-family="Arial" font-size="14" font-style="normal" font-weight="bold" text-anchor="middle">  Interaction Styles </text>
<path d="M 10.50 0.50 L 889.50 0.50 C 895.02 0.50 899.50 4.98 899.50 10.50 L 899.50 589.50 C 899.50 595.02 895.02 599.50 889.50 599.50 L 10.50 599.50 C 4.98 599.50 0.50 595.02 0.50 589.50 L 0.50 10.50 C 0.50 4.98 4.98 0.50 10.50 0.50 Z" fill="none" stroke="#bfbfbf" stroke-linejoin="round" stroke-linecap="round" />
</svg>
