<?xml version="1.0" encoding="UTF-8"?>
<!DOCTYPE svg PUBLIC "-//W3C//DTD SVG 1.1//EN"
  "http://www.w3.org/Graphics/SVG/1.1/DTD/svg11.dtd">
<svg xmlns="http://www.w3.org/2000/svg" xmlns:xlink="http://www.w3.org/1999/xlink"   viewBox="0.00 0.00 900.00 600.00">
<!-- Created by OpenEye Scientific Software -->
<!-- Creation Date Thu Mar 18 12:48:01 2021 -->
<rect width="900.00" height="600.00" fill="white" />
<rect x="180" y="0" width="720" height="600" fill="white" />
<text x="540.00" y="52.50" fill="black" font-family="Arial" font-size="45" font-style="normal" font-weight="normal" text-anchor="middle">  MOL </text>
<line x1="650.88" y1="444.90" x2="610.60" y2="445.01" stroke="black" stroke-width="4" stroke-linejoin="round" stroke-linecap="round" />
<line x1="644.41" y1="436.47" x2="617.02" y2="436.55" stroke="black" stroke-width="4" stroke-linejoin="round" stroke-linecap="round" />
<line x1="650.88" y1="444.90" x2="671.12" y2="410.07" stroke="black" stroke-width="4" stroke-linejoin="round" stroke-linecap="round" />
<line x1="610.60" y1="445.01" x2="590.35" y2="409.95" stroke="black" stroke-width="4" stroke-linejoin="round" stroke-linecap="round" />
<line x1="590.35" y1="409.95" x2="564.68" y2="410.02" stroke="black" stroke-width="4" stroke-linejoin="round" stroke-linecap="round" />
<line x1="590.35" y1="409.95" x2="610.39" y2="374.77" stroke="black" stroke-width="4" stroke-linejoin="round" stroke-linecap="round" />
<line x1="600.89" y1="408.50" x2="614.52" y2="384.57" stroke="black" stroke-width="4" stroke-linejoin="round" stroke-linecap="round" />
<line x1="610.39" y1="374.77" x2="590.25" y2="339.88" stroke="black" stroke-width="4" stroke-linejoin="round" stroke-linecap="round" />
<line x1="610.39" y1="374.77" x2="650.87" y2="375.01" stroke="black" stroke-width="4" stroke-linejoin="round" stroke-linecap="round" />
<line x1="650.87" y1="375.01" x2="663.77" y2="352.81" stroke="black" stroke-width="4" stroke-linejoin="round" stroke-linecap="round" />
<line x1="650.87" y1="375.01" x2="671.12" y2="410.07" stroke="black" stroke-width="4" stroke-linejoin="round" stroke-linecap="round" />
<line x1="646.80" y1="384.84" x2="660.57" y2="408.68" stroke="black" stroke-width="4" stroke-linejoin="round" stroke-linecap="round" />
<line x1="590.25" y1="335.66" x2="563.14" y2="335.66" stroke="black" stroke-width="4" stroke-linejoin="round" stroke-linecap="round" />
<line x1="590.25" y1="344.11" x2="563.14" y2="344.11" stroke="black" stroke-width="4" stroke-linejoin="round" stroke-linecap="round" />
<line x1="590.25" y1="339.88" x2="604.52" y2="315.16" stroke="black" stroke-width="4" stroke-linejoin="round" stroke-linecap="round" />
<line x1="604.52" y1="294.84" x2="590.25" y2="270.12" stroke="black" stroke-width="4" stroke-linejoin="round" stroke-linecap="round" />
<line x1="590.25" y1="270.12" x2="610.49" y2="235.29" stroke="black" stroke-width="4" stroke-linejoin="round" stroke-linecap="round" />
<line x1="586.18" y1="260.30" x2="599.95" y2="236.62" stroke="black" stroke-width="4" stroke-linejoin="round" stroke-linecap="round" />
<line x1="590.25" y1="270.12" x2="549.97" y2="270.23" stroke="black" stroke-width="4" stroke-linejoin="round" stroke-linecap="round" />
<line x1="610.49" y1="235.29" x2="590.24" y2="200.23" stroke="black" stroke-width="4" stroke-linejoin="round" stroke-linecap="round" />
<line x1="590.24" y1="200.23" x2="561.49" y2="200.06" stroke="black" stroke-width="4" stroke-linejoin="round" stroke-linecap="round" />
<line x1="583.72" y1="208.63" x2="556.19" y2="208.47" stroke="black" stroke-width="4" stroke-linejoin="round" stroke-linecap="round" />
<line x1="543.95" y1="210.18" x2="529.72" y2="235.17" stroke="black" stroke-width="4" stroke-linejoin="round" stroke-linecap="round" />
<line x1="529.72" y1="235.17" x2="501.18" y2="235.25" stroke="black" stroke-width="4" stroke-linejoin="round" stroke-linecap="round" />
<line x1="529.72" y1="235.17" x2="549.97" y2="270.23" stroke="black" stroke-width="4" stroke-linejoin="round" stroke-linecap="round" />
<line x1="540.27" y1="236.56" x2="554.04" y2="260.40" stroke="black" stroke-width="4" stroke-linejoin="round" stroke-linecap="round" />
<line x1="483.60" y1="245.47" x2="469.40" y2="270.23" stroke="black" stroke-width="4" stroke-linejoin="round" stroke-linecap="round" />
<line x1="469.40" y1="270.23" x2="442.30" y2="270.31" stroke="black" stroke-width="4" stroke-linejoin="round" stroke-linecap="round" />
<line x1="465.75" y1="272.35" x2="479.38" y2="295.79" stroke="black" stroke-width="4" stroke-linejoin="round" stroke-linecap="round" />
<line x1="473.05" y1="268.11" x2="486.68" y2="291.54" stroke="black" stroke-width="4" stroke-linejoin="round" stroke-linecap="round" />
<line x1="408.88" y1="235.53" x2="422.51" y2="258.96" stroke="black" stroke-width="4" stroke-linejoin="round" stroke-linecap="round" />
<text x="671.12" y="345.79" fill="black" font-family="Arial" font-size="17" font-style="normal" font-weight="normal" text-anchor="middle">  Cl </text>
<text x="549.97" y="345.49" fill="black" font-family="Arial" font-size="17" font-style="normal" font-weight="normal" text-anchor="middle">  O </text>
<text x="610.39" y="310.61" fill="black" font-family="Arial" font-size="17" font-style="normal" font-weight="normal" text-anchor="middle">  N </text>
<text x="622.29" y="310.61" fill="black" font-family="Arial" font-size="17" font-style="normal" font-weight="normal" text-anchor="middle">  H </text>
<text x="549.76" y="205.60" fill="black" font-family="Arial" font-size="17" font-style="normal" font-weight="normal" text-anchor="middle">  N </text>
<text x="489.44" y="240.90" fill="black" font-family="Arial" font-size="17" font-style="normal" font-weight="normal" text-anchor="middle">  N </text>
<text x="489.44" y="227.30" fill="black" font-family="Arial" font-size="17" font-style="normal" font-weight="normal" text-anchor="middle">  H </text>
<text x="489.65" y="310.66" fill="black" font-family="Arial" font-size="17" font-style="normal" font-weight="normal" text-anchor="middle">  O </text>
<text x="550.07" y="415.68" fill="black" font-family="Arial" font-size="17" font-style="normal" font-weight="normal" text-anchor="middle">  Cl </text>
<text x="429.12" y="275.96" fill="black" font-family="Arial" font-size="17" font-style="normal" font-weight="normal" text-anchor="middle">  O </text>
<path d = "M 710.13 470.94 A 64.73 64.73 0 0 1 625.12 504.28" fill = "none"  stroke="#bfbfbf" stroke-width="5" stroke-linejoin="round" stroke-linecap="round" />
<path d = "M 710.13 470.94 A 27.23 27.23 0 0 1 716.95 461.56" fill = "none"  stroke="#bfbfbf" stroke-width="5" stroke-linejoin="round" stroke-linecap="round" />
<path d = "M 732.87 379.43 A 68.94 68.94 0 0 1 716.95 461.56" fill = "none"  stroke="#bfbfbf" stroke-width="5" stroke-linejoin="round" stroke-linecap="round" />
<path d = "M 732.87 379.43 A 27.23 27.23 0 0 1 731.29 359.14" fill = "none"  stroke="#bfbfbf" stroke-width="5" stroke-linejoin="round" stroke-linecap="round" />
<path d = "M 694.95 281.77 A 63.09 63.09 0 0 1 731.29 359.14" fill = "none"  stroke="#bfbfbf" stroke-width="5" stroke-linejoin="round" stroke-linecap="round" />
<path d = "M 694.95 281.77 A 27.23 27.23 0 0 1 678.67 250.59" fill = "none"  stroke="#bfbfbf" stroke-width="5" stroke-linejoin="round" stroke-linecap="round" />
<path d = "M 606.33 165.54 A 69.88 69.88 0 0 1 678.67 250.59" fill = "none"  stroke="#bfbfbf" stroke-width="5" stroke-linejoin="round" stroke-linecap="round" />
<path d = "M 606.33 165.54 A 27.23 27.23 0 0 1 598.51 164.87" fill = "none"  stroke="#bfbfbf" stroke-width="5" stroke-linejoin="round" stroke-linecap="round" />
<path d = "M 578.88 165.74 A 36.31 36.31 0 0 1 598.51 164.87" fill = "none"  stroke="#bfbfbf" stroke-width="5" stroke-linejoin="round" stroke-linecap="round" />
<path d = "M 578.88 165.74 A 27.23 27.23 0 0 1 561.53 165.64" fill = "none"  stroke="#bfbfbf" stroke-width="5" stroke-linejoin="round" stroke-linecap="round" />
<path d = "M 524.46 173.93 A 36.31 36.31 0 0 1 561.53 165.64" fill = "none"  stroke="#bfbfbf" stroke-width="5" stroke-linejoin="round" stroke-linecap="round" />
<path d = "M 524.46 173.93 A 27.23 27.23 0 0 1 513.32 180.48" fill = "none"  stroke="#bfbfbf" stroke-width="5" stroke-linejoin="round" stroke-linecap="round" />
<path d = "M 501.74 185.40 A 57.09 57.09 0 0 1 513.32 180.48" fill = "none"  stroke="#bfbfbf" stroke-width="5" stroke-linejoin="round" stroke-linecap="round" />
<path d = "M 501.74 185.40 A 27.23 27.23 0 0 1 488.78 188.89" fill = "none"  stroke="#bfbfbf" stroke-width="5" stroke-linejoin="round" stroke-linecap="round" />
<path d = "M 433.66 316.53 A 27.23 27.23 0 0 1 447.51 318.80" fill = "none"  stroke="#bfbfbf" stroke-width="5" stroke-linejoin="round" stroke-linecap="round" />
<path d = "M 450.31 319.97 A 53.28 53.28 0 0 1 447.51 318.80" fill = "none"  stroke="#bfbfbf" stroke-width="5" stroke-linejoin="round" stroke-linecap="round" />
<path d = "M 450.31 319.97 A 27.23 27.23 0 0 1 461.59 328.11" fill = "none"  stroke="#bfbfbf" stroke-width="5" stroke-linejoin="round" stroke-linecap="round" />
<path d = "M 491.69 341.31 A 36.31 36.31 0 0 1 461.59 328.11" fill = "none"  stroke="#bfbfbf" stroke-width="5" stroke-linejoin="round" stroke-linecap="round" />
<path d = "M 491.69 341.31 A 27.23 27.23 0 0 1 517.55 356.23" fill = "none"  stroke="#bfbfbf" stroke-width="5" stroke-linejoin="round" stroke-linecap="round" />
<path d = "M 519.73 359.98 A 36.31 36.31 0 0 1 517.55 356.23" fill = "none"  stroke="#bfbfbf" stroke-width="5" stroke-linejoin="round" stroke-linecap="round" />
<path d = "M 519.73 359.98 A 27.23 27.23 0 0 1 519.77 390.06" fill = "none"  stroke="#bfbfbf" stroke-width="5" stroke-linejoin="round" stroke-linecap="round" />
<path d = "M 538.71 444.55 A 36.31 36.31 0 0 1 519.77 390.06" fill = "none"  stroke="#bfbfbf" stroke-width="5" stroke-linejoin="round" stroke-linecap="round" />
<path d = "M 538.71 444.55 A 27.23 27.23 0 0 1 556.15 462.21" fill = "none"  stroke="#bfbfbf" stroke-width="5" stroke-linejoin="round" stroke-linecap="round" />
<path d = "M 613.09 502.05 A 57.09 57.09 0 0 1 556.15 462.21" fill = "none"  stroke="#bfbfbf" stroke-width="5" stroke-linejoin="round" stroke-linecap="round" />
<path d = "M 613.09 502.05 A 27.23 27.23 0 0 1 625.12 504.28" fill = "none"  stroke="#bfbfbf" stroke-width="5" stroke-linejoin="round" stroke-linecap="round" />
<circle cx="473.57" cy="494.84" r="16.11" fill="#d2d2d2" stroke="#bfbfbf" stroke-width="2" stroke-linejoin="round" stroke-linecap="round" />
<text x="473.57" y="493.04" fill="black" font-family="Arial" font-size="9" font-style="normal" font-weight="bold" text-anchor="middle">  GLU </text>
<text x="473.57" y="502.04" fill="black" font-family="Arial" font-size="9" font-style="normal" font-weight="bold" text-anchor="middle">  16A </text>
<circle cx="567.55" cy="555.80" r="16.11" fill="#d2d2d2" stroke="#bfbfbf" stroke-width="2" stroke-linejoin="round" stroke-linecap="round" />
<text x="567.55" y="554.00" fill="black" font-family="Arial" font-size="9" font-style="normal" font-weight="bold" text-anchor="middle">  GLY </text>
<text x="567.55" y="563.00" fill="black" font-family="Arial" font-size="9" font-style="normal" font-weight="bold" text-anchor="middle">  17A </text>
<circle cx="778.65" cy="358.77" r="16.11" fill="#d2d2d2" stroke="#bfbfbf" stroke-width="2" stroke-linejoin="round" stroke-linecap="round" />
<text x="778.65" y="356.97" fill="black" font-family="Arial" font-size="9" font-style="normal" font-weight="bold" text-anchor="middle">  VAL </text>
<text x="778.65" y="365.97" fill="black" font-family="Arial" font-size="9" font-style="normal" font-weight="bold" text-anchor="middle">  22A </text>
<circle cx="794.45" cy="320.81" r="16.11" fill="#d2d2d2" stroke="#bfbfbf" stroke-width="2" stroke-linejoin="round" stroke-linecap="round" />
<text x="794.45" y="319.01" fill="black" font-family="Arial" font-size="9" font-style="normal" font-weight="bold" text-anchor="middle">  ALA </text>
<text x="794.45" y="328.01" fill="black" font-family="Arial" font-size="9" font-style="normal" font-weight="bold" text-anchor="middle">  39A </text>
<circle cx="766.36" cy="499.74" r="16.11" fill="#d2d2d2" stroke="#bfbfbf" stroke-width="2" stroke-linejoin="round" stroke-linecap="round" />
<text x="766.36" y="497.94" fill="black" font-family="Arial" font-size="9" font-style="normal" font-weight="bold" text-anchor="middle">  MET </text>
<text x="766.36" y="506.94" fill="black" font-family="Arial" font-size="9" font-style="normal" font-weight="bold" text-anchor="middle">  89A </text>
<circle cx="726.51" cy="229.14" r="16.11" fill="#d2d2d2" stroke="#bfbfbf" stroke-width="2" stroke-linejoin="round" stroke-linecap="round" />
<text x="726.51" y="227.34" fill="black" font-family="Arial" font-size="9" font-style="normal" font-weight="bold" text-anchor="middle">  VAL </text>
<text x="726.51" y="236.34" fill="black" font-family="Arial" font-size="9" font-style="normal" font-weight="bold" text-anchor="middle">  92A </text>
<circle cx="623.35" cy="104.28" r="16.11" fill="#d2d2d2" stroke="#bfbfbf" stroke-width="2" stroke-linejoin="round" stroke-linecap="round" />
<text x="623.35" y="102.48" fill="black" font-family="Arial" font-size="9" font-style="normal" font-weight="bold" text-anchor="middle">  PRO </text>
<text x="623.35" y="111.48" fill="black" font-family="Arial" font-size="9" font-style="normal" font-weight="bold" text-anchor="middle">  93A </text>
<circle cx="579.16" cy="119.02" r="16.11" fill="#d2d2d2" stroke="#bfbfbf" stroke-width="2" stroke-linejoin="round" stroke-linecap="round" />
<text x="579.16" y="117.22" fill="black" font-family="Arial" font-size="9" font-style="normal" font-weight="bold" text-anchor="middle">  GLY </text>
<text x="579.16" y="126.22" fill="black" font-family="Arial" font-size="9" font-style="normal" font-weight="bold" text-anchor="middle">  95A </text>
<circle cx="701.88" cy="560.65" r="16.11" fill="#d2d2d2" stroke="#bfbfbf" stroke-width="2" stroke-linejoin="round" stroke-linecap="round" />
<text x="701.88" y="558.85" fill="black" font-family="Arial" font-size="9" font-style="normal" font-weight="bold" text-anchor="middle">  SER </text>
<text x="701.88" y="567.85" fill="black" font-family="Arial" font-size="9" font-style="normal" font-weight="bold" text-anchor="middle">  96A </text>
<circle cx="430.81" cy="390.68" r="16.11" fill="#d2d2d2" stroke="#bfbfbf" stroke-width="2" stroke-linejoin="round" stroke-linecap="round" />
<text x="430.81" y="388.88" fill="black" font-family="Arial" font-size="9" font-style="normal" font-weight="bold" text-anchor="middle">  ASP </text>
<text x="430.81" y="397.88" fill="black" font-family="Arial" font-size="9" font-style="normal" font-weight="bold" text-anchor="middle">  99A </text>
<circle cx="442.80" cy="114.55" r="16.11" fill="#d2d2d2" stroke="#bfbfbf" stroke-width="2" stroke-linejoin="round" stroke-linecap="round" />
<text x="442.80" y="112.95" fill="black" font-family="Arial" font-size="8" font-style="normal" font-weight="bold" text-anchor="middle">  ARG </text>
<text x="442.80" y="120.95" fill="black" font-family="Arial" font-size="8" font-style="normal" font-weight="bold" text-anchor="middle">  103A </text>
<path d="M 484.29 395.11 L 495.46 408.00 C 496.64 410.05 497.18 412.07 497.18 414.44 C 497.18 421.56 491.41 427.33 484.29 427.33 C 477.18 427.33 471.40 421.56 471.40 414.44 C 471.40 412.07 471.95 410.05 473.13 408.00 Z" fill="#d2d2d2" stroke="#bfbfbf" stroke-width="2" stroke-linejoin="round" stroke-linecap="round" />
<text x="484.29" y="411.55" fill="black" font-family="Arial" font-size="8" font-style="normal" font-weight="bold" text-anchor="middle">  HOH </text>
<text x="484.29" y="419.55" fill="black" font-family="Arial" font-size="8" font-style="normal" font-weight="bold" text-anchor="middle">  136A </text>
<circle cx="517.88" cy="490.99" r="16.11" fill="#d2d2d2" stroke="#bfbfbf" stroke-width="2" stroke-linejoin="round" stroke-linecap="round" />
<text x="517.88" y="489.39" fill="black" font-family="Arial" font-size="8" font-style="normal" font-weight="bold" text-anchor="middle">  LEU </text>
<text x="517.88" y="497.39" fill="black" font-family="Arial" font-size="8" font-style="normal" font-weight="bold" text-anchor="middle">  141A </text>
<circle cx="344.06" cy="360.95" r="16.11" fill="#d2d2d2" stroke="#bfbfbf" stroke-width="2" stroke-linejoin="round" stroke-linecap="round" />
<text x="344.06" y="359.35" fill="black" font-family="Arial" font-size="8" font-style="normal" font-weight="bold" text-anchor="middle">  ASP </text>
<text x="344.06" y="367.35" fill="black" font-family="Arial" font-size="8" font-style="normal" font-weight="bold" text-anchor="middle">  152A </text>
<path d="M 393.38 143.14 L 404.54 156.03 C 405.73 158.09 406.27 160.10 406.27 162.48 C 406.27 169.60 400.49 175.37 393.38 175.37 C 386.26 175.37 380.49 169.60 380.49 162.48 C 380.49 160.10 381.03 158.09 382.21 156.03 Z" fill="#d2d2d2" stroke="#bfbfbf" stroke-width="2" stroke-linejoin="round" stroke-linecap="round" />
<text x="393.38" y="159.59" fill="black" font-family="Arial" font-size="8" font-style="normal" font-weight="bold" text-anchor="middle">  HOH </text>
<text x="393.38" y="167.59" fill="black" font-family="Arial" font-size="8" font-style="normal" font-weight="bold" text-anchor="middle">  421A </text>
<path d="M 354.81 272.32 L 365.97 285.21 C 367.16 287.26 367.70 289.28 367.70 291.65 C 367.70 298.77 361.93 304.54 354.81 304.54 C 347.69 304.54 341.92 298.77 341.92 291.65 C 341.92 289.28 342.46 287.26 343.64 285.21 Z" fill="#d2d2d2" stroke="#bfbfbf" stroke-width="2" stroke-linejoin="round" stroke-linecap="round" />
<text x="354.81" y="288.96" fill="black" font-family="Arial" font-size="7" font-style="normal" font-weight="bold" text-anchor="middle">  HOH </text>
<text x="354.81" y="295.96" fill="black" font-family="Arial" font-size="7" font-style="normal" font-weight="bold" text-anchor="middle">  1082A </text>
<path d="M 381.82 311.71 L 392.98 324.60 C 394.17 326.65 394.71 328.67 394.71 331.04 C 394.71 338.16 388.94 343.93 381.82 343.93 C 374.70 343.93 368.93 338.16 368.93 331.04 C 368.93 328.67 369.47 326.65 370.66 324.60 Z" fill="#d2d2d2" stroke="#bfbfbf" stroke-width="2" stroke-linejoin="round" stroke-linecap="round" />
<text x="381.82" y="328.35" fill="black" font-family="Arial" font-size="7" font-style="normal" font-weight="bold" text-anchor="middle">  HOH </text>
<text x="381.82" y="335.35" fill="black" font-family="Arial" font-size="7" font-style="normal" font-weight="bold" text-anchor="middle">  1226A </text>
<path d="M 498.01 432.34 L 509.17 445.23 C 510.36 447.28 510.90 449.30 510.90 451.67 C 510.90 458.79 505.13 464.56 498.01 464.56 C 490.89 464.56 485.12 458.79 485.12 451.67 C 485.12 449.30 485.66 447.28 486.85 445.23 Z" fill="#d2d2d2" stroke="#bfbfbf" stroke-width="2" stroke-linejoin="round" stroke-linecap="round" />
<text x="498.01" y="448.99" fill="black" font-family="Arial" font-size="7" font-style="normal" font-weight="bold" text-anchor="middle">  HOH </text>
<text x="498.01" y="455.99" fill="black" font-family="Arial" font-size="7" font-style="normal" font-weight="bold" text-anchor="middle">  1892A </text>
<path d="M 357.89 161.21 L 369.05 174.10 C 370.23 176.16 370.77 178.18 370.77 180.55 C 370.77 187.67 365.00 193.44 357.89 193.44 C 350.77 193.44 345.00 187.67 345.00 180.55 C 345.00 178.18 345.54 176.16 346.72 174.10 Z" fill="#d2d2d2" stroke="#bfbfbf" stroke-width="2" stroke-linejoin="round" stroke-linecap="round" />
<text x="357.89" y="177.86" fill="black" font-family="Arial" font-size="7" font-style="normal" font-weight="bold" text-anchor="middle">  HOH </text>
<text x="357.89" y="184.86" fill="black" font-family="Arial" font-size="7" font-style="normal" font-weight="bold" text-anchor="middle">  1981A </text>
<path d="M 472.57 143.20 L 483.73 156.09 C 484.92 158.15 485.46 160.16 485.46 162.54 C 485.46 169.66 479.69 175.43 472.57 175.43 C 465.45 175.43 459.68 169.66 459.68 162.54 C 459.68 160.16 460.22 158.15 461.41 156.09 Z" fill="#d2d2d2" stroke="#bfbfbf" stroke-width="2" stroke-linejoin="round" stroke-linecap="round" />
<text x="472.57" y="159.85" fill="black" font-family="Arial" font-size="7" font-style="normal" font-weight="bold" text-anchor="middle">  HOH </text>
<text x="472.57" y="166.85" fill="black" font-family="Arial" font-size="7" font-style="normal" font-weight="bold" text-anchor="middle">  3307A </text>
<path d="M 538.95 116.98 L 550.12 129.87 C 551.30 131.93 551.84 133.95 551.84 136.32 C 551.84 143.44 546.07 149.21 538.95 149.21 C 531.84 149.21 526.06 143.44 526.06 136.32 C 526.06 133.95 526.60 131.93 527.79 129.87 Z" fill="#d2d2d2" stroke="#bfbfbf" stroke-width="2" stroke-linejoin="round" stroke-linecap="round" />
<text x="538.95" y="133.63" fill="black" font-family="Arial" font-size="7" font-style="normal" font-weight="bold" text-anchor="middle">  HOH </text>
<text x="538.95" y="140.63" fill="black" font-family="Arial" font-size="7" font-style="normal" font-weight="bold" text-anchor="middle">  4979A </text>
<path d="M 336.42 194.76 L 347.58 207.65 C 348.77 209.71 349.31 211.73 349.31 214.10 C 349.31 221.22 343.54 226.99 336.42 226.99 C 329.30 226.99 323.53 221.22 323.53 214.10 C 323.53 211.73 324.07 209.71 325.26 207.65 Z" fill="#d2d2d2" stroke="#bfbfbf" stroke-width="2" stroke-linejoin="round" stroke-linecap="round" />
<text x="336.42" y="211.41" fill="black" font-family="Arial" font-size="7" font-style="normal" font-weight="bold" text-anchor="middle">  HOH </text>
<text x="336.42" y="218.41" fill="black" font-family="Arial" font-size="7" font-style="normal" font-weight="bold" text-anchor="middle">  7544A </text>
<path d="M 470.94 354.65 L 482.10 367.54 C 483.29 369.59 483.83 371.61 483.83 373.98 C 483.83 381.10 478.06 386.87 470.94 386.87 C 463.82 386.87 458.05 381.10 458.05 373.98 C 458.05 371.61 458.59 369.59 459.78 367.54 Z" fill="#d2d2d2" stroke="#bfbfbf" stroke-width="2" stroke-linejoin="round" stroke-linecap="round" />
<text x="470.94" y="371.29" fill="black" font-family="Arial" font-size="7" font-style="normal" font-weight="bold" text-anchor="middle">  HOH </text>
<text x="470.94" y="378.29" fill="black" font-family="Arial" font-size="7" font-style="normal" font-weight="bold" text-anchor="middle">  8253A </text>
<path d="M 418.39 327.48 L 429.56 340.37 C 430.74 342.42 431.28 344.44 431.28 346.81 C 431.28 353.93 425.51 359.70 418.39 359.70 C 411.27 359.70 405.50 353.93 405.50 346.81 C 405.50 344.44 406.04 342.42 407.23 340.37 Z" fill="#d2d2d2" stroke="#bfbfbf" stroke-width="2" stroke-linejoin="round" stroke-linecap="round" />
<text x="418.39" y="344.12" fill="black" font-family="Arial" font-size="7" font-style="normal" font-weight="bold" text-anchor="middle">  HOH </text>
<text x="418.39" y="351.12" fill="black" font-family="Arial" font-size="7" font-style="normal" font-weight="bold" text-anchor="middle">  8428A </text>
<path d="M 334.89 234.56 L 346.05 247.45 C 347.24 249.51 347.78 251.52 347.78 253.90 C 347.78 261.01 342.01 266.79 334.89 266.79 C 327.77 266.79 322.00 261.01 322.00 253.90 C 322.00 251.52 322.54 249.51 323.73 247.45 Z" fill="#d2d2d2" stroke="#bfbfbf" stroke-width="2" stroke-linejoin="round" stroke-linecap="round" />
<text x="334.89" y="251.21" fill="black" font-family="Arial" font-size="7" font-style="normal" font-weight="bold" text-anchor="middle">  HOH </text>
<text x="334.89" y="258.21" fill="black" font-family="Arial" font-size="7" font-style="normal" font-weight="bold" text-anchor="middle">  8644A </text>
<line x1="630.24" y1="305.00" x2="643.67" y2="305.00" stroke="#64649b" stroke-width="2" stroke-linejoin="round" stroke-linecap="round" />
<line x1="650.38" y1="308.36" x2="654.86" y2="308.36" stroke="#64649b" stroke-width="3" stroke-linejoin="round" />
<line x1="650.38" y1="301.64" x2="654.86" y2="301.64" stroke="#64649b" stroke-width="3" stroke-linejoin="round" />
<path d="M 647.02 311.71 C 643.32 311.71 640.31 308.71 640.31 305.00 C 640.31 301.29 643.32 298.29 647.02 298.29 L 650.38 298.29 L 650.38 311.71 Z" fill="#c8c8ff" stroke="#64649b" stroke-linejoin="round" stroke-linecap="round" />
<line x1="355.45" y1="349.55" x2="364.95" y2="340.06" stroke="#64649b" stroke-width="2" stroke-linejoin="round" stroke-linecap="round" />
<line x1="372.07" y1="337.68" x2="375.23" y2="334.52" stroke="#64649b" stroke-width="3" stroke-linejoin="round" />
<line x1="367.32" y1="332.94" x2="370.49" y2="329.77" stroke="#64649b" stroke-width="3" stroke-linejoin="round" />
<path d="M 372.07 342.43 C 369.45 345.05 365.19 345.05 362.57 342.43 C 359.95 339.81 359.95 335.56 362.57 332.94 L 364.95 330.56 L 374.44 340.06 Z" fill="#c8c8ff" stroke="#64649b" stroke-linejoin="round" stroke-linecap="round" />
<line x1="695.07" y1="546.05" x2="689.39" y2="533.88" stroke="#64649b" stroke-width="2" stroke-linejoin="round" stroke-linecap="round" />
<line x1="689.60" y1="526.37" x2="687.71" y2="522.32" stroke="#64649b" stroke-width="3" stroke-linejoin="round" />
<line x1="683.51" y1="529.21" x2="681.62" y2="525.16" stroke="#64649b" stroke-width="3" stroke-linejoin="round" />
<path d="M 694.06 528.00 C 695.62 531.36 694.17 535.35 690.81 536.92 C 687.45 538.49 683.46 537.03 681.89 533.67 L 680.47 530.63 L 692.64 524.96 Z" fill="#c8c8ff" stroke="#64649b" stroke-linejoin="round" stroke-linecap="round" />
<circle cx="27.43" cy="39.50" r="15.36" fill="none" stroke="black" stroke-linejoin="round" stroke-linecap="round" />
<path d="M 27.43 68.30 L 38.07 80.59 C 39.20 82.54 39.71 84.47 39.71 86.73 C 39.71 93.51 34.21 99.01 27.43 99.01 C 20.64 99.01 15.14 93.51 15.14 86.73 C 15.14 84.47 15.66 82.54 16.79 80.59 Z" fill="none" stroke="black" stroke-linejoin="round" stroke-linecap="round" />
<line x1="12.07" y1="155.50" x2="35.11" y2="155.50" stroke="#64649b" stroke-linejoin="round" stroke-linecap="round" />
<line x1="42.79" y1="159.34" x2="47.90" y2="159.34" stroke="#64649b" stroke-width="3" stroke-linejoin="round" />
<line x1="42.79" y1="151.66" x2="47.90" y2="151.66" stroke="#64649b" stroke-width="3" stroke-linejoin="round" />
<path d="M 38.95 163.18 C 34.71 163.18 31.27 159.74 31.27 155.50 C 31.27 151.26 34.71 147.82 38.95 147.82 L 42.79 147.82 L 42.79 163.18 Z" fill="#c8c8ff" stroke="#64649b" stroke-linejoin="round" stroke-linecap="round" />
<text x="55.07" y="44.50" fill="black" font-family="Arial" font-size="15" font-style="normal" font-weight="bold" text-anchor="start">  amino acid </text>
<text x="55.07" y="90.50" fill="black" font-family="Arial" font-size="15" font-style="normal" font-weight="bold" text-anchor="start">  water </text>
<text x="55.07" y="160.50" fill="black" font-family="Arial" font-size="15" font-style="normal" font-weight="bold" text-anchor="start">  unpaired donor </text>
<path d="M 13.50 10.80 L 166.50 10.80 C 170.48 10.80 173.70 14.02 173.70 18.00 L 173.70 102.50 C 173.70 106.48 170.48 109.70 166.50 109.70 L 13.50 109.70 C 9.52 109.70 6.30 106.48 6.30 102.50 L 6.30 18.00 C 6.30 14.02 9.52 10.80 13.50 10.80 Z" fill="none" stroke="#bfbfbf" stroke-width="3" stroke-linejoin="round" stroke-linecap="round" />
<rect x="34.54" y="4.5" width="110.91" height="9" fill="white" stroke="white" stroke-linejoin="round" stroke-linecap="round" />
<text x="90.00" y="13.67" fill="black" font-family="Arial" font-size="14" font-style="normal" font-weight="bold" text-anchor="middle">  Residue Styles </text>
<path d="M 13.50 126.80 L 166.50 126.80 C 170.48 126.80 173.70 130.02 173.70 134.00 L 173.70 172.50 C 173.70 176.48 170.48 179.70 166.50 179.70 L 13.50 179.70 C 9.52 179.70 6.30 176.48 6.30 172.50 L 6.30 134.00 C 6.30 130.02 9.52 126.80 13.50 126.80 Z" fill="none" stroke="#bfbfbf" stroke-width="3" stroke-linejoin="round" stroke-linecap="round" />
<rect x="25.6" y="120.5" width="128.8" height="9" fill="white" stroke="white" stroke-linejoin="round" stroke-linecap="round" />
<text x="90.00" y="129.67" fill="black" font-family="Arial" font-size="14" font-style="normal" font-weight="bold" text-anchor="middle">  Interaction Styles </text>
<path d="M 10.50 0.50 L 889.50 0.50 C 895.02 0.50 899.50 4.98 899.50 10.50 L 899.50 589.50 C 899.50 595.02 895.02 599.50 889.50 599.50 L 10.50 599.50 C 4.98 599.50 0.50 595.02 0.50 589.50 L 0.50 10.50 C 0.50 4.98 4.98 0.50 10.50 0.50 Z" fill="none" stroke="#bfbfbf" stroke-linejoin="round" stroke-linecap="round" />
</svg>
